{
	"asset":{
		"generator":"Khronos glTF Blender I/O v4.4.55",
		"version":"2.0"
	},
	"extensionsUsed":[
		"KHR_materials_emissive_strength"
	],
	"scene":0,
	"scenes":[
		{
			"name":"Scene",
			"nodes":[
				1,
				3,
				5,
				7
			]
		}
	],
	"nodes":[
		{
			"mesh":0,
			"name":"Flame.001",
			"translation":[
				0,
				0.11249449849128723,
				0
			]
		},
		{
			"children":[
				0
			],
			"mesh":1,
			"name":"Candle",
			"rotation":[
				0,
				0.2666466534137726,
				0,
				0.963794469833374
			],
			"translation":[
				-1.473259687423706,
				0.09613337367773056,
				-1.2273517847061157
			]
		},
		{
			"mesh":0,
			"name":"Flame.002",
			"translation":[
				0,
				0.11249451339244843,
				0
			]
		},
		{
			"children":[
				2
			],
			"mesh":1,
			"name":"Candle.062",
			"rotation":[
				0,
				0.870053231716156,
				0,
				0.4929580092430115
			],
			"translation":[
				-1.262794017791748,
				0.16228662431240082,
				1.4319102764129639
			]
		},
		{
			"mesh":0,
			"name":"Flame.003",
			"translation":[
				0,
				0.11249451339244843,
				0
			]
		},
		{
			"children":[
				4
			],
			"mesh":1,
			"name":"Candle.063",
			"rotation":[
				0,
				-0.9637942910194397,
				0,
				0.2666468918323517
			],
			"translation":[
				1.4732601642608643,
				0.09826900064945221,
				1.2273515462875366
			]
		},
		{
			"mesh":0,
			"name":"Flame.004",
			"translation":[
				0,
				0.11249451339244843,
				0
			]
		},
		{
			"children":[
				6
			],
			"mesh":1,
			"name":"Candle.064",
			"rotation":[
				0,
				-0.4929579198360443,
				0,
				0.8700531721115112
			],
			"translation":[
				1.262794017791748,
				0.08199439197778702,
				-1.431910514831543
			]
		}
	],
	"animations":[
		{
			"channels":[
				{
					"sampler":0,
					"target":{
						"node":0,
						"path":"scale"
					}
				},
				{
					"sampler":1,
					"target":{
						"node":2,
						"path":"scale"
					}
				},
				{
					"sampler":2,
					"target":{
						"node":4,
						"path":"scale"
					}
				},
				{
					"sampler":3,
					"target":{
						"node":6,
						"path":"scale"
					}
				}
			],
			"name":"IcosphereAction",
			"samplers":[
				{
					"input":8,
					"interpolation":"LINEAR",
					"output":9
				},
				{
					"input":8,
					"interpolation":"LINEAR",
					"output":10
				},
				{
					"input":8,
					"interpolation":"LINEAR",
					"output":11
				},
				{
					"input":8,
					"interpolation":"LINEAR",
					"output":12
				}
			]
		}
	],
	"materials":[
		{
			"doubleSided":true,
			"emissiveFactor":[
				1,
				1,
				1
			],
			"emissiveTexture":{
				"index":0
			},
			"extensions":{
				"KHR_materials_emissive_strength":{
					"emissiveStrength":10
				}
			},
			"name":"Candle",
			"normalTexture":{
				"index":1,
				"scale":4
			},
			"pbrMetallicRoughness":{
				"baseColorTexture":{
					"index":2
				},
				"metallicFactor":0,
				"roughnessFactor":0.24622362852096558
			}
		}
	],
	"meshes":[
		{
			"name":"Icosphere",
			"primitives":[
				{
					"attributes":{
						"POSITION":0,
						"NORMAL":1,
						"TEXCOORD_0":2
					},
					"indices":3,
					"material":0
				}
			]
		},
		{
			"name":"Cylinder.011",
			"primitives":[
				{
					"attributes":{
						"POSITION":4,
						"NORMAL":5,
						"TEXCOORD_0":6
					},
					"indices":7,
					"material":0
				}
			]
		}
	],
	"textures":[
		{
			"sampler":0,
			"source":0
		},
		{
			"sampler":0,
			"source":1
		},
		{
			"sampler":0,
			"source":2
		}
	],
	"images":[
		{
			"mimeType":"image/jpeg",
			"name":"Candle Diffuse Bake",
			"uri":"tex/candle/Candle%20Diffuse%20Bake.jpg"
		},
		{
			"mimeType":"image/jpeg",
			"name":"Candle Normal",
			"uri":"tex/candle/Candle%20Normal.jpg"
		},
		{
			"mimeType":"image/jpeg",
			"name":"Candle Diffuse",
			"uri":"tex/candle/Candle%20Diffuse.jpg"
		}
	],
	"accessors":[
		{
			"bufferView":0,
			"componentType":5126,
			"count":63,
			"max":[
				0.005661367438733578,
				0.03986740484833717,
				0.005952704232186079
			],
			"min":[
				-0.005661367438733578,
				-0.00020385580137372017,
				-0.005952704232186079
			],
			"type":"VEC3"
		},
		{
			"bufferView":1,
			"componentType":5126,
			"count":63,
			"type":"VEC3"
		},
		{
			"bufferView":2,
			"componentType":5126,
			"count":63,
			"type":"VEC2"
		},
		{
			"bufferView":3,
			"componentType":5123,
			"count":240,
			"type":"SCALAR"
		},
		{
			"bufferView":4,
			"componentType":5126,
			"count":130,
			"max":[
				0.022210299968719482,
				0.12512452900409698,
				0.01924486830830574
			],
			"min":[
				-0.017798760905861855,
				-0.11355260014533997,
				-0.01940557360649109
			],
			"type":"VEC3"
		},
		{
			"bufferView":5,
			"componentType":5126,
			"count":130,
			"type":"VEC3"
		},
		{
			"bufferView":6,
			"componentType":5126,
			"count":130,
			"type":"VEC2"
		},
		{
			"bufferView":7,
			"componentType":5123,
			"count":582,
			"type":"SCALAR"
		},
		{
			"bufferView":8,
			"componentType":5126,
			"count":51,
			"max":[
				1.6666666666666667
			],
			"min":[
				0
			],
			"type":"SCALAR"
		},
		{
			"bufferView":9,
			"componentType":5126,
			"count":51,
			"type":"VEC3"
		},
		{
			"bufferView":10,
			"componentType":5126,
			"count":51,
			"type":"VEC3"
		},
		{
			"bufferView":11,
			"componentType":5126,
			"count":51,
			"type":"VEC3"
		},
		{
			"bufferView":12,
			"componentType":5126,
			"count":51,
			"type":"VEC3"
		}
	],
	"bufferViews":[
		{
			"buffer":0,
			"byteLength":756,
			"byteOffset":0,
			"target":34962
		},
		{
			"buffer":0,
			"byteLength":756,
			"byteOffset":756,
			"target":34962
		},
		{
			"buffer":0,
			"byteLength":504,
			"byteOffset":1512,
			"target":34962
		},
		{
			"buffer":0,
			"byteLength":480,
			"byteOffset":2016,
			"target":34963
		},
		{
			"buffer":0,
			"byteLength":1560,
			"byteOffset":2496,
			"target":34962
		},
		{
			"buffer":0,
			"byteLength":1560,
			"byteOffset":4056,
			"target":34962
		},
		{
			"buffer":0,
			"byteLength":1040,
			"byteOffset":5616,
			"target":34962
		},
		{
			"buffer":0,
			"byteLength":1164,
			"byteOffset":6656,
			"target":34963
		},
		{
			"buffer":0,
			"byteLength":204,
			"byteOffset":7820
		},
		{
			"buffer":0,
			"byteLength":612,
			"byteOffset":8024
		},
		{
			"buffer":0,
			"byteLength":612,
			"byteOffset":8636
		},
		{
			"buffer":0,
			"byteLength":612,
			"byteOffset":9248
		},
		{
			"buffer":0,
			"byteLength":612,
			"byteOffset":9860
		}
	],
	"samplers":[
		{
			"magFilter":9729,
			"minFilter":9987
		}
	],
	"buffers":[
		{
			"byteLength":10472,
			"uri":"candle.bin"
		}
	]
}
