{
	"asset":{
		"generator":"Khronos glTF Blender I/O v4.4.55",
		"version":"2.0"
	},
	"extensionsUsed":[
		"KHR_materials_specular"
	],
	"scene":0,
	"scenes":[
		{
			"name":"Scene",
			"nodes":[
				0
			]
		}
	],
	"nodes":[
		{
			"mesh":0,
			"name":"Candle Holder LP",
			"translation":[
				-1.2627968788146973,
				-0.09979711472988129,
				1.430018663406372
			]
		}
	],
	"materials":[
		{
			"doubleSided":true,
			"emissiveFactor":[
				1,
				1,
				1
			],
			"emissiveTexture":{
				"index":0
			},
			"extensions":{
				"KHR_materials_specular":{
					"specularTexture":{
						"index":1
					}
				}
			},
			"name":"Candle Holder",
			"normalTexture":{
				"index":2
			},
			"pbrMetallicRoughness":{
				"baseColorTexture":{
					"index":3
				},
				"metallicRoughnessTexture":{
					"index":4
				},
				"roughnessFactor":0.5
			}
		}
	],
	"meshes":[
		{
			"name":"Cylinder.012",
			"primitives":[
				{
					"attributes":{
						"POSITION":0,
						"NORMAL":1,
						"TEXCOORD_0":2,
						"COLOR_0":3,
						"COLOR_1":4
					},
					"indices":5,
					"material":0
				}
			]
		}
	],
	"textures":[
		{
			"sampler":0,
			"source":0
		},
		{
			"sampler":0,
			"source":1
		},
		{
			"sampler":0,
			"source":2
		},
		{
			"sampler":0,
			"source":3
		},
		{
			"sampler":0,
			"source":4
		}
	],
	"images":[
		{
			"mimeType":"image/jpeg",
			"name":"Candle Holder Diffuse Bake.jpg",
			"uri":"tex/candle_holder/Candle%20Holder%20Diffuse%20Bake.jpg"
		},
		{
			"mimeType":"image/jpeg",
			"name":"Candle Holder Specular.jpg",
			"uri":"tex/candle_holder/Candle%20Holder%20Specular.jpg"
		},
		{
			"mimeType":"image/jpeg",
			"name":"Candle Holder Normal.jpg",
			"uri":"tex/candle_holder/Candle%20Holder%20Normal.jpg"
		},
		{
			"mimeType":"image/jpeg",
			"name":"Candle Holder Diffuse.jpg",
			"uri":"tex/candle_holder/Candle%20Holder%20Diffuse.jpg"
		},
		{
			"mimeType":"image/jpeg",
			"name":"Candle Holder Metallic.jpg",
			"uri":"tex/candle_holder/Candle%20Holder%20Metallic.jpg"
		}
	],
	"accessors":[
		{
			"bufferView":0,
			"componentType":5126,
			"count":253,
			"max":[
				0.022141266614198685,
				0.17216840386390686,
				0.02337409369647503
			],
			"min":[
				-0.2251897156238556,
				-0.010321736335754395,
				-0.02113988623023033
			],
			"type":"VEC3"
		},
		{
			"bufferView":1,
			"componentType":5126,
			"count":253,
			"type":"VEC3"
		},
		{
			"bufferView":2,
			"componentType":5126,
			"count":253,
			"type":"VEC2"
		},
		{
			"bufferView":3,
			"componentType":5121,
			"count":253,
			"normalized":true,
			"type":"VEC4"
		},
		{
			"bufferView":4,
			"componentType":5123,
			"count":253,
			"normalized":true,
			"type":"VEC4"
		},
		{
			"bufferView":5,
			"componentType":5123,
			"count":1146,
			"type":"SCALAR"
		}
	],
	"bufferViews":[
		{
			"buffer":0,
			"byteLength":3036,
			"byteOffset":0,
			"target":34962
		},
		{
			"buffer":0,
			"byteLength":3036,
			"byteOffset":3036,
			"target":34962
		},
		{
			"buffer":0,
			"byteLength":2024,
			"byteOffset":6072,
			"target":34962
		},
		{
			"buffer":0,
			"byteLength":1012,
			"byteOffset":8096,
			"target":34962
		},
		{
			"buffer":0,
			"byteLength":2024,
			"byteOffset":9108,
			"target":34962
		},
		{
			"buffer":0,
			"byteLength":2292,
			"byteOffset":11132,
			"target":34963
		}
	],
	"samplers":[
		{
			"magFilter":9729,
			"minFilter":9987
		}
	],
	"buffers":[
		{
			"byteLength":13424,
			"uri":"candle_holder.bin"
		}
	]
}
