{
	"asset":{
		"generator":"Khronos glTF Blender I/O v4.4.55",
		"version":"2.0"
	},
	"extensionsUsed":[
		"KHR_materials_specular"
	],
	"scene":0,
	"scenes":[
		{
			"name":"Scene",
			"nodes":[
				0,
				1,
				2,
				3,
				4,
				5
			]
		}
	],
	"nodes":[
		{
			"mesh":0,
			"name":"Ceramic_001",
			"translation":[
				0.043074142187833786,
				0.24223290383815765,
				-0.06915965676307678
			]
		},
		{
			"mesh":1,
			"name":"Ceramic_001.002",
			"translation":[
				0.10191807150840759,
				0.25519824028015137,
				-0.05702347308397293
			]
		},
		{
			"mesh":2,
			"name":"Ceramic_001.003",
			"translation":[
				0.05894993990659714,
				0.22709141671657562,
				-0.0699603259563446
			]
		},
		{
			"mesh":3,
			"name":"Ceramic_001.004",
			"translation":[
				0.05595275014638901,
				0.26695775985717773,
				-0.06568457186222076
			]
		},
		{
			"mesh":4,
			"name":"Ceramic_001.001",
			"translation":[
				0.07942752540111542,
				0.22663843631744385,
				-0.06862977892160416
			]
		},
		{
			"mesh":5,
			"name":"Ceramic_001.005",
			"translation":[
				0.09855995327234268,
				0.28799566626548767,
				-0.05121020972728729
			]
		}
	],
	"animations":[
		{
			"channels":[
				{
					"sampler":0,
					"target":{
						"node":0,
						"path":"translation"
					}
				},
				{
					"sampler":1,
					"target":{
						"node":0,
						"path":"rotation"
					}
				}
			],
			"name":"Ceramic_001Action",
			"samplers":[
				{
					"input":30,
					"interpolation":"LINEAR",
					"output":31
				},
				{
					"input":30,
					"interpolation":"LINEAR",
					"output":32
				}
			]
		},
		{
			"channels":[
				{
					"sampler":0,
					"target":{
						"node":1,
						"path":"translation"
					}
				},
				{
					"sampler":1,
					"target":{
						"node":1,
						"path":"rotation"
					}
				}
			],
			"name":"Ceramic_001.002Action",
			"samplers":[
				{
					"input":30,
					"interpolation":"LINEAR",
					"output":33
				},
				{
					"input":30,
					"interpolation":"LINEAR",
					"output":34
				}
			]
		},
		{
			"channels":[
				{
					"sampler":0,
					"target":{
						"node":2,
						"path":"translation"
					}
				},
				{
					"sampler":1,
					"target":{
						"node":2,
						"path":"rotation"
					}
				}
			],
			"name":"Ceramic_001.003Action",
			"samplers":[
				{
					"input":30,
					"interpolation":"LINEAR",
					"output":35
				},
				{
					"input":30,
					"interpolation":"LINEAR",
					"output":36
				}
			]
		},
		{
			"channels":[
				{
					"sampler":0,
					"target":{
						"node":3,
						"path":"translation"
					}
				},
				{
					"sampler":1,
					"target":{
						"node":3,
						"path":"rotation"
					}
				}
			],
			"name":"Ceramic_001.004Action",
			"samplers":[
				{
					"input":30,
					"interpolation":"LINEAR",
					"output":37
				},
				{
					"input":30,
					"interpolation":"LINEAR",
					"output":38
				}
			]
		},
		{
			"channels":[
				{
					"sampler":0,
					"target":{
						"node":4,
						"path":"translation"
					}
				},
				{
					"sampler":1,
					"target":{
						"node":4,
						"path":"rotation"
					}
				}
			],
			"name":"Ceramic_001.001Action",
			"samplers":[
				{
					"input":30,
					"interpolation":"LINEAR",
					"output":39
				},
				{
					"input":30,
					"interpolation":"LINEAR",
					"output":40
				}
			]
		},
		{
			"channels":[
				{
					"sampler":0,
					"target":{
						"node":5,
						"path":"translation"
					}
				},
				{
					"sampler":1,
					"target":{
						"node":5,
						"path":"rotation"
					}
				}
			],
			"name":"Ceramic_001.005Action",
			"samplers":[
				{
					"input":30,
					"interpolation":"LINEAR",
					"output":41
				},
				{
					"input":30,
					"interpolation":"LINEAR",
					"output":42
				}
			]
		}
	],
	"materials":[
		{
			"doubleSided":true,
			"emissiveFactor":[
				1,
				1,
				1
			],
			"emissiveTexture":{
				"index":0
			},
			"extensions":{
				"KHR_materials_specular":{
					"specularTexture":{
						"index":1
					}
				}
			},
			"name":"BranaLP",
			"normalTexture":{
				"index":2
			},
			"pbrMetallicRoughness":{
				"baseColorTexture":{
					"index":3
				},
				"metallicRoughnessTexture":{
					"index":4
				},
				"roughnessFactor":0.5
			}
		}
	],
	"meshes":[
		{
			"name":"Plane.066",
			"primitives":[
				{
					"attributes":{
						"POSITION":0,
						"NORMAL":1,
						"TEXCOORD_0":2,
						"TEXCOORD_1":3
					},
					"indices":4,
					"material":0
				}
			]
		},
		{
			"name":"Plane.069",
			"primitives":[
				{
					"attributes":{
						"POSITION":5,
						"NORMAL":6,
						"TEXCOORD_0":7,
						"TEXCOORD_1":8
					},
					"indices":9,
					"material":0
				}
			]
		},
		{
			"name":"Plane.070",
			"primitives":[
				{
					"attributes":{
						"POSITION":10,
						"NORMAL":11,
						"TEXCOORD_0":12,
						"TEXCOORD_1":13
					},
					"indices":14,
					"material":0
				}
			]
		},
		{
			"name":"Plane.071",
			"primitives":[
				{
					"attributes":{
						"POSITION":15,
						"NORMAL":16,
						"TEXCOORD_0":17,
						"TEXCOORD_1":18
					},
					"indices":19,
					"material":0
				}
			]
		},
		{
			"name":"Plane.073",
			"primitives":[
				{
					"attributes":{
						"POSITION":20,
						"NORMAL":21,
						"TEXCOORD_0":22,
						"TEXCOORD_1":23
					},
					"indices":24,
					"material":0
				}
			]
		},
		{
			"name":"Plane.074",
			"primitives":[
				{
					"attributes":{
						"POSITION":25,
						"NORMAL":26,
						"TEXCOORD_0":27,
						"TEXCOORD_1":28
					},
					"indices":29,
					"material":0
				}
			]
		}
	],
	"textures":[
		{
			"sampler":0,
			"source":0
		},
		{
			"sampler":0,
			"source":1
		},
		{
			"sampler":0,
			"source":2
		},
		{
			"sampler":0,
			"source":3
		},
		{
			"sampler":0,
			"source":4
		}
	],
	"images":[
		{
			"mimeType":"image/jpeg",
			"name":"BranaLP Diffuse Baked.jpg",
			"uri":"tex/brana/BranaLP%20Diffuse%20Baked.jpg"
		},
		{
			"mimeType":"image/jpeg",
			"name":"BranaLP Specular.jpg",
			"uri":"tex/brana/BranaLP%20Specular.jpg"
		},
		{
			"mimeType":"image/jpeg",
			"name":"BranaLP Normal.jpg",
			"uri":"tex/brana/BranaLP%20Normal.jpg"
		},
		{
			"mimeType":"image/jpeg",
			"name":"BranaLP Diffuse.jpg",
			"uri":"tex/brana/BranaLP%20Diffuse.jpg"
		},
		{
			"mimeType":"image/jpeg",
			"name":"BranaLP Metallic.jpg",
			"uri":"tex/brana/BranaLP%20Metallic.jpg"
		}
	],
	"accessors":[
		{
			"bufferView":0,
			"componentType":5126,
			"count":74,
			"max":[
				0.015132063068449497,
				0.00815169233828783,
				0.010619547218084335
			],
			"min":[
				-0.01374911144375801,
				-0.01467407401651144,
				-0.009457000531256199
			],
			"type":"VEC3"
		},
		{
			"bufferView":1,
			"componentType":5126,
			"count":74,
			"type":"VEC3"
		},
		{
			"bufferView":2,
			"componentType":5126,
			"count":74,
			"type":"VEC2"
		},
		{
			"bufferView":3,
			"componentType":5126,
			"count":74,
			"type":"VEC2"
		},
		{
			"bufferView":4,
			"componentType":5123,
			"count":204,
			"type":"SCALAR"
		},
		{
			"bufferView":5,
			"componentType":5126,
			"count":181,
			"max":[
				0.024013841524720192,
				0.04411112889647484,
				0.02961878478527069
			],
			"min":[
				-0.02580859698355198,
				-0.05334872379899025,
				-0.01852838322520256
			],
			"type":"VEC3"
		},
		{
			"bufferView":6,
			"componentType":5126,
			"count":181,
			"type":"VEC3"
		},
		{
			"bufferView":7,
			"componentType":5126,
			"count":181,
			"type":"VEC2"
		},
		{
			"bufferView":8,
			"componentType":5126,
			"count":181,
			"type":"VEC2"
		},
		{
			"bufferView":9,
			"componentType":5123,
			"count":546,
			"type":"SCALAR"
		},
		{
			"bufferView":10,
			"componentType":5126,
			"count":106,
			"max":[
				0.01484538335353136,
				0.023985140025615692,
				0.013523111119866371
			],
			"min":[
				-0.020175691694021225,
				-0.02252792753279209,
				-0.009260590188205242
			],
			"type":"VEC3"
		},
		{
			"bufferView":11,
			"componentType":5126,
			"count":106,
			"type":"VEC3"
		},
		{
			"bufferView":12,
			"componentType":5126,
			"count":106,
			"type":"VEC2"
		},
		{
			"bufferView":13,
			"componentType":5126,
			"count":106,
			"type":"VEC2"
		},
		{
			"bufferView":14,
			"componentType":5123,
			"count":306,
			"type":"SCALAR"
		},
		{
			"bufferView":15,
			"componentType":5126,
			"count":144,
			"max":[
				0.030553355813026428,
				0.026529476046562195,
				0.01451891753822565
			],
			"min":[
				-0.03703314810991287,
				-0.021662499755620956,
				-0.011626274324953556
			],
			"type":"VEC3"
		},
		{
			"bufferView":16,
			"componentType":5126,
			"count":144,
			"type":"VEC3"
		},
		{
			"bufferView":17,
			"componentType":5126,
			"count":144,
			"type":"VEC2"
		},
		{
			"bufferView":18,
			"componentType":5126,
			"count":144,
			"type":"VEC2"
		},
		{
			"bufferView":19,
			"componentType":5123,
			"count":432,
			"type":"SCALAR"
		},
		{
			"bufferView":20,
			"componentType":5126,
			"count":124,
			"max":[
				0.025343462824821472,
				0.027350425720214844,
				0.013407731428742409
			],
			"min":[
				-0.0193052776157856,
				-0.02503887377679348,
				-0.009215625002980232
			],
			"type":"VEC3"
		},
		{
			"bufferView":21,
			"componentType":5126,
			"count":124,
			"type":"VEC3"
		},
		{
			"bufferView":22,
			"componentType":5126,
			"count":124,
			"type":"VEC2"
		},
		{
			"bufferView":23,
			"componentType":5126,
			"count":124,
			"type":"VEC2"
		},
		{
			"bufferView":24,
			"componentType":5123,
			"count":366,
			"type":"SCALAR"
		},
		{
			"bufferView":25,
			"componentType":5126,
			"count":118,
			"max":[
				0.027279609814286232,
				0.01402114424854517,
				0.022655239328742027
			],
			"min":[
				-0.01980660855770111,
				-0.018187550827860832,
				-0.018408197909593582
			],
			"type":"VEC3"
		},
		{
			"bufferView":26,
			"componentType":5126,
			"count":118,
			"type":"VEC3"
		},
		{
			"bufferView":27,
			"componentType":5126,
			"count":118,
			"type":"VEC2"
		},
		{
			"bufferView":28,
			"componentType":5126,
			"count":118,
			"type":"VEC2"
		},
		{
			"bufferView":29,
			"componentType":5123,
			"count":324,
			"type":"SCALAR"
		},
		{
			"bufferView":30,
			"componentType":5126,
			"count":120,
			"max":[
				4
			],
			"min":[
				0.03333333333333333
			],
			"type":"SCALAR"
		},
		{
			"bufferView":31,
			"componentType":5126,
			"count":120,
			"type":"VEC3"
		},
		{
			"bufferView":32,
			"componentType":5126,
			"count":120,
			"type":"VEC4"
		},
		{
			"bufferView":33,
			"componentType":5126,
			"count":120,
			"type":"VEC3"
		},
		{
			"bufferView":34,
			"componentType":5126,
			"count":120,
			"type":"VEC4"
		},
		{
			"bufferView":35,
			"componentType":5126,
			"count":120,
			"type":"VEC3"
		},
		{
			"bufferView":36,
			"componentType":5126,
			"count":120,
			"type":"VEC4"
		},
		{
			"bufferView":37,
			"componentType":5126,
			"count":120,
			"type":"VEC3"
		},
		{
			"bufferView":38,
			"componentType":5126,
			"count":120,
			"type":"VEC4"
		},
		{
			"bufferView":39,
			"componentType":5126,
			"count":120,
			"type":"VEC3"
		},
		{
			"bufferView":40,
			"componentType":5126,
			"count":120,
			"type":"VEC4"
		},
		{
			"bufferView":41,
			"componentType":5126,
			"count":120,
			"type":"VEC3"
		},
		{
			"bufferView":42,
			"componentType":5126,
			"count":120,
			"type":"VEC4"
		}
	],
	"bufferViews":[
		{
			"buffer":0,
			"byteLength":888,
			"byteOffset":0,
			"target":34962
		},
		{
			"buffer":0,
			"byteLength":888,
			"byteOffset":888,
			"target":34962
		},
		{
			"buffer":0,
			"byteLength":592,
			"byteOffset":1776,
			"target":34962
		},
		{
			"buffer":0,
			"byteLength":592,
			"byteOffset":2368,
			"target":34962
		},
		{
			"buffer":0,
			"byteLength":408,
			"byteOffset":2960,
			"target":34963
		},
		{
			"buffer":0,
			"byteLength":2172,
			"byteOffset":3368,
			"target":34962
		},
		{
			"buffer":0,
			"byteLength":2172,
			"byteOffset":5540,
			"target":34962
		},
		{
			"buffer":0,
			"byteLength":1448,
			"byteOffset":7712,
			"target":34962
		},
		{
			"buffer":0,
			"byteLength":1448,
			"byteOffset":9160,
			"target":34962
		},
		{
			"buffer":0,
			"byteLength":1092,
			"byteOffset":10608,
			"target":34963
		},
		{
			"buffer":0,
			"byteLength":1272,
			"byteOffset":11700,
			"target":34962
		},
		{
			"buffer":0,
			"byteLength":1272,
			"byteOffset":12972,
			"target":34962
		},
		{
			"buffer":0,
			"byteLength":848,
			"byteOffset":14244,
			"target":34962
		},
		{
			"buffer":0,
			"byteLength":848,
			"byteOffset":15092,
			"target":34962
		},
		{
			"buffer":0,
			"byteLength":612,
			"byteOffset":15940,
			"target":34963
		},
		{
			"buffer":0,
			"byteLength":1728,
			"byteOffset":16552,
			"target":34962
		},
		{
			"buffer":0,
			"byteLength":1728,
			"byteOffset":18280,
			"target":34962
		},
		{
			"buffer":0,
			"byteLength":1152,
			"byteOffset":20008,
			"target":34962
		},
		{
			"buffer":0,
			"byteLength":1152,
			"byteOffset":21160,
			"target":34962
		},
		{
			"buffer":0,
			"byteLength":864,
			"byteOffset":22312,
			"target":34963
		},
		{
			"buffer":0,
			"byteLength":1488,
			"byteOffset":23176,
			"target":34962
		},
		{
			"buffer":0,
			"byteLength":1488,
			"byteOffset":24664,
			"target":34962
		},
		{
			"buffer":0,
			"byteLength":992,
			"byteOffset":26152,
			"target":34962
		},
		{
			"buffer":0,
			"byteLength":992,
			"byteOffset":27144,
			"target":34962
		},
		{
			"buffer":0,
			"byteLength":732,
			"byteOffset":28136,
			"target":34963
		},
		{
			"buffer":0,
			"byteLength":1416,
			"byteOffset":28868,
			"target":34962
		},
		{
			"buffer":0,
			"byteLength":1416,
			"byteOffset":30284,
			"target":34962
		},
		{
			"buffer":0,
			"byteLength":944,
			"byteOffset":31700,
			"target":34962
		},
		{
			"buffer":0,
			"byteLength":944,
			"byteOffset":32644,
			"target":34962
		},
		{
			"buffer":0,
			"byteLength":648,
			"byteOffset":33588,
			"target":34963
		},
		{
			"buffer":0,
			"byteLength":480,
			"byteOffset":34236
		},
		{
			"buffer":0,
			"byteLength":1440,
			"byteOffset":34716
		},
		{
			"buffer":0,
			"byteLength":1920,
			"byteOffset":36156
		},
		{
			"buffer":0,
			"byteLength":1440,
			"byteOffset":38076
		},
		{
			"buffer":0,
			"byteLength":1920,
			"byteOffset":39516
		},
		{
			"buffer":0,
			"byteLength":1440,
			"byteOffset":41436
		},
		{
			"buffer":0,
			"byteLength":1920,
			"byteOffset":42876
		},
		{
			"buffer":0,
			"byteLength":1440,
			"byteOffset":44796
		},
		{
			"buffer":0,
			"byteLength":1920,
			"byteOffset":46236
		},
		{
			"buffer":0,
			"byteLength":1440,
			"byteOffset":48156
		},
		{
			"buffer":0,
			"byteLength":1920,
			"byteOffset":49596
		},
		{
			"buffer":0,
			"byteLength":1440,
			"byteOffset":51516
		},
		{
			"buffer":0,
			"byteLength":1920,
			"byteOffset":52956
		}
	],
	"samplers":[
		{
			"magFilter":9729,
			"minFilter":9987
		}
	],
	"buffers":[
		{
			"byteLength":54876,
			"uri":"Ceramic_001.bin"
		}
	]
}
