{
	"asset":{
		"generator":"Khronos glTF Blender I/O v4.4.55",
		"version":"2.0"
	},
	"extensionsUsed":[
		"KHR_materials_emissive_strength",
		"KHR_materials_specular"
	],
	"scene":0,
	"scenes":[
		{
			"name":"Scene",
			"nodes":[
				0
			]
		}
	],
	"nodes":[
		{
			"mesh":0,
			"name":"FloorLP",
			"translation":[
				0,
				-2,
				0
			]
		}
	],
	"materials":[
		{
			"doubleSided":true,
			"emissiveFactor":[
				1,
				1,
				1
			],
			"emissiveTexture":{
				"index":0
			},
			"extensions":{
				"KHR_materials_emissive_strength":{
					"emissiveStrength":5
				},
				"KHR_materials_specular":{
					"specularTexture":{
						"index":1
					}
				}
			},
			"name":"FloorLP",
			"normalTexture":{
				"index":2,
				"scale":2
			},
			"pbrMetallicRoughness":{
				"baseColorTexture":{
					"index":3
				},
				"metallicFactor":0,
				"roughnessFactor":0.5
			}
		}
	],
	"meshes":[
		{
			"name":"Plane.009",
			"primitives":[
				{
					"attributes":{
						"POSITION":0,
						"NORMAL":1,
						"TEXCOORD_0":2
					},
					"indices":3,
					"material":0
				}
			]
		}
	],
	"textures":[
		{
			"sampler":0,
			"source":0
		},
		{
			"sampler":0,
			"source":1
		},
		{
			"sampler":0,
			"source":2
		},
		{
			"sampler":0,
			"source":3
		}
	],
	"images":[
		{
			"mimeType":"image/jpeg",
			"name":"Floor Diffuse Bake",
			"uri":"tex/floor/Floor%20Diffuse%20Bake.jpg"
		},
		{
			"mimeType":"image/jpeg",
			"name":"Floor Specular",
			"uri":"tex/floor/Floor%20Specular.jpg"
		},
		{
			"mimeType":"image/jpeg",
			"name":"Floor Normal",
			"uri":"tex/floor/Floor%20Normal.jpg"
		},
		{
			"mimeType":"image/jpeg",
			"name":"Floor Diffuse",
			"uri":"tex/floor/Floor%20Diffuse.jpg"
		}
	],
	"accessors":[
		{
			"bufferView":0,
			"componentType":5126,
			"count":13309,
			"max":[
				4.505926609039307,
				0.035207293927669525,
				4.504221439361572
			],
			"min":[
				-4.503896236419678,
				-0.04723374918103218,
				-4.506555080413818
			],
			"type":"VEC3"
		},
		{
			"bufferView":1,
			"componentType":5126,
			"count":13309,
			"type":"VEC3"
		},
		{
			"bufferView":2,
			"componentType":5126,
			"count":13309,
			"type":"VEC2"
		},
		{
			"bufferView":3,
			"componentType":5123,
			"count":78642,
			"type":"SCALAR"
		}
	],
	"bufferViews":[
		{
			"buffer":0,
			"byteLength":159708,
			"byteOffset":0,
			"target":34962
		},
		{
			"buffer":0,
			"byteLength":159708,
			"byteOffset":159708,
			"target":34962
		},
		{
			"buffer":0,
			"byteLength":106472,
			"byteOffset":319416,
			"target":34962
		},
		{
			"buffer":0,
			"byteLength":157284,
			"byteOffset":425888,
			"target":34963
		}
	],
	"samplers":[
		{
			"magFilter":9729,
			"minFilter":9987
		}
	],
	"buffers":[
		{
			"byteLength":583172,
			"uri":"floor.bin"
		}
	]
}
