{
	"asset":{
		"generator":"Khronos glTF Blender I/O v4.4.55",
		"version":"2.0"
	},
	"extensionsUsed":[
		"KHR_materials_emissive_strength",
		"KHR_materials_specular"
	],
	"scene":0,
	"scenes":[
		{
			"name":"Scene",
			"nodes":[
				2,
				5,
				8,
				11
			]
		}
	],
	"nodes":[
		{
			"mesh":0,
			"name":"Candle Holder LP.001",
			"rotation":[
				0,
				-0.615177571773529,
				0,
				0.7883886098861694
			],
			"translation":[
				0,
				-0.2572420835494995,
				0
			]
		},
		{
			"mesh":1,
			"name":"Flame.001",
			"rotation":[
				0,
				-1,
				0,
				3.2320363629878557e-07
			],
			"scale":[
				0.9681957960128784,
				0.9681957364082336,
				0.9681957960128784
			],
			"translation":[
				0,
				0.11249449849128723,
				0
			]
		},
		{
			"children":[
				0,
				1
			],
			"mesh":2,
			"name":"Candle",
			"rotation":[
				0,
				0.2666466534137726,
				0,
				0.963794469833374
			],
			"translation":[
				-1.2158734798431396,
				0.09613337367773056,
				-1.2273517847061157
			]
		},
		{
			"mesh":0,
			"name":"Candle Holder LP",
			"rotation":[
				0,
				-0.615177571773529,
				0,
				0.788388729095459
			],
			"translation":[
				0.0016240477561950684,
				-0.2620837390422821,
				0.0009698867797851562
			]
		},
		{
			"mesh":3,
			"name":"Flame.002",
			"rotation":[
				0,
				0.7071070671081543,
				0,
				0.7071065902709961
			],
			"scale":[
				1.016406536102295,
				1.016406536102295,
				1.016406536102295
			],
			"translation":[
				0,
				0.11249451339244843,
				0
			]
		},
		{
			"children":[
				3,
				4
			],
			"mesh":2,
			"name":"Candle.062",
			"rotation":[
				0,
				0.870053231716156,
				0,
				0.4929580092430115
			],
			"translation":[
				-1.262794017791748,
				0.16228662431240082,
				1.4319102764129639
			]
		},
		{
			"mesh":0,
			"name":"Candle Holder LP.003",
			"rotation":[
				0,
				-0.6151776909828186,
				0,
				0.7883884906768799
			],
			"translation":[
				0,
				-0.24776867032051086,
				0
			]
		},
		{
			"mesh":4,
			"name":"Flame.003",
			"translation":[
				0,
				0.11249451339244843,
				0
			]
		},
		{
			"children":[
				6,
				7
			],
			"mesh":2,
			"name":"Candle.063",
			"rotation":[
				0,
				-0.9637942910194397,
				0,
				0.2666468918323517
			],
			"translation":[
				1.2261661291122437,
				0.09826900064945221,
				1.2273515462875366
			]
		},
		{
			"mesh":0,
			"name":"Candle Holder LP.002",
			"rotation":[
				0,
				-0.6151774525642395,
				0,
				0.788388729095459
			],
			"translation":[
				0,
				-0.2602384090423584,
				0
			]
		},
		{
			"mesh":5,
			"name":"Flame.004",
			"rotation":[
				0,
				-0.7071065902709961,
				0,
				0.7071070671081543
			],
			"scale":[
				0.9846017360687256,
				0.9846017360687256,
				0.9846017360687256
			],
			"translation":[
				0,
				0.11249451339244843,
				0
			]
		},
		{
			"children":[
				9,
				10
			],
			"mesh":2,
			"name":"Candle.064",
			"rotation":[
				0,
				-0.4929579198360443,
				0,
				0.8700531721115112
			],
			"translation":[
				1.2264577150344849,
				0.08199439197778702,
				-1.221124291419983
			]
		}
	],
	"animations":[
		{
			"channels":[
				{
					"sampler":0,
					"target":{
						"node":1,
						"path":"scale"
					}
				}
			],
			"name":"IcosphereAction.002",
			"samplers":[
				{
					"input":23,
					"interpolation":"LINEAR",
					"output":24
				}
			]
		},
		{
			"channels":[
				{
					"sampler":0,
					"target":{
						"node":4,
						"path":"scale"
					}
				}
			],
			"name":"IcosphereAction.003",
			"samplers":[
				{
					"input":23,
					"interpolation":"LINEAR",
					"output":25
				}
			]
		},
		{
			"channels":[
				{
					"sampler":0,
					"target":{
						"node":7,
						"path":"scale"
					}
				}
			],
			"name":"IcosphereAction",
			"samplers":[
				{
					"input":23,
					"interpolation":"LINEAR",
					"output":26
				}
			]
		},
		{
			"channels":[
				{
					"sampler":0,
					"target":{
						"node":10,
						"path":"scale"
					}
				}
			],
			"name":"IcosphereAction.001",
			"samplers":[
				{
					"input":23,
					"interpolation":"LINEAR",
					"output":27
				}
			]
		}
	],
	"materials":[
		{
			"doubleSided":true,
			"emissiveFactor":[
				1,
				1,
				1
			],
			"emissiveTexture":{
				"index":0
			},
			"extensions":{
				"KHR_materials_specular":{
					"specularTexture":{
						"index":1
					}
				}
			},
			"name":"Candle Holder",
			"normalTexture":{
				"index":2
			},
			"pbrMetallicRoughness":{
				"baseColorTexture":{
					"index":3
				},
				"metallicRoughnessTexture":{
					"index":4
				},
				"roughnessFactor":0.5
			}
		},
		{
			"doubleSided":true,
			"emissiveFactor":[
				1,
				1,
				1
			],
			"emissiveTexture":{
				"index":5
			},
			"extensions":{
				"KHR_materials_emissive_strength":{
					"emissiveStrength":10
				}
			},
			"name":"Candle",
			"normalTexture":{
				"index":6,
				"scale":4
			},
			"pbrMetallicRoughness":{
				"baseColorTexture":{
					"index":7
				},
				"metallicFactor":0,
				"roughnessFactor":0.24622362852096558
			}
		}
	],
	"meshes":[
		{
			"name":"Cylinder.012",
			"primitives":[
				{
					"attributes":{
						"POSITION":0,
						"NORMAL":1,
						"TEXCOORD_0":2,
						"COLOR_0":3,
						"COLOR_1":4
					},
					"indices":5,
					"material":0
				}
			]
		},
		{
			"name":"Icosphere.002",
			"primitives":[
				{
					"attributes":{
						"POSITION":6,
						"NORMAL":7,
						"TEXCOORD_0":8
					},
					"indices":9,
					"material":1
				}
			]
		},
		{
			"name":"Cylinder.011",
			"primitives":[
				{
					"attributes":{
						"POSITION":10,
						"NORMAL":11,
						"TEXCOORD_0":12
					},
					"indices":13,
					"material":1
				}
			]
		},
		{
			"name":"Icosphere.003",
			"primitives":[
				{
					"attributes":{
						"POSITION":14,
						"NORMAL":15,
						"TEXCOORD_0":16
					},
					"indices":9,
					"material":1
				}
			]
		},
		{
			"name":"Icosphere",
			"primitives":[
				{
					"attributes":{
						"POSITION":17,
						"NORMAL":18,
						"TEXCOORD_0":19
					},
					"indices":9,
					"material":1
				}
			]
		},
		{
			"name":"Icosphere.001",
			"primitives":[
				{
					"attributes":{
						"POSITION":20,
						"NORMAL":21,
						"TEXCOORD_0":22
					},
					"indices":9,
					"material":1
				}
			]
		}
	],
	"textures":[
		{
			"sampler":0,
			"source":0
		},
		{
			"sampler":0,
			"source":1
		},
		{
			"sampler":0,
			"source":2
		},
		{
			"sampler":0,
			"source":3
		},
		{
			"sampler":0,
			"source":4
		},
		{
			"sampler":0,
			"source":5
		},
		{
			"sampler":0,
			"source":6
		},
		{
			"sampler":0,
			"source":7
		}
	],
	"images":[
		{
			"mimeType":"image/jpeg",
			"name":"Candle Holder Diffuse Bake.jpg",
			"uri":"../tex/candle_holder/Candle%20Holder%20Diffuse%20Bake.jpg"
		},
		{
			"mimeType":"image/jpeg",
			"name":"Candle Holder Specular.jpg",
			"uri":"../tex/candle_holder/Candle%20Holder%20Specular.jpg"
		},
		{
			"mimeType":"image/jpeg",
			"name":"Candle Holder Normal.jpg",
			"uri":"../tex/candle_holder/Candle%20Holder%20Normal.jpg"
		},
		{
			"mimeType":"image/jpeg",
			"name":"Candle Holder Diffuse.jpg",
			"uri":"../tex/candle_holder/Candle%20Holder%20Diffuse.jpg"
		},
		{
			"mimeType":"image/jpeg",
			"name":"Candle Holder Metallic.jpg",
			"uri":"../tex/candle_holder/Candle%20Holder%20Metallic.jpg"
		},
		{
			"mimeType":"image/jpeg",
			"name":"Candle Diffuse Bake.jpg",
			"uri":"../tex/candle/Candle%20Diffuse%20Bake.jpg"
		},
		{
			"mimeType":"image/jpeg",
			"name":"Candle Normal",
			"uri":"../tex/candle/Candle%20Normal.jpg"
		},
		{
			"mimeType":"image/jpeg",
			"name":"Candle Diffuse",
			"uri":"../tex/candle/Candle%20Diffuse.jpg"
		}
	],
	"accessors":[
		{
			"bufferView":0,
			"componentType":5126,
			"count":253,
			"max":[
				0.022141266614198685,
				0.17216840386390686,
				0.02337409369647503
			],
			"min":[
				-0.2251897156238556,
				-0.010321736335754395,
				-0.02113988623023033
			],
			"type":"VEC3"
		},
		{
			"bufferView":1,
			"componentType":5126,
			"count":253,
			"type":"VEC3"
		},
		{
			"bufferView":2,
			"componentType":5126,
			"count":253,
			"type":"VEC2"
		},
		{
			"bufferView":3,
			"componentType":5121,
			"count":253,
			"normalized":true,
			"type":"VEC4"
		},
		{
			"bufferView":4,
			"componentType":5123,
			"count":253,
			"normalized":true,
			"type":"VEC4"
		},
		{
			"bufferView":5,
			"componentType":5123,
			"count":1146,
			"type":"SCALAR"
		},
		{
			"bufferView":6,
			"componentType":5126,
			"count":63,
			"max":[
				0.005661367438733578,
				0.03986740484833717,
				0.005952704232186079
			],
			"min":[
				-0.005661367438733578,
				-0.00020385580137372017,
				-0.005952704232186079
			],
			"type":"VEC3"
		},
		{
			"bufferView":7,
			"componentType":5126,
			"count":63,
			"type":"VEC3"
		},
		{
			"bufferView":8,
			"componentType":5126,
			"count":63,
			"type":"VEC2"
		},
		{
			"bufferView":9,
			"componentType":5123,
			"count":240,
			"type":"SCALAR"
		},
		{
			"bufferView":10,
			"componentType":5126,
			"count":130,
			"max":[
				0.022210299968719482,
				0.12512452900409698,
				0.01924486830830574
			],
			"min":[
				-0.017798760905861855,
				-0.11355260014533997,
				-0.01940557360649109
			],
			"type":"VEC3"
		},
		{
			"bufferView":11,
			"componentType":5126,
			"count":130,
			"type":"VEC3"
		},
		{
			"bufferView":12,
			"componentType":5126,
			"count":130,
			"type":"VEC2"
		},
		{
			"bufferView":13,
			"componentType":5123,
			"count":582,
			"type":"SCALAR"
		},
		{
			"bufferView":14,
			"componentType":5126,
			"count":63,
			"max":[
				0.005661367438733578,
				0.03986740484833717,
				0.005952704232186079
			],
			"min":[
				-0.005661367438733578,
				-0.00020385580137372017,
				-0.005952704232186079
			],
			"type":"VEC3"
		},
		{
			"bufferView":15,
			"componentType":5126,
			"count":63,
			"type":"VEC3"
		},
		{
			"bufferView":16,
			"componentType":5126,
			"count":63,
			"type":"VEC2"
		},
		{
			"bufferView":17,
			"componentType":5126,
			"count":63,
			"max":[
				0.005661367438733578,
				0.03986740484833717,
				0.005952704232186079
			],
			"min":[
				-0.005661367438733578,
				-0.00020385580137372017,
				-0.005952704232186079
			],
			"type":"VEC3"
		},
		{
			"bufferView":18,
			"componentType":5126,
			"count":63,
			"type":"VEC3"
		},
		{
			"bufferView":19,
			"componentType":5126,
			"count":63,
			"type":"VEC2"
		},
		{
			"bufferView":20,
			"componentType":5126,
			"count":63,
			"max":[
				0.005661367438733578,
				0.03986740484833717,
				0.005952704232186079
			],
			"min":[
				-0.005661367438733578,
				-0.00020385580137372017,
				-0.005952704232186079
			],
			"type":"VEC3"
		},
		{
			"bufferView":21,
			"componentType":5126,
			"count":63,
			"type":"VEC3"
		},
		{
			"bufferView":22,
			"componentType":5126,
			"count":63,
			"type":"VEC2"
		},
		{
			"bufferView":23,
			"componentType":5126,
			"count":50,
			"max":[
				1.6666666666666667
			],
			"min":[
				0.03333333333333333
			],
			"type":"SCALAR"
		},
		{
			"bufferView":24,
			"componentType":5126,
			"count":50,
			"type":"VEC3"
		},
		{
			"bufferView":25,
			"componentType":5126,
			"count":50,
			"type":"VEC3"
		},
		{
			"bufferView":26,
			"componentType":5126,
			"count":50,
			"type":"VEC3"
		},
		{
			"bufferView":27,
			"componentType":5126,
			"count":50,
			"type":"VEC3"
		}
	],
	"bufferViews":[
		{
			"buffer":0,
			"byteLength":3036,
			"byteOffset":0,
			"target":34962
		},
		{
			"buffer":0,
			"byteLength":3036,
			"byteOffset":3036,
			"target":34962
		},
		{
			"buffer":0,
			"byteLength":2024,
			"byteOffset":6072,
			"target":34962
		},
		{
			"buffer":0,
			"byteLength":1012,
			"byteOffset":8096,
			"target":34962
		},
		{
			"buffer":0,
			"byteLength":2024,
			"byteOffset":9108,
			"target":34962
		},
		{
			"buffer":0,
			"byteLength":2292,
			"byteOffset":11132,
			"target":34963
		},
		{
			"buffer":0,
			"byteLength":756,
			"byteOffset":13424,
			"target":34962
		},
		{
			"buffer":0,
			"byteLength":756,
			"byteOffset":14180,
			"target":34962
		},
		{
			"buffer":0,
			"byteLength":504,
			"byteOffset":14936,
			"target":34962
		},
		{
			"buffer":0,
			"byteLength":480,
			"byteOffset":15440,
			"target":34963
		},
		{
			"buffer":0,
			"byteLength":1560,
			"byteOffset":15920,
			"target":34962
		},
		{
			"buffer":0,
			"byteLength":1560,
			"byteOffset":17480,
			"target":34962
		},
		{
			"buffer":0,
			"byteLength":1040,
			"byteOffset":19040,
			"target":34962
		},
		{
			"buffer":0,
			"byteLength":1164,
			"byteOffset":20080,
			"target":34963
		},
		{
			"buffer":0,
			"byteLength":756,
			"byteOffset":21244,
			"target":34962
		},
		{
			"buffer":0,
			"byteLength":756,
			"byteOffset":22000,
			"target":34962
		},
		{
			"buffer":0,
			"byteLength":504,
			"byteOffset":22756,
			"target":34962
		},
		{
			"buffer":0,
			"byteLength":756,
			"byteOffset":23260,
			"target":34962
		},
		{
			"buffer":0,
			"byteLength":756,
			"byteOffset":24016,
			"target":34962
		},
		{
			"buffer":0,
			"byteLength":504,
			"byteOffset":24772,
			"target":34962
		},
		{
			"buffer":0,
			"byteLength":756,
			"byteOffset":25276,
			"target":34962
		},
		{
			"buffer":0,
			"byteLength":756,
			"byteOffset":26032,
			"target":34962
		},
		{
			"buffer":0,
			"byteLength":504,
			"byteOffset":26788,
			"target":34962
		},
		{
			"buffer":0,
			"byteLength":200,
			"byteOffset":27292
		},
		{
			"buffer":0,
			"byteLength":600,
			"byteOffset":27492
		},
		{
			"buffer":0,
			"byteLength":600,
			"byteOffset":28092
		},
		{
			"buffer":0,
			"byteLength":600,
			"byteOffset":28692
		},
		{
			"buffer":0,
			"byteLength":600,
			"byteOffset":29292
		}
	],
	"samplers":[
		{
			"magFilter":9729,
			"minFilter":9987
		}
	],
	"buffers":[
		{
			"byteLength":29892,
			"uri":"candle.bin"
		}
	]
}
