{
	"asset":{
		"generator":"Khronos glTF Blender I/O v4.4.55",
		"version":"2.0"
	},
	"extensionsUsed":[
		"KHR_materials_specular"
	],
	"scene":0,
	"scenes":[
		{
			"name":"Scene",
			"nodes":[
				0,
				1,
				2,
				3,
				4,
				5
			]
		}
	],
	"nodes":[
		{
			"mesh":0,
			"name":"Ceramic005",
			"translation":[
				-0.08923344314098358,
				-0.5029592514038086,
				-0.05345300957560539
			]
		},
		{
			"mesh":1,
			"name":"Ceramic005_001",
			"translation":[
				-0.1360159069299698,
				-0.46168577671051025,
				-0.042892009019851685
			]
		},
		{
			"mesh":2,
			"name":"Ceramic005_002",
			"translation":[
				-0.09939473122358322,
				-0.46888989210128784,
				-0.05182639881968498
			]
		},
		{
			"mesh":3,
			"name":"Ceramic005_003",
			"translation":[
				-0.10508736222982407,
				-0.5157760977745056,
				-0.050137754529714584
			]
		},
		{
			"mesh":4,
			"name":"Ceramic005_004",
			"translation":[
				-0.11590881645679474,
				-0.4491840898990631,
				-0.047525372356176376
			]
		},
		{
			"mesh":5,
			"name":"Ceramic005_005",
			"translation":[
				-0.1321628838777542,
				-0.5001818537712097,
				-0.04461006447672844
			]
		}
	],
	"animations":[
		{
			"channels":[
				{
					"sampler":0,
					"target":{
						"node":0,
						"path":"translation"
					}
				},
				{
					"sampler":1,
					"target":{
						"node":0,
						"path":"rotation"
					}
				}
			],
			"name":"Ceramic005Action",
			"samplers":[
				{
					"input":30,
					"interpolation":"LINEAR",
					"output":31
				},
				{
					"input":30,
					"interpolation":"LINEAR",
					"output":32
				}
			]
		},
		{
			"channels":[
				{
					"sampler":0,
					"target":{
						"node":1,
						"path":"translation"
					}
				},
				{
					"sampler":1,
					"target":{
						"node":1,
						"path":"rotation"
					}
				}
			],
			"name":"Ceramic005.001Action",
			"samplers":[
				{
					"input":30,
					"interpolation":"LINEAR",
					"output":33
				},
				{
					"input":30,
					"interpolation":"LINEAR",
					"output":34
				}
			]
		},
		{
			"channels":[
				{
					"sampler":0,
					"target":{
						"node":2,
						"path":"translation"
					}
				},
				{
					"sampler":1,
					"target":{
						"node":2,
						"path":"rotation"
					}
				}
			],
			"name":"Ceramic005.002Action",
			"samplers":[
				{
					"input":30,
					"interpolation":"LINEAR",
					"output":35
				},
				{
					"input":30,
					"interpolation":"LINEAR",
					"output":36
				}
			]
		},
		{
			"channels":[
				{
					"sampler":0,
					"target":{
						"node":3,
						"path":"translation"
					}
				},
				{
					"sampler":1,
					"target":{
						"node":3,
						"path":"rotation"
					}
				}
			],
			"name":"Ceramic005.003Action",
			"samplers":[
				{
					"input":30,
					"interpolation":"LINEAR",
					"output":37
				},
				{
					"input":30,
					"interpolation":"LINEAR",
					"output":38
				}
			]
		},
		{
			"channels":[
				{
					"sampler":0,
					"target":{
						"node":4,
						"path":"translation"
					}
				},
				{
					"sampler":1,
					"target":{
						"node":4,
						"path":"rotation"
					}
				}
			],
			"name":"Ceramic005.004Action",
			"samplers":[
				{
					"input":30,
					"interpolation":"LINEAR",
					"output":39
				},
				{
					"input":30,
					"interpolation":"LINEAR",
					"output":40
				}
			]
		},
		{
			"channels":[
				{
					"sampler":0,
					"target":{
						"node":5,
						"path":"translation"
					}
				},
				{
					"sampler":1,
					"target":{
						"node":5,
						"path":"rotation"
					}
				}
			],
			"name":"Ceramic005.005Action",
			"samplers":[
				{
					"input":30,
					"interpolation":"LINEAR",
					"output":41
				},
				{
					"input":30,
					"interpolation":"LINEAR",
					"output":42
				}
			]
		}
	],
	"materials":[
		{
			"doubleSided":true,
			"emissiveFactor":[
				1,
				1,
				1
			],
			"emissiveTexture":{
				"index":0
			},
			"extensions":{
				"KHR_materials_specular":{
					"specularTexture":{
						"index":1
					}
				}
			},
			"name":"BranaLP",
			"normalTexture":{
				"index":2
			},
			"pbrMetallicRoughness":{
				"baseColorTexture":{
					"index":3
				},
				"metallicRoughnessTexture":{
					"index":4
				},
				"roughnessFactor":0.5
			}
		}
	],
	"meshes":[
		{
			"name":"Plane.046",
			"primitives":[
				{
					"attributes":{
						"POSITION":0,
						"NORMAL":1,
						"TEXCOORD_0":2,
						"TEXCOORD_1":3
					},
					"indices":4,
					"material":0
				}
			]
		},
		{
			"name":"Plane.092",
			"primitives":[
				{
					"attributes":{
						"POSITION":5,
						"NORMAL":6,
						"TEXCOORD_0":7,
						"TEXCOORD_1":8
					},
					"indices":9,
					"material":0
				}
			]
		},
		{
			"name":"Plane.093",
			"primitives":[
				{
					"attributes":{
						"POSITION":10,
						"NORMAL":11,
						"TEXCOORD_0":12,
						"TEXCOORD_1":13
					},
					"indices":14,
					"material":0
				}
			]
		},
		{
			"name":"Plane.094",
			"primitives":[
				{
					"attributes":{
						"POSITION":15,
						"NORMAL":16,
						"TEXCOORD_0":17,
						"TEXCOORD_1":18
					},
					"indices":19,
					"material":0
				}
			]
		},
		{
			"name":"Plane.095",
			"primitives":[
				{
					"attributes":{
						"POSITION":20,
						"NORMAL":21,
						"TEXCOORD_0":22,
						"TEXCOORD_1":23
					},
					"indices":24,
					"material":0
				}
			]
		},
		{
			"name":"Plane.096",
			"primitives":[
				{
					"attributes":{
						"POSITION":25,
						"NORMAL":26,
						"TEXCOORD_0":27,
						"TEXCOORD_1":28
					},
					"indices":29,
					"material":0
				}
			]
		}
	],
	"textures":[
		{
			"sampler":0,
			"source":0
		},
		{
			"sampler":0,
			"source":1
		},
		{
			"sampler":0,
			"source":2
		},
		{
			"sampler":0,
			"source":3
		},
		{
			"sampler":0,
			"source":4
		}
	],
	"images":[
		{
			"mimeType":"image/jpeg",
			"name":"BranaLP Diffuse Baked.jpg",
			"uri":"../tex/brana/BranaLP%20Diffuse%20Baked.jpg"
		},
		{
			"mimeType":"image/jpeg",
			"name":"BranaLP Specular.jpg",
			"uri":"../tex/brana/BranaLP%20Specular.jpg"
		},
		{
			"mimeType":"image/jpeg",
			"name":"BranaLP Normal.jpg",
			"uri":"../tex/brana/BranaLP%20Normal.jpg"
		},
		{
			"mimeType":"image/jpeg",
			"name":"BranaLP Diffuse.jpg",
			"uri":"../tex/brana/BranaLP%20Diffuse.jpg"
		},
		{
			"mimeType":"image/jpeg",
			"name":"BranaLP Metallic.jpg",
			"uri":"../tex/brana/BranaLP%20Metallic.jpg"
		}
	],
	"accessors":[
		{
			"bufferView":0,
			"componentType":5126,
			"count":74,
			"max":[
				0.01041686162352562,
				0.013797292485833168,
				0.015330594033002853
			],
			"min":[
				-0.014925923198461533,
				-0.02223080024123192,
				-0.01690889336168766
			],
			"type":"VEC3"
		},
		{
			"bufferView":1,
			"componentType":5126,
			"count":74,
			"type":"VEC3"
		},
		{
			"bufferView":2,
			"componentType":5126,
			"count":74,
			"type":"VEC2"
		},
		{
			"bufferView":3,
			"componentType":5126,
			"count":74,
			"type":"VEC2"
		},
		{
			"bufferView":4,
			"componentType":5123,
			"count":180,
			"type":"SCALAR"
		},
		{
			"bufferView":5,
			"componentType":5126,
			"count":64,
			"max":[
				0.013955569826066494,
				0.026814714074134827,
				0.005445089656859636
			],
			"min":[
				-0.027829963713884354,
				-0.028946775943040848,
				-0.008274118416011333
			],
			"type":"VEC3"
		},
		{
			"bufferView":6,
			"componentType":5126,
			"count":64,
			"type":"VEC3"
		},
		{
			"bufferView":7,
			"componentType":5126,
			"count":64,
			"type":"VEC2"
		},
		{
			"bufferView":8,
			"componentType":5126,
			"count":64,
			"type":"VEC2"
		},
		{
			"bufferView":9,
			"componentType":5123,
			"count":126,
			"type":"SCALAR"
		},
		{
			"bufferView":10,
			"componentType":5126,
			"count":127,
			"max":[
				0.02233351394534111,
				0.03495977073907852,
				0.014271414838731289
			],
			"min":[
				-0.024230238050222397,
				-0.02330140210688114,
				-0.03143467754125595
			],
			"type":"VEC3"
		},
		{
			"bufferView":11,
			"componentType":5126,
			"count":127,
			"type":"VEC3"
		},
		{
			"bufferView":12,
			"componentType":5126,
			"count":127,
			"type":"VEC2"
		},
		{
			"bufferView":13,
			"componentType":5126,
			"count":127,
			"type":"VEC2"
		},
		{
			"bufferView":14,
			"componentType":5123,
			"count":318,
			"type":"SCALAR"
		},
		{
			"bufferView":15,
			"componentType":5126,
			"count":105,
			"max":[
				0.023822380229830742,
				0.027137981727719307,
				0.012578900903463364
			],
			"min":[
				-0.04172945022583008,
				-0.028757041320204735,
				-0.02037479355931282
			],
			"type":"VEC3"
		},
		{
			"bufferView":16,
			"componentType":5126,
			"count":105,
			"type":"VEC3"
		},
		{
			"bufferView":17,
			"componentType":5126,
			"count":105,
			"type":"VEC2"
		},
		{
			"bufferView":18,
			"componentType":5126,
			"count":105,
			"type":"VEC2"
		},
		{
			"bufferView":19,
			"componentType":5123,
			"count":246,
			"type":"SCALAR"
		},
		{
			"bufferView":20,
			"componentType":5126,
			"count":89,
			"max":[
				0.016991952434182167,
				0.02223026379942894,
				0.010002468712627888
			],
			"min":[
				-0.014640221372246742,
				-0.03117053583264351,
				-0.02208581380546093
			],
			"type":"VEC3"
		},
		{
			"bufferView":21,
			"componentType":5126,
			"count":89,
			"type":"VEC3"
		},
		{
			"bufferView":22,
			"componentType":5126,
			"count":89,
			"type":"VEC2"
		},
		{
			"bufferView":23,
			"componentType":5126,
			"count":89,
			"type":"VEC2"
		},
		{
			"bufferView":24,
			"componentType":5123,
			"count":216,
			"type":"SCALAR"
		},
		{
			"bufferView":25,
			"componentType":5126,
			"count":54,
			"max":[
				0.023621229454874992,
				0.01745424047112465,
				0.007112555205821991
			],
			"min":[
				-0.025405919179320335,
				-0.03184255212545395,
				-0.004930724389851093
			],
			"type":"VEC3"
		},
		{
			"bufferView":26,
			"componentType":5126,
			"count":54,
			"type":"VEC3"
		},
		{
			"bufferView":27,
			"componentType":5126,
			"count":54,
			"type":"VEC2"
		},
		{
			"bufferView":28,
			"componentType":5126,
			"count":54,
			"type":"VEC2"
		},
		{
			"bufferView":29,
			"componentType":5123,
			"count":108,
			"type":"SCALAR"
		},
		{
			"bufferView":30,
			"componentType":5126,
			"count":120,
			"max":[
				4
			],
			"min":[
				0.03333333333333333
			],
			"type":"SCALAR"
		},
		{
			"bufferView":31,
			"componentType":5126,
			"count":120,
			"type":"VEC3"
		},
		{
			"bufferView":32,
			"componentType":5126,
			"count":120,
			"type":"VEC4"
		},
		{
			"bufferView":33,
			"componentType":5126,
			"count":120,
			"type":"VEC3"
		},
		{
			"bufferView":34,
			"componentType":5126,
			"count":120,
			"type":"VEC4"
		},
		{
			"bufferView":35,
			"componentType":5126,
			"count":120,
			"type":"VEC3"
		},
		{
			"bufferView":36,
			"componentType":5126,
			"count":120,
			"type":"VEC4"
		},
		{
			"bufferView":37,
			"componentType":5126,
			"count":120,
			"type":"VEC3"
		},
		{
			"bufferView":38,
			"componentType":5126,
			"count":120,
			"type":"VEC4"
		},
		{
			"bufferView":39,
			"componentType":5126,
			"count":120,
			"type":"VEC3"
		},
		{
			"bufferView":40,
			"componentType":5126,
			"count":120,
			"type":"VEC4"
		},
		{
			"bufferView":41,
			"componentType":5126,
			"count":120,
			"type":"VEC3"
		},
		{
			"bufferView":42,
			"componentType":5126,
			"count":120,
			"type":"VEC4"
		}
	],
	"bufferViews":[
		{
			"buffer":0,
			"byteLength":888,
			"byteOffset":0,
			"target":34962
		},
		{
			"buffer":0,
			"byteLength":888,
			"byteOffset":888,
			"target":34962
		},
		{
			"buffer":0,
			"byteLength":592,
			"byteOffset":1776,
			"target":34962
		},
		{
			"buffer":0,
			"byteLength":592,
			"byteOffset":2368,
			"target":34962
		},
		{
			"buffer":0,
			"byteLength":360,
			"byteOffset":2960,
			"target":34963
		},
		{
			"buffer":0,
			"byteLength":768,
			"byteOffset":3320,
			"target":34962
		},
		{
			"buffer":0,
			"byteLength":768,
			"byteOffset":4088,
			"target":34962
		},
		{
			"buffer":0,
			"byteLength":512,
			"byteOffset":4856,
			"target":34962
		},
		{
			"buffer":0,
			"byteLength":512,
			"byteOffset":5368,
			"target":34962
		},
		{
			"buffer":0,
			"byteLength":252,
			"byteOffset":5880,
			"target":34963
		},
		{
			"buffer":0,
			"byteLength":1524,
			"byteOffset":6132,
			"target":34962
		},
		{
			"buffer":0,
			"byteLength":1524,
			"byteOffset":7656,
			"target":34962
		},
		{
			"buffer":0,
			"byteLength":1016,
			"byteOffset":9180,
			"target":34962
		},
		{
			"buffer":0,
			"byteLength":1016,
			"byteOffset":10196,
			"target":34962
		},
		{
			"buffer":0,
			"byteLength":636,
			"byteOffset":11212,
			"target":34963
		},
		{
			"buffer":0,
			"byteLength":1260,
			"byteOffset":11848,
			"target":34962
		},
		{
			"buffer":0,
			"byteLength":1260,
			"byteOffset":13108,
			"target":34962
		},
		{
			"buffer":0,
			"byteLength":840,
			"byteOffset":14368,
			"target":34962
		},
		{
			"buffer":0,
			"byteLength":840,
			"byteOffset":15208,
			"target":34962
		},
		{
			"buffer":0,
			"byteLength":492,
			"byteOffset":16048,
			"target":34963
		},
		{
			"buffer":0,
			"byteLength":1068,
			"byteOffset":16540,
			"target":34962
		},
		{
			"buffer":0,
			"byteLength":1068,
			"byteOffset":17608,
			"target":34962
		},
		{
			"buffer":0,
			"byteLength":712,
			"byteOffset":18676,
			"target":34962
		},
		{
			"buffer":0,
			"byteLength":712,
			"byteOffset":19388,
			"target":34962
		},
		{
			"buffer":0,
			"byteLength":432,
			"byteOffset":20100,
			"target":34963
		},
		{
			"buffer":0,
			"byteLength":648,
			"byteOffset":20532,
			"target":34962
		},
		{
			"buffer":0,
			"byteLength":648,
			"byteOffset":21180,
			"target":34962
		},
		{
			"buffer":0,
			"byteLength":432,
			"byteOffset":21828,
			"target":34962
		},
		{
			"buffer":0,
			"byteLength":432,
			"byteOffset":22260,
			"target":34962
		},
		{
			"buffer":0,
			"byteLength":216,
			"byteOffset":22692,
			"target":34963
		},
		{
			"buffer":0,
			"byteLength":480,
			"byteOffset":22908
		},
		{
			"buffer":0,
			"byteLength":1440,
			"byteOffset":23388
		},
		{
			"buffer":0,
			"byteLength":1920,
			"byteOffset":24828
		},
		{
			"buffer":0,
			"byteLength":1440,
			"byteOffset":26748
		},
		{
			"buffer":0,
			"byteLength":1920,
			"byteOffset":28188
		},
		{
			"buffer":0,
			"byteLength":1440,
			"byteOffset":30108
		},
		{
			"buffer":0,
			"byteLength":1920,
			"byteOffset":31548
		},
		{
			"buffer":0,
			"byteLength":1440,
			"byteOffset":33468
		},
		{
			"buffer":0,
			"byteLength":1920,
			"byteOffset":34908
		},
		{
			"buffer":0,
			"byteLength":1440,
			"byteOffset":36828
		},
		{
			"buffer":0,
			"byteLength":1920,
			"byteOffset":38268
		},
		{
			"buffer":0,
			"byteLength":1440,
			"byteOffset":40188
		},
		{
			"buffer":0,
			"byteLength":1920,
			"byteOffset":41628
		}
	],
	"samplers":[
		{
			"magFilter":9729,
			"minFilter":9987
		}
	],
	"buffers":[
		{
			"byteLength":43548,
			"uri":"Ceramic005.bin"
		}
	]
}
