{
	"asset":{
		"generator":"Khronos glTF Blender I/O v4.4.55",
		"version":"2.0"
	},
	"scene":0,
	"scenes":[
		{
			"name":"Scene",
			"nodes":[
				0,
				1,
				2,
				3,
				4,
				5
			]
		}
	],
	"nodes":[
		{
			"mesh":0,
			"name":"Ceramic009",
			"translation":[
				-0.12248338758945465,
				-0.07460148632526398,
				-0.05984038487076759
			]
		},
		{
			"mesh":1,
			"name":"Ceramic009_001",
			"translation":[
				-0.14950726926326752,
				-0.09710696339607239,
				-0.053031761199235916
			]
		},
		{
			"mesh":2,
			"name":"Ceramic009_002",
			"translation":[
				-0.1195712611079216,
				-0.09683260321617126,
				-0.053736135363578796
			]
		},
		{
			"mesh":3,
			"name":"Ceramic009_003",
			"translation":[
				-0.14407657086849213,
				-0.12673205137252808,
				-0.04919559136033058
			]
		},
		{
			"mesh":4,
			"name":"Ceramic009_004",
			"translation":[
				-0.14810554683208466,
				-0.11362738162279129,
				-0.051077693700790405
			]
		},
		{
			"mesh":5,
			"name":"Ceramic009_005",
			"translation":[
				-0.12715870141983032,
				-0.13154780864715576,
				-0.04893333837389946
			]
		}
	],
	"animations":[
		{
			"channels":[
				{
					"sampler":0,
					"target":{
						"node":0,
						"path":"translation"
					}
				},
				{
					"sampler":1,
					"target":{
						"node":0,
						"path":"rotation"
					}
				}
			],
			"name":"Ceramic.031Action",
			"samplers":[
				{
					"input":30,
					"interpolation":"LINEAR",
					"output":31
				},
				{
					"input":30,
					"interpolation":"LINEAR",
					"output":32
				}
			]
		},
		{
			"channels":[
				{
					"sampler":0,
					"target":{
						"node":1,
						"path":"translation"
					}
				},
				{
					"sampler":1,
					"target":{
						"node":1,
						"path":"rotation"
					}
				}
			],
			"name":"Ceramic.001Action",
			"samplers":[
				{
					"input":30,
					"interpolation":"LINEAR",
					"output":33
				},
				{
					"input":30,
					"interpolation":"LINEAR",
					"output":34
				}
			]
		},
		{
			"channels":[
				{
					"sampler":0,
					"target":{
						"node":2,
						"path":"translation"
					}
				},
				{
					"sampler":1,
					"target":{
						"node":2,
						"path":"rotation"
					}
				}
			],
			"name":"Ceramic.002Action",
			"samplers":[
				{
					"input":30,
					"interpolation":"LINEAR",
					"output":35
				},
				{
					"input":30,
					"interpolation":"LINEAR",
					"output":36
				}
			]
		},
		{
			"channels":[
				{
					"sampler":0,
					"target":{
						"node":3,
						"path":"translation"
					}
				},
				{
					"sampler":1,
					"target":{
						"node":3,
						"path":"rotation"
					}
				}
			],
			"name":"Ceramic.003Action",
			"samplers":[
				{
					"input":30,
					"interpolation":"LINEAR",
					"output":37
				},
				{
					"input":30,
					"interpolation":"LINEAR",
					"output":38
				}
			]
		},
		{
			"channels":[
				{
					"sampler":0,
					"target":{
						"node":4,
						"path":"translation"
					}
				},
				{
					"sampler":1,
					"target":{
						"node":4,
						"path":"rotation"
					}
				}
			],
			"name":"Ceramic.004Action",
			"samplers":[
				{
					"input":30,
					"interpolation":"LINEAR",
					"output":39
				},
				{
					"input":30,
					"interpolation":"LINEAR",
					"output":40
				}
			]
		},
		{
			"channels":[
				{
					"sampler":0,
					"target":{
						"node":5,
						"path":"translation"
					}
				},
				{
					"sampler":1,
					"target":{
						"node":5,
						"path":"rotation"
					}
				}
			],
			"name":"Ceramic.005Action",
			"samplers":[
				{
					"input":30,
					"interpolation":"LINEAR",
					"output":41
				},
				{
					"input":30,
					"interpolation":"LINEAR",
					"output":42
				}
			]
		}
	],
	"materials":[
		{
			"doubleSided":true,
			"emissiveFactor":[
				1,
				1,
				1
			],
			"emissiveTexture":{
				"index":0
			},
			"name":"Harrow",
			"pbrMetallicRoughness":{
				"baseColorFactor":[
					0,
					0,
					0,
					1
				]
			}
		}
	],
	"meshes":[
		{
			"name":"Plane.051",
			"primitives":[
				{
					"attributes":{
						"POSITION":0,
						"NORMAL":1,
						"TEXCOORD_0":2,
						"TEXCOORD_1":3
					},
					"indices":4,
					"material":0
				}
			]
		},
		{
			"name":"Plane.111",
			"primitives":[
				{
					"attributes":{
						"POSITION":5,
						"NORMAL":6,
						"TEXCOORD_0":7,
						"TEXCOORD_1":8
					},
					"indices":9,
					"material":0
				}
			]
		},
		{
			"name":"Plane.112",
			"primitives":[
				{
					"attributes":{
						"POSITION":10,
						"NORMAL":11,
						"TEXCOORD_0":12,
						"TEXCOORD_1":13
					},
					"indices":14,
					"material":0
				}
			]
		},
		{
			"name":"Plane.113",
			"primitives":[
				{
					"attributes":{
						"POSITION":15,
						"NORMAL":16,
						"TEXCOORD_0":17,
						"TEXCOORD_1":18
					},
					"indices":19,
					"material":0
				}
			]
		},
		{
			"name":"Plane.114",
			"primitives":[
				{
					"attributes":{
						"POSITION":20,
						"NORMAL":21,
						"TEXCOORD_0":22,
						"TEXCOORD_1":23
					},
					"indices":24,
					"material":0
				}
			]
		},
		{
			"name":"Plane.115",
			"primitives":[
				{
					"attributes":{
						"POSITION":25,
						"NORMAL":26,
						"TEXCOORD_0":27,
						"TEXCOORD_1":28
					},
					"indices":29,
					"material":0
				}
			]
		}
	],
	"textures":[
		{
			"sampler":0,
			"source":0
		}
	],
	"images":[
		{
			"mimeType":"image/jpeg",
			"name":"BranaLP Diffuse Baked.jpg",
			"uri":"../tex/brana/BranaLP%20Diffuse%20Baked.jpg"
		}
	],
	"accessors":[
		{
			"bufferView":0,
			"componentType":5126,
			"count":85,
			"max":[
				0.020975548774003983,
				0.02273804508149624,
				0.010924234986305237
			],
			"min":[
				-0.01833653822541237,
				-0.012045834213495255,
				-0.018100721761584282
			],
			"type":"VEC3"
		},
		{
			"bufferView":1,
			"componentType":5126,
			"count":85,
			"type":"VEC3"
		},
		{
			"bufferView":2,
			"componentType":5126,
			"count":85,
			"type":"VEC2"
		},
		{
			"bufferView":3,
			"componentType":5126,
			"count":85,
			"type":"VEC2"
		},
		{
			"bufferView":4,
			"componentType":5123,
			"count":228,
			"type":"SCALAR"
		},
		{
			"bufferView":5,
			"componentType":5126,
			"count":90,
			"max":[
				0.017150986939668655,
				0.027642372995615005,
				0.008698015473783016
			],
			"min":[
				-0.022281508892774582,
				-0.01831006072461605,
				-0.011267980560660362
			],
			"type":"VEC3"
		},
		{
			"bufferView":6,
			"componentType":5126,
			"count":90,
			"type":"VEC3"
		},
		{
			"bufferView":7,
			"componentType":5126,
			"count":90,
			"type":"VEC2"
		},
		{
			"bufferView":8,
			"componentType":5126,
			"count":90,
			"type":"VEC2"
		},
		{
			"bufferView":9,
			"componentType":5123,
			"count":240,
			"type":"SCALAR"
		},
		{
			"bufferView":10,
			"componentType":5126,
			"count":97,
			"max":[
				0.014799633994698524,
				0.02003052830696106,
				0.008408062160015106
			],
			"min":[
				-0.017308637499809265,
				-0.03077419474720955,
				-0.014046245254576206
			],
			"type":"VEC3"
		},
		{
			"bufferView":11,
			"componentType":5126,
			"count":97,
			"type":"VEC3"
		},
		{
			"bufferView":12,
			"componentType":5126,
			"count":97,
			"type":"VEC2"
		},
		{
			"bufferView":13,
			"componentType":5126,
			"count":97,
			"type":"VEC2"
		},
		{
			"bufferView":14,
			"componentType":5123,
			"count":276,
			"type":"SCALAR"
		},
		{
			"bufferView":15,
			"componentType":5126,
			"count":100,
			"max":[
				0.02062341384589672,
				0.017145242542028427,
				0.006479346193373203
			],
			"min":[
				-0.02840244024991989,
				-0.015720730647444725,
				-0.010477034375071526
			],
			"type":"VEC3"
		},
		{
			"bufferView":16,
			"componentType":5126,
			"count":100,
			"type":"VEC3"
		},
		{
			"bufferView":17,
			"componentType":5126,
			"count":100,
			"type":"VEC2"
		},
		{
			"bufferView":18,
			"componentType":5126,
			"count":100,
			"type":"VEC2"
		},
		{
			"bufferView":19,
			"componentType":5123,
			"count":270,
			"type":"SCALAR"
		},
		{
			"bufferView":20,
			"componentType":5126,
			"count":130,
			"max":[
				0.02398882806301117,
				0.019696000963449478,
				0.007963122799992561
			],
			"min":[
				-0.029248004779219627,
				-0.019799545407295227,
				-0.011757997795939445
			],
			"type":"VEC3"
		},
		{
			"bufferView":21,
			"componentType":5126,
			"count":130,
			"type":"VEC3"
		},
		{
			"bufferView":22,
			"componentType":5126,
			"count":130,
			"type":"VEC2"
		},
		{
			"bufferView":23,
			"componentType":5126,
			"count":130,
			"type":"VEC2"
		},
		{
			"bufferView":24,
			"componentType":5123,
			"count":354,
			"type":"SCALAR"
		},
		{
			"bufferView":25,
			"componentType":5126,
			"count":74,
			"max":[
				0.01581037975847721,
				0.021024532616138458,
				0.0058750309981405735
			],
			"min":[
				-0.015528435818850994,
				-0.01774541288614273,
				-0.005766325630247593
			],
			"type":"VEC3"
		},
		{
			"bufferView":26,
			"componentType":5126,
			"count":74,
			"type":"VEC3"
		},
		{
			"bufferView":27,
			"componentType":5126,
			"count":74,
			"type":"VEC2"
		},
		{
			"bufferView":28,
			"componentType":5126,
			"count":74,
			"type":"VEC2"
		},
		{
			"bufferView":29,
			"componentType":5123,
			"count":192,
			"type":"SCALAR"
		},
		{
			"bufferView":30,
			"componentType":5126,
			"count":120,
			"max":[
				4
			],
			"min":[
				0.03333333333333333
			],
			"type":"SCALAR"
		},
		{
			"bufferView":31,
			"componentType":5126,
			"count":120,
			"type":"VEC3"
		},
		{
			"bufferView":32,
			"componentType":5126,
			"count":120,
			"type":"VEC4"
		},
		{
			"bufferView":33,
			"componentType":5126,
			"count":120,
			"type":"VEC3"
		},
		{
			"bufferView":34,
			"componentType":5126,
			"count":120,
			"type":"VEC4"
		},
		{
			"bufferView":35,
			"componentType":5126,
			"count":120,
			"type":"VEC3"
		},
		{
			"bufferView":36,
			"componentType":5126,
			"count":120,
			"type":"VEC4"
		},
		{
			"bufferView":37,
			"componentType":5126,
			"count":120,
			"type":"VEC3"
		},
		{
			"bufferView":38,
			"componentType":5126,
			"count":120,
			"type":"VEC4"
		},
		{
			"bufferView":39,
			"componentType":5126,
			"count":120,
			"type":"VEC3"
		},
		{
			"bufferView":40,
			"componentType":5126,
			"count":120,
			"type":"VEC4"
		},
		{
			"bufferView":41,
			"componentType":5126,
			"count":120,
			"type":"VEC3"
		},
		{
			"bufferView":42,
			"componentType":5126,
			"count":120,
			"type":"VEC4"
		}
	],
	"bufferViews":[
		{
			"buffer":0,
			"byteLength":1020,
			"byteOffset":0,
			"target":34962
		},
		{
			"buffer":0,
			"byteLength":1020,
			"byteOffset":1020,
			"target":34962
		},
		{
			"buffer":0,
			"byteLength":680,
			"byteOffset":2040,
			"target":34962
		},
		{
			"buffer":0,
			"byteLength":680,
			"byteOffset":2720,
			"target":34962
		},
		{
			"buffer":0,
			"byteLength":456,
			"byteOffset":3400,
			"target":34963
		},
		{
			"buffer":0,
			"byteLength":1080,
			"byteOffset":3856,
			"target":34962
		},
		{
			"buffer":0,
			"byteLength":1080,
			"byteOffset":4936,
			"target":34962
		},
		{
			"buffer":0,
			"byteLength":720,
			"byteOffset":6016,
			"target":34962
		},
		{
			"buffer":0,
			"byteLength":720,
			"byteOffset":6736,
			"target":34962
		},
		{
			"buffer":0,
			"byteLength":480,
			"byteOffset":7456,
			"target":34963
		},
		{
			"buffer":0,
			"byteLength":1164,
			"byteOffset":7936,
			"target":34962
		},
		{
			"buffer":0,
			"byteLength":1164,
			"byteOffset":9100,
			"target":34962
		},
		{
			"buffer":0,
			"byteLength":776,
			"byteOffset":10264,
			"target":34962
		},
		{
			"buffer":0,
			"byteLength":776,
			"byteOffset":11040,
			"target":34962
		},
		{
			"buffer":0,
			"byteLength":552,
			"byteOffset":11816,
			"target":34963
		},
		{
			"buffer":0,
			"byteLength":1200,
			"byteOffset":12368,
			"target":34962
		},
		{
			"buffer":0,
			"byteLength":1200,
			"byteOffset":13568,
			"target":34962
		},
		{
			"buffer":0,
			"byteLength":800,
			"byteOffset":14768,
			"target":34962
		},
		{
			"buffer":0,
			"byteLength":800,
			"byteOffset":15568,
			"target":34962
		},
		{
			"buffer":0,
			"byteLength":540,
			"byteOffset":16368,
			"target":34963
		},
		{
			"buffer":0,
			"byteLength":1560,
			"byteOffset":16908,
			"target":34962
		},
		{
			"buffer":0,
			"byteLength":1560,
			"byteOffset":18468,
			"target":34962
		},
		{
			"buffer":0,
			"byteLength":1040,
			"byteOffset":20028,
			"target":34962
		},
		{
			"buffer":0,
			"byteLength":1040,
			"byteOffset":21068,
			"target":34962
		},
		{
			"buffer":0,
			"byteLength":708,
			"byteOffset":22108,
			"target":34963
		},
		{
			"buffer":0,
			"byteLength":888,
			"byteOffset":22816,
			"target":34962
		},
		{
			"buffer":0,
			"byteLength":888,
			"byteOffset":23704,
			"target":34962
		},
		{
			"buffer":0,
			"byteLength":592,
			"byteOffset":24592,
			"target":34962
		},
		{
			"buffer":0,
			"byteLength":592,
			"byteOffset":25184,
			"target":34962
		},
		{
			"buffer":0,
			"byteLength":384,
			"byteOffset":25776,
			"target":34963
		},
		{
			"buffer":0,
			"byteLength":480,
			"byteOffset":26160
		},
		{
			"buffer":0,
			"byteLength":1440,
			"byteOffset":26640
		},
		{
			"buffer":0,
			"byteLength":1920,
			"byteOffset":28080
		},
		{
			"buffer":0,
			"byteLength":1440,
			"byteOffset":30000
		},
		{
			"buffer":0,
			"byteLength":1920,
			"byteOffset":31440
		},
		{
			"buffer":0,
			"byteLength":1440,
			"byteOffset":33360
		},
		{
			"buffer":0,
			"byteLength":1920,
			"byteOffset":34800
		},
		{
			"buffer":0,
			"byteLength":1440,
			"byteOffset":36720
		},
		{
			"buffer":0,
			"byteLength":1920,
			"byteOffset":38160
		},
		{
			"buffer":0,
			"byteLength":1440,
			"byteOffset":40080
		},
		{
			"buffer":0,
			"byteLength":1920,
			"byteOffset":41520
		},
		{
			"buffer":0,
			"byteLength":1440,
			"byteOffset":43440
		},
		{
			"buffer":0,
			"byteLength":1920,
			"byteOffset":44880
		}
	],
	"samplers":[
		{
			"magFilter":9729,
			"minFilter":9987
		}
	],
	"buffers":[
		{
			"byteLength":46800,
			"uri":"Ceramic009.bin"
		}
	]
}
