{
	"asset":{
		"generator":"Khronos glTF Blender I/O v4.4.55",
		"version":"2.0"
	},
	"extensionsUsed":[
		"KHR_materials_specular"
	],
	"scene":0,
	"scenes":[
		{
			"name":"Scene",
			"nodes":[
				0,
				1,
				2,
				3,
				4,
				5
			]
		}
	],
	"nodes":[
		{
			"mesh":0,
			"name":"Ceramic004",
			"translation":[
				0.04070069640874863,
				-0.11894705146551132,
				-0.05987577885389328
			]
		},
		{
			"mesh":1,
			"name":"Ceramic004_001",
			"translation":[
				0.03452402353286743,
				-0.06825510412454605,
				-0.034430600702762604
			]
		},
		{
			"mesh":2,
			"name":"Ceramic004_002",
			"translation":[
				0.0123097263276577,
				-0.051642708480358124,
				-0.03821859508752823
			]
		},
		{
			"mesh":3,
			"name":"Ceramic004_003",
			"translation":[
				0.05410288646817207,
				-0.11099556088447571,
				-0.052258558571338654
			]
		},
		{
			"mesh":4,
			"name":"Ceramic004_004",
			"translation":[
				0.0714302733540535,
				-0.1137891486287117,
				-0.05218898877501488
			]
		},
		{
			"mesh":5,
			"name":"Ceramic004_005",
			"translation":[
				0.058495163917541504,
				-0.0788826048374176,
				-0.03407634049654007
			]
		}
	],
	"animations":[
		{
			"channels":[
				{
					"sampler":0,
					"target":{
						"node":0,
						"path":"translation"
					}
				},
				{
					"sampler":1,
					"target":{
						"node":0,
						"path":"rotation"
					}
				}
			],
			"name":"Ceramic004Action",
			"samplers":[
				{
					"input":30,
					"interpolation":"LINEAR",
					"output":31
				},
				{
					"input":30,
					"interpolation":"LINEAR",
					"output":32
				}
			]
		},
		{
			"channels":[
				{
					"sampler":0,
					"target":{
						"node":1,
						"path":"translation"
					}
				},
				{
					"sampler":1,
					"target":{
						"node":1,
						"path":"rotation"
					}
				}
			],
			"name":"Ceramic004.001Action",
			"samplers":[
				{
					"input":30,
					"interpolation":"LINEAR",
					"output":33
				},
				{
					"input":30,
					"interpolation":"LINEAR",
					"output":34
				}
			]
		},
		{
			"channels":[
				{
					"sampler":0,
					"target":{
						"node":2,
						"path":"translation"
					}
				},
				{
					"sampler":1,
					"target":{
						"node":2,
						"path":"rotation"
					}
				}
			],
			"name":"Ceramic004.002Action",
			"samplers":[
				{
					"input":30,
					"interpolation":"LINEAR",
					"output":35
				},
				{
					"input":30,
					"interpolation":"LINEAR",
					"output":36
				}
			]
		},
		{
			"channels":[
				{
					"sampler":0,
					"target":{
						"node":3,
						"path":"translation"
					}
				},
				{
					"sampler":1,
					"target":{
						"node":3,
						"path":"rotation"
					}
				}
			],
			"name":"Ceramic004.003Action",
			"samplers":[
				{
					"input":30,
					"interpolation":"LINEAR",
					"output":37
				},
				{
					"input":30,
					"interpolation":"LINEAR",
					"output":38
				}
			]
		},
		{
			"channels":[
				{
					"sampler":0,
					"target":{
						"node":4,
						"path":"translation"
					}
				},
				{
					"sampler":1,
					"target":{
						"node":4,
						"path":"rotation"
					}
				}
			],
			"name":"Ceramic004.004Action",
			"samplers":[
				{
					"input":30,
					"interpolation":"LINEAR",
					"output":39
				},
				{
					"input":30,
					"interpolation":"LINEAR",
					"output":40
				}
			]
		},
		{
			"channels":[
				{
					"sampler":0,
					"target":{
						"node":5,
						"path":"translation"
					}
				},
				{
					"sampler":1,
					"target":{
						"node":5,
						"path":"rotation"
					}
				}
			],
			"name":"Ceramic004.005Action",
			"samplers":[
				{
					"input":30,
					"interpolation":"LINEAR",
					"output":41
				},
				{
					"input":30,
					"interpolation":"LINEAR",
					"output":42
				}
			]
		}
	],
	"materials":[
		{
			"doubleSided":true,
			"emissiveFactor":[
				1,
				1,
				1
			],
			"emissiveTexture":{
				"index":0
			},
			"extensions":{
				"KHR_materials_specular":{
					"specularTexture":{
						"index":1
					}
				}
			},
			"name":"BranaLP",
			"normalTexture":{
				"index":2
			},
			"pbrMetallicRoughness":{
				"baseColorTexture":{
					"index":3
				},
				"metallicRoughnessTexture":{
					"index":4
				},
				"roughnessFactor":0.5
			}
		}
	],
	"meshes":[
		{
			"name":"Plane.045",
			"primitives":[
				{
					"attributes":{
						"POSITION":0,
						"NORMAL":1,
						"TEXCOORD_0":2,
						"TEXCOORD_1":3
					},
					"indices":4,
					"material":0
				}
			]
		},
		{
			"name":"Plane.087",
			"primitives":[
				{
					"attributes":{
						"POSITION":5,
						"NORMAL":6,
						"TEXCOORD_0":7,
						"TEXCOORD_1":8
					},
					"indices":9,
					"material":0
				}
			]
		},
		{
			"name":"Plane.088",
			"primitives":[
				{
					"attributes":{
						"POSITION":10,
						"NORMAL":11,
						"TEXCOORD_0":12,
						"TEXCOORD_1":13
					},
					"indices":14,
					"material":0
				}
			]
		},
		{
			"name":"Plane.089",
			"primitives":[
				{
					"attributes":{
						"POSITION":15,
						"NORMAL":16,
						"TEXCOORD_0":17,
						"TEXCOORD_1":18
					},
					"indices":19,
					"material":0
				}
			]
		},
		{
			"name":"Plane.090",
			"primitives":[
				{
					"attributes":{
						"POSITION":20,
						"NORMAL":21,
						"TEXCOORD_0":22,
						"TEXCOORD_1":23
					},
					"indices":24,
					"material":0
				}
			]
		},
		{
			"name":"Plane.091",
			"primitives":[
				{
					"attributes":{
						"POSITION":25,
						"NORMAL":26,
						"TEXCOORD_0":27,
						"TEXCOORD_1":28
					},
					"indices":29,
					"material":0
				}
			]
		}
	],
	"textures":[
		{
			"sampler":0,
			"source":0
		},
		{
			"sampler":0,
			"source":1
		},
		{
			"sampler":0,
			"source":2
		},
		{
			"sampler":0,
			"source":3
		},
		{
			"sampler":0,
			"source":4
		}
	],
	"images":[
		{
			"mimeType":"image/jpeg",
			"name":"BranaLP Diffuse Baked.jpg",
			"uri":"../tex/brana/BranaLP%20Diffuse%20Baked.jpg"
		},
		{
			"mimeType":"image/jpeg",
			"name":"BranaLP Specular.jpg",
			"uri":"../tex/brana/BranaLP%20Specular.jpg"
		},
		{
			"mimeType":"image/jpeg",
			"name":"BranaLP Normal.jpg",
			"uri":"../tex/brana/BranaLP%20Normal.jpg"
		},
		{
			"mimeType":"image/jpeg",
			"name":"BranaLP Diffuse.jpg",
			"uri":"../tex/brana/BranaLP%20Diffuse.jpg"
		},
		{
			"mimeType":"image/jpeg",
			"name":"BranaLP Metallic.jpg",
			"uri":"../tex/brana/BranaLP%20Metallic.jpg"
		}
	],
	"accessors":[
		{
			"bufferView":0,
			"componentType":5126,
			"count":93,
			"max":[
				0.004515213426202536,
				0.028504036366939545,
				0.02207493595778942
			],
			"min":[
				-0.022341575473546982,
				-0.02964414842426777,
				-0.0240150336176157
			],
			"type":"VEC3"
		},
		{
			"bufferView":1,
			"componentType":5126,
			"count":93,
			"type":"VEC3"
		},
		{
			"bufferView":2,
			"componentType":5126,
			"count":93,
			"type":"VEC2"
		},
		{
			"bufferView":3,
			"componentType":5126,
			"count":93,
			"type":"VEC2"
		},
		{
			"bufferView":4,
			"componentType":5123,
			"count":246,
			"type":"SCALAR"
		},
		{
			"bufferView":5,
			"componentType":5126,
			"count":68,
			"max":[
				0.013171293772757053,
				0.02619524486362934,
				0.01105494238436222
			],
			"min":[
				-0.02249329537153244,
				-0.022187914699316025,
				-0.011059440672397614
			],
			"type":"VEC3"
		},
		{
			"bufferView":6,
			"componentType":5126,
			"count":68,
			"type":"VEC3"
		},
		{
			"bufferView":7,
			"componentType":5126,
			"count":68,
			"type":"VEC2"
		},
		{
			"bufferView":8,
			"componentType":5126,
			"count":68,
			"type":"VEC2"
		},
		{
			"bufferView":9,
			"componentType":5123,
			"count":174,
			"type":"SCALAR"
		},
		{
			"bufferView":10,
			"componentType":5126,
			"count":62,
			"max":[
				0.016348043456673622,
				0.014440946280956268,
				0.014852704480290413
			],
			"min":[
				-0.021536529064178467,
				-0.02159450389444828,
				-0.01532057672739029
			],
			"type":"VEC3"
		},
		{
			"bufferView":11,
			"componentType":5126,
			"count":62,
			"type":"VEC3"
		},
		{
			"bufferView":12,
			"componentType":5126,
			"count":62,
			"type":"VEC2"
		},
		{
			"bufferView":13,
			"componentType":5126,
			"count":62,
			"type":"VEC2"
		},
		{
			"bufferView":14,
			"componentType":5123,
			"count":162,
			"type":"SCALAR"
		},
		{
			"bufferView":15,
			"componentType":5126,
			"count":136,
			"max":[
				0.02389395982027054,
				0.024912182241678238,
				0.018616843968629837
			],
			"min":[
				-0.008886978030204773,
				-0.03281940519809723,
				-0.025353271514177322
			],
			"type":"VEC3"
		},
		{
			"bufferView":16,
			"componentType":5126,
			"count":136,
			"type":"VEC3"
		},
		{
			"bufferView":17,
			"componentType":5126,
			"count":136,
			"type":"VEC2"
		},
		{
			"bufferView":18,
			"componentType":5126,
			"count":136,
			"type":"VEC2"
		},
		{
			"bufferView":19,
			"componentType":5123,
			"count":372,
			"type":"SCALAR"
		},
		{
			"bufferView":20,
			"componentType":5126,
			"count":58,
			"max":[
				0.019779395312070847,
				0.027690425515174866,
				0.015786422416567802
			],
			"min":[
				-0.018754009157419205,
				-0.026389317587018013,
				-0.017551014199852943
			],
			"type":"VEC3"
		},
		{
			"bufferView":21,
			"componentType":5126,
			"count":58,
			"type":"VEC3"
		},
		{
			"bufferView":22,
			"componentType":5126,
			"count":58,
			"type":"VEC2"
		},
		{
			"bufferView":23,
			"componentType":5126,
			"count":58,
			"type":"VEC2"
		},
		{
			"bufferView":24,
			"componentType":5123,
			"count":150,
			"type":"SCALAR"
		},
		{
			"bufferView":25,
			"componentType":5126,
			"count":52,
			"max":[
				0.01947769522666931,
				0.015915237367153168,
				0.008468301966786385
			],
			"min":[
				-0.010799846611917019,
				-0.007200778461992741,
				-0.004686426371335983
			],
			"type":"VEC3"
		},
		{
			"bufferView":26,
			"componentType":5126,
			"count":52,
			"type":"VEC3"
		},
		{
			"bufferView":27,
			"componentType":5126,
			"count":52,
			"type":"VEC2"
		},
		{
			"bufferView":28,
			"componentType":5126,
			"count":52,
			"type":"VEC2"
		},
		{
			"bufferView":29,
			"componentType":5123,
			"count":126,
			"type":"SCALAR"
		},
		{
			"bufferView":30,
			"componentType":5126,
			"count":120,
			"max":[
				4
			],
			"min":[
				0.03333333333333333
			],
			"type":"SCALAR"
		},
		{
			"bufferView":31,
			"componentType":5126,
			"count":120,
			"type":"VEC3"
		},
		{
			"bufferView":32,
			"componentType":5126,
			"count":120,
			"type":"VEC4"
		},
		{
			"bufferView":33,
			"componentType":5126,
			"count":120,
			"type":"VEC3"
		},
		{
			"bufferView":34,
			"componentType":5126,
			"count":120,
			"type":"VEC4"
		},
		{
			"bufferView":35,
			"componentType":5126,
			"count":120,
			"type":"VEC3"
		},
		{
			"bufferView":36,
			"componentType":5126,
			"count":120,
			"type":"VEC4"
		},
		{
			"bufferView":37,
			"componentType":5126,
			"count":120,
			"type":"VEC3"
		},
		{
			"bufferView":38,
			"componentType":5126,
			"count":120,
			"type":"VEC4"
		},
		{
			"bufferView":39,
			"componentType":5126,
			"count":120,
			"type":"VEC3"
		},
		{
			"bufferView":40,
			"componentType":5126,
			"count":120,
			"type":"VEC4"
		},
		{
			"bufferView":41,
			"componentType":5126,
			"count":120,
			"type":"VEC3"
		},
		{
			"bufferView":42,
			"componentType":5126,
			"count":120,
			"type":"VEC4"
		}
	],
	"bufferViews":[
		{
			"buffer":0,
			"byteLength":1116,
			"byteOffset":0,
			"target":34962
		},
		{
			"buffer":0,
			"byteLength":1116,
			"byteOffset":1116,
			"target":34962
		},
		{
			"buffer":0,
			"byteLength":744,
			"byteOffset":2232,
			"target":34962
		},
		{
			"buffer":0,
			"byteLength":744,
			"byteOffset":2976,
			"target":34962
		},
		{
			"buffer":0,
			"byteLength":492,
			"byteOffset":3720,
			"target":34963
		},
		{
			"buffer":0,
			"byteLength":816,
			"byteOffset":4212,
			"target":34962
		},
		{
			"buffer":0,
			"byteLength":816,
			"byteOffset":5028,
			"target":34962
		},
		{
			"buffer":0,
			"byteLength":544,
			"byteOffset":5844,
			"target":34962
		},
		{
			"buffer":0,
			"byteLength":544,
			"byteOffset":6388,
			"target":34962
		},
		{
			"buffer":0,
			"byteLength":348,
			"byteOffset":6932,
			"target":34963
		},
		{
			"buffer":0,
			"byteLength":744,
			"byteOffset":7280,
			"target":34962
		},
		{
			"buffer":0,
			"byteLength":744,
			"byteOffset":8024,
			"target":34962
		},
		{
			"buffer":0,
			"byteLength":496,
			"byteOffset":8768,
			"target":34962
		},
		{
			"buffer":0,
			"byteLength":496,
			"byteOffset":9264,
			"target":34962
		},
		{
			"buffer":0,
			"byteLength":324,
			"byteOffset":9760,
			"target":34963
		},
		{
			"buffer":0,
			"byteLength":1632,
			"byteOffset":10084,
			"target":34962
		},
		{
			"buffer":0,
			"byteLength":1632,
			"byteOffset":11716,
			"target":34962
		},
		{
			"buffer":0,
			"byteLength":1088,
			"byteOffset":13348,
			"target":34962
		},
		{
			"buffer":0,
			"byteLength":1088,
			"byteOffset":14436,
			"target":34962
		},
		{
			"buffer":0,
			"byteLength":744,
			"byteOffset":15524,
			"target":34963
		},
		{
			"buffer":0,
			"byteLength":696,
			"byteOffset":16268,
			"target":34962
		},
		{
			"buffer":0,
			"byteLength":696,
			"byteOffset":16964,
			"target":34962
		},
		{
			"buffer":0,
			"byteLength":464,
			"byteOffset":17660,
			"target":34962
		},
		{
			"buffer":0,
			"byteLength":464,
			"byteOffset":18124,
			"target":34962
		},
		{
			"buffer":0,
			"byteLength":300,
			"byteOffset":18588,
			"target":34963
		},
		{
			"buffer":0,
			"byteLength":624,
			"byteOffset":18888,
			"target":34962
		},
		{
			"buffer":0,
			"byteLength":624,
			"byteOffset":19512,
			"target":34962
		},
		{
			"buffer":0,
			"byteLength":416,
			"byteOffset":20136,
			"target":34962
		},
		{
			"buffer":0,
			"byteLength":416,
			"byteOffset":20552,
			"target":34962
		},
		{
			"buffer":0,
			"byteLength":252,
			"byteOffset":20968,
			"target":34963
		},
		{
			"buffer":0,
			"byteLength":480,
			"byteOffset":21220
		},
		{
			"buffer":0,
			"byteLength":1440,
			"byteOffset":21700
		},
		{
			"buffer":0,
			"byteLength":1920,
			"byteOffset":23140
		},
		{
			"buffer":0,
			"byteLength":1440,
			"byteOffset":25060
		},
		{
			"buffer":0,
			"byteLength":1920,
			"byteOffset":26500
		},
		{
			"buffer":0,
			"byteLength":1440,
			"byteOffset":28420
		},
		{
			"buffer":0,
			"byteLength":1920,
			"byteOffset":29860
		},
		{
			"buffer":0,
			"byteLength":1440,
			"byteOffset":31780
		},
		{
			"buffer":0,
			"byteLength":1920,
			"byteOffset":33220
		},
		{
			"buffer":0,
			"byteLength":1440,
			"byteOffset":35140
		},
		{
			"buffer":0,
			"byteLength":1920,
			"byteOffset":36580
		},
		{
			"buffer":0,
			"byteLength":1440,
			"byteOffset":38500
		},
		{
			"buffer":0,
			"byteLength":1920,
			"byteOffset":39940
		}
	],
	"samplers":[
		{
			"magFilter":9729,
			"minFilter":9987
		}
	],
	"buffers":[
		{
			"byteLength":41860,
			"uri":"Ceramic004.bin"
		}
	]
}
