{
	"asset":{
		"generator":"Khronos glTF Blender I/O v4.4.55",
		"version":"2.0"
	},
	"scene":0,
	"scenes":[
		{
			"name":"Scene",
			"nodes":[
				0,
				1,
				2,
				3,
				4,
				5
			]
		}
	],
	"nodes":[
		{
			"mesh":0,
			"name":"Ceramic022",
			"translation":[
				-0.2142292857170105,
				-0.12441094219684601,
				-0.043149083852767944
			]
		},
		{
			"mesh":1,
			"name":"Ceramic022_001",
			"translation":[
				-0.2376658320426941,
				-0.08449661731719971,
				-0.03614983707666397
			]
		},
		{
			"mesh":2,
			"name":"Ceramic022_002",
			"translation":[
				-0.23376214504241943,
				-0.12594376504421234,
				-0.04011229798197746
			]
		},
		{
			"mesh":3,
			"name":"Ceramic022_003",
			"translation":[
				-0.20019207894802094,
				-0.09986042231321335,
				-0.044144656509160995
			]
		},
		{
			"mesh":4,
			"name":"Ceramic022_004",
			"translation":[
				-0.24600990116596222,
				-0.10650138556957245,
				-0.04023858904838562
			]
		},
		{
			"mesh":5,
			"name":"Ceramic022_005",
			"translation":[
				-0.21980200707912445,
				-0.07543426752090454,
				-0.035848505795001984
			]
		}
	],
	"animations":[
		{
			"channels":[
				{
					"sampler":0,
					"target":{
						"node":0,
						"path":"translation"
					}
				},
				{
					"sampler":1,
					"target":{
						"node":0,
						"path":"rotation"
					}
				}
			],
			"name":"Ceramic.044Action",
			"samplers":[
				{
					"input":30,
					"interpolation":"LINEAR",
					"output":31
				},
				{
					"input":30,
					"interpolation":"LINEAR",
					"output":32
				}
			]
		},
		{
			"channels":[
				{
					"sampler":0,
					"target":{
						"node":1,
						"path":"translation"
					}
				},
				{
					"sampler":1,
					"target":{
						"node":1,
						"path":"rotation"
					}
				}
			],
			"name":"Ceramic.080Action",
			"samplers":[
				{
					"input":30,
					"interpolation":"LINEAR",
					"output":33
				},
				{
					"input":30,
					"interpolation":"LINEAR",
					"output":34
				}
			]
		},
		{
			"channels":[
				{
					"sampler":0,
					"target":{
						"node":2,
						"path":"translation"
					}
				},
				{
					"sampler":1,
					"target":{
						"node":2,
						"path":"rotation"
					}
				}
			],
			"name":"Ceramic.081Action",
			"samplers":[
				{
					"input":30,
					"interpolation":"LINEAR",
					"output":35
				},
				{
					"input":30,
					"interpolation":"LINEAR",
					"output":36
				}
			]
		},
		{
			"channels":[
				{
					"sampler":0,
					"target":{
						"node":3,
						"path":"translation"
					}
				},
				{
					"sampler":1,
					"target":{
						"node":3,
						"path":"rotation"
					}
				}
			],
			"name":"Ceramic.082Action",
			"samplers":[
				{
					"input":30,
					"interpolation":"LINEAR",
					"output":37
				},
				{
					"input":30,
					"interpolation":"LINEAR",
					"output":38
				}
			]
		},
		{
			"channels":[
				{
					"sampler":0,
					"target":{
						"node":4,
						"path":"translation"
					}
				},
				{
					"sampler":1,
					"target":{
						"node":4,
						"path":"rotation"
					}
				}
			],
			"name":"Ceramic.083Action",
			"samplers":[
				{
					"input":30,
					"interpolation":"LINEAR",
					"output":39
				},
				{
					"input":30,
					"interpolation":"LINEAR",
					"output":40
				}
			]
		},
		{
			"channels":[
				{
					"sampler":0,
					"target":{
						"node":5,
						"path":"translation"
					}
				},
				{
					"sampler":1,
					"target":{
						"node":5,
						"path":"rotation"
					}
				}
			],
			"name":"Ceramic.084Action",
			"samplers":[
				{
					"input":30,
					"interpolation":"LINEAR",
					"output":41
				},
				{
					"input":30,
					"interpolation":"LINEAR",
					"output":42
				}
			]
		}
	],
	"materials":[
		{
			"doubleSided":true,
			"emissiveFactor":[
				1,
				1,
				1
			],
			"emissiveTexture":{
				"index":0
			},
			"name":"Harrow",
			"pbrMetallicRoughness":{
				"baseColorFactor":[
					0,
					0,
					0,
					1
				]
			}
		}
	],
	"meshes":[
		{
			"name":"Plane.064",
			"primitives":[
				{
					"attributes":{
						"POSITION":0,
						"NORMAL":1,
						"TEXCOORD_0":2,
						"TEXCOORD_1":3
					},
					"indices":4,
					"material":0
				}
			]
		},
		{
			"name":"Plane.175",
			"primitives":[
				{
					"attributes":{
						"POSITION":5,
						"NORMAL":6,
						"TEXCOORD_0":7,
						"TEXCOORD_1":8
					},
					"indices":9,
					"material":0
				}
			]
		},
		{
			"name":"Plane.176",
			"primitives":[
				{
					"attributes":{
						"POSITION":10,
						"NORMAL":11,
						"TEXCOORD_0":12,
						"TEXCOORD_1":13
					},
					"indices":14,
					"material":0
				}
			]
		},
		{
			"name":"Plane.177",
			"primitives":[
				{
					"attributes":{
						"POSITION":15,
						"NORMAL":16,
						"TEXCOORD_0":17,
						"TEXCOORD_1":18
					},
					"indices":19,
					"material":0
				}
			]
		},
		{
			"name":"Plane.178",
			"primitives":[
				{
					"attributes":{
						"POSITION":20,
						"NORMAL":21,
						"TEXCOORD_0":22,
						"TEXCOORD_1":23
					},
					"indices":24,
					"material":0
				}
			]
		},
		{
			"name":"Plane.179",
			"primitives":[
				{
					"attributes":{
						"POSITION":25,
						"NORMAL":26,
						"TEXCOORD_0":27,
						"TEXCOORD_1":28
					},
					"indices":29,
					"material":0
				}
			]
		}
	],
	"textures":[
		{
			"sampler":0,
			"source":0
		}
	],
	"images":[
		{
			"mimeType":"image/jpeg",
			"name":"BranaLP Diffuse Baked.jpg",
			"uri":"../tex/brana/BranaLP%20Diffuse%20Baked.jpg"
		}
	],
	"accessors":[
		{
			"bufferView":0,
			"componentType":5126,
			"count":124,
			"max":[
				0.02502511814236641,
				0.022506140172481537,
				0.00822075642645359
			],
			"min":[
				-0.015885308384895325,
				-0.030879931524395943,
				-0.0067907702177762985
			],
			"type":"VEC3"
		},
		{
			"bufferView":1,
			"componentType":5126,
			"count":124,
			"type":"VEC3"
		},
		{
			"bufferView":2,
			"componentType":5126,
			"count":124,
			"type":"VEC2"
		},
		{
			"bufferView":3,
			"componentType":5126,
			"count":124,
			"type":"VEC2"
		},
		{
			"bufferView":4,
			"componentType":5123,
			"count":342,
			"type":"SCALAR"
		},
		{
			"bufferView":5,
			"componentType":5126,
			"count":107,
			"max":[
				0.01867617666721344,
				0.02567189559340477,
				0.016572680324316025
			],
			"min":[
				-0.01862076297402382,
				-0.0214238204061985,
				-0.013250310905277729
			],
			"type":"VEC3"
		},
		{
			"bufferView":6,
			"componentType":5126,
			"count":107,
			"type":"VEC3"
		},
		{
			"bufferView":7,
			"componentType":5126,
			"count":107,
			"type":"VEC2"
		},
		{
			"bufferView":8,
			"componentType":5126,
			"count":107,
			"type":"VEC2"
		},
		{
			"bufferView":9,
			"componentType":5123,
			"count":312,
			"type":"SCALAR"
		},
		{
			"bufferView":10,
			"componentType":5126,
			"count":117,
			"max":[
				0.015353851020336151,
				0.023285647854208946,
				0.01053084060549736
			],
			"min":[
				-0.02083028480410576,
				-0.029750321060419083,
				-0.007553470320999622
			],
			"type":"VEC3"
		},
		{
			"bufferView":11,
			"componentType":5126,
			"count":117,
			"type":"VEC3"
		},
		{
			"bufferView":12,
			"componentType":5126,
			"count":117,
			"type":"VEC2"
		},
		{
			"bufferView":13,
			"componentType":5126,
			"count":117,
			"type":"VEC2"
		},
		{
			"bufferView":14,
			"componentType":5123,
			"count":330,
			"type":"SCALAR"
		},
		{
			"bufferView":15,
			"componentType":5126,
			"count":109,
			"max":[
				0.023192867636680603,
				0.02125135436654091,
				0.00690971314907074
			],
			"min":[
				-0.02538062445819378,
				-0.025814522057771683,
				-0.005707907024770975
			],
			"type":"VEC3"
		},
		{
			"bufferView":16,
			"componentType":5126,
			"count":109,
			"type":"VEC3"
		},
		{
			"bufferView":17,
			"componentType":5126,
			"count":109,
			"type":"VEC2"
		},
		{
			"bufferView":18,
			"componentType":5126,
			"count":109,
			"type":"VEC2"
		},
		{
			"bufferView":19,
			"componentType":5123,
			"count":276,
			"type":"SCALAR"
		},
		{
			"bufferView":20,
			"componentType":5126,
			"count":42,
			"max":[
				0.00718233548104763,
				0.006668091751635075,
				0.007394301239401102
			],
			"min":[
				-0.00999513640999794,
				-0.01366411428898573,
				-0.005341547541320324
			],
			"type":"VEC3"
		},
		{
			"bufferView":21,
			"componentType":5126,
			"count":42,
			"type":"VEC3"
		},
		{
			"bufferView":22,
			"componentType":5126,
			"count":42,
			"type":"VEC2"
		},
		{
			"bufferView":23,
			"componentType":5126,
			"count":42,
			"type":"VEC2"
		},
		{
			"bufferView":24,
			"componentType":5123,
			"count":96,
			"type":"SCALAR"
		},
		{
			"bufferView":25,
			"componentType":5126,
			"count":109,
			"max":[
				0.03624260425567627,
				0.018859826028347015,
				0.01606276072561741
			],
			"min":[
				-0.021934930235147476,
				-0.016856703907251358,
				-0.012627488002181053
			],
			"type":"VEC3"
		},
		{
			"bufferView":26,
			"componentType":5126,
			"count":109,
			"type":"VEC3"
		},
		{
			"bufferView":27,
			"componentType":5126,
			"count":109,
			"type":"VEC2"
		},
		{
			"bufferView":28,
			"componentType":5126,
			"count":109,
			"type":"VEC2"
		},
		{
			"bufferView":29,
			"componentType":5123,
			"count":312,
			"type":"SCALAR"
		},
		{
			"bufferView":30,
			"componentType":5126,
			"count":120,
			"max":[
				4
			],
			"min":[
				0.03333333333333333
			],
			"type":"SCALAR"
		},
		{
			"bufferView":31,
			"componentType":5126,
			"count":120,
			"type":"VEC3"
		},
		{
			"bufferView":32,
			"componentType":5126,
			"count":120,
			"type":"VEC4"
		},
		{
			"bufferView":33,
			"componentType":5126,
			"count":120,
			"type":"VEC3"
		},
		{
			"bufferView":34,
			"componentType":5126,
			"count":120,
			"type":"VEC4"
		},
		{
			"bufferView":35,
			"componentType":5126,
			"count":120,
			"type":"VEC3"
		},
		{
			"bufferView":36,
			"componentType":5126,
			"count":120,
			"type":"VEC4"
		},
		{
			"bufferView":37,
			"componentType":5126,
			"count":120,
			"type":"VEC3"
		},
		{
			"bufferView":38,
			"componentType":5126,
			"count":120,
			"type":"VEC4"
		},
		{
			"bufferView":39,
			"componentType":5126,
			"count":120,
			"type":"VEC3"
		},
		{
			"bufferView":40,
			"componentType":5126,
			"count":120,
			"type":"VEC4"
		},
		{
			"bufferView":41,
			"componentType":5126,
			"count":120,
			"type":"VEC3"
		},
		{
			"bufferView":42,
			"componentType":5126,
			"count":120,
			"type":"VEC4"
		}
	],
	"bufferViews":[
		{
			"buffer":0,
			"byteLength":1488,
			"byteOffset":0,
			"target":34962
		},
		{
			"buffer":0,
			"byteLength":1488,
			"byteOffset":1488,
			"target":34962
		},
		{
			"buffer":0,
			"byteLength":992,
			"byteOffset":2976,
			"target":34962
		},
		{
			"buffer":0,
			"byteLength":992,
			"byteOffset":3968,
			"target":34962
		},
		{
			"buffer":0,
			"byteLength":684,
			"byteOffset":4960,
			"target":34963
		},
		{
			"buffer":0,
			"byteLength":1284,
			"byteOffset":5644,
			"target":34962
		},
		{
			"buffer":0,
			"byteLength":1284,
			"byteOffset":6928,
			"target":34962
		},
		{
			"buffer":0,
			"byteLength":856,
			"byteOffset":8212,
			"target":34962
		},
		{
			"buffer":0,
			"byteLength":856,
			"byteOffset":9068,
			"target":34962
		},
		{
			"buffer":0,
			"byteLength":624,
			"byteOffset":9924,
			"target":34963
		},
		{
			"buffer":0,
			"byteLength":1404,
			"byteOffset":10548,
			"target":34962
		},
		{
			"buffer":0,
			"byteLength":1404,
			"byteOffset":11952,
			"target":34962
		},
		{
			"buffer":0,
			"byteLength":936,
			"byteOffset":13356,
			"target":34962
		},
		{
			"buffer":0,
			"byteLength":936,
			"byteOffset":14292,
			"target":34962
		},
		{
			"buffer":0,
			"byteLength":660,
			"byteOffset":15228,
			"target":34963
		},
		{
			"buffer":0,
			"byteLength":1308,
			"byteOffset":15888,
			"target":34962
		},
		{
			"buffer":0,
			"byteLength":1308,
			"byteOffset":17196,
			"target":34962
		},
		{
			"buffer":0,
			"byteLength":872,
			"byteOffset":18504,
			"target":34962
		},
		{
			"buffer":0,
			"byteLength":872,
			"byteOffset":19376,
			"target":34962
		},
		{
			"buffer":0,
			"byteLength":552,
			"byteOffset":20248,
			"target":34963
		},
		{
			"buffer":0,
			"byteLength":504,
			"byteOffset":20800,
			"target":34962
		},
		{
			"buffer":0,
			"byteLength":504,
			"byteOffset":21304,
			"target":34962
		},
		{
			"buffer":0,
			"byteLength":336,
			"byteOffset":21808,
			"target":34962
		},
		{
			"buffer":0,
			"byteLength":336,
			"byteOffset":22144,
			"target":34962
		},
		{
			"buffer":0,
			"byteLength":192,
			"byteOffset":22480,
			"target":34963
		},
		{
			"buffer":0,
			"byteLength":1308,
			"byteOffset":22672,
			"target":34962
		},
		{
			"buffer":0,
			"byteLength":1308,
			"byteOffset":23980,
			"target":34962
		},
		{
			"buffer":0,
			"byteLength":872,
			"byteOffset":25288,
			"target":34962
		},
		{
			"buffer":0,
			"byteLength":872,
			"byteOffset":26160,
			"target":34962
		},
		{
			"buffer":0,
			"byteLength":624,
			"byteOffset":27032,
			"target":34963
		},
		{
			"buffer":0,
			"byteLength":480,
			"byteOffset":27656
		},
		{
			"buffer":0,
			"byteLength":1440,
			"byteOffset":28136
		},
		{
			"buffer":0,
			"byteLength":1920,
			"byteOffset":29576
		},
		{
			"buffer":0,
			"byteLength":1440,
			"byteOffset":31496
		},
		{
			"buffer":0,
			"byteLength":1920,
			"byteOffset":32936
		},
		{
			"buffer":0,
			"byteLength":1440,
			"byteOffset":34856
		},
		{
			"buffer":0,
			"byteLength":1920,
			"byteOffset":36296
		},
		{
			"buffer":0,
			"byteLength":1440,
			"byteOffset":38216
		},
		{
			"buffer":0,
			"byteLength":1920,
			"byteOffset":39656
		},
		{
			"buffer":0,
			"byteLength":1440,
			"byteOffset":41576
		},
		{
			"buffer":0,
			"byteLength":1920,
			"byteOffset":43016
		},
		{
			"buffer":0,
			"byteLength":1440,
			"byteOffset":44936
		},
		{
			"buffer":0,
			"byteLength":1920,
			"byteOffset":46376
		}
	],
	"samplers":[
		{
			"magFilter":9729,
			"minFilter":9987
		}
	],
	"buffers":[
		{
			"byteLength":48296,
			"uri":"Ceramic022.bin"
		}
	]
}
