{
	"asset":{
		"generator":"Khronos glTF Blender I/O v4.4.55",
		"version":"2.0"
	},
	"extensionsUsed":[
		"KHR_materials_specular"
	],
	"scene":0,
	"scenes":[
		{
			"name":"Scene",
			"nodes":[
				0,
				1,
				2,
				3,
				4,
				5
			]
		}
	],
	"nodes":[
		{
			"mesh":0,
			"name":"Ceramic015",
			"translation":[
				0.16425754129886627,
				0.4637523889541626,
				-0.041100066155195236
			]
		},
		{
			"mesh":1,
			"name":"Ceramic015_001",
			"translation":[
				0.13076983392238617,
				0.4662037193775177,
				-0.046087052673101425
			]
		},
		{
			"mesh":2,
			"name":"Ceramic015_002",
			"translation":[
				0.14895786345005035,
				0.43346646428108215,
				-0.04231121018528938
			]
		},
		{
			"mesh":3,
			"name":"Ceramic015_003",
			"translation":[
				0.10139914602041245,
				0.43104368448257446,
				-0.0431450679898262
			]
		},
		{
			"mesh":4,
			"name":"Ceramic015_004",
			"translation":[
				0.12441262602806091,
				0.4274727404117584,
				-0.04464346915483475
			]
		},
		{
			"mesh":5,
			"name":"Ceramic015_005",
			"translation":[
				0.09651926904916763,
				0.4523305892944336,
				-0.04501324146986008
			]
		}
	],
	"animations":[
		{
			"channels":[
				{
					"sampler":0,
					"target":{
						"node":0,
						"path":"translation"
					}
				},
				{
					"sampler":1,
					"target":{
						"node":0,
						"path":"rotation"
					}
				}
			],
			"name":"Ceramic.037Action",
			"samplers":[
				{
					"input":30,
					"interpolation":"LINEAR",
					"output":31
				},
				{
					"input":30,
					"interpolation":"LINEAR",
					"output":32
				}
			]
		},
		{
			"channels":[
				{
					"sampler":0,
					"target":{
						"node":1,
						"path":"translation"
					}
				},
				{
					"sampler":1,
					"target":{
						"node":1,
						"path":"rotation"
					}
				}
			],
			"name":"Ceramic.029Action",
			"samplers":[
				{
					"input":30,
					"interpolation":"LINEAR",
					"output":33
				},
				{
					"input":30,
					"interpolation":"LINEAR",
					"output":34
				}
			]
		},
		{
			"channels":[
				{
					"sampler":0,
					"target":{
						"node":2,
						"path":"translation"
					}
				},
				{
					"sampler":1,
					"target":{
						"node":2,
						"path":"rotation"
					}
				}
			],
			"name":"Ceramic.030Action",
			"samplers":[
				{
					"input":30,
					"interpolation":"LINEAR",
					"output":35
				},
				{
					"input":30,
					"interpolation":"LINEAR",
					"output":36
				}
			]
		},
		{
			"channels":[
				{
					"sampler":0,
					"target":{
						"node":3,
						"path":"translation"
					}
				},
				{
					"sampler":1,
					"target":{
						"node":3,
						"path":"rotation"
					}
				}
			],
			"name":"Ceramic.046Action",
			"samplers":[
				{
					"input":30,
					"interpolation":"LINEAR",
					"output":37
				},
				{
					"input":30,
					"interpolation":"LINEAR",
					"output":38
				}
			]
		},
		{
			"channels":[
				{
					"sampler":0,
					"target":{
						"node":4,
						"path":"translation"
					}
				},
				{
					"sampler":1,
					"target":{
						"node":4,
						"path":"rotation"
					}
				}
			],
			"name":"Ceramic.048Action",
			"samplers":[
				{
					"input":30,
					"interpolation":"LINEAR",
					"output":39
				},
				{
					"input":30,
					"interpolation":"LINEAR",
					"output":40
				}
			]
		},
		{
			"channels":[
				{
					"sampler":0,
					"target":{
						"node":5,
						"path":"translation"
					}
				},
				{
					"sampler":1,
					"target":{
						"node":5,
						"path":"rotation"
					}
				}
			],
			"name":"Ceramic.049Action",
			"samplers":[
				{
					"input":30,
					"interpolation":"LINEAR",
					"output":41
				},
				{
					"input":30,
					"interpolation":"LINEAR",
					"output":42
				}
			]
		}
	],
	"materials":[
		{
			"doubleSided":true,
			"emissiveFactor":[
				1,
				1,
				1
			],
			"emissiveTexture":{
				"index":0
			},
			"extensions":{
				"KHR_materials_specular":{
					"specularTexture":{
						"index":1
					}
				}
			},
			"name":"BranaLP",
			"normalTexture":{
				"index":2
			},
			"pbrMetallicRoughness":{
				"baseColorTexture":{
					"index":3
				},
				"metallicRoughnessTexture":{
					"index":4
				},
				"roughnessFactor":0.5
			}
		}
	],
	"meshes":[
		{
			"name":"Plane.057",
			"primitives":[
				{
					"attributes":{
						"POSITION":0,
						"NORMAL":1,
						"TEXCOORD_0":2,
						"TEXCOORD_1":3
					},
					"indices":4,
					"material":0
				}
			]
		},
		{
			"name":"Plane.140",
			"primitives":[
				{
					"attributes":{
						"POSITION":5,
						"NORMAL":6,
						"TEXCOORD_0":7,
						"TEXCOORD_1":8
					},
					"indices":9,
					"material":0
				}
			]
		},
		{
			"name":"Plane.141",
			"primitives":[
				{
					"attributes":{
						"POSITION":10,
						"NORMAL":11,
						"TEXCOORD_0":12,
						"TEXCOORD_1":13
					},
					"indices":14,
					"material":0
				}
			]
		},
		{
			"name":"Plane.142",
			"primitives":[
				{
					"attributes":{
						"POSITION":15,
						"NORMAL":16,
						"TEXCOORD_0":17,
						"TEXCOORD_1":18
					},
					"indices":19,
					"material":0
				}
			]
		},
		{
			"name":"Plane.143",
			"primitives":[
				{
					"attributes":{
						"POSITION":20,
						"NORMAL":21,
						"TEXCOORD_0":22,
						"TEXCOORD_1":23
					},
					"indices":24,
					"material":0
				}
			]
		},
		{
			"name":"Plane.144",
			"primitives":[
				{
					"attributes":{
						"POSITION":25,
						"NORMAL":26,
						"TEXCOORD_0":27,
						"TEXCOORD_1":28
					},
					"indices":29,
					"material":0
				}
			]
		}
	],
	"textures":[
		{
			"sampler":0,
			"source":0
		},
		{
			"sampler":0,
			"source":1
		},
		{
			"sampler":0,
			"source":2
		},
		{
			"sampler":0,
			"source":3
		},
		{
			"sampler":0,
			"source":4
		}
	],
	"images":[
		{
			"mimeType":"image/jpeg",
			"name":"BranaLP Diffuse Baked.jpg",
			"uri":"../tex/brana/BranaLP%20Diffuse%20Baked.jpg"
		},
		{
			"mimeType":"image/jpeg",
			"name":"BranaLP Specular.jpg",
			"uri":"../tex/brana/BranaLP%20Specular.jpg"
		},
		{
			"mimeType":"image/jpeg",
			"name":"BranaLP Normal.jpg",
			"uri":"../tex/brana/BranaLP%20Normal.jpg"
		},
		{
			"mimeType":"image/jpeg",
			"name":"BranaLP Diffuse.jpg",
			"uri":"../tex/brana/BranaLP%20Diffuse.jpg"
		},
		{
			"mimeType":"image/jpeg",
			"name":"BranaLP Metallic.jpg",
			"uri":"../tex/brana/BranaLP%20Metallic.jpg"
		}
	],
	"accessors":[
		{
			"bufferView":0,
			"componentType":5126,
			"count":89,
			"max":[
				0.02241736650466919,
				0.021189171820878983,
				0.010992251336574554
			],
			"min":[
				-0.020089326426386833,
				-0.012833264656364918,
				-0.009531060233712196
			],
			"type":"VEC3"
		},
		{
			"bufferView":1,
			"componentType":5126,
			"count":89,
			"type":"VEC3"
		},
		{
			"bufferView":2,
			"componentType":5126,
			"count":89,
			"type":"VEC2"
		},
		{
			"bufferView":3,
			"componentType":5126,
			"count":89,
			"type":"VEC2"
		},
		{
			"bufferView":4,
			"componentType":5123,
			"count":252,
			"type":"SCALAR"
		},
		{
			"bufferView":5,
			"componentType":5126,
			"count":125,
			"max":[
				0.04091041535139084,
				0.022610081359744072,
				0.010180833749473095
			],
			"min":[
				-0.04039489105343819,
				-0.02695467881858349,
				-0.0067023588344454765
			],
			"type":"VEC3"
		},
		{
			"bufferView":6,
			"componentType":5126,
			"count":125,
			"type":"VEC3"
		},
		{
			"bufferView":7,
			"componentType":5126,
			"count":125,
			"type":"VEC2"
		},
		{
			"bufferView":8,
			"componentType":5126,
			"count":125,
			"type":"VEC2"
		},
		{
			"bufferView":9,
			"componentType":5123,
			"count":384,
			"type":"SCALAR"
		},
		{
			"bufferView":10,
			"componentType":5126,
			"count":133,
			"max":[
				0.027950601652264595,
				0.02333652973175049,
				0.011477472260594368
			],
			"min":[
				-0.018453184515237808,
				-0.03806856647133827,
				-0.008929726667702198
			],
			"type":"VEC3"
		},
		{
			"bufferView":11,
			"componentType":5126,
			"count":133,
			"type":"VEC3"
		},
		{
			"bufferView":12,
			"componentType":5126,
			"count":133,
			"type":"VEC2"
		},
		{
			"bufferView":13,
			"componentType":5126,
			"count":133,
			"type":"VEC2"
		},
		{
			"bufferView":14,
			"componentType":5123,
			"count":390,
			"type":"SCALAR"
		},
		{
			"bufferView":15,
			"componentType":5126,
			"count":121,
			"max":[
				0.019667448475956917,
				0.01692410744726658,
				0.01252720132470131
			],
			"min":[
				-0.02941356785595417,
				-0.02821243554353714,
				-0.009597698226571083
			],
			"type":"VEC3"
		},
		{
			"bufferView":16,
			"componentType":5126,
			"count":121,
			"type":"VEC3"
		},
		{
			"bufferView":17,
			"componentType":5126,
			"count":121,
			"type":"VEC2"
		},
		{
			"bufferView":18,
			"componentType":5126,
			"count":121,
			"type":"VEC2"
		},
		{
			"bufferView":19,
			"componentType":5123,
			"count":354,
			"type":"SCALAR"
		},
		{
			"bufferView":20,
			"componentType":5126,
			"count":146,
			"max":[
				0.01627175137400627,
				0.025767087936401367,
				0.013263510540127754
			],
			"min":[
				-0.0240473635494709,
				-0.030876871198415756,
				-0.008093523792922497
			],
			"type":"VEC3"
		},
		{
			"bufferView":21,
			"componentType":5126,
			"count":146,
			"type":"VEC3"
		},
		{
			"bufferView":22,
			"componentType":5126,
			"count":146,
			"type":"VEC2"
		},
		{
			"bufferView":23,
			"componentType":5126,
			"count":146,
			"type":"VEC2"
		},
		{
			"bufferView":24,
			"componentType":5123,
			"count":444,
			"type":"SCALAR"
		},
		{
			"bufferView":25,
			"componentType":5126,
			"count":85,
			"max":[
				0.021568505093455315,
				0.022732984274625778,
				0.008776980452239513
			],
			"min":[
				-0.02021121419966221,
				-0.014787865802645683,
				-0.00744419451802969
			],
			"type":"VEC3"
		},
		{
			"bufferView":26,
			"componentType":5126,
			"count":85,
			"type":"VEC3"
		},
		{
			"bufferView":27,
			"componentType":5126,
			"count":85,
			"type":"VEC2"
		},
		{
			"bufferView":28,
			"componentType":5126,
			"count":85,
			"type":"VEC2"
		},
		{
			"bufferView":29,
			"componentType":5123,
			"count":240,
			"type":"SCALAR"
		},
		{
			"bufferView":30,
			"componentType":5126,
			"count":120,
			"max":[
				4
			],
			"min":[
				0.03333333333333333
			],
			"type":"SCALAR"
		},
		{
			"bufferView":31,
			"componentType":5126,
			"count":120,
			"type":"VEC3"
		},
		{
			"bufferView":32,
			"componentType":5126,
			"count":120,
			"type":"VEC4"
		},
		{
			"bufferView":33,
			"componentType":5126,
			"count":120,
			"type":"VEC3"
		},
		{
			"bufferView":34,
			"componentType":5126,
			"count":120,
			"type":"VEC4"
		},
		{
			"bufferView":35,
			"componentType":5126,
			"count":120,
			"type":"VEC3"
		},
		{
			"bufferView":36,
			"componentType":5126,
			"count":120,
			"type":"VEC4"
		},
		{
			"bufferView":37,
			"componentType":5126,
			"count":120,
			"type":"VEC3"
		},
		{
			"bufferView":38,
			"componentType":5126,
			"count":120,
			"type":"VEC4"
		},
		{
			"bufferView":39,
			"componentType":5126,
			"count":120,
			"type":"VEC3"
		},
		{
			"bufferView":40,
			"componentType":5126,
			"count":120,
			"type":"VEC4"
		},
		{
			"bufferView":41,
			"componentType":5126,
			"count":120,
			"type":"VEC3"
		},
		{
			"bufferView":42,
			"componentType":5126,
			"count":120,
			"type":"VEC4"
		}
	],
	"bufferViews":[
		{
			"buffer":0,
			"byteLength":1068,
			"byteOffset":0,
			"target":34962
		},
		{
			"buffer":0,
			"byteLength":1068,
			"byteOffset":1068,
			"target":34962
		},
		{
			"buffer":0,
			"byteLength":712,
			"byteOffset":2136,
			"target":34962
		},
		{
			"buffer":0,
			"byteLength":712,
			"byteOffset":2848,
			"target":34962
		},
		{
			"buffer":0,
			"byteLength":504,
			"byteOffset":3560,
			"target":34963
		},
		{
			"buffer":0,
			"byteLength":1500,
			"byteOffset":4064,
			"target":34962
		},
		{
			"buffer":0,
			"byteLength":1500,
			"byteOffset":5564,
			"target":34962
		},
		{
			"buffer":0,
			"byteLength":1000,
			"byteOffset":7064,
			"target":34962
		},
		{
			"buffer":0,
			"byteLength":1000,
			"byteOffset":8064,
			"target":34962
		},
		{
			"buffer":0,
			"byteLength":768,
			"byteOffset":9064,
			"target":34963
		},
		{
			"buffer":0,
			"byteLength":1596,
			"byteOffset":9832,
			"target":34962
		},
		{
			"buffer":0,
			"byteLength":1596,
			"byteOffset":11428,
			"target":34962
		},
		{
			"buffer":0,
			"byteLength":1064,
			"byteOffset":13024,
			"target":34962
		},
		{
			"buffer":0,
			"byteLength":1064,
			"byteOffset":14088,
			"target":34962
		},
		{
			"buffer":0,
			"byteLength":780,
			"byteOffset":15152,
			"target":34963
		},
		{
			"buffer":0,
			"byteLength":1452,
			"byteOffset":15932,
			"target":34962
		},
		{
			"buffer":0,
			"byteLength":1452,
			"byteOffset":17384,
			"target":34962
		},
		{
			"buffer":0,
			"byteLength":968,
			"byteOffset":18836,
			"target":34962
		},
		{
			"buffer":0,
			"byteLength":968,
			"byteOffset":19804,
			"target":34962
		},
		{
			"buffer":0,
			"byteLength":708,
			"byteOffset":20772,
			"target":34963
		},
		{
			"buffer":0,
			"byteLength":1752,
			"byteOffset":21480,
			"target":34962
		},
		{
			"buffer":0,
			"byteLength":1752,
			"byteOffset":23232,
			"target":34962
		},
		{
			"buffer":0,
			"byteLength":1168,
			"byteOffset":24984,
			"target":34962
		},
		{
			"buffer":0,
			"byteLength":1168,
			"byteOffset":26152,
			"target":34962
		},
		{
			"buffer":0,
			"byteLength":888,
			"byteOffset":27320,
			"target":34963
		},
		{
			"buffer":0,
			"byteLength":1020,
			"byteOffset":28208,
			"target":34962
		},
		{
			"buffer":0,
			"byteLength":1020,
			"byteOffset":29228,
			"target":34962
		},
		{
			"buffer":0,
			"byteLength":680,
			"byteOffset":30248,
			"target":34962
		},
		{
			"buffer":0,
			"byteLength":680,
			"byteOffset":30928,
			"target":34962
		},
		{
			"buffer":0,
			"byteLength":480,
			"byteOffset":31608,
			"target":34963
		},
		{
			"buffer":0,
			"byteLength":480,
			"byteOffset":32088
		},
		{
			"buffer":0,
			"byteLength":1440,
			"byteOffset":32568
		},
		{
			"buffer":0,
			"byteLength":1920,
			"byteOffset":34008
		},
		{
			"buffer":0,
			"byteLength":1440,
			"byteOffset":35928
		},
		{
			"buffer":0,
			"byteLength":1920,
			"byteOffset":37368
		},
		{
			"buffer":0,
			"byteLength":1440,
			"byteOffset":39288
		},
		{
			"buffer":0,
			"byteLength":1920,
			"byteOffset":40728
		},
		{
			"buffer":0,
			"byteLength":1440,
			"byteOffset":42648
		},
		{
			"buffer":0,
			"byteLength":1920,
			"byteOffset":44088
		},
		{
			"buffer":0,
			"byteLength":1440,
			"byteOffset":46008
		},
		{
			"buffer":0,
			"byteLength":1920,
			"byteOffset":47448
		},
		{
			"buffer":0,
			"byteLength":1440,
			"byteOffset":49368
		},
		{
			"buffer":0,
			"byteLength":1920,
			"byteOffset":50808
		}
	],
	"samplers":[
		{
			"magFilter":9729,
			"minFilter":9987
		}
	],
	"buffers":[
		{
			"byteLength":52728,
			"uri":"Ceramic015.bin"
		}
	]
}
