{
	"asset":{
		"generator":"Khronos glTF Blender I/O v4.4.55",
		"version":"2.0"
	},
	"scene":0,
	"scenes":[
		{
			"name":"Scene",
			"nodes":[
				0,
				1,
				2,
				3
			]
		}
	],
	"nodes":[
		{
			"mesh":0,
			"name":"Ceramic011",
			"translation":[
				0.19180144369602203,
				0.26029637455940247,
				-0.06971998512744904
			]
		},
		{
			"mesh":1,
			"name":"Ceramic011_001",
			"translation":[
				0.17910480499267578,
				0.24458469450473785,
				-0.07861500233411789
			]
		},
		{
			"mesh":2,
			"name":"Ceramic011_002",
			"translation":[
				0.2144525796175003,
				0.22978948056697845,
				-0.05094001442193985
			]
		},
		{
			"mesh":3,
			"name":"Ceramic011_003",
			"translation":[
				0.19596898555755615,
				0.22345085442066193,
				-0.06470180302858353
			]
		}
	],
	"animations":[
		{
			"channels":[
				{
					"sampler":0,
					"target":{
						"node":0,
						"path":"translation"
					}
				},
				{
					"sampler":1,
					"target":{
						"node":0,
						"path":"rotation"
					}
				}
			],
			"name":"Ceramic.033Action",
			"samplers":[
				{
					"input":20,
					"interpolation":"LINEAR",
					"output":21
				},
				{
					"input":20,
					"interpolation":"LINEAR",
					"output":22
				}
			]
		},
		{
			"channels":[
				{
					"sampler":0,
					"target":{
						"node":1,
						"path":"translation"
					}
				},
				{
					"sampler":1,
					"target":{
						"node":1,
						"path":"rotation"
					}
				}
			],
			"name":"Ceramic.015Action",
			"samplers":[
				{
					"input":20,
					"interpolation":"LINEAR",
					"output":23
				},
				{
					"input":20,
					"interpolation":"LINEAR",
					"output":24
				}
			]
		},
		{
			"channels":[
				{
					"sampler":0,
					"target":{
						"node":2,
						"path":"translation"
					}
				},
				{
					"sampler":1,
					"target":{
						"node":2,
						"path":"rotation"
					}
				}
			],
			"name":"Ceramic.016Action",
			"samplers":[
				{
					"input":20,
					"interpolation":"LINEAR",
					"output":25
				},
				{
					"input":20,
					"interpolation":"LINEAR",
					"output":26
				}
			]
		},
		{
			"channels":[
				{
					"sampler":0,
					"target":{
						"node":3,
						"path":"translation"
					}
				},
				{
					"sampler":1,
					"target":{
						"node":3,
						"path":"rotation"
					}
				}
			],
			"name":"Ceramic.017Action",
			"samplers":[
				{
					"input":20,
					"interpolation":"LINEAR",
					"output":27
				},
				{
					"input":20,
					"interpolation":"LINEAR",
					"output":28
				}
			]
		}
	],
	"materials":[
		{
			"doubleSided":true,
			"emissiveFactor":[
				1,
				1,
				1
			],
			"emissiveTexture":{
				"index":0
			},
			"name":"Harrow",
			"pbrMetallicRoughness":{
				"baseColorFactor":[
					0,
					0,
					0,
					1
				]
			}
		}
	],
	"meshes":[
		{
			"name":"Plane.053",
			"primitives":[
				{
					"attributes":{
						"POSITION":0,
						"NORMAL":1,
						"TEXCOORD_0":2,
						"TEXCOORD_1":3
					},
					"indices":4,
					"material":0
				}
			]
		},
		{
			"name":"Plane.125",
			"primitives":[
				{
					"attributes":{
						"POSITION":5,
						"NORMAL":6,
						"TEXCOORD_0":7,
						"TEXCOORD_1":8
					},
					"indices":9,
					"material":0
				}
			]
		},
		{
			"name":"Plane.126",
			"primitives":[
				{
					"attributes":{
						"POSITION":10,
						"NORMAL":11,
						"TEXCOORD_0":12,
						"TEXCOORD_1":13
					},
					"indices":14,
					"material":0
				}
			]
		},
		{
			"name":"Plane.127",
			"primitives":[
				{
					"attributes":{
						"POSITION":15,
						"NORMAL":16,
						"TEXCOORD_0":17,
						"TEXCOORD_1":18
					},
					"indices":19,
					"material":0
				}
			]
		}
	],
	"textures":[
		{
			"sampler":0,
			"source":0
		}
	],
	"images":[
		{
			"mimeType":"image/jpeg",
			"name":"BranaLP Diffuse Baked.jpg",
			"uri":"../tex/brana/BranaLP%20Diffuse%20Baked.jpg"
		}
	],
	"accessors":[
		{
			"bufferView":0,
			"componentType":5126,
			"count":96,
			"max":[
				0.03906617313623428,
				0.03413151204586029,
				0.028513265773653984
			],
			"min":[
				-0.04483451321721077,
				-0.02046513929963112,
				-0.028940457850694656
			],
			"type":"VEC3"
		},
		{
			"bufferView":1,
			"componentType":5126,
			"count":96,
			"type":"VEC3"
		},
		{
			"bufferView":2,
			"componentType":5126,
			"count":96,
			"type":"VEC2"
		},
		{
			"bufferView":3,
			"componentType":5126,
			"count":96,
			"type":"VEC2"
		},
		{
			"bufferView":4,
			"componentType":5123,
			"count":258,
			"type":"SCALAR"
		},
		{
			"bufferView":5,
			"componentType":5126,
			"count":41,
			"max":[
				0.02049921825528145,
				0.009845489636063576,
				0.019930940121412277
			],
			"min":[
				-0.01428910344839096,
				-0.016071971505880356,
				-0.011758869513869286
			],
			"type":"VEC3"
		},
		{
			"bufferView":6,
			"componentType":5126,
			"count":41,
			"type":"VEC3"
		},
		{
			"bufferView":7,
			"componentType":5126,
			"count":41,
			"type":"VEC2"
		},
		{
			"bufferView":8,
			"componentType":5126,
			"count":41,
			"type":"VEC2"
		},
		{
			"bufferView":9,
			"componentType":5123,
			"count":102,
			"type":"SCALAR"
		},
		{
			"bufferView":10,
			"componentType":5126,
			"count":70,
			"max":[
				0.02476002648472786,
				0.018083389848470688,
				0.022731369361281395
			],
			"min":[
				-0.019480779767036438,
				-0.026329291984438896,
				-0.021024957299232483
			],
			"type":"VEC3"
		},
		{
			"bufferView":11,
			"componentType":5126,
			"count":70,
			"type":"VEC3"
		},
		{
			"bufferView":12,
			"componentType":5126,
			"count":70,
			"type":"VEC2"
		},
		{
			"bufferView":13,
			"componentType":5126,
			"count":70,
			"type":"VEC2"
		},
		{
			"bufferView":14,
			"componentType":5123,
			"count":204,
			"type":"SCALAR"
		},
		{
			"bufferView":15,
			"componentType":5126,
			"count":51,
			"max":[
				0.015334458090364933,
				0.022208621725440025,
				0.015036609023809433
			],
			"min":[
				-0.015219678170979023,
				-0.021521512418985367,
				-0.014480914920568466
			],
			"type":"VEC3"
		},
		{
			"bufferView":16,
			"componentType":5126,
			"count":51,
			"type":"VEC3"
		},
		{
			"bufferView":17,
			"componentType":5126,
			"count":51,
			"type":"VEC2"
		},
		{
			"bufferView":18,
			"componentType":5126,
			"count":51,
			"type":"VEC2"
		},
		{
			"bufferView":19,
			"componentType":5123,
			"count":123,
			"type":"SCALAR"
		},
		{
			"bufferView":20,
			"componentType":5126,
			"count":120,
			"max":[
				4
			],
			"min":[
				0.03333333333333333
			],
			"type":"SCALAR"
		},
		{
			"bufferView":21,
			"componentType":5126,
			"count":120,
			"type":"VEC3"
		},
		{
			"bufferView":22,
			"componentType":5126,
			"count":120,
			"type":"VEC4"
		},
		{
			"bufferView":23,
			"componentType":5126,
			"count":120,
			"type":"VEC3"
		},
		{
			"bufferView":24,
			"componentType":5126,
			"count":120,
			"type":"VEC4"
		},
		{
			"bufferView":25,
			"componentType":5126,
			"count":120,
			"type":"VEC3"
		},
		{
			"bufferView":26,
			"componentType":5126,
			"count":120,
			"type":"VEC4"
		},
		{
			"bufferView":27,
			"componentType":5126,
			"count":120,
			"type":"VEC3"
		},
		{
			"bufferView":28,
			"componentType":5126,
			"count":120,
			"type":"VEC4"
		}
	],
	"bufferViews":[
		{
			"buffer":0,
			"byteLength":1152,
			"byteOffset":0,
			"target":34962
		},
		{
			"buffer":0,
			"byteLength":1152,
			"byteOffset":1152,
			"target":34962
		},
		{
			"buffer":0,
			"byteLength":768,
			"byteOffset":2304,
			"target":34962
		},
		{
			"buffer":0,
			"byteLength":768,
			"byteOffset":3072,
			"target":34962
		},
		{
			"buffer":0,
			"byteLength":516,
			"byteOffset":3840,
			"target":34963
		},
		{
			"buffer":0,
			"byteLength":492,
			"byteOffset":4356,
			"target":34962
		},
		{
			"buffer":0,
			"byteLength":492,
			"byteOffset":4848,
			"target":34962
		},
		{
			"buffer":0,
			"byteLength":328,
			"byteOffset":5340,
			"target":34962
		},
		{
			"buffer":0,
			"byteLength":328,
			"byteOffset":5668,
			"target":34962
		},
		{
			"buffer":0,
			"byteLength":204,
			"byteOffset":5996,
			"target":34963
		},
		{
			"buffer":0,
			"byteLength":840,
			"byteOffset":6200,
			"target":34962
		},
		{
			"buffer":0,
			"byteLength":840,
			"byteOffset":7040,
			"target":34962
		},
		{
			"buffer":0,
			"byteLength":560,
			"byteOffset":7880,
			"target":34962
		},
		{
			"buffer":0,
			"byteLength":560,
			"byteOffset":8440,
			"target":34962
		},
		{
			"buffer":0,
			"byteLength":408,
			"byteOffset":9000,
			"target":34963
		},
		{
			"buffer":0,
			"byteLength":612,
			"byteOffset":9408,
			"target":34962
		},
		{
			"buffer":0,
			"byteLength":612,
			"byteOffset":10020,
			"target":34962
		},
		{
			"buffer":0,
			"byteLength":408,
			"byteOffset":10632,
			"target":34962
		},
		{
			"buffer":0,
			"byteLength":408,
			"byteOffset":11040,
			"target":34962
		},
		{
			"buffer":0,
			"byteLength":246,
			"byteOffset":11448,
			"target":34963
		},
		{
			"buffer":0,
			"byteLength":480,
			"byteOffset":11696
		},
		{
			"buffer":0,
			"byteLength":1440,
			"byteOffset":12176
		},
		{
			"buffer":0,
			"byteLength":1920,
			"byteOffset":13616
		},
		{
			"buffer":0,
			"byteLength":1440,
			"byteOffset":15536
		},
		{
			"buffer":0,
			"byteLength":1920,
			"byteOffset":16976
		},
		{
			"buffer":0,
			"byteLength":1440,
			"byteOffset":18896
		},
		{
			"buffer":0,
			"byteLength":1920,
			"byteOffset":20336
		},
		{
			"buffer":0,
			"byteLength":1440,
			"byteOffset":22256
		},
		{
			"buffer":0,
			"byteLength":1920,
			"byteOffset":23696
		}
	],
	"samplers":[
		{
			"magFilter":9729,
			"minFilter":9987
		}
	],
	"buffers":[
		{
			"byteLength":25616,
			"uri":"Ceramic011.bin"
		}
	]
}
