{
	"asset":{
		"generator":"Khronos glTF Blender I/O v4.4.55",
		"version":"2.0"
	},
	"extensionsUsed":[
		"KHR_materials_specular"
	],
	"scene":0,
	"scenes":[
		{
			"name":"Scene",
			"nodes":[
				0,
				1,
				2,
				3,
				4,
				5
			]
		}
	],
	"nodes":[
		{
			"mesh":0,
			"name":"Ceramic016",
			"translation":[
				0.31573203206062317,
				-0.5171386003494263,
				-0.03770333155989647
			]
		},
		{
			"mesh":1,
			"name":"Ceramic016_001",
			"translation":[
				0.30719801783561707,
				-0.5012643337249756,
				-0.03785024583339691
			]
		},
		{
			"mesh":2,
			"name":"Ceramic016_002",
			"translation":[
				0.3342186510562897,
				-0.5110897421836853,
				-0.03835905343294144
			]
		},
		{
			"mesh":3,
			"name":"Ceramic016_003",
			"translation":[
				0.3319137394428253,
				-0.47194361686706543,
				-0.03774208575487137
			]
		},
		{
			"mesh":4,
			"name":"Ceramic016_004",
			"translation":[
				0.3448510766029358,
				-0.4942282736301422,
				-0.038209233433008194
			]
		},
		{
			"mesh":5,
			"name":"Ceramic016_005",
			"translation":[
				0.30830061435699463,
				-0.4661572575569153,
				-0.0337362103164196
			]
		}
	],
	"animations":[
		{
			"channels":[
				{
					"sampler":0,
					"target":{
						"node":0,
						"path":"translation"
					}
				},
				{
					"sampler":1,
					"target":{
						"node":0,
						"path":"rotation"
					}
				}
			],
			"name":"Ceramic.038Action",
			"samplers":[
				{
					"input":30,
					"interpolation":"LINEAR",
					"output":31
				},
				{
					"input":30,
					"interpolation":"LINEAR",
					"output":32
				}
			]
		},
		{
			"channels":[
				{
					"sampler":0,
					"target":{
						"node":1,
						"path":"translation"
					}
				},
				{
					"sampler":1,
					"target":{
						"node":1,
						"path":"rotation"
					}
				}
			],
			"name":"Ceramic.050Action",
			"samplers":[
				{
					"input":30,
					"interpolation":"LINEAR",
					"output":33
				},
				{
					"input":30,
					"interpolation":"LINEAR",
					"output":34
				}
			]
		},
		{
			"channels":[
				{
					"sampler":0,
					"target":{
						"node":2,
						"path":"translation"
					}
				},
				{
					"sampler":1,
					"target":{
						"node":2,
						"path":"rotation"
					}
				}
			],
			"name":"Ceramic.051Action",
			"samplers":[
				{
					"input":30,
					"interpolation":"LINEAR",
					"output":35
				},
				{
					"input":30,
					"interpolation":"LINEAR",
					"output":36
				}
			]
		},
		{
			"channels":[
				{
					"sampler":0,
					"target":{
						"node":3,
						"path":"translation"
					}
				},
				{
					"sampler":1,
					"target":{
						"node":3,
						"path":"rotation"
					}
				}
			],
			"name":"Ceramic.052Action",
			"samplers":[
				{
					"input":30,
					"interpolation":"LINEAR",
					"output":37
				},
				{
					"input":30,
					"interpolation":"LINEAR",
					"output":38
				}
			]
		},
		{
			"channels":[
				{
					"sampler":0,
					"target":{
						"node":4,
						"path":"translation"
					}
				},
				{
					"sampler":1,
					"target":{
						"node":4,
						"path":"rotation"
					}
				}
			],
			"name":"Ceramic.053Action",
			"samplers":[
				{
					"input":30,
					"interpolation":"LINEAR",
					"output":39
				},
				{
					"input":30,
					"interpolation":"LINEAR",
					"output":40
				}
			]
		},
		{
			"channels":[
				{
					"sampler":0,
					"target":{
						"node":5,
						"path":"translation"
					}
				},
				{
					"sampler":1,
					"target":{
						"node":5,
						"path":"rotation"
					}
				}
			],
			"name":"Ceramic.054Action",
			"samplers":[
				{
					"input":30,
					"interpolation":"LINEAR",
					"output":41
				},
				{
					"input":30,
					"interpolation":"LINEAR",
					"output":42
				}
			]
		}
	],
	"materials":[
		{
			"doubleSided":true,
			"emissiveFactor":[
				1,
				1,
				1
			],
			"emissiveTexture":{
				"index":0
			},
			"extensions":{
				"KHR_materials_specular":{
					"specularTexture":{
						"index":1
					}
				}
			},
			"name":"BranaLP",
			"normalTexture":{
				"index":2
			},
			"pbrMetallicRoughness":{
				"baseColorTexture":{
					"index":3
				},
				"metallicRoughnessTexture":{
					"index":4
				},
				"roughnessFactor":0.5
			}
		}
	],
	"meshes":[
		{
			"name":"Plane.058",
			"primitives":[
				{
					"attributes":{
						"POSITION":0,
						"NORMAL":1,
						"TEXCOORD_0":2,
						"TEXCOORD_1":3
					},
					"indices":4,
					"material":0
				}
			]
		},
		{
			"name":"Plane.145",
			"primitives":[
				{
					"attributes":{
						"POSITION":5,
						"NORMAL":6,
						"TEXCOORD_0":7,
						"TEXCOORD_1":8
					},
					"indices":9,
					"material":0
				}
			]
		},
		{
			"name":"Plane.146",
			"primitives":[
				{
					"attributes":{
						"POSITION":10,
						"NORMAL":11,
						"TEXCOORD_0":12,
						"TEXCOORD_1":13
					},
					"indices":14,
					"material":0
				}
			]
		},
		{
			"name":"Plane.147",
			"primitives":[
				{
					"attributes":{
						"POSITION":15,
						"NORMAL":16,
						"TEXCOORD_0":17,
						"TEXCOORD_1":18
					},
					"indices":19,
					"material":0
				}
			]
		},
		{
			"name":"Plane.148",
			"primitives":[
				{
					"attributes":{
						"POSITION":20,
						"NORMAL":21,
						"TEXCOORD_0":22,
						"TEXCOORD_1":23
					},
					"indices":24,
					"material":0
				}
			]
		},
		{
			"name":"Plane.149",
			"primitives":[
				{
					"attributes":{
						"POSITION":25,
						"NORMAL":26,
						"TEXCOORD_0":27,
						"TEXCOORD_1":28
					},
					"indices":29,
					"material":0
				}
			]
		}
	],
	"textures":[
		{
			"sampler":0,
			"source":0
		},
		{
			"sampler":0,
			"source":1
		},
		{
			"sampler":0,
			"source":2
		},
		{
			"sampler":0,
			"source":3
		},
		{
			"sampler":0,
			"source":4
		}
	],
	"images":[
		{
			"mimeType":"image/jpeg",
			"name":"BranaLP Diffuse Baked.jpg",
			"uri":"../tex/brana/BranaLP%20Diffuse%20Baked.jpg"
		},
		{
			"mimeType":"image/jpeg",
			"name":"BranaLP Specular.jpg",
			"uri":"../tex/brana/BranaLP%20Specular.jpg"
		},
		{
			"mimeType":"image/jpeg",
			"name":"BranaLP Normal.jpg",
			"uri":"../tex/brana/BranaLP%20Normal.jpg"
		},
		{
			"mimeType":"image/jpeg",
			"name":"BranaLP Diffuse.jpg",
			"uri":"../tex/brana/BranaLP%20Diffuse.jpg"
		},
		{
			"mimeType":"image/jpeg",
			"name":"BranaLP Metallic.jpg",
			"uri":"../tex/brana/BranaLP%20Metallic.jpg"
		}
	],
	"accessors":[
		{
			"bufferView":0,
			"componentType":5126,
			"count":83,
			"max":[
				0.0055772983469069,
				0.020388353615999222,
				0.006452691741287708
			],
			"min":[
				-0.013825507834553719,
				-0.022316765040159225,
				-0.0071403877809643745
			],
			"type":"VEC3"
		},
		{
			"bufferView":1,
			"componentType":5126,
			"count":83,
			"type":"VEC3"
		},
		{
			"bufferView":2,
			"componentType":5126,
			"count":83,
			"type":"VEC2"
		},
		{
			"bufferView":3,
			"componentType":5126,
			"count":83,
			"type":"VEC2"
		},
		{
			"bufferView":4,
			"componentType":5123,
			"count":222,
			"type":"SCALAR"
		},
		{
			"bufferView":5,
			"componentType":5126,
			"count":97,
			"max":[
				0.02113947458565235,
				0.015881666913628578,
				0.006464822217822075
			],
			"min":[
				-0.015436196699738503,
				-0.026833804324269295,
				-0.007337546907365322
			],
			"type":"VEC3"
		},
		{
			"bufferView":6,
			"componentType":5126,
			"count":97,
			"type":"VEC3"
		},
		{
			"bufferView":7,
			"componentType":5126,
			"count":97,
			"type":"VEC2"
		},
		{
			"bufferView":8,
			"componentType":5126,
			"count":97,
			"type":"VEC2"
		},
		{
			"bufferView":9,
			"componentType":5123,
			"count":264,
			"type":"SCALAR"
		},
		{
			"bufferView":10,
			"componentType":5126,
			"count":93,
			"max":[
				0.034036677330732346,
				0.018371079117059708,
				0.00862696673721075
			],
			"min":[
				-0.012915054336190224,
				-0.025931166484951973,
				-0.006476312875747681
			],
			"type":"VEC3"
		},
		{
			"bufferView":11,
			"componentType":5126,
			"count":93,
			"type":"VEC3"
		},
		{
			"bufferView":12,
			"componentType":5126,
			"count":93,
			"type":"VEC2"
		},
		{
			"bufferView":13,
			"componentType":5126,
			"count":93,
			"type":"VEC2"
		},
		{
			"bufferView":14,
			"componentType":5123,
			"count":264,
			"type":"SCALAR"
		},
		{
			"bufferView":15,
			"componentType":5126,
			"count":90,
			"max":[
				0.028052669018507004,
				0.02982637658715248,
				0.01028646994382143
			],
			"min":[
				-0.012477708980441093,
				-0.01351015642285347,
				-0.006840236485004425
			],
			"type":"VEC3"
		},
		{
			"bufferView":16,
			"componentType":5126,
			"count":90,
			"type":"VEC3"
		},
		{
			"bufferView":17,
			"componentType":5126,
			"count":90,
			"type":"VEC2"
		},
		{
			"bufferView":18,
			"componentType":5126,
			"count":90,
			"type":"VEC2"
		},
		{
			"bufferView":19,
			"componentType":5123,
			"count":246,
			"type":"SCALAR"
		},
		{
			"bufferView":20,
			"componentType":5126,
			"count":102,
			"max":[
				0.025972912088036537,
				0.019890448078513145,
				0.008546527475118637
			],
			"min":[
				-0.021052874624729156,
				-0.02648378163576126,
				-0.0065788025967776775
			],
			"type":"VEC3"
		},
		{
			"bufferView":21,
			"componentType":5126,
			"count":102,
			"type":"VEC3"
		},
		{
			"bufferView":22,
			"componentType":5126,
			"count":102,
			"type":"VEC2"
		},
		{
			"bufferView":23,
			"componentType":5126,
			"count":102,
			"type":"VEC2"
		},
		{
			"bufferView":24,
			"componentType":5123,
			"count":282,
			"type":"SCALAR"
		},
		{
			"bufferView":25,
			"componentType":5126,
			"count":114,
			"max":[
				0.021709313616156578,
				0.025606153532862663,
				0.013449703343212605
			],
			"min":[
				-0.017682600766420364,
				-0.01951269619166851,
				-0.010713614523410797
			],
			"type":"VEC3"
		},
		{
			"bufferView":26,
			"componentType":5126,
			"count":114,
			"type":"VEC3"
		},
		{
			"bufferView":27,
			"componentType":5126,
			"count":114,
			"type":"VEC2"
		},
		{
			"bufferView":28,
			"componentType":5126,
			"count":114,
			"type":"VEC2"
		},
		{
			"bufferView":29,
			"componentType":5123,
			"count":318,
			"type":"SCALAR"
		},
		{
			"bufferView":30,
			"componentType":5126,
			"count":120,
			"max":[
				4
			],
			"min":[
				0.03333333333333333
			],
			"type":"SCALAR"
		},
		{
			"bufferView":31,
			"componentType":5126,
			"count":120,
			"type":"VEC3"
		},
		{
			"bufferView":32,
			"componentType":5126,
			"count":120,
			"type":"VEC4"
		},
		{
			"bufferView":33,
			"componentType":5126,
			"count":120,
			"type":"VEC3"
		},
		{
			"bufferView":34,
			"componentType":5126,
			"count":120,
			"type":"VEC4"
		},
		{
			"bufferView":35,
			"componentType":5126,
			"count":120,
			"type":"VEC3"
		},
		{
			"bufferView":36,
			"componentType":5126,
			"count":120,
			"type":"VEC4"
		},
		{
			"bufferView":37,
			"componentType":5126,
			"count":120,
			"type":"VEC3"
		},
		{
			"bufferView":38,
			"componentType":5126,
			"count":120,
			"type":"VEC4"
		},
		{
			"bufferView":39,
			"componentType":5126,
			"count":120,
			"type":"VEC3"
		},
		{
			"bufferView":40,
			"componentType":5126,
			"count":120,
			"type":"VEC4"
		},
		{
			"bufferView":41,
			"componentType":5126,
			"count":120,
			"type":"VEC3"
		},
		{
			"bufferView":42,
			"componentType":5126,
			"count":120,
			"type":"VEC4"
		}
	],
	"bufferViews":[
		{
			"buffer":0,
			"byteLength":996,
			"byteOffset":0,
			"target":34962
		},
		{
			"buffer":0,
			"byteLength":996,
			"byteOffset":996,
			"target":34962
		},
		{
			"buffer":0,
			"byteLength":664,
			"byteOffset":1992,
			"target":34962
		},
		{
			"buffer":0,
			"byteLength":664,
			"byteOffset":2656,
			"target":34962
		},
		{
			"buffer":0,
			"byteLength":444,
			"byteOffset":3320,
			"target":34963
		},
		{
			"buffer":0,
			"byteLength":1164,
			"byteOffset":3764,
			"target":34962
		},
		{
			"buffer":0,
			"byteLength":1164,
			"byteOffset":4928,
			"target":34962
		},
		{
			"buffer":0,
			"byteLength":776,
			"byteOffset":6092,
			"target":34962
		},
		{
			"buffer":0,
			"byteLength":776,
			"byteOffset":6868,
			"target":34962
		},
		{
			"buffer":0,
			"byteLength":528,
			"byteOffset":7644,
			"target":34963
		},
		{
			"buffer":0,
			"byteLength":1116,
			"byteOffset":8172,
			"target":34962
		},
		{
			"buffer":0,
			"byteLength":1116,
			"byteOffset":9288,
			"target":34962
		},
		{
			"buffer":0,
			"byteLength":744,
			"byteOffset":10404,
			"target":34962
		},
		{
			"buffer":0,
			"byteLength":744,
			"byteOffset":11148,
			"target":34962
		},
		{
			"buffer":0,
			"byteLength":528,
			"byteOffset":11892,
			"target":34963
		},
		{
			"buffer":0,
			"byteLength":1080,
			"byteOffset":12420,
			"target":34962
		},
		{
			"buffer":0,
			"byteLength":1080,
			"byteOffset":13500,
			"target":34962
		},
		{
			"buffer":0,
			"byteLength":720,
			"byteOffset":14580,
			"target":34962
		},
		{
			"buffer":0,
			"byteLength":720,
			"byteOffset":15300,
			"target":34962
		},
		{
			"buffer":0,
			"byteLength":492,
			"byteOffset":16020,
			"target":34963
		},
		{
			"buffer":0,
			"byteLength":1224,
			"byteOffset":16512,
			"target":34962
		},
		{
			"buffer":0,
			"byteLength":1224,
			"byteOffset":17736,
			"target":34962
		},
		{
			"buffer":0,
			"byteLength":816,
			"byteOffset":18960,
			"target":34962
		},
		{
			"buffer":0,
			"byteLength":816,
			"byteOffset":19776,
			"target":34962
		},
		{
			"buffer":0,
			"byteLength":564,
			"byteOffset":20592,
			"target":34963
		},
		{
			"buffer":0,
			"byteLength":1368,
			"byteOffset":21156,
			"target":34962
		},
		{
			"buffer":0,
			"byteLength":1368,
			"byteOffset":22524,
			"target":34962
		},
		{
			"buffer":0,
			"byteLength":912,
			"byteOffset":23892,
			"target":34962
		},
		{
			"buffer":0,
			"byteLength":912,
			"byteOffset":24804,
			"target":34962
		},
		{
			"buffer":0,
			"byteLength":636,
			"byteOffset":25716,
			"target":34963
		},
		{
			"buffer":0,
			"byteLength":480,
			"byteOffset":26352
		},
		{
			"buffer":0,
			"byteLength":1440,
			"byteOffset":26832
		},
		{
			"buffer":0,
			"byteLength":1920,
			"byteOffset":28272
		},
		{
			"buffer":0,
			"byteLength":1440,
			"byteOffset":30192
		},
		{
			"buffer":0,
			"byteLength":1920,
			"byteOffset":31632
		},
		{
			"buffer":0,
			"byteLength":1440,
			"byteOffset":33552
		},
		{
			"buffer":0,
			"byteLength":1920,
			"byteOffset":34992
		},
		{
			"buffer":0,
			"byteLength":1440,
			"byteOffset":36912
		},
		{
			"buffer":0,
			"byteLength":1920,
			"byteOffset":38352
		},
		{
			"buffer":0,
			"byteLength":1440,
			"byteOffset":40272
		},
		{
			"buffer":0,
			"byteLength":1920,
			"byteOffset":41712
		},
		{
			"buffer":0,
			"byteLength":1440,
			"byteOffset":43632
		},
		{
			"buffer":0,
			"byteLength":1920,
			"byteOffset":45072
		}
	],
	"samplers":[
		{
			"magFilter":9729,
			"minFilter":9987
		}
	],
	"buffers":[
		{
			"byteLength":46992,
			"uri":"Ceramic016.bin"
		}
	]
}
