{
	"asset":{
		"generator":"Khronos glTF Blender I/O v4.4.55",
		"version":"2.0"
	},
	"scene":0,
	"scenes":[
		{
			"name":"Scene",
			"nodes":[
				0,
				1,
				2,
				3,
				4
			]
		}
	],
	"nodes":[
		{
			"mesh":0,
			"name":"Ceramic002",
			"translation":[
				-0.06870567053556442,
				0.27285563945770264,
				-0.03777975216507912
			]
		},
		{
			"mesh":1,
			"name":"Ceramic002_001",
			"translation":[
				-0.04469829052686691,
				0.2675835192203522,
				-0.03857406973838806
			]
		},
		{
			"mesh":2,
			"name":"Ceramic002_002",
			"translation":[
				-0.08159946650266647,
				0.2582421898841858,
				-0.04453699290752411
			]
		},
		{
			"mesh":3,
			"name":"Ceramic002_003",
			"translation":[
				-0.07956141233444214,
				0.22691702842712402,
				-0.05506063997745514
			]
		},
		{
			"mesh":4,
			"name":"Ceramic002_004",
			"translation":[
				-0.053372759371995926,
				0.24521592259407043,
				-0.043576404452323914
			]
		}
	],
	"animations":[
		{
			"channels":[
				{
					"sampler":0,
					"target":{
						"node":0,
						"path":"translation"
					}
				},
				{
					"sampler":1,
					"target":{
						"node":0,
						"path":"rotation"
					}
				}
			],
			"name":"Ceramic_002Action",
			"samplers":[
				{
					"input":25,
					"interpolation":"LINEAR",
					"output":26
				},
				{
					"input":25,
					"interpolation":"LINEAR",
					"output":27
				}
			]
		},
		{
			"channels":[
				{
					"sampler":0,
					"target":{
						"node":1,
						"path":"translation"
					}
				},
				{
					"sampler":1,
					"target":{
						"node":1,
						"path":"rotation"
					}
				}
			],
			"name":"Ceramic_002.001Action",
			"samplers":[
				{
					"input":25,
					"interpolation":"LINEAR",
					"output":28
				},
				{
					"input":25,
					"interpolation":"LINEAR",
					"output":29
				}
			]
		},
		{
			"channels":[
				{
					"sampler":0,
					"target":{
						"node":2,
						"path":"translation"
					}
				},
				{
					"sampler":1,
					"target":{
						"node":2,
						"path":"rotation"
					}
				}
			],
			"name":"Ceramic_002.002Action",
			"samplers":[
				{
					"input":25,
					"interpolation":"LINEAR",
					"output":30
				},
				{
					"input":25,
					"interpolation":"LINEAR",
					"output":31
				}
			]
		},
		{
			"channels":[
				{
					"sampler":0,
					"target":{
						"node":3,
						"path":"translation"
					}
				},
				{
					"sampler":1,
					"target":{
						"node":3,
						"path":"rotation"
					}
				}
			],
			"name":"Ceramic_002.003Action",
			"samplers":[
				{
					"input":25,
					"interpolation":"LINEAR",
					"output":32
				},
				{
					"input":25,
					"interpolation":"LINEAR",
					"output":33
				}
			]
		},
		{
			"channels":[
				{
					"sampler":0,
					"target":{
						"node":4,
						"path":"translation"
					}
				},
				{
					"sampler":1,
					"target":{
						"node":4,
						"path":"rotation"
					}
				}
			],
			"name":"Ceramic_002.004Action",
			"samplers":[
				{
					"input":25,
					"interpolation":"LINEAR",
					"output":34
				},
				{
					"input":25,
					"interpolation":"LINEAR",
					"output":35
				}
			]
		}
	],
	"materials":[
		{
			"doubleSided":true,
			"emissiveFactor":[
				1,
				1,
				1
			],
			"emissiveTexture":{
				"index":0
			},
			"name":"Harrow",
			"pbrMetallicRoughness":{
				"baseColorFactor":[
					0,
					0,
					0,
					1
				]
			}
		}
	],
	"meshes":[
		{
			"name":"Plane.047",
			"primitives":[
				{
					"attributes":{
						"POSITION":0,
						"NORMAL":1,
						"TEXCOORD_0":2,
						"TEXCOORD_1":3
					},
					"indices":4,
					"material":0
				}
			]
		},
		{
			"name":"Plane.077",
			"primitives":[
				{
					"attributes":{
						"POSITION":5,
						"NORMAL":6,
						"TEXCOORD_0":7,
						"TEXCOORD_1":8
					},
					"indices":9,
					"material":0
				}
			]
		},
		{
			"name":"Plane.078",
			"primitives":[
				{
					"attributes":{
						"POSITION":10,
						"NORMAL":11,
						"TEXCOORD_0":12,
						"TEXCOORD_1":13
					},
					"indices":14,
					"material":0
				}
			]
		},
		{
			"name":"Plane.079",
			"primitives":[
				{
					"attributes":{
						"POSITION":15,
						"NORMAL":16,
						"TEXCOORD_0":17,
						"TEXCOORD_1":18
					},
					"indices":19,
					"material":0
				}
			]
		},
		{
			"name":"Plane.080",
			"primitives":[
				{
					"attributes":{
						"POSITION":20,
						"NORMAL":21,
						"TEXCOORD_0":22,
						"TEXCOORD_1":23
					},
					"indices":24,
					"material":0
				}
			]
		}
	],
	"textures":[
		{
			"sampler":0,
			"source":0
		}
	],
	"images":[
		{
			"mimeType":"image/jpeg",
			"name":"BranaLP Diffuse Baked.jpg",
			"uri":"../tex/brana/BranaLP%20Diffuse%20Baked.jpg"
		}
	],
	"accessors":[
		{
			"bufferView":0,
			"componentType":5126,
			"count":92,
			"max":[
				0.003708828706294298,
				0.014108818024396896,
				0.006175641901791096
			],
			"min":[
				-0.01019766740500927,
				-0.01519014686346054,
				-0.007155025843530893
			],
			"type":"VEC3"
		},
		{
			"bufferView":1,
			"componentType":5126,
			"count":92,
			"type":"VEC3"
		},
		{
			"bufferView":2,
			"componentType":5126,
			"count":92,
			"type":"VEC2"
		},
		{
			"bufferView":3,
			"componentType":5126,
			"count":92,
			"type":"VEC2"
		},
		{
			"bufferView":4,
			"componentType":5123,
			"count":258,
			"type":"SCALAR"
		},
		{
			"bufferView":5,
			"componentType":5126,
			"count":208,
			"max":[
				0.030243152752518654,
				0.02450093999505043,
				0.008030511438846588
			],
			"min":[
				-0.020298555493354797,
				-0.017259541898965836,
				-0.008418525569140911
			],
			"type":"VEC3"
		},
		{
			"bufferView":6,
			"componentType":5126,
			"count":208,
			"type":"VEC3"
		},
		{
			"bufferView":7,
			"componentType":5126,
			"count":208,
			"type":"VEC2"
		},
		{
			"bufferView":8,
			"componentType":5126,
			"count":208,
			"type":"VEC2"
		},
		{
			"bufferView":9,
			"componentType":5123,
			"count":714,
			"type":"SCALAR"
		},
		{
			"bufferView":10,
			"componentType":5126,
			"count":150,
			"max":[
				0.016602620482444763,
				0.02608519420027733,
				0.011409650556743145
			],
			"min":[
				-0.02516118995845318,
				-0.025670573115348816,
				-0.018616169691085815
			],
			"type":"VEC3"
		},
		{
			"bufferView":11,
			"componentType":5126,
			"count":150,
			"type":"VEC3"
		},
		{
			"bufferView":12,
			"componentType":5126,
			"count":150,
			"type":"VEC2"
		},
		{
			"bufferView":13,
			"componentType":5126,
			"count":150,
			"type":"VEC2"
		},
		{
			"bufferView":14,
			"componentType":5123,
			"count":462,
			"type":"SCALAR"
		},
		{
			"bufferView":15,
			"componentType":5126,
			"count":169,
			"max":[
				0.030759794637560844,
				0.02517550066113472,
				0.01664290949702263
			],
			"min":[
				-0.026697147637605667,
				-0.033071763813495636,
				-0.021338388323783875
			],
			"type":"VEC3"
		},
		{
			"bufferView":16,
			"componentType":5126,
			"count":169,
			"type":"VEC3"
		},
		{
			"bufferView":17,
			"componentType":5126,
			"count":169,
			"type":"VEC2"
		},
		{
			"bufferView":18,
			"componentType":5126,
			"count":169,
			"type":"VEC2"
		},
		{
			"bufferView":19,
			"componentType":5123,
			"count":540,
			"type":"SCALAR"
		},
		{
			"bufferView":20,
			"componentType":5126,
			"count":138,
			"max":[
				0.026553168892860413,
				0.011179633438587189,
				0.0072540296241641045
			],
			"min":[
				-0.019372042268514633,
				-0.020231757313013077,
				-0.010026996023952961
			],
			"type":"VEC3"
		},
		{
			"bufferView":21,
			"componentType":5126,
			"count":138,
			"type":"VEC3"
		},
		{
			"bufferView":22,
			"componentType":5126,
			"count":138,
			"type":"VEC2"
		},
		{
			"bufferView":23,
			"componentType":5126,
			"count":138,
			"type":"VEC2"
		},
		{
			"bufferView":24,
			"componentType":5123,
			"count":390,
			"type":"SCALAR"
		},
		{
			"bufferView":25,
			"componentType":5126,
			"count":120,
			"max":[
				4
			],
			"min":[
				0.03333333333333333
			],
			"type":"SCALAR"
		},
		{
			"bufferView":26,
			"componentType":5126,
			"count":120,
			"type":"VEC3"
		},
		{
			"bufferView":27,
			"componentType":5126,
			"count":120,
			"type":"VEC4"
		},
		{
			"bufferView":28,
			"componentType":5126,
			"count":120,
			"type":"VEC3"
		},
		{
			"bufferView":29,
			"componentType":5126,
			"count":120,
			"type":"VEC4"
		},
		{
			"bufferView":30,
			"componentType":5126,
			"count":120,
			"type":"VEC3"
		},
		{
			"bufferView":31,
			"componentType":5126,
			"count":120,
			"type":"VEC4"
		},
		{
			"bufferView":32,
			"componentType":5126,
			"count":120,
			"type":"VEC3"
		},
		{
			"bufferView":33,
			"componentType":5126,
			"count":120,
			"type":"VEC4"
		},
		{
			"bufferView":34,
			"componentType":5126,
			"count":120,
			"type":"VEC3"
		},
		{
			"bufferView":35,
			"componentType":5126,
			"count":120,
			"type":"VEC4"
		}
	],
	"bufferViews":[
		{
			"buffer":0,
			"byteLength":1104,
			"byteOffset":0,
			"target":34962
		},
		{
			"buffer":0,
			"byteLength":1104,
			"byteOffset":1104,
			"target":34962
		},
		{
			"buffer":0,
			"byteLength":736,
			"byteOffset":2208,
			"target":34962
		},
		{
			"buffer":0,
			"byteLength":736,
			"byteOffset":2944,
			"target":34962
		},
		{
			"buffer":0,
			"byteLength":516,
			"byteOffset":3680,
			"target":34963
		},
		{
			"buffer":0,
			"byteLength":2496,
			"byteOffset":4196,
			"target":34962
		},
		{
			"buffer":0,
			"byteLength":2496,
			"byteOffset":6692,
			"target":34962
		},
		{
			"buffer":0,
			"byteLength":1664,
			"byteOffset":9188,
			"target":34962
		},
		{
			"buffer":0,
			"byteLength":1664,
			"byteOffset":10852,
			"target":34962
		},
		{
			"buffer":0,
			"byteLength":1428,
			"byteOffset":12516,
			"target":34963
		},
		{
			"buffer":0,
			"byteLength":1800,
			"byteOffset":13944,
			"target":34962
		},
		{
			"buffer":0,
			"byteLength":1800,
			"byteOffset":15744,
			"target":34962
		},
		{
			"buffer":0,
			"byteLength":1200,
			"byteOffset":17544,
			"target":34962
		},
		{
			"buffer":0,
			"byteLength":1200,
			"byteOffset":18744,
			"target":34962
		},
		{
			"buffer":0,
			"byteLength":924,
			"byteOffset":19944,
			"target":34963
		},
		{
			"buffer":0,
			"byteLength":2028,
			"byteOffset":20868,
			"target":34962
		},
		{
			"buffer":0,
			"byteLength":2028,
			"byteOffset":22896,
			"target":34962
		},
		{
			"buffer":0,
			"byteLength":1352,
			"byteOffset":24924,
			"target":34962
		},
		{
			"buffer":0,
			"byteLength":1352,
			"byteOffset":26276,
			"target":34962
		},
		{
			"buffer":0,
			"byteLength":1080,
			"byteOffset":27628,
			"target":34963
		},
		{
			"buffer":0,
			"byteLength":1656,
			"byteOffset":28708,
			"target":34962
		},
		{
			"buffer":0,
			"byteLength":1656,
			"byteOffset":30364,
			"target":34962
		},
		{
			"buffer":0,
			"byteLength":1104,
			"byteOffset":32020,
			"target":34962
		},
		{
			"buffer":0,
			"byteLength":1104,
			"byteOffset":33124,
			"target":34962
		},
		{
			"buffer":0,
			"byteLength":780,
			"byteOffset":34228,
			"target":34963
		},
		{
			"buffer":0,
			"byteLength":480,
			"byteOffset":35008
		},
		{
			"buffer":0,
			"byteLength":1440,
			"byteOffset":35488
		},
		{
			"buffer":0,
			"byteLength":1920,
			"byteOffset":36928
		},
		{
			"buffer":0,
			"byteLength":1440,
			"byteOffset":38848
		},
		{
			"buffer":0,
			"byteLength":1920,
			"byteOffset":40288
		},
		{
			"buffer":0,
			"byteLength":1440,
			"byteOffset":42208
		},
		{
			"buffer":0,
			"byteLength":1920,
			"byteOffset":43648
		},
		{
			"buffer":0,
			"byteLength":1440,
			"byteOffset":45568
		},
		{
			"buffer":0,
			"byteLength":1920,
			"byteOffset":47008
		},
		{
			"buffer":0,
			"byteLength":1440,
			"byteOffset":48928
		},
		{
			"buffer":0,
			"byteLength":1920,
			"byteOffset":50368
		}
	],
	"samplers":[
		{
			"magFilter":9729,
			"minFilter":9987
		}
	],
	"buffers":[
		{
			"byteLength":52288,
			"uri":"Ceramic002.bin"
		}
	]
}
