{
	"asset":{
		"generator":"Khronos glTF Blender I/O v4.4.55",
		"version":"2.0"
	},
	"extensionsUsed":[
		"KHR_materials_specular"
	],
	"scene":0,
	"scenes":[
		{
			"name":"Scene",
			"nodes":[
				0,
				1,
				2,
				3,
				4
			]
		}
	],
	"nodes":[
		{
			"mesh":0,
			"name":"Ceramic008",
			"scale":[
				1.1201984882354736,
				1.1201984882354736,
				1.1201984882354736
			],
			"translation":[
				-0.055812567472457886,
				0.06601618975400925,
				-0.0689365416765213
			]
		},
		{
			"mesh":1,
			"name":"Ceramic008_001",
			"scale":[
				1.1201984882354736,
				1.1201984882354736,
				1.1201984882354736
			],
			"translation":[
				-0.08505509793758392,
				0.07863224297761917,
				-0.06477394700050354
			]
		},
		{
			"mesh":2,
			"name":"Ceramic008_002",
			"scale":[
				1.1201984882354736,
				1.1201984882354736,
				1.1201984882354736
			],
			"translation":[
				-0.06622052192687988,
				0.02940133959054947,
				-0.06257423758506775
			]
		},
		{
			"mesh":3,
			"name":"Ceramic008_003",
			"scale":[
				1.1201984882354736,
				1.1201984882354736,
				1.1201984882354736
			],
			"translation":[
				-0.041978828608989716,
				0.01815195381641388,
				-0.0608423575758934
			]
		},
		{
			"mesh":4,
			"name":"Ceramic008_004",
			"scale":[
				1.1201984882354736,
				1.1201984882354736,
				1.1201984882354736
			],
			"translation":[
				-0.09232810884714127,
				0.0446743443608284,
				-0.058491215109825134
			]
		}
	],
	"animations":[
		{
			"channels":[
				{
					"sampler":0,
					"target":{
						"node":0,
						"path":"translation"
					}
				},
				{
					"sampler":1,
					"target":{
						"node":0,
						"path":"rotation"
					}
				}
			],
			"name":"Ceramic008Action",
			"samplers":[
				{
					"input":25,
					"interpolation":"LINEAR",
					"output":26
				},
				{
					"input":25,
					"interpolation":"LINEAR",
					"output":27
				}
			]
		},
		{
			"channels":[
				{
					"sampler":0,
					"target":{
						"node":1,
						"path":"translation"
					}
				},
				{
					"sampler":1,
					"target":{
						"node":1,
						"path":"rotation"
					}
				}
			],
			"name":"Ceramic008.001Action",
			"samplers":[
				{
					"input":25,
					"interpolation":"LINEAR",
					"output":28
				},
				{
					"input":25,
					"interpolation":"LINEAR",
					"output":29
				}
			]
		},
		{
			"channels":[
				{
					"sampler":0,
					"target":{
						"node":2,
						"path":"translation"
					}
				},
				{
					"sampler":1,
					"target":{
						"node":2,
						"path":"rotation"
					}
				}
			],
			"name":"Ceramic008.002Action",
			"samplers":[
				{
					"input":25,
					"interpolation":"LINEAR",
					"output":30
				},
				{
					"input":25,
					"interpolation":"LINEAR",
					"output":31
				}
			]
		},
		{
			"channels":[
				{
					"sampler":0,
					"target":{
						"node":3,
						"path":"translation"
					}
				},
				{
					"sampler":1,
					"target":{
						"node":3,
						"path":"rotation"
					}
				}
			],
			"name":"Ceramic008.003Action",
			"samplers":[
				{
					"input":25,
					"interpolation":"LINEAR",
					"output":32
				},
				{
					"input":25,
					"interpolation":"LINEAR",
					"output":33
				}
			]
		},
		{
			"channels":[
				{
					"sampler":0,
					"target":{
						"node":4,
						"path":"translation"
					}
				},
				{
					"sampler":1,
					"target":{
						"node":4,
						"path":"rotation"
					}
				}
			],
			"name":"Ceramic008.004Action",
			"samplers":[
				{
					"input":25,
					"interpolation":"LINEAR",
					"output":34
				},
				{
					"input":25,
					"interpolation":"LINEAR",
					"output":35
				}
			]
		}
	],
	"materials":[
		{
			"doubleSided":true,
			"emissiveFactor":[
				1,
				1,
				1
			],
			"emissiveTexture":{
				"index":0
			},
			"extensions":{
				"KHR_materials_specular":{
					"specularTexture":{
						"index":1
					}
				}
			},
			"name":"BranaLP",
			"normalTexture":{
				"index":2
			},
			"pbrMetallicRoughness":{
				"baseColorTexture":{
					"index":3
				},
				"metallicRoughnessTexture":{
					"index":4
				},
				"roughnessFactor":0.5
			}
		}
	],
	"meshes":[
		{
			"name":"Plane.050",
			"primitives":[
				{
					"attributes":{
						"POSITION":0,
						"NORMAL":1,
						"TEXCOORD_0":2,
						"TEXCOORD_1":3
					},
					"indices":4,
					"material":0
				}
			]
		},
		{
			"name":"Plane.107",
			"primitives":[
				{
					"attributes":{
						"POSITION":5,
						"NORMAL":6,
						"TEXCOORD_0":7,
						"TEXCOORD_1":8
					},
					"indices":9,
					"material":0
				}
			]
		},
		{
			"name":"Plane.108",
			"primitives":[
				{
					"attributes":{
						"POSITION":10,
						"NORMAL":11,
						"TEXCOORD_0":12,
						"TEXCOORD_1":13
					},
					"indices":14,
					"material":0
				}
			]
		},
		{
			"name":"Plane.109",
			"primitives":[
				{
					"attributes":{
						"POSITION":15,
						"NORMAL":16,
						"TEXCOORD_0":17,
						"TEXCOORD_1":18
					},
					"indices":19,
					"material":0
				}
			]
		},
		{
			"name":"Plane.110",
			"primitives":[
				{
					"attributes":{
						"POSITION":20,
						"NORMAL":21,
						"TEXCOORD_0":22,
						"TEXCOORD_1":23
					},
					"indices":24,
					"material":0
				}
			]
		}
	],
	"textures":[
		{
			"sampler":0,
			"source":0
		},
		{
			"sampler":0,
			"source":1
		},
		{
			"sampler":0,
			"source":2
		},
		{
			"sampler":0,
			"source":3
		},
		{
			"sampler":0,
			"source":4
		}
	],
	"images":[
		{
			"mimeType":"image/jpeg",
			"name":"BranaLP Diffuse Baked.jpg",
			"uri":"../tex/brana/BranaLP%20Diffuse%20Baked.jpg"
		},
		{
			"mimeType":"image/jpeg",
			"name":"BranaLP Specular.jpg",
			"uri":"../tex/brana/BranaLP%20Specular.jpg"
		},
		{
			"mimeType":"image/jpeg",
			"name":"BranaLP Normal.jpg",
			"uri":"../tex/brana/BranaLP%20Normal.jpg"
		},
		{
			"mimeType":"image/jpeg",
			"name":"BranaLP Diffuse.jpg",
			"uri":"../tex/brana/BranaLP%20Diffuse.jpg"
		},
		{
			"mimeType":"image/jpeg",
			"name":"BranaLP Metallic.jpg",
			"uri":"../tex/brana/BranaLP%20Metallic.jpg"
		}
	],
	"accessors":[
		{
			"bufferView":0,
			"componentType":5126,
			"count":222,
			"max":[
				0.03309282660484314,
				0.021456941962242126,
				0.013392722234129906
			],
			"min":[
				-0.013490608893334866,
				-0.03534207120537758,
				-0.018337104469537735
			],
			"type":"VEC3"
		},
		{
			"bufferView":1,
			"componentType":5126,
			"count":222,
			"type":"VEC3"
		},
		{
			"bufferView":2,
			"componentType":5126,
			"count":222,
			"type":"VEC2"
		},
		{
			"bufferView":3,
			"componentType":5126,
			"count":222,
			"type":"VEC2"
		},
		{
			"bufferView":4,
			"componentType":5123,
			"count":768,
			"type":"SCALAR"
		},
		{
			"bufferView":5,
			"componentType":5126,
			"count":219,
			"max":[
				0.015751922503113747,
				0.024742649868130684,
				0.022931884974241257
			],
			"min":[
				-0.029211517423391342,
				-0.022283116355538368,
				-0.021670345216989517
			],
			"type":"VEC3"
		},
		{
			"bufferView":6,
			"componentType":5126,
			"count":219,
			"type":"VEC3"
		},
		{
			"bufferView":7,
			"componentType":5126,
			"count":219,
			"type":"VEC2"
		},
		{
			"bufferView":8,
			"componentType":5126,
			"count":219,
			"type":"VEC2"
		},
		{
			"bufferView":9,
			"componentType":5123,
			"count":768,
			"type":"SCALAR"
		},
		{
			"bufferView":10,
			"componentType":5126,
			"count":191,
			"max":[
				0.028481246903538704,
				0.029649734497070312,
				0.008719650097191334
			],
			"min":[
				-0.018323052674531937,
				-0.03146785870194435,
				-0.006359599065035582
			],
			"type":"VEC3"
		},
		{
			"bufferView":11,
			"componentType":5126,
			"count":191,
			"type":"VEC3"
		},
		{
			"bufferView":12,
			"componentType":5126,
			"count":191,
			"type":"VEC2"
		},
		{
			"bufferView":13,
			"componentType":5126,
			"count":191,
			"type":"VEC2"
		},
		{
			"bufferView":14,
			"componentType":5123,
			"count":588,
			"type":"SCALAR"
		},
		{
			"bufferView":15,
			"componentType":5126,
			"count":121,
			"max":[
				0.02799130417406559,
				0.02091851457953453,
				0.009850726462900639
			],
			"min":[
				-0.027512894943356514,
				-0.02019934356212616,
				-0.007569487206637859
			],
			"type":"VEC3"
		},
		{
			"bufferView":16,
			"componentType":5126,
			"count":121,
			"type":"VEC3"
		},
		{
			"bufferView":17,
			"componentType":5126,
			"count":121,
			"type":"VEC2"
		},
		{
			"bufferView":18,
			"componentType":5126,
			"count":121,
			"type":"VEC2"
		},
		{
			"bufferView":19,
			"componentType":5123,
			"count":372,
			"type":"SCALAR"
		},
		{
			"bufferView":20,
			"componentType":5126,
			"count":156,
			"max":[
				0.01618262566626072,
				0.029009457677602768,
				0.013818159699440002
			],
			"min":[
				-0.02398390881717205,
				-0.0371064767241478,
				-0.00871594250202179
			],
			"type":"VEC3"
		},
		{
			"bufferView":21,
			"componentType":5126,
			"count":156,
			"type":"VEC3"
		},
		{
			"bufferView":22,
			"componentType":5126,
			"count":156,
			"type":"VEC2"
		},
		{
			"bufferView":23,
			"componentType":5126,
			"count":156,
			"type":"VEC2"
		},
		{
			"bufferView":24,
			"componentType":5123,
			"count":492,
			"type":"SCALAR"
		},
		{
			"bufferView":25,
			"componentType":5126,
			"count":120,
			"max":[
				4
			],
			"min":[
				0.03333333333333333
			],
			"type":"SCALAR"
		},
		{
			"bufferView":26,
			"componentType":5126,
			"count":120,
			"type":"VEC3"
		},
		{
			"bufferView":27,
			"componentType":5126,
			"count":120,
			"type":"VEC4"
		},
		{
			"bufferView":28,
			"componentType":5126,
			"count":120,
			"type":"VEC3"
		},
		{
			"bufferView":29,
			"componentType":5126,
			"count":120,
			"type":"VEC4"
		},
		{
			"bufferView":30,
			"componentType":5126,
			"count":120,
			"type":"VEC3"
		},
		{
			"bufferView":31,
			"componentType":5126,
			"count":120,
			"type":"VEC4"
		},
		{
			"bufferView":32,
			"componentType":5126,
			"count":120,
			"type":"VEC3"
		},
		{
			"bufferView":33,
			"componentType":5126,
			"count":120,
			"type":"VEC4"
		},
		{
			"bufferView":34,
			"componentType":5126,
			"count":120,
			"type":"VEC3"
		},
		{
			"bufferView":35,
			"componentType":5126,
			"count":120,
			"type":"VEC4"
		}
	],
	"bufferViews":[
		{
			"buffer":0,
			"byteLength":2664,
			"byteOffset":0,
			"target":34962
		},
		{
			"buffer":0,
			"byteLength":2664,
			"byteOffset":2664,
			"target":34962
		},
		{
			"buffer":0,
			"byteLength":1776,
			"byteOffset":5328,
			"target":34962
		},
		{
			"buffer":0,
			"byteLength":1776,
			"byteOffset":7104,
			"target":34962
		},
		{
			"buffer":0,
			"byteLength":1536,
			"byteOffset":8880,
			"target":34963
		},
		{
			"buffer":0,
			"byteLength":2628,
			"byteOffset":10416,
			"target":34962
		},
		{
			"buffer":0,
			"byteLength":2628,
			"byteOffset":13044,
			"target":34962
		},
		{
			"buffer":0,
			"byteLength":1752,
			"byteOffset":15672,
			"target":34962
		},
		{
			"buffer":0,
			"byteLength":1752,
			"byteOffset":17424,
			"target":34962
		},
		{
			"buffer":0,
			"byteLength":1536,
			"byteOffset":19176,
			"target":34963
		},
		{
			"buffer":0,
			"byteLength":2292,
			"byteOffset":20712,
			"target":34962
		},
		{
			"buffer":0,
			"byteLength":2292,
			"byteOffset":23004,
			"target":34962
		},
		{
			"buffer":0,
			"byteLength":1528,
			"byteOffset":25296,
			"target":34962
		},
		{
			"buffer":0,
			"byteLength":1528,
			"byteOffset":26824,
			"target":34962
		},
		{
			"buffer":0,
			"byteLength":1176,
			"byteOffset":28352,
			"target":34963
		},
		{
			"buffer":0,
			"byteLength":1452,
			"byteOffset":29528,
			"target":34962
		},
		{
			"buffer":0,
			"byteLength":1452,
			"byteOffset":30980,
			"target":34962
		},
		{
			"buffer":0,
			"byteLength":968,
			"byteOffset":32432,
			"target":34962
		},
		{
			"buffer":0,
			"byteLength":968,
			"byteOffset":33400,
			"target":34962
		},
		{
			"buffer":0,
			"byteLength":744,
			"byteOffset":34368,
			"target":34963
		},
		{
			"buffer":0,
			"byteLength":1872,
			"byteOffset":35112,
			"target":34962
		},
		{
			"buffer":0,
			"byteLength":1872,
			"byteOffset":36984,
			"target":34962
		},
		{
			"buffer":0,
			"byteLength":1248,
			"byteOffset":38856,
			"target":34962
		},
		{
			"buffer":0,
			"byteLength":1248,
			"byteOffset":40104,
			"target":34962
		},
		{
			"buffer":0,
			"byteLength":984,
			"byteOffset":41352,
			"target":34963
		},
		{
			"buffer":0,
			"byteLength":480,
			"byteOffset":42336
		},
		{
			"buffer":0,
			"byteLength":1440,
			"byteOffset":42816
		},
		{
			"buffer":0,
			"byteLength":1920,
			"byteOffset":44256
		},
		{
			"buffer":0,
			"byteLength":1440,
			"byteOffset":46176
		},
		{
			"buffer":0,
			"byteLength":1920,
			"byteOffset":47616
		},
		{
			"buffer":0,
			"byteLength":1440,
			"byteOffset":49536
		},
		{
			"buffer":0,
			"byteLength":1920,
			"byteOffset":50976
		},
		{
			"buffer":0,
			"byteLength":1440,
			"byteOffset":52896
		},
		{
			"buffer":0,
			"byteLength":1920,
			"byteOffset":54336
		},
		{
			"buffer":0,
			"byteLength":1440,
			"byteOffset":56256
		},
		{
			"buffer":0,
			"byteLength":1920,
			"byteOffset":57696
		}
	],
	"samplers":[
		{
			"magFilter":9729,
			"minFilter":9987
		}
	],
	"buffers":[
		{
			"byteLength":59616,
			"uri":"Ceramic008.bin"
		}
	]
}
