{
	"asset":{
		"generator":"Khronos glTF Blender I/O v4.4.55",
		"version":"2.0"
	},
	"scene":0,
	"scenes":[
		{
			"name":"Scene",
			"nodes":[
				0,
				1,
				2,
				3,
				4
			]
		}
	],
	"nodes":[
		{
			"mesh":0,
			"name":"Ceramic017",
			"translation":[
				0.18612276017665863,
				-0.10092702507972717,
				-0.04418900981545448
			]
		},
		{
			"mesh":1,
			"name":"Ceramic017_001",
			"translation":[
				0.16037537157535553,
				-0.093315489590168,
				-0.05276837572455406
			]
		},
		{
			"mesh":2,
			"name":"Ceramic017_002",
			"translation":[
				0.17424851655960083,
				-0.12394630908966064,
				-0.048195742070674896
			]
		},
		{
			"mesh":3,
			"name":"Ceramic017_003",
			"translation":[
				0.11728426814079285,
				-0.1388659030199051,
				-0.05839719995856285
			]
		},
		{
			"mesh":4,
			"name":"Ceramic017_004",
			"translation":[
				0.14218324422836304,
				-0.12729886174201965,
				-0.05963520705699921
			]
		}
	],
	"animations":[
		{
			"channels":[
				{
					"sampler":0,
					"target":{
						"node":0,
						"path":"translation"
					}
				},
				{
					"sampler":1,
					"target":{
						"node":0,
						"path":"rotation"
					}
				}
			],
			"name":"Ceramic.039Action",
			"samplers":[
				{
					"input":25,
					"interpolation":"LINEAR",
					"output":26
				},
				{
					"input":25,
					"interpolation":"LINEAR",
					"output":27
				}
			]
		},
		{
			"channels":[
				{
					"sampler":0,
					"target":{
						"node":1,
						"path":"translation"
					}
				},
				{
					"sampler":1,
					"target":{
						"node":1,
						"path":"rotation"
					}
				}
			],
			"name":"Ceramic.055Action",
			"samplers":[
				{
					"input":25,
					"interpolation":"LINEAR",
					"output":28
				},
				{
					"input":25,
					"interpolation":"LINEAR",
					"output":29
				}
			]
		},
		{
			"channels":[
				{
					"sampler":0,
					"target":{
						"node":2,
						"path":"translation"
					}
				},
				{
					"sampler":1,
					"target":{
						"node":2,
						"path":"rotation"
					}
				}
			],
			"name":"Ceramic.056Action",
			"samplers":[
				{
					"input":25,
					"interpolation":"LINEAR",
					"output":30
				},
				{
					"input":25,
					"interpolation":"LINEAR",
					"output":31
				}
			]
		},
		{
			"channels":[
				{
					"sampler":0,
					"target":{
						"node":3,
						"path":"translation"
					}
				},
				{
					"sampler":1,
					"target":{
						"node":3,
						"path":"rotation"
					}
				}
			],
			"name":"Ceramic.057Action",
			"samplers":[
				{
					"input":25,
					"interpolation":"LINEAR",
					"output":32
				},
				{
					"input":25,
					"interpolation":"LINEAR",
					"output":33
				}
			]
		},
		{
			"channels":[
				{
					"sampler":0,
					"target":{
						"node":4,
						"path":"translation"
					}
				},
				{
					"sampler":1,
					"target":{
						"node":4,
						"path":"rotation"
					}
				}
			],
			"name":"Ceramic.058Action",
			"samplers":[
				{
					"input":25,
					"interpolation":"LINEAR",
					"output":34
				},
				{
					"input":25,
					"interpolation":"LINEAR",
					"output":35
				}
			]
		}
	],
	"materials":[
		{
			"doubleSided":true,
			"emissiveFactor":[
				1,
				1,
				1
			],
			"emissiveTexture":{
				"index":0
			},
			"name":"Harrow",
			"pbrMetallicRoughness":{
				"baseColorFactor":[
					0,
					0,
					0,
					1
				]
			}
		}
	],
	"meshes":[
		{
			"name":"Plane.059",
			"primitives":[
				{
					"attributes":{
						"POSITION":0,
						"NORMAL":1,
						"TEXCOORD_0":2,
						"TEXCOORD_1":3
					},
					"indices":4,
					"material":0
				}
			]
		},
		{
			"name":"Plane.150",
			"primitives":[
				{
					"attributes":{
						"POSITION":5,
						"NORMAL":6,
						"TEXCOORD_0":7,
						"TEXCOORD_1":8
					},
					"indices":9,
					"material":0
				}
			]
		},
		{
			"name":"Plane.151",
			"primitives":[
				{
					"attributes":{
						"POSITION":10,
						"NORMAL":11,
						"TEXCOORD_0":12,
						"TEXCOORD_1":13
					},
					"indices":14,
					"material":0
				}
			]
		},
		{
			"name":"Plane.152",
			"primitives":[
				{
					"attributes":{
						"POSITION":15,
						"NORMAL":16,
						"TEXCOORD_0":17,
						"TEXCOORD_1":18
					},
					"indices":19,
					"material":0
				}
			]
		},
		{
			"name":"Plane.153",
			"primitives":[
				{
					"attributes":{
						"POSITION":20,
						"NORMAL":21,
						"TEXCOORD_0":22,
						"TEXCOORD_1":23
					},
					"indices":24,
					"material":0
				}
			]
		}
	],
	"textures":[
		{
			"sampler":0,
			"source":0
		}
	],
	"images":[
		{
			"mimeType":"image/jpeg",
			"name":"BranaLP Diffuse Baked.jpg",
			"uri":"../tex/brana/BranaLP%20Diffuse%20Baked.jpg"
		}
	],
	"accessors":[
		{
			"bufferView":0,
			"componentType":5126,
			"count":107,
			"max":[
				0.021473776549100876,
				0.018416687846183777,
				0.018100690096616745
			],
			"min":[
				-0.01885564625263214,
				-0.01685960590839386,
				-0.014515332877635956
			],
			"type":"VEC3"
		},
		{
			"bufferView":1,
			"componentType":5126,
			"count":107,
			"type":"VEC3"
		},
		{
			"bufferView":2,
			"componentType":5126,
			"count":107,
			"type":"VEC2"
		},
		{
			"bufferView":3,
			"componentType":5126,
			"count":107,
			"type":"VEC2"
		},
		{
			"bufferView":4,
			"componentType":5123,
			"count":294,
			"type":"SCALAR"
		},
		{
			"bufferView":5,
			"componentType":5126,
			"count":112,
			"max":[
				0.02359861508011818,
				0.031605448573827744,
				0.013720273040235043
			],
			"min":[
				-0.032292868942022324,
				-0.02699814923107624,
				-0.013414760120213032
			],
			"type":"VEC3"
		},
		{
			"bufferView":6,
			"componentType":5126,
			"count":112,
			"type":"VEC3"
		},
		{
			"bufferView":7,
			"componentType":5126,
			"count":112,
			"type":"VEC2"
		},
		{
			"bufferView":8,
			"componentType":5126,
			"count":112,
			"type":"VEC2"
		},
		{
			"bufferView":9,
			"componentType":5123,
			"count":306,
			"type":"SCALAR"
		},
		{
			"bufferView":10,
			"componentType":5126,
			"count":124,
			"max":[
				0.03380386158823967,
				0.020505648106336594,
				0.02443632297217846
			],
			"min":[
				-0.02773759700357914,
				-0.02595318853855133,
				-0.016021106392145157
			],
			"type":"VEC3"
		},
		{
			"bufferView":11,
			"componentType":5126,
			"count":124,
			"type":"VEC3"
		},
		{
			"bufferView":12,
			"componentType":5126,
			"count":124,
			"type":"VEC2"
		},
		{
			"bufferView":13,
			"componentType":5126,
			"count":124,
			"type":"VEC2"
		},
		{
			"bufferView":14,
			"componentType":5123,
			"count":354,
			"type":"SCALAR"
		},
		{
			"bufferView":15,
			"componentType":5126,
			"count":91,
			"max":[
				0.02331523969769478,
				0.029867812991142273,
				0.019615817815065384
			],
			"min":[
				-0.029152896255254745,
				-0.014888893812894821,
				-0.009676720015704632
			],
			"type":"VEC3"
		},
		{
			"bufferView":16,
			"componentType":5126,
			"count":91,
			"type":"VEC3"
		},
		{
			"bufferView":17,
			"componentType":5126,
			"count":91,
			"type":"VEC2"
		},
		{
			"bufferView":18,
			"componentType":5126,
			"count":91,
			"type":"VEC2"
		},
		{
			"bufferView":19,
			"componentType":5123,
			"count":258,
			"type":"SCALAR"
		},
		{
			"bufferView":20,
			"componentType":5126,
			"count":124,
			"max":[
				0.017453625798225403,
				0.027512388303875923,
				0.00797270704060793
			],
			"min":[
				-0.022154605016112328,
				-0.022872308269143105,
				-0.008431142196059227
			],
			"type":"VEC3"
		},
		{
			"bufferView":21,
			"componentType":5126,
			"count":124,
			"type":"VEC3"
		},
		{
			"bufferView":22,
			"componentType":5126,
			"count":124,
			"type":"VEC2"
		},
		{
			"bufferView":23,
			"componentType":5126,
			"count":124,
			"type":"VEC2"
		},
		{
			"bufferView":24,
			"componentType":5123,
			"count":330,
			"type":"SCALAR"
		},
		{
			"bufferView":25,
			"componentType":5126,
			"count":120,
			"max":[
				4
			],
			"min":[
				0.03333333333333333
			],
			"type":"SCALAR"
		},
		{
			"bufferView":26,
			"componentType":5126,
			"count":120,
			"type":"VEC3"
		},
		{
			"bufferView":27,
			"componentType":5126,
			"count":120,
			"type":"VEC4"
		},
		{
			"bufferView":28,
			"componentType":5126,
			"count":120,
			"type":"VEC3"
		},
		{
			"bufferView":29,
			"componentType":5126,
			"count":120,
			"type":"VEC4"
		},
		{
			"bufferView":30,
			"componentType":5126,
			"count":120,
			"type":"VEC3"
		},
		{
			"bufferView":31,
			"componentType":5126,
			"count":120,
			"type":"VEC4"
		},
		{
			"bufferView":32,
			"componentType":5126,
			"count":120,
			"type":"VEC3"
		},
		{
			"bufferView":33,
			"componentType":5126,
			"count":120,
			"type":"VEC4"
		},
		{
			"bufferView":34,
			"componentType":5126,
			"count":120,
			"type":"VEC3"
		},
		{
			"bufferView":35,
			"componentType":5126,
			"count":120,
			"type":"VEC4"
		}
	],
	"bufferViews":[
		{
			"buffer":0,
			"byteLength":1284,
			"byteOffset":0,
			"target":34962
		},
		{
			"buffer":0,
			"byteLength":1284,
			"byteOffset":1284,
			"target":34962
		},
		{
			"buffer":0,
			"byteLength":856,
			"byteOffset":2568,
			"target":34962
		},
		{
			"buffer":0,
			"byteLength":856,
			"byteOffset":3424,
			"target":34962
		},
		{
			"buffer":0,
			"byteLength":588,
			"byteOffset":4280,
			"target":34963
		},
		{
			"buffer":0,
			"byteLength":1344,
			"byteOffset":4868,
			"target":34962
		},
		{
			"buffer":0,
			"byteLength":1344,
			"byteOffset":6212,
			"target":34962
		},
		{
			"buffer":0,
			"byteLength":896,
			"byteOffset":7556,
			"target":34962
		},
		{
			"buffer":0,
			"byteLength":896,
			"byteOffset":8452,
			"target":34962
		},
		{
			"buffer":0,
			"byteLength":612,
			"byteOffset":9348,
			"target":34963
		},
		{
			"buffer":0,
			"byteLength":1488,
			"byteOffset":9960,
			"target":34962
		},
		{
			"buffer":0,
			"byteLength":1488,
			"byteOffset":11448,
			"target":34962
		},
		{
			"buffer":0,
			"byteLength":992,
			"byteOffset":12936,
			"target":34962
		},
		{
			"buffer":0,
			"byteLength":992,
			"byteOffset":13928,
			"target":34962
		},
		{
			"buffer":0,
			"byteLength":708,
			"byteOffset":14920,
			"target":34963
		},
		{
			"buffer":0,
			"byteLength":1092,
			"byteOffset":15628,
			"target":34962
		},
		{
			"buffer":0,
			"byteLength":1092,
			"byteOffset":16720,
			"target":34962
		},
		{
			"buffer":0,
			"byteLength":728,
			"byteOffset":17812,
			"target":34962
		},
		{
			"buffer":0,
			"byteLength":728,
			"byteOffset":18540,
			"target":34962
		},
		{
			"buffer":0,
			"byteLength":516,
			"byteOffset":19268,
			"target":34963
		},
		{
			"buffer":0,
			"byteLength":1488,
			"byteOffset":19784,
			"target":34962
		},
		{
			"buffer":0,
			"byteLength":1488,
			"byteOffset":21272,
			"target":34962
		},
		{
			"buffer":0,
			"byteLength":992,
			"byteOffset":22760,
			"target":34962
		},
		{
			"buffer":0,
			"byteLength":992,
			"byteOffset":23752,
			"target":34962
		},
		{
			"buffer":0,
			"byteLength":660,
			"byteOffset":24744,
			"target":34963
		},
		{
			"buffer":0,
			"byteLength":480,
			"byteOffset":25404
		},
		{
			"buffer":0,
			"byteLength":1440,
			"byteOffset":25884
		},
		{
			"buffer":0,
			"byteLength":1920,
			"byteOffset":27324
		},
		{
			"buffer":0,
			"byteLength":1440,
			"byteOffset":29244
		},
		{
			"buffer":0,
			"byteLength":1920,
			"byteOffset":30684
		},
		{
			"buffer":0,
			"byteLength":1440,
			"byteOffset":32604
		},
		{
			"buffer":0,
			"byteLength":1920,
			"byteOffset":34044
		},
		{
			"buffer":0,
			"byteLength":1440,
			"byteOffset":35964
		},
		{
			"buffer":0,
			"byteLength":1920,
			"byteOffset":37404
		},
		{
			"buffer":0,
			"byteLength":1440,
			"byteOffset":39324
		},
		{
			"buffer":0,
			"byteLength":1920,
			"byteOffset":40764
		}
	],
	"samplers":[
		{
			"magFilter":9729,
			"minFilter":9987
		}
	],
	"buffers":[
		{
			"byteLength":42684,
			"uri":"Ceramic017.bin"
		}
	]
}
