{
	"asset":{
		"generator":"Khronos glTF Blender I/O v4.4.55",
		"version":"2.0"
	},
	"extensionsUsed":[
		"KHR_materials_specular"
	],
	"scene":0,
	"scenes":[
		{
			"name":"Scene",
			"nodes":[
				0,
				1,
				2,
				3,
				4,
				5
			]
		}
	],
	"nodes":[
		{
			"mesh":0,
			"name":"Ceramic018",
			"translation":[
				0.21742668747901917,
				-0.5082404017448425,
				-0.04861399903893471
			]
		},
		{
			"mesh":1,
			"name":"Ceramic018_001",
			"translation":[
				0.2186337113380432,
				-0.4592951536178589,
				-0.04452327638864517
			]
		},
		{
			"mesh":2,
			"name":"Ceramic018_002",
			"translation":[
				0.25545674562454224,
				-0.4917522072792053,
				-0.04678253456950188
			]
		},
		{
			"mesh":3,
			"name":"Ceramic018_003",
			"translation":[
				0.19292691349983215,
				-0.5033687949180603,
				-0.05177794396877289
			]
		},
		{
			"mesh":4,
			"name":"Ceramic018_004",
			"translation":[
				0.2601454257965088,
				-0.4619363844394684,
				-0.04563070461153984
			]
		},
		{
			"mesh":5,
			"name":"Ceramic018_005",
			"translation":[
				0.18758320808410645,
				-0.4669252932071686,
				-0.05101512372493744
			]
		}
	],
	"animations":[
		{
			"channels":[
				{
					"sampler":0,
					"target":{
						"node":0,
						"path":"translation"
					}
				},
				{
					"sampler":1,
					"target":{
						"node":0,
						"path":"rotation"
					}
				}
			],
			"name":"Ceramic.040Action",
			"samplers":[
				{
					"input":30,
					"interpolation":"LINEAR",
					"output":31
				},
				{
					"input":30,
					"interpolation":"LINEAR",
					"output":32
				}
			]
		},
		{
			"channels":[
				{
					"sampler":0,
					"target":{
						"node":1,
						"path":"translation"
					}
				},
				{
					"sampler":1,
					"target":{
						"node":1,
						"path":"rotation"
					}
				}
			],
			"name":"Ceramic.059Action",
			"samplers":[
				{
					"input":30,
					"interpolation":"LINEAR",
					"output":33
				},
				{
					"input":30,
					"interpolation":"LINEAR",
					"output":34
				}
			]
		},
		{
			"channels":[
				{
					"sampler":0,
					"target":{
						"node":2,
						"path":"translation"
					}
				},
				{
					"sampler":1,
					"target":{
						"node":2,
						"path":"rotation"
					}
				}
			],
			"name":"Ceramic.060Action",
			"samplers":[
				{
					"input":30,
					"interpolation":"LINEAR",
					"output":35
				},
				{
					"input":30,
					"interpolation":"LINEAR",
					"output":36
				}
			]
		},
		{
			"channels":[
				{
					"sampler":0,
					"target":{
						"node":3,
						"path":"translation"
					}
				},
				{
					"sampler":1,
					"target":{
						"node":3,
						"path":"rotation"
					}
				}
			],
			"name":"Ceramic.061Action",
			"samplers":[
				{
					"input":30,
					"interpolation":"LINEAR",
					"output":37
				},
				{
					"input":30,
					"interpolation":"LINEAR",
					"output":38
				}
			]
		},
		{
			"channels":[
				{
					"sampler":0,
					"target":{
						"node":4,
						"path":"translation"
					}
				},
				{
					"sampler":1,
					"target":{
						"node":4,
						"path":"rotation"
					}
				}
			],
			"name":"Ceramic.062Action",
			"samplers":[
				{
					"input":30,
					"interpolation":"LINEAR",
					"output":39
				},
				{
					"input":30,
					"interpolation":"LINEAR",
					"output":40
				}
			]
		},
		{
			"channels":[
				{
					"sampler":0,
					"target":{
						"node":5,
						"path":"translation"
					}
				},
				{
					"sampler":1,
					"target":{
						"node":5,
						"path":"rotation"
					}
				}
			],
			"name":"Ceramic.063Action",
			"samplers":[
				{
					"input":30,
					"interpolation":"LINEAR",
					"output":41
				},
				{
					"input":30,
					"interpolation":"LINEAR",
					"output":42
				}
			]
		}
	],
	"materials":[
		{
			"doubleSided":true,
			"emissiveFactor":[
				1,
				1,
				1
			],
			"emissiveTexture":{
				"index":0
			},
			"extensions":{
				"KHR_materials_specular":{
					"specularTexture":{
						"index":1
					}
				}
			},
			"name":"BranaLP",
			"normalTexture":{
				"index":2
			},
			"pbrMetallicRoughness":{
				"baseColorTexture":{
					"index":3
				},
				"metallicRoughnessTexture":{
					"index":4
				},
				"roughnessFactor":0.5
			}
		}
	],
	"meshes":[
		{
			"name":"Plane.060",
			"primitives":[
				{
					"attributes":{
						"POSITION":0,
						"NORMAL":1,
						"TEXCOORD_0":2,
						"TEXCOORD_1":3
					},
					"indices":4,
					"material":0
				}
			]
		},
		{
			"name":"Plane.154",
			"primitives":[
				{
					"attributes":{
						"POSITION":5,
						"NORMAL":6,
						"TEXCOORD_0":7,
						"TEXCOORD_1":8
					},
					"indices":9,
					"material":0
				}
			]
		},
		{
			"name":"Plane.155",
			"primitives":[
				{
					"attributes":{
						"POSITION":10,
						"NORMAL":11,
						"TEXCOORD_0":12,
						"TEXCOORD_1":13
					},
					"indices":14,
					"material":0
				}
			]
		},
		{
			"name":"Plane.156",
			"primitives":[
				{
					"attributes":{
						"POSITION":15,
						"NORMAL":16,
						"TEXCOORD_0":17,
						"TEXCOORD_1":18
					},
					"indices":19,
					"material":0
				}
			]
		},
		{
			"name":"Plane.157",
			"primitives":[
				{
					"attributes":{
						"POSITION":20,
						"NORMAL":21,
						"TEXCOORD_0":22,
						"TEXCOORD_1":23
					},
					"indices":24,
					"material":0
				}
			]
		},
		{
			"name":"Plane.158",
			"primitives":[
				{
					"attributes":{
						"POSITION":25,
						"NORMAL":26,
						"TEXCOORD_0":27,
						"TEXCOORD_1":28
					},
					"indices":29,
					"material":0
				}
			]
		}
	],
	"textures":[
		{
			"sampler":0,
			"source":0
		},
		{
			"sampler":0,
			"source":1
		},
		{
			"sampler":0,
			"source":2
		},
		{
			"sampler":0,
			"source":3
		},
		{
			"sampler":0,
			"source":4
		}
	],
	"images":[
		{
			"mimeType":"image/jpeg",
			"name":"BranaLP Diffuse Baked.jpg",
			"uri":"../tex/brana/BranaLP%20Diffuse%20Baked.jpg"
		},
		{
			"mimeType":"image/jpeg",
			"name":"BranaLP Specular.jpg",
			"uri":"../tex/brana/BranaLP%20Specular.jpg"
		},
		{
			"mimeType":"image/jpeg",
			"name":"BranaLP Normal.jpg",
			"uri":"../tex/brana/BranaLP%20Normal.jpg"
		},
		{
			"mimeType":"image/jpeg",
			"name":"BranaLP Diffuse.jpg",
			"uri":"../tex/brana/BranaLP%20Diffuse.jpg"
		},
		{
			"mimeType":"image/jpeg",
			"name":"BranaLP Metallic.jpg",
			"uri":"../tex/brana/BranaLP%20Metallic.jpg"
		}
	],
	"accessors":[
		{
			"bufferView":0,
			"componentType":5126,
			"count":196,
			"max":[
				0.03575199097394943,
				0.03265685588121414,
				0.016859641298651695
			],
			"min":[
				-0.026512330397963524,
				-0.04421304538846016,
				-0.03143123909831047
			],
			"type":"VEC3"
		},
		{
			"bufferView":1,
			"componentType":5126,
			"count":196,
			"type":"VEC3"
		},
		{
			"bufferView":2,
			"componentType":5126,
			"count":196,
			"type":"VEC2"
		},
		{
			"bufferView":3,
			"componentType":5126,
			"count":196,
			"type":"VEC2"
		},
		{
			"bufferView":4,
			"componentType":5123,
			"count":570,
			"type":"SCALAR"
		},
		{
			"bufferView":5,
			"componentType":5126,
			"count":159,
			"max":[
				0.03679386153817177,
				0.025165895000100136,
				0.012639075517654419
			],
			"min":[
				-0.03017806075513363,
				-0.03307797759771347,
				-0.016522759571671486
			],
			"type":"VEC3"
		},
		{
			"bufferView":6,
			"componentType":5126,
			"count":159,
			"type":"VEC3"
		},
		{
			"bufferView":7,
			"componentType":5126,
			"count":159,
			"type":"VEC2"
		},
		{
			"bufferView":8,
			"componentType":5126,
			"count":159,
			"type":"VEC2"
		},
		{
			"bufferView":9,
			"componentType":5123,
			"count":486,
			"type":"SCALAR"
		},
		{
			"bufferView":10,
			"componentType":5126,
			"count":126,
			"max":[
				0.02843587100505829,
				0.017411062493920326,
				0.01503947377204895
			],
			"min":[
				-0.02393185906112194,
				-0.041599858552217484,
				-0.029492024332284927
			],
			"type":"VEC3"
		},
		{
			"bufferView":11,
			"componentType":5126,
			"count":126,
			"type":"VEC3"
		},
		{
			"bufferView":12,
			"componentType":5126,
			"count":126,
			"type":"VEC2"
		},
		{
			"bufferView":13,
			"componentType":5126,
			"count":126,
			"type":"VEC2"
		},
		{
			"bufferView":14,
			"componentType":5123,
			"count":360,
			"type":"SCALAR"
		},
		{
			"bufferView":15,
			"componentType":5126,
			"count":165,
			"max":[
				0.02272293157875538,
				0.023492785170674324,
				0.018491579219698906
			],
			"min":[
				-0.03236926347017288,
				-0.045125626027584076,
				-0.021945176646113396
			],
			"type":"VEC3"
		},
		{
			"bufferView":16,
			"componentType":5126,
			"count":165,
			"type":"VEC3"
		},
		{
			"bufferView":17,
			"componentType":5126,
			"count":165,
			"type":"VEC2"
		},
		{
			"bufferView":18,
			"componentType":5126,
			"count":165,
			"type":"VEC2"
		},
		{
			"bufferView":19,
			"componentType":5123,
			"count":522,
			"type":"SCALAR"
		},
		{
			"bufferView":20,
			"componentType":5126,
			"count":110,
			"max":[
				0.022869665175676346,
				0.022567259147763252,
				0.013593071140348911
			],
			"min":[
				-0.027798213064670563,
				-0.01621652953326702,
				-0.013835457153618336
			],
			"type":"VEC3"
		},
		{
			"bufferView":21,
			"componentType":5126,
			"count":110,
			"type":"VEC3"
		},
		{
			"bufferView":22,
			"componentType":5126,
			"count":110,
			"type":"VEC2"
		},
		{
			"bufferView":23,
			"componentType":5126,
			"count":110,
			"type":"VEC2"
		},
		{
			"bufferView":24,
			"componentType":5123,
			"count":330,
			"type":"SCALAR"
		},
		{
			"bufferView":25,
			"componentType":5126,
			"count":116,
			"max":[
				0.025148779153823853,
				0.02655361406505108,
				0.016794981434941292
			],
			"min":[
				-0.026999033987522125,
				-0.016375314444303513,
				-0.016418885439634323
			],
			"type":"VEC3"
		},
		{
			"bufferView":26,
			"componentType":5126,
			"count":116,
			"type":"VEC3"
		},
		{
			"bufferView":27,
			"componentType":5126,
			"count":116,
			"type":"VEC2"
		},
		{
			"bufferView":28,
			"componentType":5126,
			"count":116,
			"type":"VEC2"
		},
		{
			"bufferView":29,
			"componentType":5123,
			"count":336,
			"type":"SCALAR"
		},
		{
			"bufferView":30,
			"componentType":5126,
			"count":120,
			"max":[
				4
			],
			"min":[
				0.03333333333333333
			],
			"type":"SCALAR"
		},
		{
			"bufferView":31,
			"componentType":5126,
			"count":120,
			"type":"VEC3"
		},
		{
			"bufferView":32,
			"componentType":5126,
			"count":120,
			"type":"VEC4"
		},
		{
			"bufferView":33,
			"componentType":5126,
			"count":120,
			"type":"VEC3"
		},
		{
			"bufferView":34,
			"componentType":5126,
			"count":120,
			"type":"VEC4"
		},
		{
			"bufferView":35,
			"componentType":5126,
			"count":120,
			"type":"VEC3"
		},
		{
			"bufferView":36,
			"componentType":5126,
			"count":120,
			"type":"VEC4"
		},
		{
			"bufferView":37,
			"componentType":5126,
			"count":120,
			"type":"VEC3"
		},
		{
			"bufferView":38,
			"componentType":5126,
			"count":120,
			"type":"VEC4"
		},
		{
			"bufferView":39,
			"componentType":5126,
			"count":120,
			"type":"VEC3"
		},
		{
			"bufferView":40,
			"componentType":5126,
			"count":120,
			"type":"VEC4"
		},
		{
			"bufferView":41,
			"componentType":5126,
			"count":120,
			"type":"VEC3"
		},
		{
			"bufferView":42,
			"componentType":5126,
			"count":120,
			"type":"VEC4"
		}
	],
	"bufferViews":[
		{
			"buffer":0,
			"byteLength":2352,
			"byteOffset":0,
			"target":34962
		},
		{
			"buffer":0,
			"byteLength":2352,
			"byteOffset":2352,
			"target":34962
		},
		{
			"buffer":0,
			"byteLength":1568,
			"byteOffset":4704,
			"target":34962
		},
		{
			"buffer":0,
			"byteLength":1568,
			"byteOffset":6272,
			"target":34962
		},
		{
			"buffer":0,
			"byteLength":1140,
			"byteOffset":7840,
			"target":34963
		},
		{
			"buffer":0,
			"byteLength":1908,
			"byteOffset":8980,
			"target":34962
		},
		{
			"buffer":0,
			"byteLength":1908,
			"byteOffset":10888,
			"target":34962
		},
		{
			"buffer":0,
			"byteLength":1272,
			"byteOffset":12796,
			"target":34962
		},
		{
			"buffer":0,
			"byteLength":1272,
			"byteOffset":14068,
			"target":34962
		},
		{
			"buffer":0,
			"byteLength":972,
			"byteOffset":15340,
			"target":34963
		},
		{
			"buffer":0,
			"byteLength":1512,
			"byteOffset":16312,
			"target":34962
		},
		{
			"buffer":0,
			"byteLength":1512,
			"byteOffset":17824,
			"target":34962
		},
		{
			"buffer":0,
			"byteLength":1008,
			"byteOffset":19336,
			"target":34962
		},
		{
			"buffer":0,
			"byteLength":1008,
			"byteOffset":20344,
			"target":34962
		},
		{
			"buffer":0,
			"byteLength":720,
			"byteOffset":21352,
			"target":34963
		},
		{
			"buffer":0,
			"byteLength":1980,
			"byteOffset":22072,
			"target":34962
		},
		{
			"buffer":0,
			"byteLength":1980,
			"byteOffset":24052,
			"target":34962
		},
		{
			"buffer":0,
			"byteLength":1320,
			"byteOffset":26032,
			"target":34962
		},
		{
			"buffer":0,
			"byteLength":1320,
			"byteOffset":27352,
			"target":34962
		},
		{
			"buffer":0,
			"byteLength":1044,
			"byteOffset":28672,
			"target":34963
		},
		{
			"buffer":0,
			"byteLength":1320,
			"byteOffset":29716,
			"target":34962
		},
		{
			"buffer":0,
			"byteLength":1320,
			"byteOffset":31036,
			"target":34962
		},
		{
			"buffer":0,
			"byteLength":880,
			"byteOffset":32356,
			"target":34962
		},
		{
			"buffer":0,
			"byteLength":880,
			"byteOffset":33236,
			"target":34962
		},
		{
			"buffer":0,
			"byteLength":660,
			"byteOffset":34116,
			"target":34963
		},
		{
			"buffer":0,
			"byteLength":1392,
			"byteOffset":34776,
			"target":34962
		},
		{
			"buffer":0,
			"byteLength":1392,
			"byteOffset":36168,
			"target":34962
		},
		{
			"buffer":0,
			"byteLength":928,
			"byteOffset":37560,
			"target":34962
		},
		{
			"buffer":0,
			"byteLength":928,
			"byteOffset":38488,
			"target":34962
		},
		{
			"buffer":0,
			"byteLength":672,
			"byteOffset":39416,
			"target":34963
		},
		{
			"buffer":0,
			"byteLength":480,
			"byteOffset":40088
		},
		{
			"buffer":0,
			"byteLength":1440,
			"byteOffset":40568
		},
		{
			"buffer":0,
			"byteLength":1920,
			"byteOffset":42008
		},
		{
			"buffer":0,
			"byteLength":1440,
			"byteOffset":43928
		},
		{
			"buffer":0,
			"byteLength":1920,
			"byteOffset":45368
		},
		{
			"buffer":0,
			"byteLength":1440,
			"byteOffset":47288
		},
		{
			"buffer":0,
			"byteLength":1920,
			"byteOffset":48728
		},
		{
			"buffer":0,
			"byteLength":1440,
			"byteOffset":50648
		},
		{
			"buffer":0,
			"byteLength":1920,
			"byteOffset":52088
		},
		{
			"buffer":0,
			"byteLength":1440,
			"byteOffset":54008
		},
		{
			"buffer":0,
			"byteLength":1920,
			"byteOffset":55448
		},
		{
			"buffer":0,
			"byteLength":1440,
			"byteOffset":57368
		},
		{
			"buffer":0,
			"byteLength":1920,
			"byteOffset":58808
		}
	],
	"samplers":[
		{
			"magFilter":9729,
			"minFilter":9987
		}
	],
	"buffers":[
		{
			"byteLength":60728,
			"uri":"Ceramic018.bin"
		}
	]
}
