{
	"asset":{
		"generator":"Khronos glTF Blender I/O v4.4.55",
		"version":"2.0"
	},
	"extensionsUsed":[
		"KHR_materials_specular"
	],
	"scene":0,
	"scenes":[
		{
			"name":"Scene",
			"nodes":[
				0,
				1,
				2,
				3,
				4,
				5
			]
		}
	],
	"nodes":[
		{
			"mesh":0,
			"name":"Ceramic021",
			"translation":[
				0.04783541336655617,
				-0.45101314783096313,
				-0.06008772552013397
			]
		},
		{
			"mesh":1,
			"name":"Ceramic021_001",
			"translation":[
				0.0675264373421669,
				-0.4694899618625641,
				-0.04756343737244606
			]
		},
		{
			"mesh":2,
			"name":"Ceramic021_002",
			"translation":[
				0.0375409759581089,
				-0.47230640053749084,
				-0.05596638098359108
			]
		},
		{
			"mesh":3,
			"name":"Ceramic021_003",
			"translation":[
				0.06186944618821144,
				-0.52034991979599,
				-0.035534098744392395
			]
		},
		{
			"mesh":4,
			"name":"Ceramic021_004",
			"translation":[
				0.048797741532325745,
				-0.4954509437084198,
				-0.044991955161094666
			]
		},
		{
			"mesh":5,
			"name":"Ceramic021_005",
			"translation":[
				0.07833544909954071,
				-0.5065147280693054,
				-0.03590098395943642
			]
		}
	],
	"animations":[
		{
			"channels":[
				{
					"sampler":0,
					"target":{
						"node":0,
						"path":"translation"
					}
				},
				{
					"sampler":1,
					"target":{
						"node":0,
						"path":"rotation"
					}
				}
			],
			"name":"Ceramic.043Action",
			"samplers":[
				{
					"input":30,
					"interpolation":"LINEAR",
					"output":31
				},
				{
					"input":30,
					"interpolation":"LINEAR",
					"output":32
				}
			]
		},
		{
			"channels":[
				{
					"sampler":0,
					"target":{
						"node":1,
						"path":"translation"
					}
				},
				{
					"sampler":1,
					"target":{
						"node":1,
						"path":"rotation"
					}
				}
			],
			"name":"Ceramic.075Action",
			"samplers":[
				{
					"input":30,
					"interpolation":"LINEAR",
					"output":33
				},
				{
					"input":30,
					"interpolation":"LINEAR",
					"output":34
				}
			]
		},
		{
			"channels":[
				{
					"sampler":0,
					"target":{
						"node":2,
						"path":"translation"
					}
				},
				{
					"sampler":1,
					"target":{
						"node":2,
						"path":"rotation"
					}
				}
			],
			"name":"Ceramic.076Action",
			"samplers":[
				{
					"input":30,
					"interpolation":"LINEAR",
					"output":35
				},
				{
					"input":30,
					"interpolation":"LINEAR",
					"output":36
				}
			]
		},
		{
			"channels":[
				{
					"sampler":0,
					"target":{
						"node":3,
						"path":"translation"
					}
				},
				{
					"sampler":1,
					"target":{
						"node":3,
						"path":"rotation"
					}
				}
			],
			"name":"Ceramic.077Action",
			"samplers":[
				{
					"input":30,
					"interpolation":"LINEAR",
					"output":37
				},
				{
					"input":30,
					"interpolation":"LINEAR",
					"output":38
				}
			]
		},
		{
			"channels":[
				{
					"sampler":0,
					"target":{
						"node":4,
						"path":"translation"
					}
				},
				{
					"sampler":1,
					"target":{
						"node":4,
						"path":"rotation"
					}
				}
			],
			"name":"Ceramic.078Action",
			"samplers":[
				{
					"input":30,
					"interpolation":"LINEAR",
					"output":39
				},
				{
					"input":30,
					"interpolation":"LINEAR",
					"output":40
				}
			]
		},
		{
			"channels":[
				{
					"sampler":0,
					"target":{
						"node":5,
						"path":"translation"
					}
				},
				{
					"sampler":1,
					"target":{
						"node":5,
						"path":"rotation"
					}
				}
			],
			"name":"Ceramic.079Action",
			"samplers":[
				{
					"input":30,
					"interpolation":"LINEAR",
					"output":41
				},
				{
					"input":30,
					"interpolation":"LINEAR",
					"output":42
				}
			]
		}
	],
	"materials":[
		{
			"doubleSided":true,
			"emissiveFactor":[
				1,
				1,
				1
			],
			"emissiveTexture":{
				"index":0
			},
			"extensions":{
				"KHR_materials_specular":{
					"specularTexture":{
						"index":1
					}
				}
			},
			"name":"BranaLP",
			"normalTexture":{
				"index":2
			},
			"pbrMetallicRoughness":{
				"baseColorTexture":{
					"index":3
				},
				"metallicRoughnessTexture":{
					"index":4
				},
				"roughnessFactor":0.5
			}
		}
	],
	"meshes":[
		{
			"name":"Plane.063",
			"primitives":[
				{
					"attributes":{
						"POSITION":0,
						"NORMAL":1,
						"TEXCOORD_0":2,
						"TEXCOORD_1":3
					},
					"indices":4,
					"material":0
				}
			]
		},
		{
			"name":"Plane.170",
			"primitives":[
				{
					"attributes":{
						"POSITION":5,
						"NORMAL":6,
						"TEXCOORD_0":7,
						"TEXCOORD_1":8
					},
					"indices":9,
					"material":0
				}
			]
		},
		{
			"name":"Plane.171",
			"primitives":[
				{
					"attributes":{
						"POSITION":10,
						"NORMAL":11,
						"TEXCOORD_0":12,
						"TEXCOORD_1":13
					},
					"indices":14,
					"material":0
				}
			]
		},
		{
			"name":"Plane.172",
			"primitives":[
				{
					"attributes":{
						"POSITION":15,
						"NORMAL":16,
						"TEXCOORD_0":17,
						"TEXCOORD_1":18
					},
					"indices":19,
					"material":0
				}
			]
		},
		{
			"name":"Plane.173",
			"primitives":[
				{
					"attributes":{
						"POSITION":20,
						"NORMAL":21,
						"TEXCOORD_0":22,
						"TEXCOORD_1":23
					},
					"indices":24,
					"material":0
				}
			]
		},
		{
			"name":"Plane.174",
			"primitives":[
				{
					"attributes":{
						"POSITION":25,
						"NORMAL":26,
						"TEXCOORD_0":27,
						"TEXCOORD_1":28
					},
					"indices":29,
					"material":0
				}
			]
		}
	],
	"textures":[
		{
			"sampler":0,
			"source":0
		},
		{
			"sampler":0,
			"source":1
		},
		{
			"sampler":0,
			"source":2
		},
		{
			"sampler":0,
			"source":3
		},
		{
			"sampler":0,
			"source":4
		}
	],
	"images":[
		{
			"mimeType":"image/jpeg",
			"name":"BranaLP Diffuse Baked.jpg",
			"uri":"../tex/brana/BranaLP%20Diffuse%20Baked.jpg"
		},
		{
			"mimeType":"image/jpeg",
			"name":"BranaLP Specular.jpg",
			"uri":"../tex/brana/BranaLP%20Specular.jpg"
		},
		{
			"mimeType":"image/jpeg",
			"name":"BranaLP Normal.jpg",
			"uri":"../tex/brana/BranaLP%20Normal.jpg"
		},
		{
			"mimeType":"image/jpeg",
			"name":"BranaLP Diffuse.jpg",
			"uri":"../tex/brana/BranaLP%20Diffuse.jpg"
		},
		{
			"mimeType":"image/jpeg",
			"name":"BranaLP Metallic.jpg",
			"uri":"../tex/brana/BranaLP%20Metallic.jpg"
		}
	],
	"accessors":[
		{
			"bufferView":0,
			"componentType":5126,
			"count":71,
			"max":[
				0.021508850157260895,
				0.01979173719882965,
				0.014487908221781254
			],
			"min":[
				-0.026120051741600037,
				-0.01757209002971649,
				-0.011093759909272194
			],
			"type":"VEC3"
		},
		{
			"bufferView":1,
			"componentType":5126,
			"count":71,
			"type":"VEC3"
		},
		{
			"bufferView":2,
			"componentType":5126,
			"count":71,
			"type":"VEC2"
		},
		{
			"bufferView":3,
			"componentType":5126,
			"count":71,
			"type":"VEC2"
		},
		{
			"bufferView":4,
			"componentType":5123,
			"count":231,
			"type":"SCALAR"
		},
		{
			"bufferView":5,
			"componentType":5126,
			"count":57,
			"max":[
				0.023740073665976524,
				0.027215158566832542,
				0.013806103728711605
			],
			"min":[
				-0.013564301654696465,
				-0.022412708029150963,
				-0.010514006949961185
			],
			"type":"VEC3"
		},
		{
			"bufferView":6,
			"componentType":5126,
			"count":57,
			"type":"VEC3"
		},
		{
			"bufferView":7,
			"componentType":5126,
			"count":57,
			"type":"VEC2"
		},
		{
			"bufferView":8,
			"componentType":5126,
			"count":57,
			"type":"VEC2"
		},
		{
			"bufferView":9,
			"componentType":5123,
			"count":156,
			"type":"SCALAR"
		},
		{
			"bufferView":10,
			"componentType":5126,
			"count":75,
			"max":[
				0.023648390546441078,
				0.020347557961940765,
				0.01228145882487297
			],
			"min":[
				-0.027126416563987732,
				-0.031744033098220825,
				-0.016412515193223953
			],
			"type":"VEC3"
		},
		{
			"bufferView":11,
			"componentType":5126,
			"count":75,
			"type":"VEC3"
		},
		{
			"bufferView":12,
			"componentType":5126,
			"count":75,
			"type":"VEC2"
		},
		{
			"bufferView":13,
			"componentType":5126,
			"count":75,
			"type":"VEC2"
		},
		{
			"bufferView":14,
			"componentType":5123,
			"count":234,
			"type":"SCALAR"
		},
		{
			"bufferView":15,
			"componentType":5126,
			"count":85,
			"max":[
				0.01890171319246292,
				0.02974640764296055,
				0.010932830162346363
			],
			"min":[
				-0.022944074124097824,
				-0.041819922626018524,
				-0.01431010477244854
			],
			"type":"VEC3"
		},
		{
			"bufferView":16,
			"componentType":5126,
			"count":85,
			"type":"VEC3"
		},
		{
			"bufferView":17,
			"componentType":5126,
			"count":85,
			"type":"VEC2"
		},
		{
			"bufferView":18,
			"componentType":5126,
			"count":85,
			"type":"VEC2"
		},
		{
			"bufferView":19,
			"componentType":5123,
			"count":264,
			"type":"SCALAR"
		},
		{
			"bufferView":20,
			"componentType":5126,
			"count":43,
			"max":[
				0.01042275782674551,
				0.02051348239183426,
				0.007562489714473486
			],
			"min":[
				-0.020014090463519096,
				-0.025995254516601562,
				-0.01139326673001051
			],
			"type":"VEC3"
		},
		{
			"bufferView":21,
			"componentType":5126,
			"count":43,
			"type":"VEC3"
		},
		{
			"bufferView":22,
			"componentType":5126,
			"count":43,
			"type":"VEC2"
		},
		{
			"bufferView":23,
			"componentType":5126,
			"count":43,
			"type":"VEC2"
		},
		{
			"bufferView":24,
			"componentType":5123,
			"count":114,
			"type":"SCALAR"
		},
		{
			"bufferView":25,
			"componentType":5126,
			"count":40,
			"max":[
				0.01412370428442955,
				0.01867254450917244,
				0.009354432113468647
			],
			"min":[
				-0.012437786906957626,
				-0.021623266860842705,
				-0.01216962281614542
			],
			"type":"VEC3"
		},
		{
			"bufferView":26,
			"componentType":5126,
			"count":40,
			"type":"VEC3"
		},
		{
			"bufferView":27,
			"componentType":5126,
			"count":40,
			"type":"VEC2"
		},
		{
			"bufferView":28,
			"componentType":5126,
			"count":40,
			"type":"VEC2"
		},
		{
			"bufferView":29,
			"componentType":5123,
			"count":102,
			"type":"SCALAR"
		},
		{
			"bufferView":30,
			"componentType":5126,
			"count":120,
			"max":[
				4
			],
			"min":[
				0.03333333333333333
			],
			"type":"SCALAR"
		},
		{
			"bufferView":31,
			"componentType":5126,
			"count":120,
			"type":"VEC3"
		},
		{
			"bufferView":32,
			"componentType":5126,
			"count":120,
			"type":"VEC4"
		},
		{
			"bufferView":33,
			"componentType":5126,
			"count":120,
			"type":"VEC3"
		},
		{
			"bufferView":34,
			"componentType":5126,
			"count":120,
			"type":"VEC4"
		},
		{
			"bufferView":35,
			"componentType":5126,
			"count":120,
			"type":"VEC3"
		},
		{
			"bufferView":36,
			"componentType":5126,
			"count":120,
			"type":"VEC4"
		},
		{
			"bufferView":37,
			"componentType":5126,
			"count":120,
			"type":"VEC3"
		},
		{
			"bufferView":38,
			"componentType":5126,
			"count":120,
			"type":"VEC4"
		},
		{
			"bufferView":39,
			"componentType":5126,
			"count":120,
			"type":"VEC3"
		},
		{
			"bufferView":40,
			"componentType":5126,
			"count":120,
			"type":"VEC4"
		},
		{
			"bufferView":41,
			"componentType":5126,
			"count":120,
			"type":"VEC3"
		},
		{
			"bufferView":42,
			"componentType":5126,
			"count":120,
			"type":"VEC4"
		}
	],
	"bufferViews":[
		{
			"buffer":0,
			"byteLength":852,
			"byteOffset":0,
			"target":34962
		},
		{
			"buffer":0,
			"byteLength":852,
			"byteOffset":852,
			"target":34962
		},
		{
			"buffer":0,
			"byteLength":568,
			"byteOffset":1704,
			"target":34962
		},
		{
			"buffer":0,
			"byteLength":568,
			"byteOffset":2272,
			"target":34962
		},
		{
			"buffer":0,
			"byteLength":462,
			"byteOffset":2840,
			"target":34963
		},
		{
			"buffer":0,
			"byteLength":684,
			"byteOffset":3304,
			"target":34962
		},
		{
			"buffer":0,
			"byteLength":684,
			"byteOffset":3988,
			"target":34962
		},
		{
			"buffer":0,
			"byteLength":456,
			"byteOffset":4672,
			"target":34962
		},
		{
			"buffer":0,
			"byteLength":456,
			"byteOffset":5128,
			"target":34962
		},
		{
			"buffer":0,
			"byteLength":312,
			"byteOffset":5584,
			"target":34963
		},
		{
			"buffer":0,
			"byteLength":900,
			"byteOffset":5896,
			"target":34962
		},
		{
			"buffer":0,
			"byteLength":900,
			"byteOffset":6796,
			"target":34962
		},
		{
			"buffer":0,
			"byteLength":600,
			"byteOffset":7696,
			"target":34962
		},
		{
			"buffer":0,
			"byteLength":600,
			"byteOffset":8296,
			"target":34962
		},
		{
			"buffer":0,
			"byteLength":468,
			"byteOffset":8896,
			"target":34963
		},
		{
			"buffer":0,
			"byteLength":1020,
			"byteOffset":9364,
			"target":34962
		},
		{
			"buffer":0,
			"byteLength":1020,
			"byteOffset":10384,
			"target":34962
		},
		{
			"buffer":0,
			"byteLength":680,
			"byteOffset":11404,
			"target":34962
		},
		{
			"buffer":0,
			"byteLength":680,
			"byteOffset":12084,
			"target":34962
		},
		{
			"buffer":0,
			"byteLength":528,
			"byteOffset":12764,
			"target":34963
		},
		{
			"buffer":0,
			"byteLength":516,
			"byteOffset":13292,
			"target":34962
		},
		{
			"buffer":0,
			"byteLength":516,
			"byteOffset":13808,
			"target":34962
		},
		{
			"buffer":0,
			"byteLength":344,
			"byteOffset":14324,
			"target":34962
		},
		{
			"buffer":0,
			"byteLength":344,
			"byteOffset":14668,
			"target":34962
		},
		{
			"buffer":0,
			"byteLength":228,
			"byteOffset":15012,
			"target":34963
		},
		{
			"buffer":0,
			"byteLength":480,
			"byteOffset":15240,
			"target":34962
		},
		{
			"buffer":0,
			"byteLength":480,
			"byteOffset":15720,
			"target":34962
		},
		{
			"buffer":0,
			"byteLength":320,
			"byteOffset":16200,
			"target":34962
		},
		{
			"buffer":0,
			"byteLength":320,
			"byteOffset":16520,
			"target":34962
		},
		{
			"buffer":0,
			"byteLength":204,
			"byteOffset":16840,
			"target":34963
		},
		{
			"buffer":0,
			"byteLength":480,
			"byteOffset":17044
		},
		{
			"buffer":0,
			"byteLength":1440,
			"byteOffset":17524
		},
		{
			"buffer":0,
			"byteLength":1920,
			"byteOffset":18964
		},
		{
			"buffer":0,
			"byteLength":1440,
			"byteOffset":20884
		},
		{
			"buffer":0,
			"byteLength":1920,
			"byteOffset":22324
		},
		{
			"buffer":0,
			"byteLength":1440,
			"byteOffset":24244
		},
		{
			"buffer":0,
			"byteLength":1920,
			"byteOffset":25684
		},
		{
			"buffer":0,
			"byteLength":1440,
			"byteOffset":27604
		},
		{
			"buffer":0,
			"byteLength":1920,
			"byteOffset":29044
		},
		{
			"buffer":0,
			"byteLength":1440,
			"byteOffset":30964
		},
		{
			"buffer":0,
			"byteLength":1920,
			"byteOffset":32404
		},
		{
			"buffer":0,
			"byteLength":1440,
			"byteOffset":34324
		},
		{
			"buffer":0,
			"byteLength":1920,
			"byteOffset":35764
		}
	],
	"samplers":[
		{
			"magFilter":9729,
			"minFilter":9987
		}
	],
	"buffers":[
		{
			"byteLength":37684,
			"uri":"Ceramic021.bin"
		}
	]
}
