{
	"asset":{
		"generator":"Khronos glTF Blender I/O v4.4.55",
		"version":"2.0"
	},
	"scene":0,
	"scenes":[
		{
			"name":"Scene",
			"nodes":[
				0,
				1,
				2,
				3,
				4,
				5,
				6
			]
		}
	],
	"nodes":[
		{
			"mesh":0,
			"name":"Ceramic019",
			"translation":[
				-0.18527477979660034,
				0.25579479336738586,
				-0.042500462383031845
			]
		},
		{
			"mesh":1,
			"name":"Ceramic019_001",
			"translation":[
				-0.17769385874271393,
				0.272077739238739,
				-0.046551238745450974
			]
		},
		{
			"mesh":2,
			"name":"Ceramic019_002",
			"translation":[
				-0.13287138938903809,
				0.259995698928833,
				-0.04235180839896202
			]
		},
		{
			"mesh":3,
			"name":"Ceramic019_003",
			"translation":[
				-0.16362591087818146,
				0.22510898113250732,
				-0.05518713593482971
			]
		},
		{
			"mesh":4,
			"name":"Ceramic019_004",
			"translation":[
				-0.1952928751707077,
				0.22410491108894348,
				-0.055390194058418274
			]
		},
		{
			"mesh":5,
			"name":"Ceramic019_005",
			"translation":[
				-0.1385801136493683,
				0.21609023213386536,
				-0.06188463419675827
			]
		},
		{
			"mesh":6,
			"name":"Ceramic019_006",
			"translation":[
				-0.13991576433181763,
				0.277344286441803,
				-0.0443299263715744
			]
		}
	],
	"animations":[
		{
			"channels":[
				{
					"sampler":0,
					"target":{
						"node":0,
						"path":"translation"
					}
				},
				{
					"sampler":1,
					"target":{
						"node":0,
						"path":"rotation"
					}
				}
			],
			"name":"Ceramic.041Action",
			"samplers":[
				{
					"input":35,
					"interpolation":"LINEAR",
					"output":36
				},
				{
					"input":35,
					"interpolation":"LINEAR",
					"output":37
				}
			]
		},
		{
			"channels":[
				{
					"sampler":0,
					"target":{
						"node":1,
						"path":"translation"
					}
				},
				{
					"sampler":1,
					"target":{
						"node":1,
						"path":"rotation"
					}
				}
			],
			"name":"Ceramic.064Action",
			"samplers":[
				{
					"input":35,
					"interpolation":"LINEAR",
					"output":38
				},
				{
					"input":35,
					"interpolation":"LINEAR",
					"output":39
				}
			]
		},
		{
			"channels":[
				{
					"sampler":0,
					"target":{
						"node":2,
						"path":"translation"
					}
				},
				{
					"sampler":1,
					"target":{
						"node":2,
						"path":"rotation"
					}
				}
			],
			"name":"Ceramic.065Action",
			"samplers":[
				{
					"input":35,
					"interpolation":"LINEAR",
					"output":40
				},
				{
					"input":35,
					"interpolation":"LINEAR",
					"output":41
				}
			]
		},
		{
			"channels":[
				{
					"sampler":0,
					"target":{
						"node":3,
						"path":"translation"
					}
				},
				{
					"sampler":1,
					"target":{
						"node":3,
						"path":"rotation"
					}
				}
			],
			"name":"Ceramic.066Action",
			"samplers":[
				{
					"input":35,
					"interpolation":"LINEAR",
					"output":42
				},
				{
					"input":35,
					"interpolation":"LINEAR",
					"output":43
				}
			]
		},
		{
			"channels":[
				{
					"sampler":0,
					"target":{
						"node":4,
						"path":"translation"
					}
				},
				{
					"sampler":1,
					"target":{
						"node":4,
						"path":"rotation"
					}
				}
			],
			"name":"Ceramic.067Action",
			"samplers":[
				{
					"input":35,
					"interpolation":"LINEAR",
					"output":44
				},
				{
					"input":35,
					"interpolation":"LINEAR",
					"output":45
				}
			]
		},
		{
			"channels":[
				{
					"sampler":0,
					"target":{
						"node":5,
						"path":"translation"
					}
				},
				{
					"sampler":1,
					"target":{
						"node":5,
						"path":"rotation"
					}
				}
			],
			"name":"Ceramic.068Action",
			"samplers":[
				{
					"input":35,
					"interpolation":"LINEAR",
					"output":46
				},
				{
					"input":35,
					"interpolation":"LINEAR",
					"output":47
				}
			]
		},
		{
			"channels":[
				{
					"sampler":0,
					"target":{
						"node":6,
						"path":"translation"
					}
				},
				{
					"sampler":1,
					"target":{
						"node":6,
						"path":"rotation"
					}
				}
			],
			"name":"Ceramic.069Action",
			"samplers":[
				{
					"input":35,
					"interpolation":"LINEAR",
					"output":48
				},
				{
					"input":35,
					"interpolation":"LINEAR",
					"output":49
				}
			]
		}
	],
	"materials":[
		{
			"doubleSided":true,
			"emissiveFactor":[
				1,
				1,
				1
			],
			"emissiveTexture":{
				"index":0
			},
			"name":"Harrow",
			"pbrMetallicRoughness":{
				"baseColorFactor":[
					0,
					0,
					0,
					1
				]
			}
		}
	],
	"meshes":[
		{
			"name":"Plane.061",
			"primitives":[
				{
					"attributes":{
						"POSITION":0,
						"NORMAL":1,
						"TEXCOORD_0":2,
						"TEXCOORD_1":3
					},
					"indices":4,
					"material":0
				}
			]
		},
		{
			"name":"Plane.159",
			"primitives":[
				{
					"attributes":{
						"POSITION":5,
						"NORMAL":6,
						"TEXCOORD_0":7,
						"TEXCOORD_1":8
					},
					"indices":9,
					"material":0
				}
			]
		},
		{
			"name":"Plane.160",
			"primitives":[
				{
					"attributes":{
						"POSITION":10,
						"NORMAL":11,
						"TEXCOORD_0":12,
						"TEXCOORD_1":13
					},
					"indices":14,
					"material":0
				}
			]
		},
		{
			"name":"Plane.161",
			"primitives":[
				{
					"attributes":{
						"POSITION":15,
						"NORMAL":16,
						"TEXCOORD_0":17,
						"TEXCOORD_1":18
					},
					"indices":19,
					"material":0
				}
			]
		},
		{
			"name":"Plane.162",
			"primitives":[
				{
					"attributes":{
						"POSITION":20,
						"NORMAL":21,
						"TEXCOORD_0":22,
						"TEXCOORD_1":23
					},
					"indices":24,
					"material":0
				}
			]
		},
		{
			"name":"Plane.163",
			"primitives":[
				{
					"attributes":{
						"POSITION":25,
						"NORMAL":26,
						"TEXCOORD_0":27,
						"TEXCOORD_1":28
					},
					"indices":29,
					"material":0
				}
			]
		},
		{
			"name":"Plane.164",
			"primitives":[
				{
					"attributes":{
						"POSITION":30,
						"NORMAL":31,
						"TEXCOORD_0":32,
						"TEXCOORD_1":33
					},
					"indices":34,
					"material":0
				}
			]
		}
	],
	"textures":[
		{
			"sampler":0,
			"source":0
		}
	],
	"images":[
		{
			"mimeType":"image/jpeg",
			"name":"BranaLP Diffuse Baked.jpg",
			"uri":"../tex/brana/BranaLP%20Diffuse%20Baked.jpg"
		}
	],
	"accessors":[
		{
			"bufferView":0,
			"componentType":5126,
			"count":185,
			"max":[
				0.03625401109457016,
				0.017037365585565567,
				0.017521411180496216
			],
			"min":[
				-0.028683535754680634,
				-0.022190671414136887,
				-0.02073660120368004
			],
			"type":"VEC3"
		},
		{
			"bufferView":1,
			"componentType":5126,
			"count":185,
			"type":"VEC3"
		},
		{
			"bufferView":2,
			"componentType":5126,
			"count":185,
			"type":"VEC2"
		},
		{
			"bufferView":3,
			"componentType":5126,
			"count":185,
			"type":"VEC2"
		},
		{
			"bufferView":4,
			"componentType":5123,
			"count":558,
			"type":"SCALAR"
		},
		{
			"bufferView":5,
			"componentType":5126,
			"count":200,
			"max":[
				0.01995914801955223,
				0.01403344888240099,
				0.020634030923247337
			],
			"min":[
				-0.03572533279657364,
				-0.017245657742023468,
				-0.023413274437189102
			],
			"type":"VEC3"
		},
		{
			"bufferView":6,
			"componentType":5126,
			"count":200,
			"type":"VEC3"
		},
		{
			"bufferView":7,
			"componentType":5126,
			"count":200,
			"type":"VEC2"
		},
		{
			"bufferView":8,
			"componentType":5126,
			"count":200,
			"type":"VEC2"
		},
		{
			"bufferView":9,
			"componentType":5123,
			"count":696,
			"type":"SCALAR"
		},
		{
			"bufferView":10,
			"componentType":5126,
			"count":227,
			"max":[
				0.03156740963459015,
				0.02543237991631031,
				0.024798862636089325
			],
			"min":[
				-0.024863330647349358,
				-0.046881500631570816,
				-0.026790600270032883
			],
			"type":"VEC3"
		},
		{
			"bufferView":11,
			"componentType":5126,
			"count":227,
			"type":"VEC3"
		},
		{
			"bufferView":12,
			"componentType":5126,
			"count":227,
			"type":"VEC2"
		},
		{
			"bufferView":13,
			"componentType":5126,
			"count":227,
			"type":"VEC2"
		},
		{
			"bufferView":14,
			"componentType":5123,
			"count":702,
			"type":"SCALAR"
		},
		{
			"bufferView":15,
			"componentType":5126,
			"count":115,
			"max":[
				0.019303888082504272,
				0.01962515152990818,
				0.021254271268844604
			],
			"min":[
				-0.025057533755898476,
				-0.027455799281597137,
				-0.024510841816663742
			],
			"type":"VEC3"
		},
		{
			"bufferView":16,
			"componentType":5126,
			"count":115,
			"type":"VEC3"
		},
		{
			"bufferView":17,
			"componentType":5126,
			"count":115,
			"type":"VEC2"
		},
		{
			"bufferView":18,
			"componentType":5126,
			"count":115,
			"type":"VEC2"
		},
		{
			"bufferView":19,
			"componentType":5123,
			"count":330,
			"type":"SCALAR"
		},
		{
			"bufferView":20,
			"componentType":5126,
			"count":66,
			"max":[
				0.010764500126242638,
				0.014039719477295876,
				0.01688440889120102
			],
			"min":[
				-0.015605255961418152,
				-0.017951764166355133,
				-0.018991487100720406
			],
			"type":"VEC3"
		},
		{
			"bufferView":21,
			"componentType":5126,
			"count":66,
			"type":"VEC3"
		},
		{
			"bufferView":22,
			"componentType":5126,
			"count":66,
			"type":"VEC2"
		},
		{
			"bufferView":23,
			"componentType":5126,
			"count":66,
			"type":"VEC2"
		},
		{
			"bufferView":24,
			"componentType":5123,
			"count":168,
			"type":"SCALAR"
		},
		{
			"bufferView":25,
			"componentType":5126,
			"count":94,
			"max":[
				0.014818714931607246,
				0.022761955857276917,
				0.024441812187433243
			],
			"min":[
				-0.011092850007116795,
				-0.020022038370370865,
				-0.01873583346605301
			],
			"type":"VEC3"
		},
		{
			"bufferView":26,
			"componentType":5126,
			"count":94,
			"type":"VEC3"
		},
		{
			"bufferView":27,
			"componentType":5126,
			"count":94,
			"type":"VEC2"
		},
		{
			"bufferView":28,
			"componentType":5126,
			"count":94,
			"type":"VEC2"
		},
		{
			"bufferView":29,
			"componentType":5123,
			"count":246,
			"type":"SCALAR"
		},
		{
			"bufferView":30,
			"componentType":5126,
			"count":199,
			"max":[
				0.03778994083404541,
				0.017912492156028748,
				0.027068961411714554
			],
			"min":[
				-0.017818955704569817,
				-0.012935586273670197,
				-0.025104863569140434
			],
			"type":"VEC3"
		},
		{
			"bufferView":31,
			"componentType":5126,
			"count":199,
			"type":"VEC3"
		},
		{
			"bufferView":32,
			"componentType":5126,
			"count":199,
			"type":"VEC2"
		},
		{
			"bufferView":33,
			"componentType":5126,
			"count":199,
			"type":"VEC2"
		},
		{
			"bufferView":34,
			"componentType":5123,
			"count":648,
			"type":"SCALAR"
		},
		{
			"bufferView":35,
			"componentType":5126,
			"count":120,
			"max":[
				4
			],
			"min":[
				0.03333333333333333
			],
			"type":"SCALAR"
		},
		{
			"bufferView":36,
			"componentType":5126,
			"count":120,
			"type":"VEC3"
		},
		{
			"bufferView":37,
			"componentType":5126,
			"count":120,
			"type":"VEC4"
		},
		{
			"bufferView":38,
			"componentType":5126,
			"count":120,
			"type":"VEC3"
		},
		{
			"bufferView":39,
			"componentType":5126,
			"count":120,
			"type":"VEC4"
		},
		{
			"bufferView":40,
			"componentType":5126,
			"count":120,
			"type":"VEC3"
		},
		{
			"bufferView":41,
			"componentType":5126,
			"count":120,
			"type":"VEC4"
		},
		{
			"bufferView":42,
			"componentType":5126,
			"count":120,
			"type":"VEC3"
		},
		{
			"bufferView":43,
			"componentType":5126,
			"count":120,
			"type":"VEC4"
		},
		{
			"bufferView":44,
			"componentType":5126,
			"count":120,
			"type":"VEC3"
		},
		{
			"bufferView":45,
			"componentType":5126,
			"count":120,
			"type":"VEC4"
		},
		{
			"bufferView":46,
			"componentType":5126,
			"count":120,
			"type":"VEC3"
		},
		{
			"bufferView":47,
			"componentType":5126,
			"count":120,
			"type":"VEC4"
		},
		{
			"bufferView":48,
			"componentType":5126,
			"count":120,
			"type":"VEC3"
		},
		{
			"bufferView":49,
			"componentType":5126,
			"count":120,
			"type":"VEC4"
		}
	],
	"bufferViews":[
		{
			"buffer":0,
			"byteLength":2220,
			"byteOffset":0,
			"target":34962
		},
		{
			"buffer":0,
			"byteLength":2220,
			"byteOffset":2220,
			"target":34962
		},
		{
			"buffer":0,
			"byteLength":1480,
			"byteOffset":4440,
			"target":34962
		},
		{
			"buffer":0,
			"byteLength":1480,
			"byteOffset":5920,
			"target":34962
		},
		{
			"buffer":0,
			"byteLength":1116,
			"byteOffset":7400,
			"target":34963
		},
		{
			"buffer":0,
			"byteLength":2400,
			"byteOffset":8516,
			"target":34962
		},
		{
			"buffer":0,
			"byteLength":2400,
			"byteOffset":10916,
			"target":34962
		},
		{
			"buffer":0,
			"byteLength":1600,
			"byteOffset":13316,
			"target":34962
		},
		{
			"buffer":0,
			"byteLength":1600,
			"byteOffset":14916,
			"target":34962
		},
		{
			"buffer":0,
			"byteLength":1392,
			"byteOffset":16516,
			"target":34963
		},
		{
			"buffer":0,
			"byteLength":2724,
			"byteOffset":17908,
			"target":34962
		},
		{
			"buffer":0,
			"byteLength":2724,
			"byteOffset":20632,
			"target":34962
		},
		{
			"buffer":0,
			"byteLength":1816,
			"byteOffset":23356,
			"target":34962
		},
		{
			"buffer":0,
			"byteLength":1816,
			"byteOffset":25172,
			"target":34962
		},
		{
			"buffer":0,
			"byteLength":1404,
			"byteOffset":26988,
			"target":34963
		},
		{
			"buffer":0,
			"byteLength":1380,
			"byteOffset":28392,
			"target":34962
		},
		{
			"buffer":0,
			"byteLength":1380,
			"byteOffset":29772,
			"target":34962
		},
		{
			"buffer":0,
			"byteLength":920,
			"byteOffset":31152,
			"target":34962
		},
		{
			"buffer":0,
			"byteLength":920,
			"byteOffset":32072,
			"target":34962
		},
		{
			"buffer":0,
			"byteLength":660,
			"byteOffset":32992,
			"target":34963
		},
		{
			"buffer":0,
			"byteLength":792,
			"byteOffset":33652,
			"target":34962
		},
		{
			"buffer":0,
			"byteLength":792,
			"byteOffset":34444,
			"target":34962
		},
		{
			"buffer":0,
			"byteLength":528,
			"byteOffset":35236,
			"target":34962
		},
		{
			"buffer":0,
			"byteLength":528,
			"byteOffset":35764,
			"target":34962
		},
		{
			"buffer":0,
			"byteLength":336,
			"byteOffset":36292,
			"target":34963
		},
		{
			"buffer":0,
			"byteLength":1128,
			"byteOffset":36628,
			"target":34962
		},
		{
			"buffer":0,
			"byteLength":1128,
			"byteOffset":37756,
			"target":34962
		},
		{
			"buffer":0,
			"byteLength":752,
			"byteOffset":38884,
			"target":34962
		},
		{
			"buffer":0,
			"byteLength":752,
			"byteOffset":39636,
			"target":34962
		},
		{
			"buffer":0,
			"byteLength":492,
			"byteOffset":40388,
			"target":34963
		},
		{
			"buffer":0,
			"byteLength":2388,
			"byteOffset":40880,
			"target":34962
		},
		{
			"buffer":0,
			"byteLength":2388,
			"byteOffset":43268,
			"target":34962
		},
		{
			"buffer":0,
			"byteLength":1592,
			"byteOffset":45656,
			"target":34962
		},
		{
			"buffer":0,
			"byteLength":1592,
			"byteOffset":47248,
			"target":34962
		},
		{
			"buffer":0,
			"byteLength":1296,
			"byteOffset":48840,
			"target":34963
		},
		{
			"buffer":0,
			"byteLength":480,
			"byteOffset":50136
		},
		{
			"buffer":0,
			"byteLength":1440,
			"byteOffset":50616
		},
		{
			"buffer":0,
			"byteLength":1920,
			"byteOffset":52056
		},
		{
			"buffer":0,
			"byteLength":1440,
			"byteOffset":53976
		},
		{
			"buffer":0,
			"byteLength":1920,
			"byteOffset":55416
		},
		{
			"buffer":0,
			"byteLength":1440,
			"byteOffset":57336
		},
		{
			"buffer":0,
			"byteLength":1920,
			"byteOffset":58776
		},
		{
			"buffer":0,
			"byteLength":1440,
			"byteOffset":60696
		},
		{
			"buffer":0,
			"byteLength":1920,
			"byteOffset":62136
		},
		{
			"buffer":0,
			"byteLength":1440,
			"byteOffset":64056
		},
		{
			"buffer":0,
			"byteLength":1920,
			"byteOffset":65496
		},
		{
			"buffer":0,
			"byteLength":1440,
			"byteOffset":67416
		},
		{
			"buffer":0,
			"byteLength":1920,
			"byteOffset":68856
		},
		{
			"buffer":0,
			"byteLength":1440,
			"byteOffset":70776
		},
		{
			"buffer":0,
			"byteLength":1920,
			"byteOffset":72216
		}
	],
	"samplers":[
		{
			"magFilter":9729,
			"minFilter":9987
		}
	],
	"buffers":[
		{
			"byteLength":74136,
			"uri":"Ceramic019.bin"
		}
	]
}
