{
	"asset":{
		"generator":"Khronos glTF Blender I/O v4.4.55",
		"version":"2.0"
	},
	"scene":0,
	"scenes":[
		{
			"name":"Scene",
			"nodes":[
				0,
				1,
				2,
				3,
				4,
				5
			]
		}
	],
	"nodes":[
		{
			"mesh":0,
			"name":"Ceramic007",
			"translation":[
				-0.05059250816702843,
				-0.49633726477622986,
				-0.033803556114435196
			]
		},
		{
			"mesh":1,
			"name":"Ceramic007_001",
			"translation":[
				-0.02647443860769272,
				-0.49444618821144104,
				-0.02934141457080841
			]
		},
		{
			"mesh":2,
			"name":"Ceramic007_002",
			"translation":[
				-0.05282749608159065,
				-0.4798000156879425,
				-0.041952334344387054
			]
		},
		{
			"mesh":3,
			"name":"Ceramic007_003",
			"translation":[
				-0.045602455735206604,
				-0.5105751752853394,
				-0.030782043933868408
			]
		},
		{
			"mesh":4,
			"name":"Ceramic007_004",
			"translation":[
				-0.02851177379488945,
				-0.5121662616729736,
				-0.026849625632166862
			]
		},
		{
			"mesh":5,
			"name":"Ceramic007_005",
			"translation":[
				-0.03179897740483284,
				-0.4704686999320984,
				-0.042785804718732834
			]
		}
	],
	"animations":[
		{
			"channels":[
				{
					"sampler":0,
					"target":{
						"node":0,
						"path":"translation"
					}
				},
				{
					"sampler":1,
					"target":{
						"node":0,
						"path":"rotation"
					}
				}
			],
			"name":"Ceramic007Action",
			"samplers":[
				{
					"input":30,
					"interpolation":"LINEAR",
					"output":31
				},
				{
					"input":30,
					"interpolation":"LINEAR",
					"output":32
				}
			]
		},
		{
			"channels":[
				{
					"sampler":0,
					"target":{
						"node":1,
						"path":"translation"
					}
				},
				{
					"sampler":1,
					"target":{
						"node":1,
						"path":"rotation"
					}
				}
			],
			"name":"Ceramic007.001Action",
			"samplers":[
				{
					"input":30,
					"interpolation":"LINEAR",
					"output":33
				},
				{
					"input":30,
					"interpolation":"LINEAR",
					"output":34
				}
			]
		},
		{
			"channels":[
				{
					"sampler":0,
					"target":{
						"node":2,
						"path":"translation"
					}
				},
				{
					"sampler":1,
					"target":{
						"node":2,
						"path":"rotation"
					}
				}
			],
			"name":"Ceramic007.002Action",
			"samplers":[
				{
					"input":30,
					"interpolation":"LINEAR",
					"output":35
				},
				{
					"input":30,
					"interpolation":"LINEAR",
					"output":36
				}
			]
		},
		{
			"channels":[
				{
					"sampler":0,
					"target":{
						"node":3,
						"path":"translation"
					}
				},
				{
					"sampler":1,
					"target":{
						"node":3,
						"path":"rotation"
					}
				}
			],
			"name":"Ceramic007.003Action",
			"samplers":[
				{
					"input":30,
					"interpolation":"LINEAR",
					"output":37
				},
				{
					"input":30,
					"interpolation":"LINEAR",
					"output":38
				}
			]
		},
		{
			"channels":[
				{
					"sampler":0,
					"target":{
						"node":4,
						"path":"translation"
					}
				},
				{
					"sampler":1,
					"target":{
						"node":4,
						"path":"rotation"
					}
				}
			],
			"name":"Ceramic007.004Action",
			"samplers":[
				{
					"input":30,
					"interpolation":"LINEAR",
					"output":39
				},
				{
					"input":30,
					"interpolation":"LINEAR",
					"output":40
				}
			]
		},
		{
			"channels":[
				{
					"sampler":0,
					"target":{
						"node":5,
						"path":"translation"
					}
				},
				{
					"sampler":1,
					"target":{
						"node":5,
						"path":"rotation"
					}
				}
			],
			"name":"Ceramic007.005Action",
			"samplers":[
				{
					"input":30,
					"interpolation":"LINEAR",
					"output":41
				},
				{
					"input":30,
					"interpolation":"LINEAR",
					"output":42
				}
			]
		}
	],
	"materials":[
		{
			"doubleSided":true,
			"emissiveFactor":[
				1,
				1,
				1
			],
			"emissiveTexture":{
				"index":0
			},
			"name":"Harrow",
			"pbrMetallicRoughness":{
				"baseColorFactor":[
					0,
					0,
					0,
					1
				]
			}
		}
	],
	"meshes":[
		{
			"name":"Plane.049",
			"primitives":[
				{
					"attributes":{
						"POSITION":0,
						"NORMAL":1,
						"TEXCOORD_0":2,
						"TEXCOORD_1":3
					},
					"indices":4,
					"material":0
				}
			]
		},
		{
			"name":"Plane.102",
			"primitives":[
				{
					"attributes":{
						"POSITION":5,
						"NORMAL":6,
						"TEXCOORD_0":7,
						"TEXCOORD_1":8
					},
					"indices":9,
					"material":0
				}
			]
		},
		{
			"name":"Plane.103",
			"primitives":[
				{
					"attributes":{
						"POSITION":10,
						"NORMAL":11,
						"TEXCOORD_0":12,
						"TEXCOORD_1":13
					},
					"indices":14,
					"material":0
				}
			]
		},
		{
			"name":"Plane.104",
			"primitives":[
				{
					"attributes":{
						"POSITION":15,
						"NORMAL":16,
						"TEXCOORD_0":17,
						"TEXCOORD_1":18
					},
					"indices":19,
					"material":0
				}
			]
		},
		{
			"name":"Plane.105",
			"primitives":[
				{
					"attributes":{
						"POSITION":20,
						"NORMAL":21,
						"TEXCOORD_0":22,
						"TEXCOORD_1":23
					},
					"indices":24,
					"material":0
				}
			]
		},
		{
			"name":"Plane.106",
			"primitives":[
				{
					"attributes":{
						"POSITION":25,
						"NORMAL":26,
						"TEXCOORD_0":27,
						"TEXCOORD_1":28
					},
					"indices":29,
					"material":0
				}
			]
		}
	],
	"textures":[
		{
			"sampler":0,
			"source":0
		}
	],
	"images":[
		{
			"mimeType":"image/jpeg",
			"name":"BranaLP Diffuse Baked.jpg",
			"uri":"../tex/brana/BranaLP%20Diffuse%20Baked.jpg"
		}
	],
	"accessors":[
		{
			"bufferView":0,
			"componentType":5126,
			"count":72,
			"max":[
				0.015330024063587189,
				0.011033503338694572,
				0.008720550686120987
			],
			"min":[
				-0.014604168944060802,
				-0.017605923116207123,
				-0.009051158092916012
			],
			"type":"VEC3"
		},
		{
			"bufferView":1,
			"componentType":5126,
			"count":72,
			"type":"VEC3"
		},
		{
			"bufferView":2,
			"componentType":5126,
			"count":72,
			"type":"VEC2"
		},
		{
			"bufferView":3,
			"componentType":5126,
			"count":72,
			"type":"VEC2"
		},
		{
			"bufferView":4,
			"componentType":5123,
			"count":186,
			"type":"SCALAR"
		},
		{
			"bufferView":5,
			"componentType":5126,
			"count":91,
			"max":[
				0.01771833747625351,
				0.012191135436296463,
				0.008432011120021343
			],
			"min":[
				-0.015542315319180489,
				-0.026773549616336823,
				-0.009905307553708553
			],
			"type":"VEC3"
		},
		{
			"bufferView":6,
			"componentType":5126,
			"count":91,
			"type":"VEC3"
		},
		{
			"bufferView":7,
			"componentType":5126,
			"count":91,
			"type":"VEC2"
		},
		{
			"bufferView":8,
			"componentType":5126,
			"count":91,
			"type":"VEC2"
		},
		{
			"bufferView":9,
			"componentType":5123,
			"count":234,
			"type":"SCALAR"
		},
		{
			"bufferView":10,
			"componentType":5126,
			"count":99,
			"max":[
				0.013339269906282425,
				0.022719768807291985,
				0.013953907415270805
			],
			"min":[
				-0.013403836637735367,
				-0.015011472627520561,
				-0.02001253329217434
			],
			"type":"VEC3"
		},
		{
			"bufferView":11,
			"componentType":5126,
			"count":99,
			"type":"VEC3"
		},
		{
			"bufferView":12,
			"componentType":5126,
			"count":99,
			"type":"VEC2"
		},
		{
			"bufferView":13,
			"componentType":5126,
			"count":99,
			"type":"VEC2"
		},
		{
			"bufferView":14,
			"componentType":5123,
			"count":270,
			"type":"SCALAR"
		},
		{
			"bufferView":15,
			"componentType":5126,
			"count":74,
			"max":[
				0.013468054123222828,
				0.01669018156826496,
				0.007649747654795647
			],
			"min":[
				-0.016560617834329605,
				-0.01612451672554016,
				-0.009505512192845345
			],
			"type":"VEC3"
		},
		{
			"bufferView":16,
			"componentType":5126,
			"count":74,
			"type":"VEC3"
		},
		{
			"bufferView":17,
			"componentType":5126,
			"count":74,
			"type":"VEC2"
		},
		{
			"bufferView":18,
			"componentType":5126,
			"count":74,
			"type":"VEC2"
		},
		{
			"bufferView":19,
			"componentType":5123,
			"count":186,
			"type":"SCALAR"
		},
		{
			"bufferView":20,
			"componentType":5126,
			"count":50,
			"max":[
				0.01476430706679821,
				0.014307036064565182,
				0.00547204352915287
			],
			"min":[
				-0.007130944170057774,
				-0.012803943827748299,
				-0.005413214676082134
			],
			"type":"VEC3"
		},
		{
			"bufferView":21,
			"componentType":5126,
			"count":50,
			"type":"VEC3"
		},
		{
			"bufferView":22,
			"componentType":5126,
			"count":50,
			"type":"VEC2"
		},
		{
			"bufferView":23,
			"componentType":5126,
			"count":50,
			"type":"VEC2"
		},
		{
			"bufferView":24,
			"componentType":5123,
			"count":126,
			"type":"SCALAR"
		},
		{
			"bufferView":25,
			"componentType":5126,
			"count":107,
			"max":[
				0.0236157588660717,
				0.024841828271746635,
				0.018335256725549698
			],
			"min":[
				-0.018840299919247627,
				-0.015034657903015614,
				-0.02580883726477623
			],
			"type":"VEC3"
		},
		{
			"bufferView":26,
			"componentType":5126,
			"count":107,
			"type":"VEC3"
		},
		{
			"bufferView":27,
			"componentType":5126,
			"count":107,
			"type":"VEC2"
		},
		{
			"bufferView":28,
			"componentType":5126,
			"count":107,
			"type":"VEC2"
		},
		{
			"bufferView":29,
			"componentType":5123,
			"count":312,
			"type":"SCALAR"
		},
		{
			"bufferView":30,
			"componentType":5126,
			"count":120,
			"max":[
				4
			],
			"min":[
				0.03333333333333333
			],
			"type":"SCALAR"
		},
		{
			"bufferView":31,
			"componentType":5126,
			"count":120,
			"type":"VEC3"
		},
		{
			"bufferView":32,
			"componentType":5126,
			"count":120,
			"type":"VEC4"
		},
		{
			"bufferView":33,
			"componentType":5126,
			"count":120,
			"type":"VEC3"
		},
		{
			"bufferView":34,
			"componentType":5126,
			"count":120,
			"type":"VEC4"
		},
		{
			"bufferView":35,
			"componentType":5126,
			"count":120,
			"type":"VEC3"
		},
		{
			"bufferView":36,
			"componentType":5126,
			"count":120,
			"type":"VEC4"
		},
		{
			"bufferView":37,
			"componentType":5126,
			"count":120,
			"type":"VEC3"
		},
		{
			"bufferView":38,
			"componentType":5126,
			"count":120,
			"type":"VEC4"
		},
		{
			"bufferView":39,
			"componentType":5126,
			"count":120,
			"type":"VEC3"
		},
		{
			"bufferView":40,
			"componentType":5126,
			"count":120,
			"type":"VEC4"
		},
		{
			"bufferView":41,
			"componentType":5126,
			"count":120,
			"type":"VEC3"
		},
		{
			"bufferView":42,
			"componentType":5126,
			"count":120,
			"type":"VEC4"
		}
	],
	"bufferViews":[
		{
			"buffer":0,
			"byteLength":864,
			"byteOffset":0,
			"target":34962
		},
		{
			"buffer":0,
			"byteLength":864,
			"byteOffset":864,
			"target":34962
		},
		{
			"buffer":0,
			"byteLength":576,
			"byteOffset":1728,
			"target":34962
		},
		{
			"buffer":0,
			"byteLength":576,
			"byteOffset":2304,
			"target":34962
		},
		{
			"buffer":0,
			"byteLength":372,
			"byteOffset":2880,
			"target":34963
		},
		{
			"buffer":0,
			"byteLength":1092,
			"byteOffset":3252,
			"target":34962
		},
		{
			"buffer":0,
			"byteLength":1092,
			"byteOffset":4344,
			"target":34962
		},
		{
			"buffer":0,
			"byteLength":728,
			"byteOffset":5436,
			"target":34962
		},
		{
			"buffer":0,
			"byteLength":728,
			"byteOffset":6164,
			"target":34962
		},
		{
			"buffer":0,
			"byteLength":468,
			"byteOffset":6892,
			"target":34963
		},
		{
			"buffer":0,
			"byteLength":1188,
			"byteOffset":7360,
			"target":34962
		},
		{
			"buffer":0,
			"byteLength":1188,
			"byteOffset":8548,
			"target":34962
		},
		{
			"buffer":0,
			"byteLength":792,
			"byteOffset":9736,
			"target":34962
		},
		{
			"buffer":0,
			"byteLength":792,
			"byteOffset":10528,
			"target":34962
		},
		{
			"buffer":0,
			"byteLength":540,
			"byteOffset":11320,
			"target":34963
		},
		{
			"buffer":0,
			"byteLength":888,
			"byteOffset":11860,
			"target":34962
		},
		{
			"buffer":0,
			"byteLength":888,
			"byteOffset":12748,
			"target":34962
		},
		{
			"buffer":0,
			"byteLength":592,
			"byteOffset":13636,
			"target":34962
		},
		{
			"buffer":0,
			"byteLength":592,
			"byteOffset":14228,
			"target":34962
		},
		{
			"buffer":0,
			"byteLength":372,
			"byteOffset":14820,
			"target":34963
		},
		{
			"buffer":0,
			"byteLength":600,
			"byteOffset":15192,
			"target":34962
		},
		{
			"buffer":0,
			"byteLength":600,
			"byteOffset":15792,
			"target":34962
		},
		{
			"buffer":0,
			"byteLength":400,
			"byteOffset":16392,
			"target":34962
		},
		{
			"buffer":0,
			"byteLength":400,
			"byteOffset":16792,
			"target":34962
		},
		{
			"buffer":0,
			"byteLength":252,
			"byteOffset":17192,
			"target":34963
		},
		{
			"buffer":0,
			"byteLength":1284,
			"byteOffset":17444,
			"target":34962
		},
		{
			"buffer":0,
			"byteLength":1284,
			"byteOffset":18728,
			"target":34962
		},
		{
			"buffer":0,
			"byteLength":856,
			"byteOffset":20012,
			"target":34962
		},
		{
			"buffer":0,
			"byteLength":856,
			"byteOffset":20868,
			"target":34962
		},
		{
			"buffer":0,
			"byteLength":624,
			"byteOffset":21724,
			"target":34963
		},
		{
			"buffer":0,
			"byteLength":480,
			"byteOffset":22348
		},
		{
			"buffer":0,
			"byteLength":1440,
			"byteOffset":22828
		},
		{
			"buffer":0,
			"byteLength":1920,
			"byteOffset":24268
		},
		{
			"buffer":0,
			"byteLength":1440,
			"byteOffset":26188
		},
		{
			"buffer":0,
			"byteLength":1920,
			"byteOffset":27628
		},
		{
			"buffer":0,
			"byteLength":1440,
			"byteOffset":29548
		},
		{
			"buffer":0,
			"byteLength":1920,
			"byteOffset":30988
		},
		{
			"buffer":0,
			"byteLength":1440,
			"byteOffset":32908
		},
		{
			"buffer":0,
			"byteLength":1920,
			"byteOffset":34348
		},
		{
			"buffer":0,
			"byteLength":1440,
			"byteOffset":36268
		},
		{
			"buffer":0,
			"byteLength":1920,
			"byteOffset":37708
		},
		{
			"buffer":0,
			"byteLength":1440,
			"byteOffset":39628
		},
		{
			"buffer":0,
			"byteLength":1920,
			"byteOffset":41068
		}
	],
	"samplers":[
		{
			"magFilter":9729,
			"minFilter":9987
		}
	],
	"buffers":[
		{
			"byteLength":42988,
			"uri":"Ceramic007.bin"
		}
	]
}
