{
	"asset":{
		"generator":"Khronos glTF Blender I/O v4.4.55",
		"version":"2.0"
	},
	"extensionsUsed":[
		"KHR_materials_specular"
	],
	"scene":0,
	"scenes":[
		{
			"name":"Scene",
			"nodes":[
				0,
				1,
				2,
				3,
				4,
				5
			]
		}
	],
	"nodes":[
		{
			"mesh":0,
			"name":"Ceramic010",
			"translation":[
				-0.2115287184715271,
				-0.31399762630462646,
				-0.05896781384944916
			]
		},
		{
			"mesh":1,
			"name":"Ceramic010_001",
			"translation":[
				-0.2173788994550705,
				-0.29060426354408264,
				-0.06113141030073166
			]
		},
		{
			"mesh":2,
			"name":"Ceramic010_002",
			"translation":[
				-0.1968558132648468,
				-0.27072346210479736,
				-0.060214050114154816
			]
		},
		{
			"mesh":3,
			"name":"Ceramic010_003",
			"translation":[
				-0.1665126234292984,
				-0.301643431186676,
				-0.04655929654836655
			]
		},
		{
			"mesh":4,
			"name":"Ceramic010_004",
			"translation":[
				-0.16680824756622314,
				-0.2692399322986603,
				-0.05221446603536606
			]
		},
		{
			"mesh":5,
			"name":"Ceramic010_005",
			"translation":[
				-0.18934912979602814,
				-0.31557267904281616,
				-0.0501323863863945
			]
		}
	],
	"animations":[
		{
			"channels":[
				{
					"sampler":0,
					"target":{
						"node":0,
						"path":"translation"
					}
				},
				{
					"sampler":1,
					"target":{
						"node":0,
						"path":"rotation"
					}
				}
			],
			"name":"Ceramic.009Action",
			"samplers":[
				{
					"input":30,
					"interpolation":"LINEAR",
					"output":31
				},
				{
					"input":30,
					"interpolation":"LINEAR",
					"output":32
				}
			]
		},
		{
			"channels":[
				{
					"sampler":0,
					"target":{
						"node":1,
						"path":"translation"
					}
				},
				{
					"sampler":1,
					"target":{
						"node":1,
						"path":"rotation"
					}
				}
			],
			"name":"Ceramic.010Action",
			"samplers":[
				{
					"input":30,
					"interpolation":"LINEAR",
					"output":33
				},
				{
					"input":30,
					"interpolation":"LINEAR",
					"output":34
				}
			]
		},
		{
			"channels":[
				{
					"sampler":0,
					"target":{
						"node":2,
						"path":"translation"
					}
				},
				{
					"sampler":1,
					"target":{
						"node":2,
						"path":"rotation"
					}
				}
			],
			"name":"Ceramic.011Action",
			"samplers":[
				{
					"input":30,
					"interpolation":"LINEAR",
					"output":35
				},
				{
					"input":30,
					"interpolation":"LINEAR",
					"output":36
				}
			]
		},
		{
			"channels":[
				{
					"sampler":0,
					"target":{
						"node":3,
						"path":"translation"
					}
				},
				{
					"sampler":1,
					"target":{
						"node":3,
						"path":"rotation"
					}
				}
			],
			"name":"Ceramic.012Action",
			"samplers":[
				{
					"input":30,
					"interpolation":"LINEAR",
					"output":37
				},
				{
					"input":30,
					"interpolation":"LINEAR",
					"output":38
				}
			]
		},
		{
			"channels":[
				{
					"sampler":0,
					"target":{
						"node":4,
						"path":"translation"
					}
				},
				{
					"sampler":1,
					"target":{
						"node":4,
						"path":"rotation"
					}
				}
			],
			"name":"Ceramic.013Action",
			"samplers":[
				{
					"input":30,
					"interpolation":"LINEAR",
					"output":39
				},
				{
					"input":30,
					"interpolation":"LINEAR",
					"output":40
				}
			]
		},
		{
			"channels":[
				{
					"sampler":0,
					"target":{
						"node":5,
						"path":"translation"
					}
				},
				{
					"sampler":1,
					"target":{
						"node":5,
						"path":"rotation"
					}
				}
			],
			"name":"Ceramic.014Action",
			"samplers":[
				{
					"input":30,
					"interpolation":"LINEAR",
					"output":41
				},
				{
					"input":30,
					"interpolation":"LINEAR",
					"output":42
				}
			]
		}
	],
	"materials":[
		{
			"doubleSided":true,
			"emissiveFactor":[
				1,
				1,
				1
			],
			"emissiveTexture":{
				"index":0
			},
			"extensions":{
				"KHR_materials_specular":{
					"specularTexture":{
						"index":1
					}
				}
			},
			"name":"BranaLP",
			"normalTexture":{
				"index":2
			},
			"pbrMetallicRoughness":{
				"baseColorTexture":{
					"index":3
				},
				"metallicRoughnessTexture":{
					"index":4
				},
				"roughnessFactor":0.5
			}
		}
	],
	"meshes":[
		{
			"name":"Plane.119",
			"primitives":[
				{
					"attributes":{
						"POSITION":0,
						"NORMAL":1,
						"TEXCOORD_0":2,
						"TEXCOORD_1":3
					},
					"indices":4,
					"material":0
				}
			]
		},
		{
			"name":"Plane.120",
			"primitives":[
				{
					"attributes":{
						"POSITION":5,
						"NORMAL":6,
						"TEXCOORD_0":7,
						"TEXCOORD_1":8
					},
					"indices":9,
					"material":0
				}
			]
		},
		{
			"name":"Plane.121",
			"primitives":[
				{
					"attributes":{
						"POSITION":10,
						"NORMAL":11,
						"TEXCOORD_0":12,
						"TEXCOORD_1":13
					},
					"indices":14,
					"material":0
				}
			]
		},
		{
			"name":"Plane.122",
			"primitives":[
				{
					"attributes":{
						"POSITION":15,
						"NORMAL":16,
						"TEXCOORD_0":17,
						"TEXCOORD_1":18
					},
					"indices":19,
					"material":0
				}
			]
		},
		{
			"name":"Plane.123",
			"primitives":[
				{
					"attributes":{
						"POSITION":20,
						"NORMAL":21,
						"TEXCOORD_0":22,
						"TEXCOORD_1":23
					},
					"indices":24,
					"material":0
				}
			]
		},
		{
			"name":"Plane.124",
			"primitives":[
				{
					"attributes":{
						"POSITION":25,
						"NORMAL":26,
						"TEXCOORD_0":27,
						"TEXCOORD_1":28
					},
					"indices":29,
					"material":0
				}
			]
		}
	],
	"textures":[
		{
			"sampler":0,
			"source":0
		},
		{
			"sampler":0,
			"source":1
		},
		{
			"sampler":0,
			"source":2
		},
		{
			"sampler":0,
			"source":3
		},
		{
			"sampler":0,
			"source":4
		}
	],
	"images":[
		{
			"mimeType":"image/jpeg",
			"name":"BranaLP Diffuse Baked.jpg",
			"uri":"../tex/brana/BranaLP%20Diffuse%20Baked.jpg"
		},
		{
			"mimeType":"image/jpeg",
			"name":"BranaLP Specular.jpg",
			"uri":"../tex/brana/BranaLP%20Specular.jpg"
		},
		{
			"mimeType":"image/jpeg",
			"name":"BranaLP Normal.jpg",
			"uri":"../tex/brana/BranaLP%20Normal.jpg"
		},
		{
			"mimeType":"image/jpeg",
			"name":"BranaLP Diffuse.jpg",
			"uri":"../tex/brana/BranaLP%20Diffuse.jpg"
		},
		{
			"mimeType":"image/jpeg",
			"name":"BranaLP Metallic.jpg",
			"uri":"../tex/brana/BranaLP%20Metallic.jpg"
		}
	],
	"accessors":[
		{
			"bufferView":0,
			"componentType":5126,
			"count":136,
			"max":[
				0.015575507655739784,
				0.026910297572612762,
				0.012849408201873302
			],
			"min":[
				-0.019519420340657234,
				-0.029558666050434113,
				-0.017364658415317535
			],
			"type":"VEC3"
		},
		{
			"bufferView":1,
			"componentType":5126,
			"count":136,
			"type":"VEC3"
		},
		{
			"bufferView":2,
			"componentType":5126,
			"count":136,
			"type":"VEC2"
		},
		{
			"bufferView":3,
			"componentType":5126,
			"count":136,
			"type":"VEC2"
		},
		{
			"bufferView":4,
			"componentType":5123,
			"count":396,
			"type":"SCALAR"
		},
		{
			"bufferView":5,
			"componentType":5126,
			"count":84,
			"max":[
				0.015668023377656937,
				0.014340976253151894,
				0.012111812829971313
			],
			"min":[
				-0.013567684218287468,
				-0.018972136080265045,
				-0.011389980092644691
			],
			"type":"VEC3"
		},
		{
			"bufferView":6,
			"componentType":5126,
			"count":84,
			"type":"VEC3"
		},
		{
			"bufferView":7,
			"componentType":5126,
			"count":84,
			"type":"VEC2"
		},
		{
			"bufferView":8,
			"componentType":5126,
			"count":84,
			"type":"VEC2"
		},
		{
			"bufferView":9,
			"componentType":5123,
			"count":228,
			"type":"SCALAR"
		},
		{
			"bufferView":10,
			"componentType":5126,
			"count":148,
			"max":[
				0.024964965879917145,
				0.021645493805408478,
				0.016573617234826088
			],
			"min":[
				-0.031580280512571335,
				-0.0222553089261055,
				-0.021023111417889595
			],
			"type":"VEC3"
		},
		{
			"bufferView":11,
			"componentType":5126,
			"count":148,
			"type":"VEC3"
		},
		{
			"bufferView":12,
			"componentType":5126,
			"count":148,
			"type":"VEC2"
		},
		{
			"bufferView":13,
			"componentType":5126,
			"count":148,
			"type":"VEC2"
		},
		{
			"bufferView":14,
			"componentType":5123,
			"count":456,
			"type":"SCALAR"
		},
		{
			"bufferView":15,
			"componentType":5126,
			"count":144,
			"max":[
				0.0334482304751873,
				0.02547747641801834,
				0.007058581802994013
			],
			"min":[
				-0.016826888546347618,
				-0.03765353187918663,
				-0.0068852840922772884
			],
			"type":"VEC3"
		},
		{
			"bufferView":16,
			"componentType":5126,
			"count":144,
			"type":"VEC3"
		},
		{
			"bufferView":17,
			"componentType":5126,
			"count":144,
			"type":"VEC2"
		},
		{
			"bufferView":18,
			"componentType":5126,
			"count":144,
			"type":"VEC2"
		},
		{
			"bufferView":19,
			"componentType":5123,
			"count":438,
			"type":"SCALAR"
		},
		{
			"bufferView":20,
			"componentType":5126,
			"count":96,
			"max":[
				0.022353092208504677,
				0.013952072709798813,
				0.009980821050703526
			],
			"min":[
				-0.01507891807705164,
				-0.010490662418305874,
				-0.013319680467247963
			],
			"type":"VEC3"
		},
		{
			"bufferView":21,
			"componentType":5126,
			"count":96,
			"type":"VEC3"
		},
		{
			"bufferView":22,
			"componentType":5126,
			"count":96,
			"type":"VEC2"
		},
		{
			"bufferView":23,
			"componentType":5126,
			"count":96,
			"type":"VEC2"
		},
		{
			"bufferView":24,
			"componentType":5123,
			"count":270,
			"type":"SCALAR"
		},
		{
			"bufferView":25,
			"componentType":5126,
			"count":134,
			"max":[
				0.011343956924974918,
				0.032290853559970856,
				0.008381808176636696
			],
			"min":[
				-0.014092179015278816,
				-0.02802402898669243,
				-0.012881821021437645
			],
			"type":"VEC3"
		},
		{
			"bufferView":26,
			"componentType":5126,
			"count":134,
			"type":"VEC3"
		},
		{
			"bufferView":27,
			"componentType":5126,
			"count":134,
			"type":"VEC2"
		},
		{
			"bufferView":28,
			"componentType":5126,
			"count":134,
			"type":"VEC2"
		},
		{
			"bufferView":29,
			"componentType":5123,
			"count":384,
			"type":"SCALAR"
		},
		{
			"bufferView":30,
			"componentType":5126,
			"count":120,
			"max":[
				4
			],
			"min":[
				0.03333333333333333
			],
			"type":"SCALAR"
		},
		{
			"bufferView":31,
			"componentType":5126,
			"count":120,
			"type":"VEC3"
		},
		{
			"bufferView":32,
			"componentType":5126,
			"count":120,
			"type":"VEC4"
		},
		{
			"bufferView":33,
			"componentType":5126,
			"count":120,
			"type":"VEC3"
		},
		{
			"bufferView":34,
			"componentType":5126,
			"count":120,
			"type":"VEC4"
		},
		{
			"bufferView":35,
			"componentType":5126,
			"count":120,
			"type":"VEC3"
		},
		{
			"bufferView":36,
			"componentType":5126,
			"count":120,
			"type":"VEC4"
		},
		{
			"bufferView":37,
			"componentType":5126,
			"count":120,
			"type":"VEC3"
		},
		{
			"bufferView":38,
			"componentType":5126,
			"count":120,
			"type":"VEC4"
		},
		{
			"bufferView":39,
			"componentType":5126,
			"count":120,
			"type":"VEC3"
		},
		{
			"bufferView":40,
			"componentType":5126,
			"count":120,
			"type":"VEC4"
		},
		{
			"bufferView":41,
			"componentType":5126,
			"count":120,
			"type":"VEC3"
		},
		{
			"bufferView":42,
			"componentType":5126,
			"count":120,
			"type":"VEC4"
		}
	],
	"bufferViews":[
		{
			"buffer":0,
			"byteLength":1632,
			"byteOffset":0,
			"target":34962
		},
		{
			"buffer":0,
			"byteLength":1632,
			"byteOffset":1632,
			"target":34962
		},
		{
			"buffer":0,
			"byteLength":1088,
			"byteOffset":3264,
			"target":34962
		},
		{
			"buffer":0,
			"byteLength":1088,
			"byteOffset":4352,
			"target":34962
		},
		{
			"buffer":0,
			"byteLength":792,
			"byteOffset":5440,
			"target":34963
		},
		{
			"buffer":0,
			"byteLength":1008,
			"byteOffset":6232,
			"target":34962
		},
		{
			"buffer":0,
			"byteLength":1008,
			"byteOffset":7240,
			"target":34962
		},
		{
			"buffer":0,
			"byteLength":672,
			"byteOffset":8248,
			"target":34962
		},
		{
			"buffer":0,
			"byteLength":672,
			"byteOffset":8920,
			"target":34962
		},
		{
			"buffer":0,
			"byteLength":456,
			"byteOffset":9592,
			"target":34963
		},
		{
			"buffer":0,
			"byteLength":1776,
			"byteOffset":10048,
			"target":34962
		},
		{
			"buffer":0,
			"byteLength":1776,
			"byteOffset":11824,
			"target":34962
		},
		{
			"buffer":0,
			"byteLength":1184,
			"byteOffset":13600,
			"target":34962
		},
		{
			"buffer":0,
			"byteLength":1184,
			"byteOffset":14784,
			"target":34962
		},
		{
			"buffer":0,
			"byteLength":912,
			"byteOffset":15968,
			"target":34963
		},
		{
			"buffer":0,
			"byteLength":1728,
			"byteOffset":16880,
			"target":34962
		},
		{
			"buffer":0,
			"byteLength":1728,
			"byteOffset":18608,
			"target":34962
		},
		{
			"buffer":0,
			"byteLength":1152,
			"byteOffset":20336,
			"target":34962
		},
		{
			"buffer":0,
			"byteLength":1152,
			"byteOffset":21488,
			"target":34962
		},
		{
			"buffer":0,
			"byteLength":876,
			"byteOffset":22640,
			"target":34963
		},
		{
			"buffer":0,
			"byteLength":1152,
			"byteOffset":23516,
			"target":34962
		},
		{
			"buffer":0,
			"byteLength":1152,
			"byteOffset":24668,
			"target":34962
		},
		{
			"buffer":0,
			"byteLength":768,
			"byteOffset":25820,
			"target":34962
		},
		{
			"buffer":0,
			"byteLength":768,
			"byteOffset":26588,
			"target":34962
		},
		{
			"buffer":0,
			"byteLength":540,
			"byteOffset":27356,
			"target":34963
		},
		{
			"buffer":0,
			"byteLength":1608,
			"byteOffset":27896,
			"target":34962
		},
		{
			"buffer":0,
			"byteLength":1608,
			"byteOffset":29504,
			"target":34962
		},
		{
			"buffer":0,
			"byteLength":1072,
			"byteOffset":31112,
			"target":34962
		},
		{
			"buffer":0,
			"byteLength":1072,
			"byteOffset":32184,
			"target":34962
		},
		{
			"buffer":0,
			"byteLength":768,
			"byteOffset":33256,
			"target":34963
		},
		{
			"buffer":0,
			"byteLength":480,
			"byteOffset":34024
		},
		{
			"buffer":0,
			"byteLength":1440,
			"byteOffset":34504
		},
		{
			"buffer":0,
			"byteLength":1920,
			"byteOffset":35944
		},
		{
			"buffer":0,
			"byteLength":1440,
			"byteOffset":37864
		},
		{
			"buffer":0,
			"byteLength":1920,
			"byteOffset":39304
		},
		{
			"buffer":0,
			"byteLength":1440,
			"byteOffset":41224
		},
		{
			"buffer":0,
			"byteLength":1920,
			"byteOffset":42664
		},
		{
			"buffer":0,
			"byteLength":1440,
			"byteOffset":44584
		},
		{
			"buffer":0,
			"byteLength":1920,
			"byteOffset":46024
		},
		{
			"buffer":0,
			"byteLength":1440,
			"byteOffset":47944
		},
		{
			"buffer":0,
			"byteLength":1920,
			"byteOffset":49384
		},
		{
			"buffer":0,
			"byteLength":1440,
			"byteOffset":51304
		},
		{
			"buffer":0,
			"byteLength":1920,
			"byteOffset":52744
		}
	],
	"samplers":[
		{
			"magFilter":9729,
			"minFilter":9987
		}
	],
	"buffers":[
		{
			"byteLength":54664,
			"uri":"Ceramic010.bin"
		}
	]
}
