{
	"asset":{
		"generator":"Khronos glTF Blender I/O v4.4.55",
		"version":"2.0"
	},
	"extensionsUsed":[
		"KHR_materials_specular"
	],
	"scene":0,
	"scenes":[
		{
			"name":"Scene",
			"nodes":[
				0,
				1,
				2,
				3,
				4
			]
		}
	],
	"nodes":[
		{
			"mesh":0,
			"name":"Ceramic013",
			"translation":[
				-0.2524171471595764,
				-0.491533488035202,
				-0.05341360345482826
			]
		},
		{
			"mesh":1,
			"name":"Ceramic013_001",
			"translation":[
				-0.2291833460330963,
				-0.46649160981178284,
				-0.05944734439253807
			]
		},
		{
			"mesh":2,
			"name":"Ceramic013_002",
			"translation":[
				-0.23140928149223328,
				-0.5055115818977356,
				-0.0579196959733963
			]
		},
		{
			"mesh":3,
			"name":"Ceramic013_003",
			"translation":[
				-0.21022571623325348,
				-0.5103378891944885,
				-0.05948108434677124
			]
		},
		{
			"mesh":4,
			"name":"Ceramic013_004",
			"translation":[
				-0.1988125592470169,
				-0.4788929224014282,
				-0.05983414873480797
			]
		}
	],
	"animations":[
		{
			"channels":[
				{
					"sampler":0,
					"target":{
						"node":0,
						"path":"translation"
					}
				},
				{
					"sampler":1,
					"target":{
						"node":0,
						"path":"rotation"
					}
				}
			],
			"name":"Ceramic.035Action",
			"samplers":[
				{
					"input":25,
					"interpolation":"LINEAR",
					"output":26
				},
				{
					"input":25,
					"interpolation":"LINEAR",
					"output":27
				}
			]
		},
		{
			"channels":[
				{
					"sampler":0,
					"target":{
						"node":1,
						"path":"translation"
					}
				},
				{
					"sampler":1,
					"target":{
						"node":1,
						"path":"rotation"
					}
				}
			],
			"name":"Ceramic.021Action",
			"samplers":[
				{
					"input":25,
					"interpolation":"LINEAR",
					"output":28
				},
				{
					"input":25,
					"interpolation":"LINEAR",
					"output":29
				}
			]
		},
		{
			"channels":[
				{
					"sampler":0,
					"target":{
						"node":2,
						"path":"translation"
					}
				},
				{
					"sampler":1,
					"target":{
						"node":2,
						"path":"rotation"
					}
				}
			],
			"name":"Ceramic.022Action",
			"samplers":[
				{
					"input":25,
					"interpolation":"LINEAR",
					"output":30
				},
				{
					"input":25,
					"interpolation":"LINEAR",
					"output":31
				}
			]
		},
		{
			"channels":[
				{
					"sampler":0,
					"target":{
						"node":3,
						"path":"translation"
					}
				},
				{
					"sampler":1,
					"target":{
						"node":3,
						"path":"rotation"
					}
				}
			],
			"name":"Ceramic.023Action",
			"samplers":[
				{
					"input":25,
					"interpolation":"LINEAR",
					"output":32
				},
				{
					"input":25,
					"interpolation":"LINEAR",
					"output":33
				}
			]
		},
		{
			"channels":[
				{
					"sampler":0,
					"target":{
						"node":4,
						"path":"translation"
					}
				},
				{
					"sampler":1,
					"target":{
						"node":4,
						"path":"rotation"
					}
				}
			],
			"name":"Ceramic.024Action",
			"samplers":[
				{
					"input":25,
					"interpolation":"LINEAR",
					"output":34
				},
				{
					"input":25,
					"interpolation":"LINEAR",
					"output":35
				}
			]
		}
	],
	"materials":[
		{
			"doubleSided":true,
			"emissiveFactor":[
				1,
				1,
				1
			],
			"emissiveTexture":{
				"index":0
			},
			"extensions":{
				"KHR_materials_specular":{
					"specularTexture":{
						"index":1
					}
				}
			},
			"name":"BranaLP",
			"normalTexture":{
				"index":2
			},
			"pbrMetallicRoughness":{
				"baseColorTexture":{
					"index":3
				},
				"metallicRoughnessTexture":{
					"index":4
				},
				"roughnessFactor":0.5
			}
		}
	],
	"meshes":[
		{
			"name":"Plane.055",
			"primitives":[
				{
					"attributes":{
						"POSITION":0,
						"NORMAL":1,
						"TEXCOORD_0":2,
						"TEXCOORD_1":3
					},
					"indices":4,
					"material":0
				}
			]
		},
		{
			"name":"Plane.132",
			"primitives":[
				{
					"attributes":{
						"POSITION":5,
						"NORMAL":6,
						"TEXCOORD_0":7,
						"TEXCOORD_1":8
					},
					"indices":9,
					"material":0
				}
			]
		},
		{
			"name":"Plane.133",
			"primitives":[
				{
					"attributes":{
						"POSITION":10,
						"NORMAL":11,
						"TEXCOORD_0":12,
						"TEXCOORD_1":13
					},
					"indices":14,
					"material":0
				}
			]
		},
		{
			"name":"Plane.134",
			"primitives":[
				{
					"attributes":{
						"POSITION":15,
						"NORMAL":16,
						"TEXCOORD_0":17,
						"TEXCOORD_1":18
					},
					"indices":19,
					"material":0
				}
			]
		},
		{
			"name":"Plane.135",
			"primitives":[
				{
					"attributes":{
						"POSITION":20,
						"NORMAL":21,
						"TEXCOORD_0":22,
						"TEXCOORD_1":23
					},
					"indices":24,
					"material":0
				}
			]
		}
	],
	"textures":[
		{
			"sampler":0,
			"source":0
		},
		{
			"sampler":0,
			"source":1
		},
		{
			"sampler":0,
			"source":2
		},
		{
			"sampler":0,
			"source":3
		},
		{
			"sampler":0,
			"source":4
		}
	],
	"images":[
		{
			"mimeType":"image/jpeg",
			"name":"BranaLP Diffuse Baked.jpg",
			"uri":"../tex/brana/BranaLP%20Diffuse%20Baked.jpg"
		},
		{
			"mimeType":"image/jpeg",
			"name":"BranaLP Specular.jpg",
			"uri":"../tex/brana/BranaLP%20Specular.jpg"
		},
		{
			"mimeType":"image/jpeg",
			"name":"BranaLP Normal.jpg",
			"uri":"../tex/brana/BranaLP%20Normal.jpg"
		},
		{
			"mimeType":"image/jpeg",
			"name":"BranaLP Diffuse.jpg",
			"uri":"../tex/brana/BranaLP%20Diffuse.jpg"
		},
		{
			"mimeType":"image/jpeg",
			"name":"BranaLP Metallic.jpg",
			"uri":"../tex/brana/BranaLP%20Metallic.jpg"
		}
	],
	"accessors":[
		{
			"bufferView":0,
			"componentType":5126,
			"count":220,
			"max":[
				0.017451588064432144,
				0.033817581832408905,
				0.01235552690923214
			],
			"min":[
				-0.018727734684944153,
				-0.03320621699094772,
				-0.011290159076452255
			],
			"type":"VEC3"
		},
		{
			"bufferView":1,
			"componentType":5126,
			"count":220,
			"type":"VEC3"
		},
		{
			"bufferView":2,
			"componentType":5126,
			"count":220,
			"type":"VEC2"
		},
		{
			"bufferView":3,
			"componentType":5126,
			"count":220,
			"type":"VEC2"
		},
		{
			"bufferView":4,
			"componentType":5123,
			"count":708,
			"type":"SCALAR"
		},
		{
			"bufferView":5,
			"componentType":5126,
			"count":164,
			"max":[
				0.021963713690638542,
				0.01960243098437786,
				0.011065050028264523
			],
			"min":[
				-0.028228921815752983,
				-0.02511630766093731,
				-0.007208189927041531
			],
			"type":"VEC3"
		},
		{
			"bufferView":6,
			"componentType":5126,
			"count":164,
			"type":"VEC3"
		},
		{
			"bufferView":7,
			"componentType":5126,
			"count":164,
			"type":"VEC2"
		},
		{
			"bufferView":8,
			"componentType":5126,
			"count":164,
			"type":"VEC2"
		},
		{
			"bufferView":9,
			"componentType":5123,
			"count":522,
			"type":"SCALAR"
		},
		{
			"bufferView":10,
			"componentType":5126,
			"count":227,
			"max":[
				0.02012787014245987,
				0.025078866630792618,
				0.010714645497500896
			],
			"min":[
				-0.019715968519449234,
				-0.024261606857180595,
				-0.009031765162944794
			],
			"type":"VEC3"
		},
		{
			"bufferView":11,
			"componentType":5126,
			"count":227,
			"type":"VEC3"
		},
		{
			"bufferView":12,
			"componentType":5126,
			"count":227,
			"type":"VEC2"
		},
		{
			"bufferView":13,
			"componentType":5126,
			"count":227,
			"type":"VEC2"
		},
		{
			"bufferView":14,
			"componentType":5123,
			"count":708,
			"type":"SCALAR"
		},
		{
			"bufferView":15,
			"componentType":5126,
			"count":150,
			"max":[
				0.019313428550958633,
				0.02051352523267269,
				0.008163961581885815
			],
			"min":[
				-0.01562587358057499,
				-0.02063274011015892,
				-0.007426660507917404
			],
			"type":"VEC3"
		},
		{
			"bufferView":16,
			"componentType":5126,
			"count":150,
			"type":"VEC3"
		},
		{
			"bufferView":17,
			"componentType":5126,
			"count":150,
			"type":"VEC2"
		},
		{
			"bufferView":18,
			"componentType":5126,
			"count":150,
			"type":"VEC2"
		},
		{
			"bufferView":19,
			"componentType":5123,
			"count":468,
			"type":"SCALAR"
		},
		{
			"bufferView":20,
			"componentType":5126,
			"count":193,
			"max":[
				0.023248663172125816,
				0.03273370489478111,
				0.010152118280529976
			],
			"min":[
				-0.021196162328124046,
				-0.031228646636009216,
				-0.0073265754617750645
			],
			"type":"VEC3"
		},
		{
			"bufferView":21,
			"componentType":5126,
			"count":193,
			"type":"VEC3"
		},
		{
			"bufferView":22,
			"componentType":5126,
			"count":193,
			"type":"VEC2"
		},
		{
			"bufferView":23,
			"componentType":5126,
			"count":193,
			"type":"VEC2"
		},
		{
			"bufferView":24,
			"componentType":5123,
			"count":642,
			"type":"SCALAR"
		},
		{
			"bufferView":25,
			"componentType":5126,
			"count":120,
			"max":[
				4
			],
			"min":[
				0.03333333333333333
			],
			"type":"SCALAR"
		},
		{
			"bufferView":26,
			"componentType":5126,
			"count":120,
			"type":"VEC3"
		},
		{
			"bufferView":27,
			"componentType":5126,
			"count":120,
			"type":"VEC4"
		},
		{
			"bufferView":28,
			"componentType":5126,
			"count":120,
			"type":"VEC3"
		},
		{
			"bufferView":29,
			"componentType":5126,
			"count":120,
			"type":"VEC4"
		},
		{
			"bufferView":30,
			"componentType":5126,
			"count":120,
			"type":"VEC3"
		},
		{
			"bufferView":31,
			"componentType":5126,
			"count":120,
			"type":"VEC4"
		},
		{
			"bufferView":32,
			"componentType":5126,
			"count":120,
			"type":"VEC3"
		},
		{
			"bufferView":33,
			"componentType":5126,
			"count":120,
			"type":"VEC4"
		},
		{
			"bufferView":34,
			"componentType":5126,
			"count":120,
			"type":"VEC3"
		},
		{
			"bufferView":35,
			"componentType":5126,
			"count":120,
			"type":"VEC4"
		}
	],
	"bufferViews":[
		{
			"buffer":0,
			"byteLength":2640,
			"byteOffset":0,
			"target":34962
		},
		{
			"buffer":0,
			"byteLength":2640,
			"byteOffset":2640,
			"target":34962
		},
		{
			"buffer":0,
			"byteLength":1760,
			"byteOffset":5280,
			"target":34962
		},
		{
			"buffer":0,
			"byteLength":1760,
			"byteOffset":7040,
			"target":34962
		},
		{
			"buffer":0,
			"byteLength":1416,
			"byteOffset":8800,
			"target":34963
		},
		{
			"buffer":0,
			"byteLength":1968,
			"byteOffset":10216,
			"target":34962
		},
		{
			"buffer":0,
			"byteLength":1968,
			"byteOffset":12184,
			"target":34962
		},
		{
			"buffer":0,
			"byteLength":1312,
			"byteOffset":14152,
			"target":34962
		},
		{
			"buffer":0,
			"byteLength":1312,
			"byteOffset":15464,
			"target":34962
		},
		{
			"buffer":0,
			"byteLength":1044,
			"byteOffset":16776,
			"target":34963
		},
		{
			"buffer":0,
			"byteLength":2724,
			"byteOffset":17820,
			"target":34962
		},
		{
			"buffer":0,
			"byteLength":2724,
			"byteOffset":20544,
			"target":34962
		},
		{
			"buffer":0,
			"byteLength":1816,
			"byteOffset":23268,
			"target":34962
		},
		{
			"buffer":0,
			"byteLength":1816,
			"byteOffset":25084,
			"target":34962
		},
		{
			"buffer":0,
			"byteLength":1416,
			"byteOffset":26900,
			"target":34963
		},
		{
			"buffer":0,
			"byteLength":1800,
			"byteOffset":28316,
			"target":34962
		},
		{
			"buffer":0,
			"byteLength":1800,
			"byteOffset":30116,
			"target":34962
		},
		{
			"buffer":0,
			"byteLength":1200,
			"byteOffset":31916,
			"target":34962
		},
		{
			"buffer":0,
			"byteLength":1200,
			"byteOffset":33116,
			"target":34962
		},
		{
			"buffer":0,
			"byteLength":936,
			"byteOffset":34316,
			"target":34963
		},
		{
			"buffer":0,
			"byteLength":2316,
			"byteOffset":35252,
			"target":34962
		},
		{
			"buffer":0,
			"byteLength":2316,
			"byteOffset":37568,
			"target":34962
		},
		{
			"buffer":0,
			"byteLength":1544,
			"byteOffset":39884,
			"target":34962
		},
		{
			"buffer":0,
			"byteLength":1544,
			"byteOffset":41428,
			"target":34962
		},
		{
			"buffer":0,
			"byteLength":1284,
			"byteOffset":42972,
			"target":34963
		},
		{
			"buffer":0,
			"byteLength":480,
			"byteOffset":44256
		},
		{
			"buffer":0,
			"byteLength":1440,
			"byteOffset":44736
		},
		{
			"buffer":0,
			"byteLength":1920,
			"byteOffset":46176
		},
		{
			"buffer":0,
			"byteLength":1440,
			"byteOffset":48096
		},
		{
			"buffer":0,
			"byteLength":1920,
			"byteOffset":49536
		},
		{
			"buffer":0,
			"byteLength":1440,
			"byteOffset":51456
		},
		{
			"buffer":0,
			"byteLength":1920,
			"byteOffset":52896
		},
		{
			"buffer":0,
			"byteLength":1440,
			"byteOffset":54816
		},
		{
			"buffer":0,
			"byteLength":1920,
			"byteOffset":56256
		},
		{
			"buffer":0,
			"byteLength":1440,
			"byteOffset":58176
		},
		{
			"buffer":0,
			"byteLength":1920,
			"byteOffset":59616
		}
	],
	"samplers":[
		{
			"magFilter":9729,
			"minFilter":9987
		}
	],
	"buffers":[
		{
			"byteLength":61536,
			"uri":"Ceramic013.bin"
		}
	]
}
