{
	"asset":{
		"generator":"Khronos glTF Blender I/O v4.4.55",
		"version":"2.0"
	},
	"extensionsUsed":[
		"KHR_materials_specular"
	],
	"scene":0,
	"scenes":[
		{
			"name":"Scene",
			"nodes":[
				0,
				1,
				2,
				3,
				4,
				5
			]
		}
	],
	"nodes":[
		{
			"mesh":0,
			"name":"Ceramic003",
			"scale":[
				1.100000023841858,
				1.100000023841858,
				1.100000023841858
			],
			"translation":[
				0.10628160834312439,
				-0.2693535089492798,
				-0.04286610335111618
			]
		},
		{
			"mesh":1,
			"name":"Ceramic003_001",
			"scale":[
				1.100000023841858,
				1.100000023841858,
				1.100000023841858
			],
			"translation":[
				0.0761682391166687,
				-0.27310648560523987,
				-0.05090636759996414
			]
		},
		{
			"mesh":2,
			"name":"Ceramic003_002",
			"scale":[
				1.100000023841858,
				1.100000023841858,
				1.100000023841858
			],
			"translation":[
				0.07244893908500671,
				-0.3078468441963196,
				-0.05632108449935913
			]
		},
		{
			"mesh":3,
			"name":"Ceramic003_003",
			"scale":[
				1.100000023841858,
				1.100000023841858,
				1.100000023841858
			],
			"translation":[
				0.09862083196640015,
				-0.31245699524879456,
				-0.049784477800130844
			]
		},
		{
			"mesh":4,
			"name":"Ceramic003_004",
			"scale":[
				1.100000023841858,
				1.100000023841858,
				1.100000023841858
			],
			"translation":[
				0.05670308321714401,
				-0.30154091119766235,
				-0.05580928176641464
			]
		},
		{
			"mesh":5,
			"name":"Ceramic003_005",
			"scale":[
				1.100000023841858,
				1.100000023841858,
				1.100000023841858
			],
			"translation":[
				0.1112777590751648,
				-0.29228052496910095,
				-0.046384286135435104
			]
		}
	],
	"animations":[
		{
			"channels":[
				{
					"sampler":0,
					"target":{
						"node":0,
						"path":"translation"
					}
				},
				{
					"sampler":1,
					"target":{
						"node":0,
						"path":"rotation"
					}
				}
			],
			"name":"Ceramic003Action",
			"samplers":[
				{
					"input":30,
					"interpolation":"LINEAR",
					"output":31
				},
				{
					"input":30,
					"interpolation":"LINEAR",
					"output":32
				}
			]
		},
		{
			"channels":[
				{
					"sampler":0,
					"target":{
						"node":1,
						"path":"translation"
					}
				},
				{
					"sampler":1,
					"target":{
						"node":1,
						"path":"rotation"
					}
				}
			],
			"name":"Ceramic003.001Action",
			"samplers":[
				{
					"input":30,
					"interpolation":"LINEAR",
					"output":33
				},
				{
					"input":30,
					"interpolation":"LINEAR",
					"output":34
				}
			]
		},
		{
			"channels":[
				{
					"sampler":0,
					"target":{
						"node":2,
						"path":"translation"
					}
				},
				{
					"sampler":1,
					"target":{
						"node":2,
						"path":"rotation"
					}
				}
			],
			"name":"Ceramic003.002Action",
			"samplers":[
				{
					"input":30,
					"interpolation":"LINEAR",
					"output":35
				},
				{
					"input":30,
					"interpolation":"LINEAR",
					"output":36
				}
			]
		},
		{
			"channels":[
				{
					"sampler":0,
					"target":{
						"node":3,
						"path":"translation"
					}
				},
				{
					"sampler":1,
					"target":{
						"node":3,
						"path":"rotation"
					}
				}
			],
			"name":"Ceramic003.003Action",
			"samplers":[
				{
					"input":30,
					"interpolation":"LINEAR",
					"output":37
				},
				{
					"input":30,
					"interpolation":"LINEAR",
					"output":38
				}
			]
		},
		{
			"channels":[
				{
					"sampler":0,
					"target":{
						"node":4,
						"path":"translation"
					}
				},
				{
					"sampler":1,
					"target":{
						"node":4,
						"path":"rotation"
					}
				}
			],
			"name":"Ceramic003.004Action",
			"samplers":[
				{
					"input":30,
					"interpolation":"LINEAR",
					"output":39
				},
				{
					"input":30,
					"interpolation":"LINEAR",
					"output":40
				}
			]
		},
		{
			"channels":[
				{
					"sampler":0,
					"target":{
						"node":5,
						"path":"translation"
					}
				},
				{
					"sampler":1,
					"target":{
						"node":5,
						"path":"rotation"
					}
				}
			],
			"name":"Ceramic003.005Action",
			"samplers":[
				{
					"input":30,
					"interpolation":"LINEAR",
					"output":41
				},
				{
					"input":30,
					"interpolation":"LINEAR",
					"output":42
				}
			]
		}
	],
	"materials":[
		{
			"doubleSided":true,
			"emissiveFactor":[
				1,
				1,
				1
			],
			"emissiveTexture":{
				"index":0
			},
			"extensions":{
				"KHR_materials_specular":{
					"specularTexture":{
						"index":1
					}
				}
			},
			"name":"BranaLP",
			"normalTexture":{
				"index":2
			},
			"pbrMetallicRoughness":{
				"baseColorTexture":{
					"index":3
				},
				"metallicRoughnessTexture":{
					"index":4
				},
				"roughnessFactor":0.5
			}
		}
	],
	"meshes":[
		{
			"name":"Plane.044",
			"primitives":[
				{
					"attributes":{
						"POSITION":0,
						"NORMAL":1,
						"TEXCOORD_0":2,
						"TEXCOORD_1":3
					},
					"indices":4,
					"material":0
				}
			]
		},
		{
			"name":"Plane.081",
			"primitives":[
				{
					"attributes":{
						"POSITION":5,
						"NORMAL":6,
						"TEXCOORD_0":7,
						"TEXCOORD_1":8
					},
					"indices":9,
					"material":0
				}
			]
		},
		{
			"name":"Plane.082",
			"primitives":[
				{
					"attributes":{
						"POSITION":10,
						"NORMAL":11,
						"TEXCOORD_0":12,
						"TEXCOORD_1":13
					},
					"indices":14,
					"material":0
				}
			]
		},
		{
			"name":"Plane.083",
			"primitives":[
				{
					"attributes":{
						"POSITION":15,
						"NORMAL":16,
						"TEXCOORD_0":17,
						"TEXCOORD_1":18
					},
					"indices":19,
					"material":0
				}
			]
		},
		{
			"name":"Plane.084",
			"primitives":[
				{
					"attributes":{
						"POSITION":20,
						"NORMAL":21,
						"TEXCOORD_0":22,
						"TEXCOORD_1":23
					},
					"indices":24,
					"material":0
				}
			]
		},
		{
			"name":"Plane.085",
			"primitives":[
				{
					"attributes":{
						"POSITION":25,
						"NORMAL":26,
						"TEXCOORD_0":27,
						"TEXCOORD_1":28
					},
					"indices":29,
					"material":0
				}
			]
		}
	],
	"textures":[
		{
			"sampler":0,
			"source":0
		},
		{
			"sampler":0,
			"source":1
		},
		{
			"sampler":0,
			"source":2
		},
		{
			"sampler":0,
			"source":3
		},
		{
			"sampler":0,
			"source":4
		}
	],
	"images":[
		{
			"mimeType":"image/jpeg",
			"name":"BranaLP Diffuse Baked.jpg",
			"uri":"../tex/brana/BranaLP%20Diffuse%20Baked.jpg"
		},
		{
			"mimeType":"image/jpeg",
			"name":"BranaLP Specular.jpg",
			"uri":"../tex/brana/BranaLP%20Specular.jpg"
		},
		{
			"mimeType":"image/jpeg",
			"name":"BranaLP Normal.jpg",
			"uri":"../tex/brana/BranaLP%20Normal.jpg"
		},
		{
			"mimeType":"image/jpeg",
			"name":"BranaLP Diffuse.jpg",
			"uri":"../tex/brana/BranaLP%20Diffuse.jpg"
		},
		{
			"mimeType":"image/jpeg",
			"name":"BranaLP Metallic.jpg",
			"uri":"../tex/brana/BranaLP%20Metallic.jpg"
		}
	],
	"accessors":[
		{
			"bufferView":0,
			"componentType":5126,
			"count":90,
			"max":[
				0.01808840036392212,
				0.030003605410456657,
				0.017095686867833138
			],
			"min":[
				-0.01383134163916111,
				-0.015912316739559174,
				-0.012382423505187035
			],
			"type":"VEC3"
		},
		{
			"bufferView":1,
			"componentType":5126,
			"count":90,
			"type":"VEC3"
		},
		{
			"bufferView":2,
			"componentType":5126,
			"count":90,
			"type":"VEC2"
		},
		{
			"bufferView":3,
			"componentType":5126,
			"count":90,
			"type":"VEC2"
		},
		{
			"bufferView":4,
			"componentType":5123,
			"count":252,
			"type":"SCALAR"
		},
		{
			"bufferView":5,
			"componentType":5126,
			"count":105,
			"max":[
				0.023472629487514496,
				0.03050405904650688,
				0.01761491410434246
			],
			"min":[
				-0.035510025918483734,
				-0.01921643130481243,
				-0.009620202705264091
			],
			"type":"VEC3"
		},
		{
			"bufferView":6,
			"componentType":5126,
			"count":105,
			"type":"VEC3"
		},
		{
			"bufferView":7,
			"componentType":5126,
			"count":105,
			"type":"VEC2"
		},
		{
			"bufferView":8,
			"componentType":5126,
			"count":105,
			"type":"VEC2"
		},
		{
			"bufferView":9,
			"componentType":5123,
			"count":300,
			"type":"SCALAR"
		},
		{
			"bufferView":10,
			"componentType":5126,
			"count":111,
			"max":[
				0.014193368144333363,
				0.01936722919344902,
				0.005732057150453329
			],
			"min":[
				-0.010156751610338688,
				-0.02455420233309269,
				-0.005715246312320232
			],
			"type":"VEC3"
		},
		{
			"bufferView":11,
			"componentType":5126,
			"count":111,
			"type":"VEC3"
		},
		{
			"bufferView":12,
			"componentType":5126,
			"count":111,
			"type":"VEC2"
		},
		{
			"bufferView":13,
			"componentType":5126,
			"count":111,
			"type":"VEC2"
		},
		{
			"bufferView":14,
			"componentType":5123,
			"count":306,
			"type":"SCALAR"
		},
		{
			"bufferView":15,
			"componentType":5126,
			"count":141,
			"max":[
				0.032711826264858246,
				0.021513786166906357,
				0.01526822429150343
			],
			"min":[
				-0.030023187398910522,
				-0.021483061835169792,
				-0.011684492230415344
			],
			"type":"VEC3"
		},
		{
			"bufferView":16,
			"componentType":5126,
			"count":141,
			"type":"VEC3"
		},
		{
			"bufferView":17,
			"componentType":5126,
			"count":141,
			"type":"VEC2"
		},
		{
			"bufferView":18,
			"componentType":5126,
			"count":141,
			"type":"VEC2"
		},
		{
			"bufferView":19,
			"componentType":5123,
			"count":396,
			"type":"SCALAR"
		},
		{
			"bufferView":20,
			"componentType":5126,
			"count":101,
			"max":[
				0.013673912733793259,
				0.01894029602408409,
				0.007051136810332537
			],
			"min":[
				-0.020758235827088356,
				-0.02780798077583313,
				-0.0060592335648834705
			],
			"type":"VEC3"
		},
		{
			"bufferView":21,
			"componentType":5126,
			"count":101,
			"type":"VEC3"
		},
		{
			"bufferView":22,
			"componentType":5126,
			"count":101,
			"type":"VEC2"
		},
		{
			"bufferView":23,
			"componentType":5126,
			"count":101,
			"type":"VEC2"
		},
		{
			"bufferView":24,
			"componentType":5123,
			"count":270,
			"type":"SCALAR"
		},
		{
			"bufferView":25,
			"componentType":5126,
			"count":90,
			"max":[
				0.017317136749625206,
				0.013329112902283669,
				0.01203823834657669
			],
			"min":[
				-0.021206459030508995,
				-0.015833823010325432,
				-0.011543778702616692
			],
			"type":"VEC3"
		},
		{
			"bufferView":26,
			"componentType":5126,
			"count":90,
			"type":"VEC3"
		},
		{
			"bufferView":27,
			"componentType":5126,
			"count":90,
			"type":"VEC2"
		},
		{
			"bufferView":28,
			"componentType":5126,
			"count":90,
			"type":"VEC2"
		},
		{
			"bufferView":29,
			"componentType":5123,
			"count":246,
			"type":"SCALAR"
		},
		{
			"bufferView":30,
			"componentType":5126,
			"count":120,
			"max":[
				4
			],
			"min":[
				0.03333333333333333
			],
			"type":"SCALAR"
		},
		{
			"bufferView":31,
			"componentType":5126,
			"count":120,
			"type":"VEC3"
		},
		{
			"bufferView":32,
			"componentType":5126,
			"count":120,
			"type":"VEC4"
		},
		{
			"bufferView":33,
			"componentType":5126,
			"count":120,
			"type":"VEC3"
		},
		{
			"bufferView":34,
			"componentType":5126,
			"count":120,
			"type":"VEC4"
		},
		{
			"bufferView":35,
			"componentType":5126,
			"count":120,
			"type":"VEC3"
		},
		{
			"bufferView":36,
			"componentType":5126,
			"count":120,
			"type":"VEC4"
		},
		{
			"bufferView":37,
			"componentType":5126,
			"count":120,
			"type":"VEC3"
		},
		{
			"bufferView":38,
			"componentType":5126,
			"count":120,
			"type":"VEC4"
		},
		{
			"bufferView":39,
			"componentType":5126,
			"count":120,
			"type":"VEC3"
		},
		{
			"bufferView":40,
			"componentType":5126,
			"count":120,
			"type":"VEC4"
		},
		{
			"bufferView":41,
			"componentType":5126,
			"count":120,
			"type":"VEC3"
		},
		{
			"bufferView":42,
			"componentType":5126,
			"count":120,
			"type":"VEC4"
		}
	],
	"bufferViews":[
		{
			"buffer":0,
			"byteLength":1080,
			"byteOffset":0,
			"target":34962
		},
		{
			"buffer":0,
			"byteLength":1080,
			"byteOffset":1080,
			"target":34962
		},
		{
			"buffer":0,
			"byteLength":720,
			"byteOffset":2160,
			"target":34962
		},
		{
			"buffer":0,
			"byteLength":720,
			"byteOffset":2880,
			"target":34962
		},
		{
			"buffer":0,
			"byteLength":504,
			"byteOffset":3600,
			"target":34963
		},
		{
			"buffer":0,
			"byteLength":1260,
			"byteOffset":4104,
			"target":34962
		},
		{
			"buffer":0,
			"byteLength":1260,
			"byteOffset":5364,
			"target":34962
		},
		{
			"buffer":0,
			"byteLength":840,
			"byteOffset":6624,
			"target":34962
		},
		{
			"buffer":0,
			"byteLength":840,
			"byteOffset":7464,
			"target":34962
		},
		{
			"buffer":0,
			"byteLength":600,
			"byteOffset":8304,
			"target":34963
		},
		{
			"buffer":0,
			"byteLength":1332,
			"byteOffset":8904,
			"target":34962
		},
		{
			"buffer":0,
			"byteLength":1332,
			"byteOffset":10236,
			"target":34962
		},
		{
			"buffer":0,
			"byteLength":888,
			"byteOffset":11568,
			"target":34962
		},
		{
			"buffer":0,
			"byteLength":888,
			"byteOffset":12456,
			"target":34962
		},
		{
			"buffer":0,
			"byteLength":612,
			"byteOffset":13344,
			"target":34963
		},
		{
			"buffer":0,
			"byteLength":1692,
			"byteOffset":13956,
			"target":34962
		},
		{
			"buffer":0,
			"byteLength":1692,
			"byteOffset":15648,
			"target":34962
		},
		{
			"buffer":0,
			"byteLength":1128,
			"byteOffset":17340,
			"target":34962
		},
		{
			"buffer":0,
			"byteLength":1128,
			"byteOffset":18468,
			"target":34962
		},
		{
			"buffer":0,
			"byteLength":792,
			"byteOffset":19596,
			"target":34963
		},
		{
			"buffer":0,
			"byteLength":1212,
			"byteOffset":20388,
			"target":34962
		},
		{
			"buffer":0,
			"byteLength":1212,
			"byteOffset":21600,
			"target":34962
		},
		{
			"buffer":0,
			"byteLength":808,
			"byteOffset":22812,
			"target":34962
		},
		{
			"buffer":0,
			"byteLength":808,
			"byteOffset":23620,
			"target":34962
		},
		{
			"buffer":0,
			"byteLength":540,
			"byteOffset":24428,
			"target":34963
		},
		{
			"buffer":0,
			"byteLength":1080,
			"byteOffset":24968,
			"target":34962
		},
		{
			"buffer":0,
			"byteLength":1080,
			"byteOffset":26048,
			"target":34962
		},
		{
			"buffer":0,
			"byteLength":720,
			"byteOffset":27128,
			"target":34962
		},
		{
			"buffer":0,
			"byteLength":720,
			"byteOffset":27848,
			"target":34962
		},
		{
			"buffer":0,
			"byteLength":492,
			"byteOffset":28568,
			"target":34963
		},
		{
			"buffer":0,
			"byteLength":480,
			"byteOffset":29060
		},
		{
			"buffer":0,
			"byteLength":1440,
			"byteOffset":29540
		},
		{
			"buffer":0,
			"byteLength":1920,
			"byteOffset":30980
		},
		{
			"buffer":0,
			"byteLength":1440,
			"byteOffset":32900
		},
		{
			"buffer":0,
			"byteLength":1920,
			"byteOffset":34340
		},
		{
			"buffer":0,
			"byteLength":1440,
			"byteOffset":36260
		},
		{
			"buffer":0,
			"byteLength":1920,
			"byteOffset":37700
		},
		{
			"buffer":0,
			"byteLength":1440,
			"byteOffset":39620
		},
		{
			"buffer":0,
			"byteLength":1920,
			"byteOffset":41060
		},
		{
			"buffer":0,
			"byteLength":1440,
			"byteOffset":42980
		},
		{
			"buffer":0,
			"byteLength":1920,
			"byteOffset":44420
		},
		{
			"buffer":0,
			"byteLength":1440,
			"byteOffset":46340
		},
		{
			"buffer":0,
			"byteLength":1920,
			"byteOffset":47780
		}
	],
	"samplers":[
		{
			"magFilter":9729,
			"minFilter":9987
		}
	],
	"buffers":[
		{
			"byteLength":49700,
			"uri":"Ceramic003.bin"
		}
	]
}
