{
	"asset":{
		"generator":"Khronos glTF Blender I/O v4.4.55",
		"version":"2.0"
	},
	"scene":0,
	"scenes":[
		{
			"name":"Scene",
			"nodes":[
				0,
				1,
				2,
				3,
				4,
				5
			]
		}
	],
	"nodes":[
		{
			"mesh":0,
			"name":"Ceramic020",
			"scale":[
				1.0820167064666748,
				1.0820167064666748,
				1.0820167064666748
			],
			"translation":[
				-0.16010424494743347,
				0.04009602591395378,
				-0.04892038181424141
			]
		},
		{
			"mesh":1,
			"name":"Ceramic020_001",
			"scale":[
				1.0820167064666748,
				1.0820167064666748,
				1.0820167064666748
			],
			"translation":[
				-0.1786162406206131,
				0.0676664263010025,
				-0.044510360807180405
			]
		},
		{
			"mesh":2,
			"name":"Ceramic020_002",
			"scale":[
				1.0820167064666748,
				1.0820167064666748,
				1.0820167064666748
			],
			"translation":[
				-0.16576465964317322,
				0.019621744751930237,
				-0.04907194897532463
			]
		},
		{
			"mesh":3,
			"name":"Ceramic020_003",
			"scale":[
				1.0820167064666748,
				1.0820167064666748,
				1.0820167064666748
			],
			"translation":[
				-0.19775012135505676,
				0.043305378407239914,
				-0.04160387068986893
			]
		},
		{
			"mesh":4,
			"name":"Ceramic020_004",
			"scale":[
				1.0820167064666748,
				1.0820167064666748,
				1.0820167064666748
			],
			"translation":[
				-0.18918459117412567,
				0.027709027752280235,
				-0.04443928599357605
			]
		},
		{
			"mesh":5,
			"name":"Ceramic020_005",
			"scale":[
				1.0820167064666748,
				1.0820167064666748,
				1.0820167064666748
			],
			"translation":[
				-0.19199822843074799,
				0.07515829801559448,
				-0.043422598391771317
			]
		}
	],
	"animations":[
		{
			"channels":[
				{
					"sampler":0,
					"target":{
						"node":0,
						"path":"translation"
					}
				},
				{
					"sampler":1,
					"target":{
						"node":0,
						"path":"rotation"
					}
				}
			],
			"name":"Ceramic.042Action",
			"samplers":[
				{
					"input":30,
					"interpolation":"LINEAR",
					"output":31
				},
				{
					"input":30,
					"interpolation":"LINEAR",
					"output":32
				}
			]
		},
		{
			"channels":[
				{
					"sampler":0,
					"target":{
						"node":1,
						"path":"translation"
					}
				},
				{
					"sampler":1,
					"target":{
						"node":1,
						"path":"rotation"
					}
				}
			],
			"name":"Ceramic.070Action",
			"samplers":[
				{
					"input":30,
					"interpolation":"LINEAR",
					"output":33
				},
				{
					"input":30,
					"interpolation":"LINEAR",
					"output":34
				}
			]
		},
		{
			"channels":[
				{
					"sampler":0,
					"target":{
						"node":2,
						"path":"translation"
					}
				},
				{
					"sampler":1,
					"target":{
						"node":2,
						"path":"rotation"
					}
				}
			],
			"name":"Ceramic.071Action",
			"samplers":[
				{
					"input":30,
					"interpolation":"LINEAR",
					"output":35
				},
				{
					"input":30,
					"interpolation":"LINEAR",
					"output":36
				}
			]
		},
		{
			"channels":[
				{
					"sampler":0,
					"target":{
						"node":3,
						"path":"translation"
					}
				},
				{
					"sampler":1,
					"target":{
						"node":3,
						"path":"rotation"
					}
				}
			],
			"name":"Ceramic.072Action",
			"samplers":[
				{
					"input":30,
					"interpolation":"LINEAR",
					"output":37
				},
				{
					"input":30,
					"interpolation":"LINEAR",
					"output":38
				}
			]
		},
		{
			"channels":[
				{
					"sampler":0,
					"target":{
						"node":4,
						"path":"translation"
					}
				},
				{
					"sampler":1,
					"target":{
						"node":4,
						"path":"rotation"
					}
				}
			],
			"name":"Ceramic.073Action",
			"samplers":[
				{
					"input":30,
					"interpolation":"LINEAR",
					"output":39
				},
				{
					"input":30,
					"interpolation":"LINEAR",
					"output":40
				}
			]
		},
		{
			"channels":[
				{
					"sampler":0,
					"target":{
						"node":5,
						"path":"translation"
					}
				},
				{
					"sampler":1,
					"target":{
						"node":5,
						"path":"rotation"
					}
				}
			],
			"name":"Ceramic.074Action",
			"samplers":[
				{
					"input":30,
					"interpolation":"LINEAR",
					"output":41
				},
				{
					"input":30,
					"interpolation":"LINEAR",
					"output":42
				}
			]
		}
	],
	"materials":[
		{
			"doubleSided":true,
			"emissiveFactor":[
				1,
				1,
				1
			],
			"emissiveTexture":{
				"index":0
			},
			"name":"Harrow",
			"pbrMetallicRoughness":{
				"baseColorFactor":[
					0,
					0,
					0,
					1
				]
			}
		}
	],
	"meshes":[
		{
			"name":"Plane.062",
			"primitives":[
				{
					"attributes":{
						"POSITION":0,
						"NORMAL":1,
						"TEXCOORD_0":2,
						"TEXCOORD_1":3
					},
					"indices":4,
					"material":0
				}
			]
		},
		{
			"name":"Plane.165",
			"primitives":[
				{
					"attributes":{
						"POSITION":5,
						"NORMAL":6,
						"TEXCOORD_0":7,
						"TEXCOORD_1":8
					},
					"indices":9,
					"material":0
				}
			]
		},
		{
			"name":"Plane.166",
			"primitives":[
				{
					"attributes":{
						"POSITION":10,
						"NORMAL":11,
						"TEXCOORD_0":12,
						"TEXCOORD_1":13
					},
					"indices":14,
					"material":0
				}
			]
		},
		{
			"name":"Plane.167",
			"primitives":[
				{
					"attributes":{
						"POSITION":15,
						"NORMAL":16,
						"TEXCOORD_0":17,
						"TEXCOORD_1":18
					},
					"indices":19,
					"material":0
				}
			]
		},
		{
			"name":"Plane.168",
			"primitives":[
				{
					"attributes":{
						"POSITION":20,
						"NORMAL":21,
						"TEXCOORD_0":22,
						"TEXCOORD_1":23
					},
					"indices":24,
					"material":0
				}
			]
		},
		{
			"name":"Plane.169",
			"primitives":[
				{
					"attributes":{
						"POSITION":25,
						"NORMAL":26,
						"TEXCOORD_0":27,
						"TEXCOORD_1":28
					},
					"indices":29,
					"material":0
				}
			]
		}
	],
	"textures":[
		{
			"sampler":0,
			"source":0
		}
	],
	"images":[
		{
			"mimeType":"image/jpeg",
			"name":"BranaLP Diffuse Baked.jpg",
			"uri":"../tex/brana/BranaLP%20Diffuse%20Baked.jpg"
		}
	],
	"accessors":[
		{
			"bufferView":0,
			"componentType":5126,
			"count":82,
			"max":[
				0.028454119339585304,
				0.023657459765672684,
				0.009502816013991833
			],
			"min":[
				-0.016075842082500458,
				-0.04113122075796127,
				-0.014705022796988487
			],
			"type":"VEC3"
		},
		{
			"bufferView":1,
			"componentType":5126,
			"count":82,
			"type":"VEC3"
		},
		{
			"bufferView":2,
			"componentType":5126,
			"count":82,
			"type":"VEC2"
		},
		{
			"bufferView":3,
			"componentType":5126,
			"count":82,
			"type":"VEC2"
		},
		{
			"bufferView":4,
			"componentType":5123,
			"count":222,
			"type":"SCALAR"
		},
		{
			"bufferView":5,
			"componentType":5126,
			"count":108,
			"max":[
				0.01920747011899948,
				0.03501678630709648,
				0.0067413863725960255
			],
			"min":[
				-0.004745712503790855,
				-0.026577197015285492,
				-0.008635646663606167
			],
			"type":"VEC3"
		},
		{
			"bufferView":6,
			"componentType":5126,
			"count":108,
			"type":"VEC3"
		},
		{
			"bufferView":7,
			"componentType":5126,
			"count":108,
			"type":"VEC2"
		},
		{
			"bufferView":8,
			"componentType":5126,
			"count":108,
			"type":"VEC2"
		},
		{
			"bufferView":9,
			"componentType":5123,
			"count":294,
			"type":"SCALAR"
		},
		{
			"bufferView":10,
			"componentType":5126,
			"count":101,
			"max":[
				0.03449513763189316,
				0.028262896463274956,
				0.010395107790827751
			],
			"min":[
				-0.017080647870898247,
				-0.031239047646522522,
				-0.015047876164317131
			],
			"type":"VEC3"
		},
		{
			"bufferView":11,
			"componentType":5126,
			"count":101,
			"type":"VEC3"
		},
		{
			"bufferView":12,
			"componentType":5126,
			"count":101,
			"type":"VEC2"
		},
		{
			"bufferView":13,
			"componentType":5126,
			"count":101,
			"type":"VEC2"
		},
		{
			"bufferView":14,
			"componentType":5123,
			"count":264,
			"type":"SCALAR"
		},
		{
			"bufferView":15,
			"componentType":5126,
			"count":74,
			"max":[
				0.01438816823065281,
				0.012365356087684631,
				0.004934839904308319
			],
			"min":[
				-0.01656089909374714,
				-0.01708778738975525,
				-0.008055847138166428
			],
			"type":"VEC3"
		},
		{
			"bufferView":16,
			"componentType":5126,
			"count":74,
			"type":"VEC3"
		},
		{
			"bufferView":17,
			"componentType":5126,
			"count":74,
			"type":"VEC2"
		},
		{
			"bufferView":18,
			"componentType":5126,
			"count":74,
			"type":"VEC2"
		},
		{
			"bufferView":19,
			"componentType":5123,
			"count":180,
			"type":"SCALAR"
		},
		{
			"bufferView":20,
			"componentType":5126,
			"count":122,
			"max":[
				0.010616552084684372,
				0.018705273047089577,
				0.00784255564212799
			],
			"min":[
				-0.024185573682188988,
				-0.039818473160266876,
				-0.010229205712676048
			],
			"type":"VEC3"
		},
		{
			"bufferView":21,
			"componentType":5126,
			"count":122,
			"type":"VEC3"
		},
		{
			"bufferView":22,
			"componentType":5126,
			"count":122,
			"type":"VEC2"
		},
		{
			"bufferView":23,
			"componentType":5126,
			"count":122,
			"type":"VEC2"
		},
		{
			"bufferView":24,
			"componentType":5123,
			"count":318,
			"type":"SCALAR"
		},
		{
			"bufferView":25,
			"componentType":5126,
			"count":108,
			"max":[
				0.008636276237666607,
				0.046399589627981186,
				0.00735505810007453
			],
			"min":[
				-0.02004992589354515,
				-0.025921586900949478,
				-0.009830022230744362
			],
			"type":"VEC3"
		},
		{
			"bufferView":26,
			"componentType":5126,
			"count":108,
			"type":"VEC3"
		},
		{
			"bufferView":27,
			"componentType":5126,
			"count":108,
			"type":"VEC2"
		},
		{
			"bufferView":28,
			"componentType":5126,
			"count":108,
			"type":"VEC2"
		},
		{
			"bufferView":29,
			"componentType":5123,
			"count":300,
			"type":"SCALAR"
		},
		{
			"bufferView":30,
			"componentType":5126,
			"count":120,
			"max":[
				4
			],
			"min":[
				0.03333333333333333
			],
			"type":"SCALAR"
		},
		{
			"bufferView":31,
			"componentType":5126,
			"count":120,
			"type":"VEC3"
		},
		{
			"bufferView":32,
			"componentType":5126,
			"count":120,
			"type":"VEC4"
		},
		{
			"bufferView":33,
			"componentType":5126,
			"count":120,
			"type":"VEC3"
		},
		{
			"bufferView":34,
			"componentType":5126,
			"count":120,
			"type":"VEC4"
		},
		{
			"bufferView":35,
			"componentType":5126,
			"count":120,
			"type":"VEC3"
		},
		{
			"bufferView":36,
			"componentType":5126,
			"count":120,
			"type":"VEC4"
		},
		{
			"bufferView":37,
			"componentType":5126,
			"count":120,
			"type":"VEC3"
		},
		{
			"bufferView":38,
			"componentType":5126,
			"count":120,
			"type":"VEC4"
		},
		{
			"bufferView":39,
			"componentType":5126,
			"count":120,
			"type":"VEC3"
		},
		{
			"bufferView":40,
			"componentType":5126,
			"count":120,
			"type":"VEC4"
		},
		{
			"bufferView":41,
			"componentType":5126,
			"count":120,
			"type":"VEC3"
		},
		{
			"bufferView":42,
			"componentType":5126,
			"count":120,
			"type":"VEC4"
		}
	],
	"bufferViews":[
		{
			"buffer":0,
			"byteLength":984,
			"byteOffset":0,
			"target":34962
		},
		{
			"buffer":0,
			"byteLength":984,
			"byteOffset":984,
			"target":34962
		},
		{
			"buffer":0,
			"byteLength":656,
			"byteOffset":1968,
			"target":34962
		},
		{
			"buffer":0,
			"byteLength":656,
			"byteOffset":2624,
			"target":34962
		},
		{
			"buffer":0,
			"byteLength":444,
			"byteOffset":3280,
			"target":34963
		},
		{
			"buffer":0,
			"byteLength":1296,
			"byteOffset":3724,
			"target":34962
		},
		{
			"buffer":0,
			"byteLength":1296,
			"byteOffset":5020,
			"target":34962
		},
		{
			"buffer":0,
			"byteLength":864,
			"byteOffset":6316,
			"target":34962
		},
		{
			"buffer":0,
			"byteLength":864,
			"byteOffset":7180,
			"target":34962
		},
		{
			"buffer":0,
			"byteLength":588,
			"byteOffset":8044,
			"target":34963
		},
		{
			"buffer":0,
			"byteLength":1212,
			"byteOffset":8632,
			"target":34962
		},
		{
			"buffer":0,
			"byteLength":1212,
			"byteOffset":9844,
			"target":34962
		},
		{
			"buffer":0,
			"byteLength":808,
			"byteOffset":11056,
			"target":34962
		},
		{
			"buffer":0,
			"byteLength":808,
			"byteOffset":11864,
			"target":34962
		},
		{
			"buffer":0,
			"byteLength":528,
			"byteOffset":12672,
			"target":34963
		},
		{
			"buffer":0,
			"byteLength":888,
			"byteOffset":13200,
			"target":34962
		},
		{
			"buffer":0,
			"byteLength":888,
			"byteOffset":14088,
			"target":34962
		},
		{
			"buffer":0,
			"byteLength":592,
			"byteOffset":14976,
			"target":34962
		},
		{
			"buffer":0,
			"byteLength":592,
			"byteOffset":15568,
			"target":34962
		},
		{
			"buffer":0,
			"byteLength":360,
			"byteOffset":16160,
			"target":34963
		},
		{
			"buffer":0,
			"byteLength":1464,
			"byteOffset":16520,
			"target":34962
		},
		{
			"buffer":0,
			"byteLength":1464,
			"byteOffset":17984,
			"target":34962
		},
		{
			"buffer":0,
			"byteLength":976,
			"byteOffset":19448,
			"target":34962
		},
		{
			"buffer":0,
			"byteLength":976,
			"byteOffset":20424,
			"target":34962
		},
		{
			"buffer":0,
			"byteLength":636,
			"byteOffset":21400,
			"target":34963
		},
		{
			"buffer":0,
			"byteLength":1296,
			"byteOffset":22036,
			"target":34962
		},
		{
			"buffer":0,
			"byteLength":1296,
			"byteOffset":23332,
			"target":34962
		},
		{
			"buffer":0,
			"byteLength":864,
			"byteOffset":24628,
			"target":34962
		},
		{
			"buffer":0,
			"byteLength":864,
			"byteOffset":25492,
			"target":34962
		},
		{
			"buffer":0,
			"byteLength":600,
			"byteOffset":26356,
			"target":34963
		},
		{
			"buffer":0,
			"byteLength":480,
			"byteOffset":26956
		},
		{
			"buffer":0,
			"byteLength":1440,
			"byteOffset":27436
		},
		{
			"buffer":0,
			"byteLength":1920,
			"byteOffset":28876
		},
		{
			"buffer":0,
			"byteLength":1440,
			"byteOffset":30796
		},
		{
			"buffer":0,
			"byteLength":1920,
			"byteOffset":32236
		},
		{
			"buffer":0,
			"byteLength":1440,
			"byteOffset":34156
		},
		{
			"buffer":0,
			"byteLength":1920,
			"byteOffset":35596
		},
		{
			"buffer":0,
			"byteLength":1440,
			"byteOffset":37516
		},
		{
			"buffer":0,
			"byteLength":1920,
			"byteOffset":38956
		},
		{
			"buffer":0,
			"byteLength":1440,
			"byteOffset":40876
		},
		{
			"buffer":0,
			"byteLength":1920,
			"byteOffset":42316
		},
		{
			"buffer":0,
			"byteLength":1440,
			"byteOffset":44236
		},
		{
			"buffer":0,
			"byteLength":1920,
			"byteOffset":45676
		}
	],
	"samplers":[
		{
			"magFilter":9729,
			"minFilter":9987
		}
	],
	"buffers":[
		{
			"byteLength":47596,
			"uri":"Ceramic020.bin"
		}
	]
}
