{
	"asset":{
		"generator":"Khronos glTF Blender I/O v4.4.55",
		"version":"2.0"
	},
	"extensionsUsed":[
		"KHR_materials_specular"
	],
	"scene":0,
	"scenes":[
		{
			"name":"Scene",
			"nodes":[
				0,
				1,
				2,
				3
			]
		}
	],
	"nodes":[
		{
			"mesh":0,
			"name":"Ceramic012",
			"translation":[
				-0.33001232147216797,
				-0.47134578227996826,
				-0.03889235854148865
			]
		},
		{
			"mesh":1,
			"name":"Ceramic012_001",
			"translation":[
				-0.3285316228866577,
				-0.49717143177986145,
				-0.03594466298818588
			]
		},
		{
			"mesh":2,
			"name":"Ceramic012_002",
			"translation":[
				-0.3037698566913605,
				-0.4934389293193817,
				-0.0424332320690155
			]
		},
		{
			"mesh":3,
			"name":"Ceramic012_003",
			"translation":[
				-0.3097628057003021,
				-0.5072557330131531,
				-0.04135669395327568
			]
		}
	],
	"animations":[
		{
			"channels":[
				{
					"sampler":0,
					"target":{
						"node":0,
						"path":"translation"
					}
				},
				{
					"sampler":1,
					"target":{
						"node":0,
						"path":"rotation"
					}
				}
			],
			"name":"Ceramic.034Action",
			"samplers":[
				{
					"input":20,
					"interpolation":"LINEAR",
					"output":21
				},
				{
					"input":20,
					"interpolation":"LINEAR",
					"output":22
				}
			]
		},
		{
			"channels":[
				{
					"sampler":0,
					"target":{
						"node":1,
						"path":"translation"
					}
				},
				{
					"sampler":1,
					"target":{
						"node":1,
						"path":"rotation"
					}
				}
			],
			"name":"Ceramic.018Action",
			"samplers":[
				{
					"input":20,
					"interpolation":"LINEAR",
					"output":23
				},
				{
					"input":20,
					"interpolation":"LINEAR",
					"output":24
				}
			]
		},
		{
			"channels":[
				{
					"sampler":0,
					"target":{
						"node":2,
						"path":"translation"
					}
				},
				{
					"sampler":1,
					"target":{
						"node":2,
						"path":"rotation"
					}
				}
			],
			"name":"Ceramic.019Action",
			"samplers":[
				{
					"input":20,
					"interpolation":"LINEAR",
					"output":25
				},
				{
					"input":20,
					"interpolation":"LINEAR",
					"output":26
				}
			]
		},
		{
			"channels":[
				{
					"sampler":0,
					"target":{
						"node":3,
						"path":"translation"
					}
				},
				{
					"sampler":1,
					"target":{
						"node":3,
						"path":"rotation"
					}
				}
			],
			"name":"Ceramic.020Action",
			"samplers":[
				{
					"input":20,
					"interpolation":"LINEAR",
					"output":27
				},
				{
					"input":20,
					"interpolation":"LINEAR",
					"output":28
				}
			]
		}
	],
	"materials":[
		{
			"doubleSided":true,
			"emissiveFactor":[
				1,
				1,
				1
			],
			"emissiveTexture":{
				"index":0
			},
			"extensions":{
				"KHR_materials_specular":{
					"specularTexture":{
						"index":1
					}
				}
			},
			"name":"BranaLP",
			"normalTexture":{
				"index":2
			},
			"pbrMetallicRoughness":{
				"baseColorTexture":{
					"index":3
				},
				"metallicRoughnessTexture":{
					"index":4
				},
				"roughnessFactor":0.5
			}
		}
	],
	"meshes":[
		{
			"name":"Plane.054",
			"primitives":[
				{
					"attributes":{
						"POSITION":0,
						"NORMAL":1,
						"TEXCOORD_0":2,
						"TEXCOORD_1":3
					},
					"indices":4,
					"material":0
				}
			]
		},
		{
			"name":"Plane.128",
			"primitives":[
				{
					"attributes":{
						"POSITION":5,
						"NORMAL":6,
						"TEXCOORD_0":7,
						"TEXCOORD_1":8
					},
					"indices":9,
					"material":0
				}
			]
		},
		{
			"name":"Plane.129",
			"primitives":[
				{
					"attributes":{
						"POSITION":10,
						"NORMAL":11,
						"TEXCOORD_0":12,
						"TEXCOORD_1":13
					},
					"indices":14,
					"material":0
				}
			]
		},
		{
			"name":"Plane.130",
			"primitives":[
				{
					"attributes":{
						"POSITION":15,
						"NORMAL":16,
						"TEXCOORD_0":17,
						"TEXCOORD_1":18
					},
					"indices":19,
					"material":0
				}
			]
		}
	],
	"textures":[
		{
			"sampler":0,
			"source":0
		},
		{
			"sampler":0,
			"source":1
		},
		{
			"sampler":0,
			"source":2
		},
		{
			"sampler":0,
			"source":3
		},
		{
			"sampler":0,
			"source":4
		}
	],
	"images":[
		{
			"mimeType":"image/jpeg",
			"name":"BranaLP Diffuse Baked.jpg",
			"uri":"../tex/brana/BranaLP%20Diffuse%20Baked.jpg"
		},
		{
			"mimeType":"image/jpeg",
			"name":"BranaLP Specular.jpg",
			"uri":"../tex/brana/BranaLP%20Specular.jpg"
		},
		{
			"mimeType":"image/jpeg",
			"name":"BranaLP Normal.jpg",
			"uri":"../tex/brana/BranaLP%20Normal.jpg"
		},
		{
			"mimeType":"image/jpeg",
			"name":"BranaLP Diffuse.jpg",
			"uri":"../tex/brana/BranaLP%20Diffuse.jpg"
		},
		{
			"mimeType":"image/jpeg",
			"name":"BranaLP Metallic.jpg",
			"uri":"../tex/brana/BranaLP%20Metallic.jpg"
		}
	],
	"accessors":[
		{
			"bufferView":0,
			"componentType":5126,
			"count":170,
			"max":[
				0.025297734886407852,
				0.02992325648665428,
				0.009315762668848038
			],
			"min":[
				-0.018555421382188797,
				-0.023395629599690437,
				-0.020128164440393448
			],
			"type":"VEC3"
		},
		{
			"bufferView":1,
			"componentType":5126,
			"count":170,
			"type":"VEC3"
		},
		{
			"bufferView":2,
			"componentType":5126,
			"count":170,
			"type":"VEC2"
		},
		{
			"bufferView":3,
			"componentType":5126,
			"count":170,
			"type":"VEC2"
		},
		{
			"bufferView":4,
			"componentType":5123,
			"count":522,
			"type":"SCALAR"
		},
		{
			"bufferView":5,
			"componentType":5126,
			"count":122,
			"max":[
				0.009400221519172192,
				0.013161984272301197,
				0.006293509155511856
			],
			"min":[
				-0.018882811069488525,
				-0.02126792073249817,
				-0.009030363522469997
			],
			"type":"VEC3"
		},
		{
			"bufferView":6,
			"componentType":5126,
			"count":122,
			"type":"VEC3"
		},
		{
			"bufferView":7,
			"componentType":5126,
			"count":122,
			"type":"VEC2"
		},
		{
			"bufferView":8,
			"componentType":5126,
			"count":122,
			"type":"VEC2"
		},
		{
			"bufferView":9,
			"componentType":5123,
			"count":366,
			"type":"SCALAR"
		},
		{
			"bufferView":10,
			"componentType":5126,
			"count":126,
			"max":[
				0.01796921156346798,
				0.019303612411022186,
				0.010397721081972122
			],
			"min":[
				-0.015361567959189415,
				-0.015761716291308403,
				-0.012455938383936882
			],
			"type":"VEC3"
		},
		{
			"bufferView":11,
			"componentType":5126,
			"count":126,
			"type":"VEC3"
		},
		{
			"bufferView":12,
			"componentType":5126,
			"count":126,
			"type":"VEC2"
		},
		{
			"bufferView":13,
			"componentType":5126,
			"count":126,
			"type":"VEC2"
		},
		{
			"bufferView":14,
			"componentType":5123,
			"count":354,
			"type":"SCALAR"
		},
		{
			"bufferView":15,
			"componentType":5126,
			"count":127,
			"max":[
				0.016560453921556473,
				0.016086386516690254,
				0.008880178444087505
			],
			"min":[
				-0.009368611499667168,
				-0.018159989267587662,
				-0.011954556219279766
			],
			"type":"VEC3"
		},
		{
			"bufferView":16,
			"componentType":5126,
			"count":127,
			"type":"VEC3"
		},
		{
			"bufferView":17,
			"componentType":5126,
			"count":127,
			"type":"VEC2"
		},
		{
			"bufferView":18,
			"componentType":5126,
			"count":127,
			"type":"VEC2"
		},
		{
			"bufferView":19,
			"componentType":5123,
			"count":378,
			"type":"SCALAR"
		},
		{
			"bufferView":20,
			"componentType":5126,
			"count":120,
			"max":[
				4
			],
			"min":[
				0.03333333333333333
			],
			"type":"SCALAR"
		},
		{
			"bufferView":21,
			"componentType":5126,
			"count":120,
			"type":"VEC3"
		},
		{
			"bufferView":22,
			"componentType":5126,
			"count":120,
			"type":"VEC4"
		},
		{
			"bufferView":23,
			"componentType":5126,
			"count":120,
			"type":"VEC3"
		},
		{
			"bufferView":24,
			"componentType":5126,
			"count":120,
			"type":"VEC4"
		},
		{
			"bufferView":25,
			"componentType":5126,
			"count":120,
			"type":"VEC3"
		},
		{
			"bufferView":26,
			"componentType":5126,
			"count":120,
			"type":"VEC4"
		},
		{
			"bufferView":27,
			"componentType":5126,
			"count":120,
			"type":"VEC3"
		},
		{
			"bufferView":28,
			"componentType":5126,
			"count":120,
			"type":"VEC4"
		}
	],
	"bufferViews":[
		{
			"buffer":0,
			"byteLength":2040,
			"byteOffset":0,
			"target":34962
		},
		{
			"buffer":0,
			"byteLength":2040,
			"byteOffset":2040,
			"target":34962
		},
		{
			"buffer":0,
			"byteLength":1360,
			"byteOffset":4080,
			"target":34962
		},
		{
			"buffer":0,
			"byteLength":1360,
			"byteOffset":5440,
			"target":34962
		},
		{
			"buffer":0,
			"byteLength":1044,
			"byteOffset":6800,
			"target":34963
		},
		{
			"buffer":0,
			"byteLength":1464,
			"byteOffset":7844,
			"target":34962
		},
		{
			"buffer":0,
			"byteLength":1464,
			"byteOffset":9308,
			"target":34962
		},
		{
			"buffer":0,
			"byteLength":976,
			"byteOffset":10772,
			"target":34962
		},
		{
			"buffer":0,
			"byteLength":976,
			"byteOffset":11748,
			"target":34962
		},
		{
			"buffer":0,
			"byteLength":732,
			"byteOffset":12724,
			"target":34963
		},
		{
			"buffer":0,
			"byteLength":1512,
			"byteOffset":13456,
			"target":34962
		},
		{
			"buffer":0,
			"byteLength":1512,
			"byteOffset":14968,
			"target":34962
		},
		{
			"buffer":0,
			"byteLength":1008,
			"byteOffset":16480,
			"target":34962
		},
		{
			"buffer":0,
			"byteLength":1008,
			"byteOffset":17488,
			"target":34962
		},
		{
			"buffer":0,
			"byteLength":708,
			"byteOffset":18496,
			"target":34963
		},
		{
			"buffer":0,
			"byteLength":1524,
			"byteOffset":19204,
			"target":34962
		},
		{
			"buffer":0,
			"byteLength":1524,
			"byteOffset":20728,
			"target":34962
		},
		{
			"buffer":0,
			"byteLength":1016,
			"byteOffset":22252,
			"target":34962
		},
		{
			"buffer":0,
			"byteLength":1016,
			"byteOffset":23268,
			"target":34962
		},
		{
			"buffer":0,
			"byteLength":756,
			"byteOffset":24284,
			"target":34963
		},
		{
			"buffer":0,
			"byteLength":480,
			"byteOffset":25040
		},
		{
			"buffer":0,
			"byteLength":1440,
			"byteOffset":25520
		},
		{
			"buffer":0,
			"byteLength":1920,
			"byteOffset":26960
		},
		{
			"buffer":0,
			"byteLength":1440,
			"byteOffset":28880
		},
		{
			"buffer":0,
			"byteLength":1920,
			"byteOffset":30320
		},
		{
			"buffer":0,
			"byteLength":1440,
			"byteOffset":32240
		},
		{
			"buffer":0,
			"byteLength":1920,
			"byteOffset":33680
		},
		{
			"buffer":0,
			"byteLength":1440,
			"byteOffset":35600
		},
		{
			"buffer":0,
			"byteLength":1920,
			"byteOffset":37040
		}
	],
	"samplers":[
		{
			"magFilter":9729,
			"minFilter":9987
		}
	],
	"buffers":[
		{
			"byteLength":38960,
			"uri":"Ceramic012.bin"
		}
	]
}
