{
	"asset":{
		"generator":"Khronos glTF Blender I/O v4.4.55",
		"version":"2.0"
	},
	"extensionsUsed":[
		"KHR_materials_specular"
	],
	"scene":0,
	"scenes":[
		{
			"name":"Scene",
			"nodes":[
				0,
				1,
				2,
				3,
				4,
				5,
				6,
				7
			]
		}
	],
	"nodes":[
		{
			"mesh":0,
			"name":"Ceramic023",
			"scale":[
				1.0564138889312744,
				1.0564138889312744,
				1.0564138889312744
			],
			"translation":[
				0.21338988840579987,
				0.010996878147125244,
				-0.04021938890218735
			]
		},
		{
			"mesh":1,
			"name":"Ceramic023_001",
			"scale":[
				1.0564138889312744,
				1.0564138889312744,
				1.0564138889312744
			],
			"translation":[
				0.172832652926445,
				0.05969015508890152,
				-0.05183830112218857
			]
		},
		{
			"mesh":2,
			"name":"Ceramic023_002",
			"scale":[
				1.0564138889312744,
				1.0564138889312744,
				1.0564138889312744
			],
			"translation":[
				0.2164437621831894,
				0.07743313908576965,
				-0.05400630086660385
			]
		},
		{
			"mesh":3,
			"name":"Ceramic023_003",
			"scale":[
				1.0564138889312744,
				1.0564138889312744,
				1.0564138889312744
			],
			"translation":[
				0.1901620477437973,
				-0.00032712891697883606,
				-0.03979498893022537
			]
		},
		{
			"mesh":4,
			"name":"Ceramic023_004",
			"scale":[
				1.0564138889312744,
				1.0564138889312744,
				1.0564138889312744
			],
			"translation":[
				0.22559383511543274,
				0.024462925270199776,
				-0.04249831661581993
			]
		},
		{
			"mesh":5,
			"name":"Ceramic023_005",
			"scale":[
				1.0564138889312744,
				1.0564138889312744,
				1.0564138889312744
			],
			"translation":[
				0.21484516561031342,
				0.04653315246105194,
				-0.04374430701136589
			]
		},
		{
			"mesh":6,
			"name":"Ceramic023_006",
			"scale":[
				1.0564138889312744,
				1.0564138889312744,
				1.0564138889312744
			],
			"translation":[
				0.16062359511852264,
				0.017898913472890854,
				-0.04191336780786514
			]
		},
		{
			"mesh":7,
			"name":"Ceramic023_007",
			"scale":[
				1.0564138889312744,
				1.0564138889312744,
				1.0564138889312744
			],
			"translation":[
				0.1979190856218338,
				0.09466074407100677,
				-0.062016550451517105
			]
		}
	],
	"animations":[
		{
			"channels":[
				{
					"sampler":0,
					"target":{
						"node":0,
						"path":"translation"
					}
				},
				{
					"sampler":1,
					"target":{
						"node":0,
						"path":"rotation"
					}
				}
			],
			"name":"Ceramic.045Action",
			"samplers":[
				{
					"input":40,
					"interpolation":"LINEAR",
					"output":41
				},
				{
					"input":40,
					"interpolation":"LINEAR",
					"output":42
				}
			]
		},
		{
			"channels":[
				{
					"sampler":0,
					"target":{
						"node":1,
						"path":"translation"
					}
				},
				{
					"sampler":1,
					"target":{
						"node":1,
						"path":"rotation"
					}
				}
			],
			"name":"Ceramic.085Action",
			"samplers":[
				{
					"input":40,
					"interpolation":"LINEAR",
					"output":43
				},
				{
					"input":40,
					"interpolation":"LINEAR",
					"output":44
				}
			]
		},
		{
			"channels":[
				{
					"sampler":0,
					"target":{
						"node":2,
						"path":"translation"
					}
				},
				{
					"sampler":1,
					"target":{
						"node":2,
						"path":"rotation"
					}
				}
			],
			"name":"Ceramic.086Action",
			"samplers":[
				{
					"input":40,
					"interpolation":"LINEAR",
					"output":45
				},
				{
					"input":40,
					"interpolation":"LINEAR",
					"output":46
				}
			]
		},
		{
			"channels":[
				{
					"sampler":0,
					"target":{
						"node":3,
						"path":"translation"
					}
				},
				{
					"sampler":1,
					"target":{
						"node":3,
						"path":"rotation"
					}
				}
			],
			"name":"Ceramic.087Action",
			"samplers":[
				{
					"input":40,
					"interpolation":"LINEAR",
					"output":47
				},
				{
					"input":40,
					"interpolation":"LINEAR",
					"output":48
				}
			]
		},
		{
			"channels":[
				{
					"sampler":0,
					"target":{
						"node":4,
						"path":"translation"
					}
				},
				{
					"sampler":1,
					"target":{
						"node":4,
						"path":"rotation"
					}
				}
			],
			"name":"Ceramic.088Action",
			"samplers":[
				{
					"input":40,
					"interpolation":"LINEAR",
					"output":49
				},
				{
					"input":40,
					"interpolation":"LINEAR",
					"output":50
				}
			]
		},
		{
			"channels":[
				{
					"sampler":0,
					"target":{
						"node":5,
						"path":"translation"
					}
				},
				{
					"sampler":1,
					"target":{
						"node":5,
						"path":"rotation"
					}
				}
			],
			"name":"Ceramic.089Action",
			"samplers":[
				{
					"input":40,
					"interpolation":"LINEAR",
					"output":51
				},
				{
					"input":40,
					"interpolation":"LINEAR",
					"output":52
				}
			]
		},
		{
			"channels":[
				{
					"sampler":0,
					"target":{
						"node":6,
						"path":"translation"
					}
				},
				{
					"sampler":1,
					"target":{
						"node":6,
						"path":"rotation"
					}
				}
			],
			"name":"Ceramic.090Action",
			"samplers":[
				{
					"input":40,
					"interpolation":"LINEAR",
					"output":53
				},
				{
					"input":40,
					"interpolation":"LINEAR",
					"output":54
				}
			]
		},
		{
			"channels":[
				{
					"sampler":0,
					"target":{
						"node":7,
						"path":"translation"
					}
				},
				{
					"sampler":1,
					"target":{
						"node":7,
						"path":"rotation"
					}
				}
			],
			"name":"Ceramic.091Action",
			"samplers":[
				{
					"input":40,
					"interpolation":"LINEAR",
					"output":55
				},
				{
					"input":40,
					"interpolation":"LINEAR",
					"output":56
				}
			]
		}
	],
	"materials":[
		{
			"doubleSided":true,
			"emissiveFactor":[
				1,
				1,
				1
			],
			"emissiveTexture":{
				"index":0
			},
			"extensions":{
				"KHR_materials_specular":{
					"specularTexture":{
						"index":1
					}
				}
			},
			"name":"BranaLP",
			"normalTexture":{
				"index":2
			},
			"pbrMetallicRoughness":{
				"baseColorTexture":{
					"index":3
				},
				"metallicRoughnessTexture":{
					"index":4
				},
				"roughnessFactor":0.5
			}
		}
	],
	"meshes":[
		{
			"name":"Plane.065",
			"primitives":[
				{
					"attributes":{
						"POSITION":0,
						"NORMAL":1,
						"TEXCOORD_0":2,
						"TEXCOORD_1":3
					},
					"indices":4,
					"material":0
				}
			]
		},
		{
			"name":"Plane.180",
			"primitives":[
				{
					"attributes":{
						"POSITION":5,
						"NORMAL":6,
						"TEXCOORD_0":7,
						"TEXCOORD_1":8
					},
					"indices":9,
					"material":0
				}
			]
		},
		{
			"name":"Plane.181",
			"primitives":[
				{
					"attributes":{
						"POSITION":10,
						"NORMAL":11,
						"TEXCOORD_0":12,
						"TEXCOORD_1":13
					},
					"indices":14,
					"material":0
				}
			]
		},
		{
			"name":"Plane.182",
			"primitives":[
				{
					"attributes":{
						"POSITION":15,
						"NORMAL":16,
						"TEXCOORD_0":17,
						"TEXCOORD_1":18
					},
					"indices":19,
					"material":0
				}
			]
		},
		{
			"name":"Plane.183",
			"primitives":[
				{
					"attributes":{
						"POSITION":20,
						"NORMAL":21,
						"TEXCOORD_0":22,
						"TEXCOORD_1":23
					},
					"indices":24,
					"material":0
				}
			]
		},
		{
			"name":"Plane.184",
			"primitives":[
				{
					"attributes":{
						"POSITION":25,
						"NORMAL":26,
						"TEXCOORD_0":27,
						"TEXCOORD_1":28
					},
					"indices":29,
					"material":0
				}
			]
		},
		{
			"name":"Plane.185",
			"primitives":[
				{
					"attributes":{
						"POSITION":30,
						"NORMAL":31,
						"TEXCOORD_0":32,
						"TEXCOORD_1":33
					},
					"indices":34,
					"material":0
				}
			]
		},
		{
			"name":"Plane.186",
			"primitives":[
				{
					"attributes":{
						"POSITION":35,
						"NORMAL":36,
						"TEXCOORD_0":37,
						"TEXCOORD_1":38
					},
					"indices":39,
					"material":0
				}
			]
		}
	],
	"textures":[
		{
			"sampler":0,
			"source":0
		},
		{
			"sampler":0,
			"source":1
		},
		{
			"sampler":0,
			"source":2
		},
		{
			"sampler":0,
			"source":3
		},
		{
			"sampler":0,
			"source":4
		}
	],
	"images":[
		{
			"mimeType":"image/jpeg",
			"name":"BranaLP Diffuse Baked.jpg",
			"uri":"../tex/brana/BranaLP%20Diffuse%20Baked.jpg"
		},
		{
			"mimeType":"image/jpeg",
			"name":"BranaLP Specular.jpg",
			"uri":"../tex/brana/BranaLP%20Specular.jpg"
		},
		{
			"mimeType":"image/jpeg",
			"name":"BranaLP Normal.jpg",
			"uri":"../tex/brana/BranaLP%20Normal.jpg"
		},
		{
			"mimeType":"image/jpeg",
			"name":"BranaLP Diffuse.jpg",
			"uri":"../tex/brana/BranaLP%20Diffuse.jpg"
		},
		{
			"mimeType":"image/jpeg",
			"name":"BranaLP Metallic.jpg",
			"uri":"../tex/brana/BranaLP%20Metallic.jpg"
		}
	],
	"accessors":[
		{
			"bufferView":0,
			"componentType":5126,
			"count":156,
			"max":[
				0.03620345890522003,
				0.022942382842302322,
				0.008690757676959038
			],
			"min":[
				-0.03635713458061218,
				-0.030432041734457016,
				-0.013010665774345398
			],
			"type":"VEC3"
		},
		{
			"bufferView":1,
			"componentType":5126,
			"count":156,
			"type":"VEC3"
		},
		{
			"bufferView":2,
			"componentType":5126,
			"count":156,
			"type":"VEC2"
		},
		{
			"bufferView":3,
			"componentType":5126,
			"count":156,
			"type":"VEC2"
		},
		{
			"bufferView":4,
			"componentType":5123,
			"count":438,
			"type":"SCALAR"
		},
		{
			"bufferView":5,
			"componentType":5126,
			"count":209,
			"max":[
				0.02622889168560505,
				0.03969927877187729,
				0.017659712582826614
			],
			"min":[
				-0.022914694622159004,
				-0.025750892236828804,
				-0.024619050323963165
			],
			"type":"VEC3"
		},
		{
			"bufferView":6,
			"componentType":5126,
			"count":209,
			"type":"VEC3"
		},
		{
			"bufferView":7,
			"componentType":5126,
			"count":209,
			"type":"VEC2"
		},
		{
			"bufferView":8,
			"componentType":5126,
			"count":209,
			"type":"VEC2"
		},
		{
			"bufferView":9,
			"componentType":5123,
			"count":546,
			"type":"SCALAR"
		},
		{
			"bufferView":10,
			"componentType":5126,
			"count":169,
			"max":[
				0.035801615566015244,
				0.040070537477731705,
				0.015294359996914864
			],
			"min":[
				-0.02921130880713463,
				-0.03299405425786972,
				-0.022505758330225945
			],
			"type":"VEC3"
		},
		{
			"bufferView":11,
			"componentType":5126,
			"count":169,
			"type":"VEC3"
		},
		{
			"bufferView":12,
			"componentType":5126,
			"count":169,
			"type":"VEC2"
		},
		{
			"bufferView":13,
			"componentType":5126,
			"count":169,
			"type":"VEC2"
		},
		{
			"bufferView":14,
			"componentType":5123,
			"count":474,
			"type":"SCALAR"
		},
		{
			"bufferView":15,
			"componentType":5126,
			"count":231,
			"max":[
				0.048736099153757095,
				0.0342663899064064,
				0.008251260034739971
			],
			"min":[
				-0.03395899757742882,
				-0.025992464274168015,
				-0.008928047493100166
			],
			"type":"VEC3"
		},
		{
			"bufferView":16,
			"componentType":5126,
			"count":231,
			"type":"VEC3"
		},
		{
			"bufferView":17,
			"componentType":5126,
			"count":231,
			"type":"VEC2"
		},
		{
			"bufferView":18,
			"componentType":5126,
			"count":231,
			"type":"VEC2"
		},
		{
			"bufferView":19,
			"componentType":5123,
			"count":576,
			"type":"SCALAR"
		},
		{
			"bufferView":20,
			"componentType":5126,
			"count":154,
			"max":[
				0.031981050968170166,
				0.015584159642457962,
				0.00929054245352745
			],
			"min":[
				-0.032592661678791046,
				-0.028009073808789253,
				-0.014121953397989273
			],
			"type":"VEC3"
		},
		{
			"bufferView":21,
			"componentType":5126,
			"count":154,
			"type":"VEC3"
		},
		{
			"bufferView":22,
			"componentType":5126,
			"count":154,
			"type":"VEC2"
		},
		{
			"bufferView":23,
			"componentType":5126,
			"count":154,
			"type":"VEC2"
		},
		{
			"bufferView":24,
			"componentType":5123,
			"count":444,
			"type":"SCALAR"
		},
		{
			"bufferView":25,
			"componentType":5126,
			"count":131,
			"max":[
				0.03830135613679886,
				0.015089651569724083,
				0.009107839316129684
			],
			"min":[
				-0.0258367620408535,
				-0.010989591479301453,
				-0.01111200638115406
			],
			"type":"VEC3"
		},
		{
			"bufferView":26,
			"componentType":5126,
			"count":131,
			"type":"VEC3"
		},
		{
			"bufferView":27,
			"componentType":5126,
			"count":131,
			"type":"VEC2"
		},
		{
			"bufferView":28,
			"componentType":5126,
			"count":131,
			"type":"VEC2"
		},
		{
			"bufferView":29,
			"componentType":5123,
			"count":378,
			"type":"SCALAR"
		},
		{
			"bufferView":30,
			"componentType":5126,
			"count":124,
			"max":[
				0.012976393103599548,
				0.016040347516536713,
				0.0072376420721411705
			],
			"min":[
				-0.011449653655290604,
				-0.029690630733966827,
				-0.008755174465477467
			],
			"type":"VEC3"
		},
		{
			"bufferView":31,
			"componentType":5126,
			"count":124,
			"type":"VEC3"
		},
		{
			"bufferView":32,
			"componentType":5126,
			"count":124,
			"type":"VEC2"
		},
		{
			"bufferView":33,
			"componentType":5126,
			"count":124,
			"type":"VEC2"
		},
		{
			"bufferView":34,
			"componentType":5123,
			"count":300,
			"type":"SCALAR"
		},
		{
			"bufferView":35,
			"componentType":5126,
			"count":127,
			"max":[
				0.025230424478650093,
				0.024168945848941803,
				0.018568161875009537
			],
			"min":[
				-0.022625437006354332,
				-0.02814745344221592,
				-0.014280418865382671
			],
			"type":"VEC3"
		},
		{
			"bufferView":36,
			"componentType":5126,
			"count":127,
			"type":"VEC3"
		},
		{
			"bufferView":37,
			"componentType":5126,
			"count":127,
			"type":"VEC2"
		},
		{
			"bufferView":38,
			"componentType":5126,
			"count":127,
			"type":"VEC2"
		},
		{
			"bufferView":39,
			"componentType":5123,
			"count":318,
			"type":"SCALAR"
		},
		{
			"bufferView":40,
			"componentType":5126,
			"count":120,
			"max":[
				4
			],
			"min":[
				0.03333333333333333
			],
			"type":"SCALAR"
		},
		{
			"bufferView":41,
			"componentType":5126,
			"count":120,
			"type":"VEC3"
		},
		{
			"bufferView":42,
			"componentType":5126,
			"count":120,
			"type":"VEC4"
		},
		{
			"bufferView":43,
			"componentType":5126,
			"count":120,
			"type":"VEC3"
		},
		{
			"bufferView":44,
			"componentType":5126,
			"count":120,
			"type":"VEC4"
		},
		{
			"bufferView":45,
			"componentType":5126,
			"count":120,
			"type":"VEC3"
		},
		{
			"bufferView":46,
			"componentType":5126,
			"count":120,
			"type":"VEC4"
		},
		{
			"bufferView":47,
			"componentType":5126,
			"count":120,
			"type":"VEC3"
		},
		{
			"bufferView":48,
			"componentType":5126,
			"count":120,
			"type":"VEC4"
		},
		{
			"bufferView":49,
			"componentType":5126,
			"count":120,
			"type":"VEC3"
		},
		{
			"bufferView":50,
			"componentType":5126,
			"count":120,
			"type":"VEC4"
		},
		{
			"bufferView":51,
			"componentType":5126,
			"count":120,
			"type":"VEC3"
		},
		{
			"bufferView":52,
			"componentType":5126,
			"count":120,
			"type":"VEC4"
		},
		{
			"bufferView":53,
			"componentType":5126,
			"count":120,
			"type":"VEC3"
		},
		{
			"bufferView":54,
			"componentType":5126,
			"count":120,
			"type":"VEC4"
		},
		{
			"bufferView":55,
			"componentType":5126,
			"count":120,
			"type":"VEC3"
		},
		{
			"bufferView":56,
			"componentType":5126,
			"count":120,
			"type":"VEC4"
		}
	],
	"bufferViews":[
		{
			"buffer":0,
			"byteLength":1872,
			"byteOffset":0,
			"target":34962
		},
		{
			"buffer":0,
			"byteLength":1872,
			"byteOffset":1872,
			"target":34962
		},
		{
			"buffer":0,
			"byteLength":1248,
			"byteOffset":3744,
			"target":34962
		},
		{
			"buffer":0,
			"byteLength":1248,
			"byteOffset":4992,
			"target":34962
		},
		{
			"buffer":0,
			"byteLength":876,
			"byteOffset":6240,
			"target":34963
		},
		{
			"buffer":0,
			"byteLength":2508,
			"byteOffset":7116,
			"target":34962
		},
		{
			"buffer":0,
			"byteLength":2508,
			"byteOffset":9624,
			"target":34962
		},
		{
			"buffer":0,
			"byteLength":1672,
			"byteOffset":12132,
			"target":34962
		},
		{
			"buffer":0,
			"byteLength":1672,
			"byteOffset":13804,
			"target":34962
		},
		{
			"buffer":0,
			"byteLength":1092,
			"byteOffset":15476,
			"target":34963
		},
		{
			"buffer":0,
			"byteLength":2028,
			"byteOffset":16568,
			"target":34962
		},
		{
			"buffer":0,
			"byteLength":2028,
			"byteOffset":18596,
			"target":34962
		},
		{
			"buffer":0,
			"byteLength":1352,
			"byteOffset":20624,
			"target":34962
		},
		{
			"buffer":0,
			"byteLength":1352,
			"byteOffset":21976,
			"target":34962
		},
		{
			"buffer":0,
			"byteLength":948,
			"byteOffset":23328,
			"target":34963
		},
		{
			"buffer":0,
			"byteLength":2772,
			"byteOffset":24276,
			"target":34962
		},
		{
			"buffer":0,
			"byteLength":2772,
			"byteOffset":27048,
			"target":34962
		},
		{
			"buffer":0,
			"byteLength":1848,
			"byteOffset":29820,
			"target":34962
		},
		{
			"buffer":0,
			"byteLength":1848,
			"byteOffset":31668,
			"target":34962
		},
		{
			"buffer":0,
			"byteLength":1152,
			"byteOffset":33516,
			"target":34963
		},
		{
			"buffer":0,
			"byteLength":1848,
			"byteOffset":34668,
			"target":34962
		},
		{
			"buffer":0,
			"byteLength":1848,
			"byteOffset":36516,
			"target":34962
		},
		{
			"buffer":0,
			"byteLength":1232,
			"byteOffset":38364,
			"target":34962
		},
		{
			"buffer":0,
			"byteLength":1232,
			"byteOffset":39596,
			"target":34962
		},
		{
			"buffer":0,
			"byteLength":888,
			"byteOffset":40828,
			"target":34963
		},
		{
			"buffer":0,
			"byteLength":1572,
			"byteOffset":41716,
			"target":34962
		},
		{
			"buffer":0,
			"byteLength":1572,
			"byteOffset":43288,
			"target":34962
		},
		{
			"buffer":0,
			"byteLength":1048,
			"byteOffset":44860,
			"target":34962
		},
		{
			"buffer":0,
			"byteLength":1048,
			"byteOffset":45908,
			"target":34962
		},
		{
			"buffer":0,
			"byteLength":756,
			"byteOffset":46956,
			"target":34963
		},
		{
			"buffer":0,
			"byteLength":1488,
			"byteOffset":47712,
			"target":34962
		},
		{
			"buffer":0,
			"byteLength":1488,
			"byteOffset":49200,
			"target":34962
		},
		{
			"buffer":0,
			"byteLength":992,
			"byteOffset":50688,
			"target":34962
		},
		{
			"buffer":0,
			"byteLength":992,
			"byteOffset":51680,
			"target":34962
		},
		{
			"buffer":0,
			"byteLength":600,
			"byteOffset":52672,
			"target":34963
		},
		{
			"buffer":0,
			"byteLength":1524,
			"byteOffset":53272,
			"target":34962
		},
		{
			"buffer":0,
			"byteLength":1524,
			"byteOffset":54796,
			"target":34962
		},
		{
			"buffer":0,
			"byteLength":1016,
			"byteOffset":56320,
			"target":34962
		},
		{
			"buffer":0,
			"byteLength":1016,
			"byteOffset":57336,
			"target":34962
		},
		{
			"buffer":0,
			"byteLength":636,
			"byteOffset":58352,
			"target":34963
		},
		{
			"buffer":0,
			"byteLength":480,
			"byteOffset":58988
		},
		{
			"buffer":0,
			"byteLength":1440,
			"byteOffset":59468
		},
		{
			"buffer":0,
			"byteLength":1920,
			"byteOffset":60908
		},
		{
			"buffer":0,
			"byteLength":1440,
			"byteOffset":62828
		},
		{
			"buffer":0,
			"byteLength":1920,
			"byteOffset":64268
		},
		{
			"buffer":0,
			"byteLength":1440,
			"byteOffset":66188
		},
		{
			"buffer":0,
			"byteLength":1920,
			"byteOffset":67628
		},
		{
			"buffer":0,
			"byteLength":1440,
			"byteOffset":69548
		},
		{
			"buffer":0,
			"byteLength":1920,
			"byteOffset":70988
		},
		{
			"buffer":0,
			"byteLength":1440,
			"byteOffset":72908
		},
		{
			"buffer":0,
			"byteLength":1920,
			"byteOffset":74348
		},
		{
			"buffer":0,
			"byteLength":1440,
			"byteOffset":76268
		},
		{
			"buffer":0,
			"byteLength":1920,
			"byteOffset":77708
		},
		{
			"buffer":0,
			"byteLength":1440,
			"byteOffset":79628
		},
		{
			"buffer":0,
			"byteLength":1920,
			"byteOffset":81068
		},
		{
			"buffer":0,
			"byteLength":1440,
			"byteOffset":82988
		},
		{
			"buffer":0,
			"byteLength":1920,
			"byteOffset":84428
		}
	],
	"samplers":[
		{
			"magFilter":9729,
			"minFilter":9987
		}
	],
	"buffers":[
		{
			"byteLength":86348,
			"uri":"Ceramic023.bin"
		}
	]
}
