{
	"asset":{
		"generator":"Khronos glTF Blender I/O v4.4.55",
		"version":"2.0"
	},
	"extensionsUsed":[
		"KHR_materials_specular"
	],
	"scene":0,
	"scenes":[
		{
			"name":"Scene",
			"nodes":[
				0,
				1,
				2,
				3,
				4
			]
		}
	],
	"nodes":[
		{
			"mesh":0,
			"name":"Ceramic024",
			"scale":[
				1.0957703590393066,
				1.0957703590393066,
				1.0957703590393066
			],
			"translation":[
				-0.09419428557157516,
				-0.26544061303138733,
				-0.0647624135017395
			]
		},
		{
			"mesh":1,
			"name":"Ceramic024_001",
			"scale":[
				1.0957703590393066,
				1.0957703590393066,
				1.0957703590393066
			],
			"translation":[
				-0.09999106079339981,
				-0.268096923828125,
				-0.06330553442239761
			]
		},
		{
			"mesh":2,
			"name":"Ceramic024_002",
			"scale":[
				1.0957703590393066,
				1.0957703590393066,
				1.0957703590393066
			],
			"translation":[
				-0.07576930522918701,
				-0.32196179032325745,
				-0.058688778430223465
			]
		},
		{
			"mesh":3,
			"name":"Ceramic024_003",
			"scale":[
				1.0957703590393066,
				1.0957703590393066,
				1.0957703590393066
			],
			"translation":[
				-0.08001349866390228,
				-0.289615273475647,
				-0.06332773715257645
			]
		},
		{
			"mesh":4,
			"name":"Ceramic024_004",
			"scale":[
				1.0957703590393066,
				1.0957703590393066,
				1.0957703590393066
			],
			"translation":[
				-0.08136099576950073,
				-0.3015490472316742,
				-0.06170974299311638
			]
		}
	],
	"animations":[
		{
			"channels":[
				{
					"sampler":0,
					"target":{
						"node":0,
						"path":"translation"
					}
				},
				{
					"sampler":1,
					"target":{
						"node":0,
						"path":"rotation"
					}
				}
			],
			"name":"Ceramic.047Action",
			"samplers":[
				{
					"input":25,
					"interpolation":"LINEAR",
					"output":26
				},
				{
					"input":25,
					"interpolation":"LINEAR",
					"output":27
				}
			]
		},
		{
			"channels":[
				{
					"sampler":0,
					"target":{
						"node":1,
						"path":"translation"
					}
				},
				{
					"sampler":1,
					"target":{
						"node":1,
						"path":"rotation"
					}
				}
			],
			"name":"Ceramic.092Action",
			"samplers":[
				{
					"input":25,
					"interpolation":"LINEAR",
					"output":28
				},
				{
					"input":25,
					"interpolation":"LINEAR",
					"output":29
				}
			]
		},
		{
			"channels":[
				{
					"sampler":0,
					"target":{
						"node":2,
						"path":"translation"
					}
				},
				{
					"sampler":1,
					"target":{
						"node":2,
						"path":"rotation"
					}
				}
			],
			"name":"Ceramic.093Action",
			"samplers":[
				{
					"input":25,
					"interpolation":"LINEAR",
					"output":30
				},
				{
					"input":25,
					"interpolation":"LINEAR",
					"output":31
				}
			]
		},
		{
			"channels":[
				{
					"sampler":0,
					"target":{
						"node":3,
						"path":"translation"
					}
				},
				{
					"sampler":1,
					"target":{
						"node":3,
						"path":"rotation"
					}
				}
			],
			"name":"Ceramic.094Action",
			"samplers":[
				{
					"input":25,
					"interpolation":"LINEAR",
					"output":32
				},
				{
					"input":25,
					"interpolation":"LINEAR",
					"output":33
				}
			]
		},
		{
			"channels":[
				{
					"sampler":0,
					"target":{
						"node":4,
						"path":"translation"
					}
				},
				{
					"sampler":1,
					"target":{
						"node":4,
						"path":"rotation"
					}
				}
			],
			"name":"Ceramic.095Action",
			"samplers":[
				{
					"input":25,
					"interpolation":"LINEAR",
					"output":34
				},
				{
					"input":25,
					"interpolation":"LINEAR",
					"output":35
				}
			]
		}
	],
	"materials":[
		{
			"doubleSided":true,
			"emissiveFactor":[
				1,
				1,
				1
			],
			"emissiveTexture":{
				"index":0
			},
			"extensions":{
				"KHR_materials_specular":{
					"specularTexture":{
						"index":1
					}
				}
			},
			"name":"BranaLP",
			"normalTexture":{
				"index":2
			},
			"pbrMetallicRoughness":{
				"baseColorTexture":{
					"index":3
				},
				"metallicRoughnessTexture":{
					"index":4
				},
				"roughnessFactor":0.5
			}
		}
	],
	"meshes":[
		{
			"name":"Plane.067",
			"primitives":[
				{
					"attributes":{
						"POSITION":0,
						"NORMAL":1,
						"TEXCOORD_0":2,
						"TEXCOORD_1":3
					},
					"indices":4,
					"material":0
				}
			]
		},
		{
			"name":"Plane.187",
			"primitives":[
				{
					"attributes":{
						"POSITION":5,
						"NORMAL":6,
						"TEXCOORD_0":7,
						"TEXCOORD_1":8
					},
					"indices":9,
					"material":0
				}
			]
		},
		{
			"name":"Plane.188",
			"primitives":[
				{
					"attributes":{
						"POSITION":10,
						"NORMAL":11,
						"TEXCOORD_0":12,
						"TEXCOORD_1":13
					},
					"indices":14,
					"material":0
				}
			]
		},
		{
			"name":"Plane.189",
			"primitives":[
				{
					"attributes":{
						"POSITION":15,
						"NORMAL":16,
						"TEXCOORD_0":17,
						"TEXCOORD_1":18
					},
					"indices":19,
					"material":0
				}
			]
		},
		{
			"name":"Plane.190",
			"primitives":[
				{
					"attributes":{
						"POSITION":20,
						"NORMAL":21,
						"TEXCOORD_0":22,
						"TEXCOORD_1":23
					},
					"indices":24,
					"material":0
				}
			]
		}
	],
	"textures":[
		{
			"sampler":0,
			"source":0
		},
		{
			"sampler":0,
			"source":1
		},
		{
			"sampler":0,
			"source":2
		},
		{
			"sampler":0,
			"source":3
		},
		{
			"sampler":0,
			"source":4
		}
	],
	"images":[
		{
			"mimeType":"image/jpeg",
			"name":"BranaLP Diffuse Baked.jpg",
			"uri":"../tex/brana/BranaLP%20Diffuse%20Baked.jpg"
		},
		{
			"mimeType":"image/jpeg",
			"name":"BranaLP Specular.jpg",
			"uri":"../tex/brana/BranaLP%20Specular.jpg"
		},
		{
			"mimeType":"image/jpeg",
			"name":"BranaLP Normal.jpg",
			"uri":"../tex/brana/BranaLP%20Normal.jpg"
		},
		{
			"mimeType":"image/jpeg",
			"name":"BranaLP Diffuse.jpg",
			"uri":"../tex/brana/BranaLP%20Diffuse.jpg"
		},
		{
			"mimeType":"image/jpeg",
			"name":"BranaLP Metallic.jpg",
			"uri":"../tex/brana/BranaLP%20Metallic.jpg"
		}
	],
	"accessors":[
		{
			"bufferView":0,
			"componentType":5126,
			"count":111,
			"max":[
				0.014604592695832253,
				0.02568139135837555,
				0.006015601567924023
			],
			"min":[
				-0.014722601510584354,
				-0.023471646010875702,
				-0.0038649151101708412
			],
			"type":"VEC3"
		},
		{
			"bufferView":1,
			"componentType":5126,
			"count":111,
			"type":"VEC3"
		},
		{
			"bufferView":2,
			"componentType":5126,
			"count":111,
			"type":"VEC2"
		},
		{
			"bufferView":3,
			"componentType":5126,
			"count":111,
			"type":"VEC2"
		},
		{
			"bufferView":4,
			"componentType":5123,
			"count":294,
			"type":"SCALAR"
		},
		{
			"bufferView":5,
			"componentType":5126,
			"count":120,
			"max":[
				0.01440420188009739,
				0.029458805918693542,
				0.007059249095618725
			],
			"min":[
				-0.016609670594334602,
				-0.02581721358001232,
				-0.004558928310871124
			],
			"type":"VEC3"
		},
		{
			"bufferView":6,
			"componentType":5126,
			"count":120,
			"type":"VEC3"
		},
		{
			"bufferView":7,
			"componentType":5126,
			"count":120,
			"type":"VEC2"
		},
		{
			"bufferView":8,
			"componentType":5126,
			"count":120,
			"type":"VEC2"
		},
		{
			"bufferView":9,
			"componentType":5123,
			"count":312,
			"type":"SCALAR"
		},
		{
			"bufferView":10,
			"componentType":5126,
			"count":66,
			"max":[
				0.01699521578848362,
				0.013634405098855495,
				0.009300465695559978
			],
			"min":[
				-0.020633772015571594,
				-0.034393057227134705,
				-0.005029776133596897
			],
			"type":"VEC3"
		},
		{
			"bufferView":11,
			"componentType":5126,
			"count":66,
			"type":"VEC3"
		},
		{
			"bufferView":12,
			"componentType":5126,
			"count":66,
			"type":"VEC2"
		},
		{
			"bufferView":13,
			"componentType":5126,
			"count":66,
			"type":"VEC2"
		},
		{
			"bufferView":14,
			"componentType":5123,
			"count":198,
			"type":"SCALAR"
		},
		{
			"bufferView":15,
			"componentType":5126,
			"count":85,
			"max":[
				0.012297224253416061,
				0.02513531595468521,
				0.006558474153280258
			],
			"min":[
				-0.008922962471842766,
				-0.01075277291238308,
				-0.004224550910294056
			],
			"type":"VEC3"
		},
		{
			"bufferView":16,
			"componentType":5126,
			"count":85,
			"type":"VEC3"
		},
		{
			"bufferView":17,
			"componentType":5126,
			"count":85,
			"type":"VEC2"
		},
		{
			"bufferView":18,
			"componentType":5126,
			"count":85,
			"type":"VEC2"
		},
		{
			"bufferView":19,
			"componentType":5123,
			"count":210,
			"type":"SCALAR"
		},
		{
			"bufferView":20,
			"componentType":5126,
			"count":85,
			"max":[
				0.015982121229171753,
				0.007737273816019297,
				0.007168630603700876
			],
			"min":[
				-0.021160181611776352,
				-0.008502236567437649,
				-0.003141776192933321
			],
			"type":"VEC3"
		},
		{
			"bufferView":21,
			"componentType":5126,
			"count":85,
			"type":"VEC3"
		},
		{
			"bufferView":22,
			"componentType":5126,
			"count":85,
			"type":"VEC2"
		},
		{
			"bufferView":23,
			"componentType":5126,
			"count":85,
			"type":"VEC2"
		},
		{
			"bufferView":24,
			"componentType":5123,
			"count":216,
			"type":"SCALAR"
		},
		{
			"bufferView":25,
			"componentType":5126,
			"count":120,
			"max":[
				4
			],
			"min":[
				0.03333333333333333
			],
			"type":"SCALAR"
		},
		{
			"bufferView":26,
			"componentType":5126,
			"count":120,
			"type":"VEC3"
		},
		{
			"bufferView":27,
			"componentType":5126,
			"count":120,
			"type":"VEC4"
		},
		{
			"bufferView":28,
			"componentType":5126,
			"count":120,
			"type":"VEC3"
		},
		{
			"bufferView":29,
			"componentType":5126,
			"count":120,
			"type":"VEC4"
		},
		{
			"bufferView":30,
			"componentType":5126,
			"count":120,
			"type":"VEC3"
		},
		{
			"bufferView":31,
			"componentType":5126,
			"count":120,
			"type":"VEC4"
		},
		{
			"bufferView":32,
			"componentType":5126,
			"count":120,
			"type":"VEC3"
		},
		{
			"bufferView":33,
			"componentType":5126,
			"count":120,
			"type":"VEC4"
		},
		{
			"bufferView":34,
			"componentType":5126,
			"count":120,
			"type":"VEC3"
		},
		{
			"bufferView":35,
			"componentType":5126,
			"count":120,
			"type":"VEC4"
		}
	],
	"bufferViews":[
		{
			"buffer":0,
			"byteLength":1332,
			"byteOffset":0,
			"target":34962
		},
		{
			"buffer":0,
			"byteLength":1332,
			"byteOffset":1332,
			"target":34962
		},
		{
			"buffer":0,
			"byteLength":888,
			"byteOffset":2664,
			"target":34962
		},
		{
			"buffer":0,
			"byteLength":888,
			"byteOffset":3552,
			"target":34962
		},
		{
			"buffer":0,
			"byteLength":588,
			"byteOffset":4440,
			"target":34963
		},
		{
			"buffer":0,
			"byteLength":1440,
			"byteOffset":5028,
			"target":34962
		},
		{
			"buffer":0,
			"byteLength":1440,
			"byteOffset":6468,
			"target":34962
		},
		{
			"buffer":0,
			"byteLength":960,
			"byteOffset":7908,
			"target":34962
		},
		{
			"buffer":0,
			"byteLength":960,
			"byteOffset":8868,
			"target":34962
		},
		{
			"buffer":0,
			"byteLength":624,
			"byteOffset":9828,
			"target":34963
		},
		{
			"buffer":0,
			"byteLength":792,
			"byteOffset":10452,
			"target":34962
		},
		{
			"buffer":0,
			"byteLength":792,
			"byteOffset":11244,
			"target":34962
		},
		{
			"buffer":0,
			"byteLength":528,
			"byteOffset":12036,
			"target":34962
		},
		{
			"buffer":0,
			"byteLength":528,
			"byteOffset":12564,
			"target":34962
		},
		{
			"buffer":0,
			"byteLength":396,
			"byteOffset":13092,
			"target":34963
		},
		{
			"buffer":0,
			"byteLength":1020,
			"byteOffset":13488,
			"target":34962
		},
		{
			"buffer":0,
			"byteLength":1020,
			"byteOffset":14508,
			"target":34962
		},
		{
			"buffer":0,
			"byteLength":680,
			"byteOffset":15528,
			"target":34962
		},
		{
			"buffer":0,
			"byteLength":680,
			"byteOffset":16208,
			"target":34962
		},
		{
			"buffer":0,
			"byteLength":420,
			"byteOffset":16888,
			"target":34963
		},
		{
			"buffer":0,
			"byteLength":1020,
			"byteOffset":17308,
			"target":34962
		},
		{
			"buffer":0,
			"byteLength":1020,
			"byteOffset":18328,
			"target":34962
		},
		{
			"buffer":0,
			"byteLength":680,
			"byteOffset":19348,
			"target":34962
		},
		{
			"buffer":0,
			"byteLength":680,
			"byteOffset":20028,
			"target":34962
		},
		{
			"buffer":0,
			"byteLength":432,
			"byteOffset":20708,
			"target":34963
		},
		{
			"buffer":0,
			"byteLength":480,
			"byteOffset":21140
		},
		{
			"buffer":0,
			"byteLength":1440,
			"byteOffset":21620
		},
		{
			"buffer":0,
			"byteLength":1920,
			"byteOffset":23060
		},
		{
			"buffer":0,
			"byteLength":1440,
			"byteOffset":24980
		},
		{
			"buffer":0,
			"byteLength":1920,
			"byteOffset":26420
		},
		{
			"buffer":0,
			"byteLength":1440,
			"byteOffset":28340
		},
		{
			"buffer":0,
			"byteLength":1920,
			"byteOffset":29780
		},
		{
			"buffer":0,
			"byteLength":1440,
			"byteOffset":31700
		},
		{
			"buffer":0,
			"byteLength":1920,
			"byteOffset":33140
		},
		{
			"buffer":0,
			"byteLength":1440,
			"byteOffset":35060
		},
		{
			"buffer":0,
			"byteLength":1920,
			"byteOffset":36500
		}
	],
	"samplers":[
		{
			"magFilter":9729,
			"minFilter":9987
		}
	],
	"buffers":[
		{
			"byteLength":38420,
			"uri":"Ceramic024.bin"
		}
	]
}
