{
	"asset":{
		"generator":"Khronos glTF Blender I/O v4.4.55",
		"version":"2.0"
	},
	"scene":0,
	"scenes":[
		{
			"name":"Scene",
			"nodes":[
				0,
				1,
				2,
				3,
				4,
				5
			]
		}
	],
	"nodes":[
		{
			"mesh":0,
			"name":"Ceramic006",
			"translation":[
				0.2912193834781647,
				-0.25783786177635193,
				-0.05554938316345215
			]
		},
		{
			"mesh":1,
			"name":"Ceramic006_001",
			"translation":[
				0.2677905261516571,
				-0.26405468583106995,
				-0.05903732404112816
			]
		},
		{
			"mesh":2,
			"name":"Ceramic006_002",
			"translation":[
				0.318977415561676,
				-0.2839895188808441,
				-0.05034271627664566
			]
		},
		{
			"mesh":3,
			"name":"Ceramic006_003",
			"translation":[
				0.28129854798316956,
				-0.3102846145629883,
				-0.06132043898105621
			]
		},
		{
			"mesh":4,
			"name":"Ceramic006_004",
			"translation":[
				0.25769248604774475,
				-0.2953416109085083,
				-0.05640687420964241
			]
		},
		{
			"mesh":5,
			"name":"Ceramic006_005",
			"translation":[
				0.30187705159187317,
				-0.30906015634536743,
				-0.06123887747526169
			]
		}
	],
	"animations":[
		{
			"channels":[
				{
					"sampler":0,
					"target":{
						"node":0,
						"path":"translation"
					}
				},
				{
					"sampler":1,
					"target":{
						"node":0,
						"path":"rotation"
					}
				}
			],
			"name":"Ceramic006Action",
			"samplers":[
				{
					"input":30,
					"interpolation":"LINEAR",
					"output":31
				},
				{
					"input":30,
					"interpolation":"LINEAR",
					"output":32
				}
			]
		},
		{
			"channels":[
				{
					"sampler":0,
					"target":{
						"node":1,
						"path":"translation"
					}
				},
				{
					"sampler":1,
					"target":{
						"node":1,
						"path":"rotation"
					}
				}
			],
			"name":"Ceramic006.001Action",
			"samplers":[
				{
					"input":30,
					"interpolation":"LINEAR",
					"output":33
				},
				{
					"input":30,
					"interpolation":"LINEAR",
					"output":34
				}
			]
		},
		{
			"channels":[
				{
					"sampler":0,
					"target":{
						"node":2,
						"path":"translation"
					}
				},
				{
					"sampler":1,
					"target":{
						"node":2,
						"path":"rotation"
					}
				}
			],
			"name":"Ceramic006.002Action",
			"samplers":[
				{
					"input":30,
					"interpolation":"LINEAR",
					"output":35
				},
				{
					"input":30,
					"interpolation":"LINEAR",
					"output":36
				}
			]
		},
		{
			"channels":[
				{
					"sampler":0,
					"target":{
						"node":3,
						"path":"translation"
					}
				},
				{
					"sampler":1,
					"target":{
						"node":3,
						"path":"rotation"
					}
				}
			],
			"name":"Ceramic006.003Action",
			"samplers":[
				{
					"input":30,
					"interpolation":"LINEAR",
					"output":37
				},
				{
					"input":30,
					"interpolation":"LINEAR",
					"output":38
				}
			]
		},
		{
			"channels":[
				{
					"sampler":0,
					"target":{
						"node":4,
						"path":"translation"
					}
				},
				{
					"sampler":1,
					"target":{
						"node":4,
						"path":"rotation"
					}
				}
			],
			"name":"Ceramic006.004Action",
			"samplers":[
				{
					"input":30,
					"interpolation":"LINEAR",
					"output":39
				},
				{
					"input":30,
					"interpolation":"LINEAR",
					"output":40
				}
			]
		},
		{
			"channels":[
				{
					"sampler":0,
					"target":{
						"node":5,
						"path":"translation"
					}
				},
				{
					"sampler":1,
					"target":{
						"node":5,
						"path":"rotation"
					}
				}
			],
			"name":"Ceramic006.005Action",
			"samplers":[
				{
					"input":30,
					"interpolation":"LINEAR",
					"output":41
				},
				{
					"input":30,
					"interpolation":"LINEAR",
					"output":42
				}
			]
		}
	],
	"materials":[
		{
			"doubleSided":true,
			"emissiveFactor":[
				1,
				1,
				1
			],
			"emissiveTexture":{
				"index":0
			},
			"name":"Harrow",
			"pbrMetallicRoughness":{
				"baseColorFactor":[
					0,
					0,
					0,
					1
				]
			}
		}
	],
	"meshes":[
		{
			"name":"Plane.048",
			"primitives":[
				{
					"attributes":{
						"POSITION":0,
						"NORMAL":1,
						"TEXCOORD_0":2,
						"TEXCOORD_1":3
					},
					"indices":4,
					"material":0
				}
			]
		},
		{
			"name":"Plane.097",
			"primitives":[
				{
					"attributes":{
						"POSITION":5,
						"NORMAL":6,
						"TEXCOORD_0":7,
						"TEXCOORD_1":8
					},
					"indices":9,
					"material":0
				}
			]
		},
		{
			"name":"Plane.098",
			"primitives":[
				{
					"attributes":{
						"POSITION":10,
						"NORMAL":11,
						"TEXCOORD_0":12,
						"TEXCOORD_1":13
					},
					"indices":14,
					"material":0
				}
			]
		},
		{
			"name":"Plane.099",
			"primitives":[
				{
					"attributes":{
						"POSITION":15,
						"NORMAL":16,
						"TEXCOORD_0":17,
						"TEXCOORD_1":18
					},
					"indices":19,
					"material":0
				}
			]
		},
		{
			"name":"Plane.100",
			"primitives":[
				{
					"attributes":{
						"POSITION":20,
						"NORMAL":21,
						"TEXCOORD_0":22,
						"TEXCOORD_1":23
					},
					"indices":24,
					"material":0
				}
			]
		},
		{
			"name":"Plane.101",
			"primitives":[
				{
					"attributes":{
						"POSITION":25,
						"NORMAL":26,
						"TEXCOORD_0":27,
						"TEXCOORD_1":28
					},
					"indices":29,
					"material":0
				}
			]
		}
	],
	"textures":[
		{
			"sampler":0,
			"source":0
		}
	],
	"images":[
		{
			"mimeType":"image/jpeg",
			"name":"BranaLP Diffuse Baked.jpg",
			"uri":"../tex/brana/BranaLP%20Diffuse%20Baked.jpg"
		}
	],
	"accessors":[
		{
			"bufferView":0,
			"componentType":5126,
			"count":125,
			"max":[
				0.030552702024579048,
				0.01276339404284954,
				0.01869868114590645
			],
			"min":[
				-0.007926198653876781,
				-0.018744472414255142,
				-0.02016947790980339
			],
			"type":"VEC3"
		},
		{
			"bufferView":1,
			"componentType":5126,
			"count":125,
			"type":"VEC3"
		},
		{
			"bufferView":2,
			"componentType":5126,
			"count":125,
			"type":"VEC2"
		},
		{
			"bufferView":3,
			"componentType":5126,
			"count":125,
			"type":"VEC2"
		},
		{
			"bufferView":4,
			"componentType":5123,
			"count":360,
			"type":"SCALAR"
		},
		{
			"bufferView":5,
			"componentType":5126,
			"count":177,
			"max":[
				0.015502670779824257,
				0.019279999658465385,
				0.015990156680345535
			],
			"min":[
				-0.034533336758613586,
				-0.024407384917140007,
				-0.017909802496433258
			],
			"type":"VEC3"
		},
		{
			"bufferView":6,
			"componentType":5126,
			"count":177,
			"type":"VEC3"
		},
		{
			"bufferView":7,
			"componentType":5126,
			"count":177,
			"type":"VEC2"
		},
		{
			"bufferView":8,
			"componentType":5126,
			"count":177,
			"type":"VEC2"
		},
		{
			"bufferView":9,
			"componentType":5123,
			"count":594,
			"type":"SCALAR"
		},
		{
			"bufferView":10,
			"componentType":5126,
			"count":148,
			"max":[
				0.047014784067869186,
				0.02808978222310543,
				0.02689976617693901
			],
			"min":[
				-0.035684213042259216,
				-0.026652807369828224,
				-0.015177405439317226
			],
			"type":"VEC3"
		},
		{
			"bufferView":11,
			"componentType":5126,
			"count":148,
			"type":"VEC3"
		},
		{
			"bufferView":12,
			"componentType":5126,
			"count":148,
			"type":"VEC2"
		},
		{
			"bufferView":13,
			"componentType":5126,
			"count":148,
			"type":"VEC2"
		},
		{
			"bufferView":14,
			"componentType":5123,
			"count":456,
			"type":"SCALAR"
		},
		{
			"bufferView":15,
			"componentType":5126,
			"count":125,
			"max":[
				0.013352504000067711,
				0.01961033046245575,
				0.010647308081388474
			],
			"min":[
				-0.033690787851810455,
				-0.032740913331508636,
				-0.0072848377749323845
			],
			"type":"VEC3"
		},
		{
			"bufferView":16,
			"componentType":5126,
			"count":125,
			"type":"VEC3"
		},
		{
			"bufferView":17,
			"componentType":5126,
			"count":125,
			"type":"VEC2"
		},
		{
			"bufferView":18,
			"componentType":5126,
			"count":125,
			"type":"VEC2"
		},
		{
			"bufferView":19,
			"componentType":5123,
			"count":372,
			"type":"SCALAR"
		},
		{
			"bufferView":20,
			"componentType":5126,
			"count":132,
			"max":[
				0.03524962067604065,
				0.016670845448970795,
				0.013478066772222519
			],
			"min":[
				-0.03571567311882973,
				-0.021062687039375305,
				-0.009637775830924511
			],
			"type":"VEC3"
		},
		{
			"bufferView":21,
			"componentType":5126,
			"count":132,
			"type":"VEC3"
		},
		{
			"bufferView":22,
			"componentType":5126,
			"count":132,
			"type":"VEC2"
		},
		{
			"bufferView":23,
			"componentType":5126,
			"count":132,
			"type":"VEC2"
		},
		{
			"bufferView":24,
			"componentType":5123,
			"count":384,
			"type":"SCALAR"
		},
		{
			"bufferView":25,
			"componentType":5126,
			"count":91,
			"max":[
				0.022540414705872536,
				0.017397359013557434,
				0.00918605551123619
			],
			"min":[
				-0.007376766763627529,
				-0.020668193697929382,
				-0.006356766447424889
			],
			"type":"VEC3"
		},
		{
			"bufferView":26,
			"componentType":5126,
			"count":91,
			"type":"VEC3"
		},
		{
			"bufferView":27,
			"componentType":5126,
			"count":91,
			"type":"VEC2"
		},
		{
			"bufferView":28,
			"componentType":5126,
			"count":91,
			"type":"VEC2"
		},
		{
			"bufferView":29,
			"componentType":5123,
			"count":252,
			"type":"SCALAR"
		},
		{
			"bufferView":30,
			"componentType":5126,
			"count":120,
			"max":[
				4
			],
			"min":[
				0.03333333333333333
			],
			"type":"SCALAR"
		},
		{
			"bufferView":31,
			"componentType":5126,
			"count":120,
			"type":"VEC3"
		},
		{
			"bufferView":32,
			"componentType":5126,
			"count":120,
			"type":"VEC4"
		},
		{
			"bufferView":33,
			"componentType":5126,
			"count":120,
			"type":"VEC3"
		},
		{
			"bufferView":34,
			"componentType":5126,
			"count":120,
			"type":"VEC4"
		},
		{
			"bufferView":35,
			"componentType":5126,
			"count":120,
			"type":"VEC3"
		},
		{
			"bufferView":36,
			"componentType":5126,
			"count":120,
			"type":"VEC4"
		},
		{
			"bufferView":37,
			"componentType":5126,
			"count":120,
			"type":"VEC3"
		},
		{
			"bufferView":38,
			"componentType":5126,
			"count":120,
			"type":"VEC4"
		},
		{
			"bufferView":39,
			"componentType":5126,
			"count":120,
			"type":"VEC3"
		},
		{
			"bufferView":40,
			"componentType":5126,
			"count":120,
			"type":"VEC4"
		},
		{
			"bufferView":41,
			"componentType":5126,
			"count":120,
			"type":"VEC3"
		},
		{
			"bufferView":42,
			"componentType":5126,
			"count":120,
			"type":"VEC4"
		}
	],
	"bufferViews":[
		{
			"buffer":0,
			"byteLength":1500,
			"byteOffset":0,
			"target":34962
		},
		{
			"buffer":0,
			"byteLength":1500,
			"byteOffset":1500,
			"target":34962
		},
		{
			"buffer":0,
			"byteLength":1000,
			"byteOffset":3000,
			"target":34962
		},
		{
			"buffer":0,
			"byteLength":1000,
			"byteOffset":4000,
			"target":34962
		},
		{
			"buffer":0,
			"byteLength":720,
			"byteOffset":5000,
			"target":34963
		},
		{
			"buffer":0,
			"byteLength":2124,
			"byteOffset":5720,
			"target":34962
		},
		{
			"buffer":0,
			"byteLength":2124,
			"byteOffset":7844,
			"target":34962
		},
		{
			"buffer":0,
			"byteLength":1416,
			"byteOffset":9968,
			"target":34962
		},
		{
			"buffer":0,
			"byteLength":1416,
			"byteOffset":11384,
			"target":34962
		},
		{
			"buffer":0,
			"byteLength":1188,
			"byteOffset":12800,
			"target":34963
		},
		{
			"buffer":0,
			"byteLength":1776,
			"byteOffset":13988,
			"target":34962
		},
		{
			"buffer":0,
			"byteLength":1776,
			"byteOffset":15764,
			"target":34962
		},
		{
			"buffer":0,
			"byteLength":1184,
			"byteOffset":17540,
			"target":34962
		},
		{
			"buffer":0,
			"byteLength":1184,
			"byteOffset":18724,
			"target":34962
		},
		{
			"buffer":0,
			"byteLength":912,
			"byteOffset":19908,
			"target":34963
		},
		{
			"buffer":0,
			"byteLength":1500,
			"byteOffset":20820,
			"target":34962
		},
		{
			"buffer":0,
			"byteLength":1500,
			"byteOffset":22320,
			"target":34962
		},
		{
			"buffer":0,
			"byteLength":1000,
			"byteOffset":23820,
			"target":34962
		},
		{
			"buffer":0,
			"byteLength":1000,
			"byteOffset":24820,
			"target":34962
		},
		{
			"buffer":0,
			"byteLength":744,
			"byteOffset":25820,
			"target":34963
		},
		{
			"buffer":0,
			"byteLength":1584,
			"byteOffset":26564,
			"target":34962
		},
		{
			"buffer":0,
			"byteLength":1584,
			"byteOffset":28148,
			"target":34962
		},
		{
			"buffer":0,
			"byteLength":1056,
			"byteOffset":29732,
			"target":34962
		},
		{
			"buffer":0,
			"byteLength":1056,
			"byteOffset":30788,
			"target":34962
		},
		{
			"buffer":0,
			"byteLength":768,
			"byteOffset":31844,
			"target":34963
		},
		{
			"buffer":0,
			"byteLength":1092,
			"byteOffset":32612,
			"target":34962
		},
		{
			"buffer":0,
			"byteLength":1092,
			"byteOffset":33704,
			"target":34962
		},
		{
			"buffer":0,
			"byteLength":728,
			"byteOffset":34796,
			"target":34962
		},
		{
			"buffer":0,
			"byteLength":728,
			"byteOffset":35524,
			"target":34962
		},
		{
			"buffer":0,
			"byteLength":504,
			"byteOffset":36252,
			"target":34963
		},
		{
			"buffer":0,
			"byteLength":480,
			"byteOffset":36756
		},
		{
			"buffer":0,
			"byteLength":1440,
			"byteOffset":37236
		},
		{
			"buffer":0,
			"byteLength":1920,
			"byteOffset":38676
		},
		{
			"buffer":0,
			"byteLength":1440,
			"byteOffset":40596
		},
		{
			"buffer":0,
			"byteLength":1920,
			"byteOffset":42036
		},
		{
			"buffer":0,
			"byteLength":1440,
			"byteOffset":43956
		},
		{
			"buffer":0,
			"byteLength":1920,
			"byteOffset":45396
		},
		{
			"buffer":0,
			"byteLength":1440,
			"byteOffset":47316
		},
		{
			"buffer":0,
			"byteLength":1920,
			"byteOffset":48756
		},
		{
			"buffer":0,
			"byteLength":1440,
			"byteOffset":50676
		},
		{
			"buffer":0,
			"byteLength":1920,
			"byteOffset":52116
		},
		{
			"buffer":0,
			"byteLength":1440,
			"byteOffset":54036
		},
		{
			"buffer":0,
			"byteLength":1920,
			"byteOffset":55476
		}
	],
	"samplers":[
		{
			"magFilter":9729,
			"minFilter":9987
		}
	],
	"buffers":[
		{
			"byteLength":57396,
			"uri":"Ceramic006.bin"
		}
	]
}
