{
	"asset":{
		"generator":"Khronos glTF Blender I/O v4.4.55",
		"version":"2.0"
	},
	"extensionsUsed":[
		"KHR_materials_specular"
	],
	"scene":0,
	"scenes":[
		{
			"name":"Scene",
			"nodes":[
				0,
				1,
				2,
				3,
				4
			]
		}
	],
	"nodes":[
		{
			"mesh":0,
			"name":"Ceramic014",
			"scale":[
				1.0611615180969238,
				1.0611615180969238,
				1.0611615180969238
			],
			"translation":[
				-0.04518648236989975,
				-0.12566913664340973,
				-0.05264690890908241
			]
		},
		{
			"mesh":1,
			"name":"Ceramic014_001",
			"scale":[
				1.0611615180969238,
				1.0611615180969238,
				1.0611615180969238
			],
			"translation":[
				-0.027019629254937172,
				-0.1068362295627594,
				-0.05331120267510414
			]
		},
		{
			"mesh":2,
			"name":"Ceramic014_002",
			"scale":[
				1.0611615180969238,
				1.0611615180969238,
				1.0611615180969238
			],
			"translation":[
				-0.021678047254681587,
				-0.13736367225646973,
				-0.0641665905714035
			]
		},
		{
			"mesh":3,
			"name":"Ceramic014_003",
			"scale":[
				1.0611615180969238,
				1.0611615180969238,
				1.0611615180969238
			],
			"translation":[
				-0.05726602301001549,
				-0.1051149070262909,
				-0.04865208640694618
			]
		},
		{
			"mesh":4,
			"name":"Ceramic014_004",
			"scale":[
				1.0611615180969238,
				1.0611615180969238,
				1.0611615180969238
			],
			"translation":[
				-0.055465273559093475,
				-0.07567887753248215,
				-0.05670342221856117
			]
		}
	],
	"animations":[
		{
			"channels":[
				{
					"sampler":0,
					"target":{
						"node":0,
						"path":"translation"
					}
				},
				{
					"sampler":1,
					"target":{
						"node":0,
						"path":"rotation"
					}
				}
			],
			"name":"Ceramic.036Action",
			"samplers":[
				{
					"input":25,
					"interpolation":"LINEAR",
					"output":26
				},
				{
					"input":25,
					"interpolation":"LINEAR",
					"output":27
				}
			]
		},
		{
			"channels":[
				{
					"sampler":0,
					"target":{
						"node":1,
						"path":"translation"
					}
				},
				{
					"sampler":1,
					"target":{
						"node":1,
						"path":"rotation"
					}
				}
			],
			"name":"Ceramic.025Action",
			"samplers":[
				{
					"input":25,
					"interpolation":"LINEAR",
					"output":28
				},
				{
					"input":25,
					"interpolation":"LINEAR",
					"output":29
				}
			]
		},
		{
			"channels":[
				{
					"sampler":0,
					"target":{
						"node":2,
						"path":"translation"
					}
				},
				{
					"sampler":1,
					"target":{
						"node":2,
						"path":"rotation"
					}
				}
			],
			"name":"Ceramic.026Action",
			"samplers":[
				{
					"input":25,
					"interpolation":"LINEAR",
					"output":30
				},
				{
					"input":25,
					"interpolation":"LINEAR",
					"output":31
				}
			]
		},
		{
			"channels":[
				{
					"sampler":0,
					"target":{
						"node":3,
						"path":"translation"
					}
				},
				{
					"sampler":1,
					"target":{
						"node":3,
						"path":"rotation"
					}
				}
			],
			"name":"Ceramic.027Action",
			"samplers":[
				{
					"input":25,
					"interpolation":"LINEAR",
					"output":32
				},
				{
					"input":25,
					"interpolation":"LINEAR",
					"output":33
				}
			]
		},
		{
			"channels":[
				{
					"sampler":0,
					"target":{
						"node":4,
						"path":"translation"
					}
				},
				{
					"sampler":1,
					"target":{
						"node":4,
						"path":"rotation"
					}
				}
			],
			"name":"Ceramic.028Action",
			"samplers":[
				{
					"input":25,
					"interpolation":"LINEAR",
					"output":34
				},
				{
					"input":25,
					"interpolation":"LINEAR",
					"output":35
				}
			]
		}
	],
	"materials":[
		{
			"doubleSided":true,
			"emissiveFactor":[
				1,
				1,
				1
			],
			"emissiveTexture":{
				"index":0
			},
			"extensions":{
				"KHR_materials_specular":{
					"specularTexture":{
						"index":1
					}
				}
			},
			"name":"BranaLP",
			"normalTexture":{
				"index":2
			},
			"pbrMetallicRoughness":{
				"baseColorTexture":{
					"index":3
				},
				"metallicRoughnessTexture":{
					"index":4
				},
				"roughnessFactor":0.5
			}
		}
	],
	"meshes":[
		{
			"name":"Plane.056",
			"primitives":[
				{
					"attributes":{
						"POSITION":0,
						"NORMAL":1,
						"TEXCOORD_0":2,
						"TEXCOORD_1":3
					},
					"indices":4,
					"material":0
				}
			]
		},
		{
			"name":"Plane.136",
			"primitives":[
				{
					"attributes":{
						"POSITION":5,
						"NORMAL":6,
						"TEXCOORD_0":7,
						"TEXCOORD_1":8
					},
					"indices":9,
					"material":0
				}
			]
		},
		{
			"name":"Plane.137",
			"primitives":[
				{
					"attributes":{
						"POSITION":10,
						"NORMAL":11,
						"TEXCOORD_0":12,
						"TEXCOORD_1":13
					},
					"indices":14,
					"material":0
				}
			]
		},
		{
			"name":"Plane.138",
			"primitives":[
				{
					"attributes":{
						"POSITION":15,
						"NORMAL":16,
						"TEXCOORD_0":17,
						"TEXCOORD_1":18
					},
					"indices":19,
					"material":0
				}
			]
		},
		{
			"name":"Plane.139",
			"primitives":[
				{
					"attributes":{
						"POSITION":20,
						"NORMAL":21,
						"TEXCOORD_0":22,
						"TEXCOORD_1":23
					},
					"indices":24,
					"material":0
				}
			]
		}
	],
	"textures":[
		{
			"sampler":0,
			"source":0
		},
		{
			"sampler":0,
			"source":1
		},
		{
			"sampler":0,
			"source":2
		},
		{
			"sampler":0,
			"source":3
		},
		{
			"sampler":0,
			"source":4
		}
	],
	"images":[
		{
			"mimeType":"image/jpeg",
			"name":"BranaLP Diffuse Baked.jpg",
			"uri":"../tex/brana/BranaLP%20Diffuse%20Baked.jpg"
		},
		{
			"mimeType":"image/jpeg",
			"name":"BranaLP Specular.jpg",
			"uri":"../tex/brana/BranaLP%20Specular.jpg"
		},
		{
			"mimeType":"image/jpeg",
			"name":"BranaLP Normal.jpg",
			"uri":"../tex/brana/BranaLP%20Normal.jpg"
		},
		{
			"mimeType":"image/jpeg",
			"name":"BranaLP Diffuse.jpg",
			"uri":"../tex/brana/BranaLP%20Diffuse.jpg"
		},
		{
			"mimeType":"image/jpeg",
			"name":"BranaLP Metallic.jpg",
			"uri":"../tex/brana/BranaLP%20Metallic.jpg"
		}
	],
	"accessors":[
		{
			"bufferView":0,
			"componentType":5126,
			"count":109,
			"max":[
				0.02736692689359188,
				0.016052816063165665,
				0.009479840286076069
			],
			"min":[
				-0.02484743855893612,
				-0.02080790139734745,
				-0.011935156770050526
			],
			"type":"VEC3"
		},
		{
			"bufferView":1,
			"componentType":5126,
			"count":109,
			"type":"VEC3"
		},
		{
			"bufferView":2,
			"componentType":5126,
			"count":109,
			"type":"VEC2"
		},
		{
			"bufferView":3,
			"componentType":5126,
			"count":109,
			"type":"VEC2"
		},
		{
			"bufferView":4,
			"componentType":5123,
			"count":306,
			"type":"SCALAR"
		},
		{
			"bufferView":5,
			"componentType":5126,
			"count":83,
			"max":[
				0.019876500591635704,
				0.020315663889050484,
				0.009437715634703636
			],
			"min":[
				-0.014460370875895023,
				-0.014320505782961845,
				-0.01238675694912672
			],
			"type":"VEC3"
		},
		{
			"bufferView":6,
			"componentType":5126,
			"count":83,
			"type":"VEC3"
		},
		{
			"bufferView":7,
			"componentType":5126,
			"count":83,
			"type":"VEC2"
		},
		{
			"bufferView":8,
			"componentType":5126,
			"count":83,
			"type":"VEC2"
		},
		{
			"bufferView":9,
			"componentType":5123,
			"count":228,
			"type":"SCALAR"
		},
		{
			"bufferView":10,
			"componentType":5126,
			"count":119,
			"max":[
				0.038675978779792786,
				0.02001435123383999,
				0.015175486914813519
			],
			"min":[
				-0.03426239639520645,
				-0.019509511068463326,
				-0.0283303614705801
			],
			"type":"VEC3"
		},
		{
			"bufferView":11,
			"componentType":5126,
			"count":119,
			"type":"VEC3"
		},
		{
			"bufferView":12,
			"componentType":5126,
			"count":119,
			"type":"VEC2"
		},
		{
			"bufferView":13,
			"componentType":5126,
			"count":119,
			"type":"VEC2"
		},
		{
			"bufferView":14,
			"componentType":5123,
			"count":348,
			"type":"SCALAR"
		},
		{
			"bufferView":15,
			"componentType":5126,
			"count":99,
			"max":[
				0.017780715599656105,
				0.02457800693809986,
				0.006750115193426609
			],
			"min":[
				-0.02275604009628296,
				-0.02258036844432354,
				-0.007045574486255646
			],
			"type":"VEC3"
		},
		{
			"bufferView":16,
			"componentType":5126,
			"count":99,
			"type":"VEC3"
		},
		{
			"bufferView":17,
			"componentType":5126,
			"count":99,
			"type":"VEC2"
		},
		{
			"bufferView":18,
			"componentType":5126,
			"count":99,
			"type":"VEC2"
		},
		{
			"bufferView":19,
			"componentType":5123,
			"count":276,
			"type":"SCALAR"
		},
		{
			"bufferView":20,
			"componentType":5126,
			"count":118,
			"max":[
				0.021970320492982864,
				0.04230542480945587,
				0.013097847811877728
			],
			"min":[
				-0.025674881413578987,
				-0.02763933688402176,
				-0.022845041006803513
			],
			"type":"VEC3"
		},
		{
			"bufferView":21,
			"componentType":5126,
			"count":118,
			"type":"VEC3"
		},
		{
			"bufferView":22,
			"componentType":5126,
			"count":118,
			"type":"VEC2"
		},
		{
			"bufferView":23,
			"componentType":5126,
			"count":118,
			"type":"VEC2"
		},
		{
			"bufferView":24,
			"componentType":5123,
			"count":342,
			"type":"SCALAR"
		},
		{
			"bufferView":25,
			"componentType":5126,
			"count":120,
			"max":[
				4
			],
			"min":[
				0.03333333333333333
			],
			"type":"SCALAR"
		},
		{
			"bufferView":26,
			"componentType":5126,
			"count":120,
			"type":"VEC3"
		},
		{
			"bufferView":27,
			"componentType":5126,
			"count":120,
			"type":"VEC4"
		},
		{
			"bufferView":28,
			"componentType":5126,
			"count":120,
			"type":"VEC3"
		},
		{
			"bufferView":29,
			"componentType":5126,
			"count":120,
			"type":"VEC4"
		},
		{
			"bufferView":30,
			"componentType":5126,
			"count":120,
			"type":"VEC3"
		},
		{
			"bufferView":31,
			"componentType":5126,
			"count":120,
			"type":"VEC4"
		},
		{
			"bufferView":32,
			"componentType":5126,
			"count":120,
			"type":"VEC3"
		},
		{
			"bufferView":33,
			"componentType":5126,
			"count":120,
			"type":"VEC4"
		},
		{
			"bufferView":34,
			"componentType":5126,
			"count":120,
			"type":"VEC3"
		},
		{
			"bufferView":35,
			"componentType":5126,
			"count":120,
			"type":"VEC4"
		}
	],
	"bufferViews":[
		{
			"buffer":0,
			"byteLength":1308,
			"byteOffset":0,
			"target":34962
		},
		{
			"buffer":0,
			"byteLength":1308,
			"byteOffset":1308,
			"target":34962
		},
		{
			"buffer":0,
			"byteLength":872,
			"byteOffset":2616,
			"target":34962
		},
		{
			"buffer":0,
			"byteLength":872,
			"byteOffset":3488,
			"target":34962
		},
		{
			"buffer":0,
			"byteLength":612,
			"byteOffset":4360,
			"target":34963
		},
		{
			"buffer":0,
			"byteLength":996,
			"byteOffset":4972,
			"target":34962
		},
		{
			"buffer":0,
			"byteLength":996,
			"byteOffset":5968,
			"target":34962
		},
		{
			"buffer":0,
			"byteLength":664,
			"byteOffset":6964,
			"target":34962
		},
		{
			"buffer":0,
			"byteLength":664,
			"byteOffset":7628,
			"target":34962
		},
		{
			"buffer":0,
			"byteLength":456,
			"byteOffset":8292,
			"target":34963
		},
		{
			"buffer":0,
			"byteLength":1428,
			"byteOffset":8748,
			"target":34962
		},
		{
			"buffer":0,
			"byteLength":1428,
			"byteOffset":10176,
			"target":34962
		},
		{
			"buffer":0,
			"byteLength":952,
			"byteOffset":11604,
			"target":34962
		},
		{
			"buffer":0,
			"byteLength":952,
			"byteOffset":12556,
			"target":34962
		},
		{
			"buffer":0,
			"byteLength":696,
			"byteOffset":13508,
			"target":34963
		},
		{
			"buffer":0,
			"byteLength":1188,
			"byteOffset":14204,
			"target":34962
		},
		{
			"buffer":0,
			"byteLength":1188,
			"byteOffset":15392,
			"target":34962
		},
		{
			"buffer":0,
			"byteLength":792,
			"byteOffset":16580,
			"target":34962
		},
		{
			"buffer":0,
			"byteLength":792,
			"byteOffset":17372,
			"target":34962
		},
		{
			"buffer":0,
			"byteLength":552,
			"byteOffset":18164,
			"target":34963
		},
		{
			"buffer":0,
			"byteLength":1416,
			"byteOffset":18716,
			"target":34962
		},
		{
			"buffer":0,
			"byteLength":1416,
			"byteOffset":20132,
			"target":34962
		},
		{
			"buffer":0,
			"byteLength":944,
			"byteOffset":21548,
			"target":34962
		},
		{
			"buffer":0,
			"byteLength":944,
			"byteOffset":22492,
			"target":34962
		},
		{
			"buffer":0,
			"byteLength":684,
			"byteOffset":23436,
			"target":34963
		},
		{
			"buffer":0,
			"byteLength":480,
			"byteOffset":24120
		},
		{
			"buffer":0,
			"byteLength":1440,
			"byteOffset":24600
		},
		{
			"buffer":0,
			"byteLength":1920,
			"byteOffset":26040
		},
		{
			"buffer":0,
			"byteLength":1440,
			"byteOffset":27960
		},
		{
			"buffer":0,
			"byteLength":1920,
			"byteOffset":29400
		},
		{
			"buffer":0,
			"byteLength":1440,
			"byteOffset":31320
		},
		{
			"buffer":0,
			"byteLength":1920,
			"byteOffset":32760
		},
		{
			"buffer":0,
			"byteLength":1440,
			"byteOffset":34680
		},
		{
			"buffer":0,
			"byteLength":1920,
			"byteOffset":36120
		},
		{
			"buffer":0,
			"byteLength":1440,
			"byteOffset":38040
		},
		{
			"buffer":0,
			"byteLength":1920,
			"byteOffset":39480
		}
	],
	"samplers":[
		{
			"magFilter":9729,
			"minFilter":9987
		}
	],
	"buffers":[
		{
			"byteLength":41400,
			"uri":"Ceramic014.bin"
		}
	]
}
