{
	"asset":{
		"generator":"Khronos glTF Blender I/O v4.4.55",
		"version":"2.0"
	},
	"scene":0,
	"scenes":[
		{
			"name":"Scene",
			"nodes":[
				0
			]
		}
	],
	"nodes":[
		{
			"mesh":0,
			"name":"Curtain",
			"translation":[
				1.440534234046936,
				-0.08295761048793793,
				-0.032514989376068115
			]
		}
	],
	"materials":[
		{
			"doubleSided":true,
			"emissiveFactor":[
				1,
				1,
				1
			],
			"emissiveTexture":{
				"index":0
			},
			"name":"Curtain",
			"pbrMetallicRoughness":{
				"baseColorFactor":[
					0,
					0,
					0,
					1
				]
			}
		}
	],
	"meshes":[
		{
			"name":"Plane.019",
			"primitives":[
				{
					"attributes":{
						"POSITION":0,
						"NORMAL":1,
						"TEXCOORD_0":2,
						"TEXCOORD_1":3
					},
					"indices":4,
					"material":0
				}
			]
		}
	],
	"textures":[
		{
			"sampler":0,
			"source":0
		}
	],
	"images":[
		{
			"mimeType":"image/jpeg",
			"name":"Curtain Diffuse Baked.jpg",
			"uri":"../tex/curtain/Curtain%20Diffuse%20Baked.jpg"
		}
	],
	"accessors":[
		{
			"bufferView":0,
			"componentType":5126,
			"count":4837,
			"max":[
				0.05730722099542618,
				0.8279626965522766,
				1.3383405208587646
			],
			"min":[
				-0.06078408658504486,
				-0.7402241230010986,
				-1.315017580986023
			],
			"type":"VEC3"
		},
		{
			"bufferView":1,
			"componentType":5126,
			"count":4837,
			"type":"VEC3"
		},
		{
			"bufferView":2,
			"componentType":5126,
			"count":4837,
			"type":"VEC2"
		},
		{
			"bufferView":3,
			"componentType":5126,
			"count":4837,
			"type":"VEC2"
		},
		{
			"bufferView":4,
			"componentType":5123,
			"count":14475,
			"type":"SCALAR"
		}
	],
	"bufferViews":[
		{
			"buffer":0,
			"byteLength":58044,
			"byteOffset":0,
			"target":34962
		},
		{
			"buffer":0,
			"byteLength":58044,
			"byteOffset":58044,
			"target":34962
		},
		{
			"buffer":0,
			"byteLength":38696,
			"byteOffset":116088,
			"target":34962
		},
		{
			"buffer":0,
			"byteLength":38696,
			"byteOffset":154784,
			"target":34962
		},
		{
			"buffer":0,
			"byteLength":28950,
			"byteOffset":193480,
			"target":34963
		}
	],
	"samplers":[
		{
			"magFilter":9729,
			"minFilter":9987
		}
	],
	"buffers":[
		{
			"byteLength":222432,
			"uri":"Curtain.bin"
		}
	]
}
