{
	"asset":{
		"generator":"Khronos glTF Blender I/O v4.4.55",
		"version":"2.0"
	},
	"scene":0,
	"scenes":[
		{
			"name":"Scene",
			"nodes":[
				5
			]
		}
	],
	"nodes":[
		{
			"name":"Bone.002",
			"rotation":[
				-0.09265648573637009,
				0.030500348657369614,
				-0.07280959188938141,
				0.9925640225410461
			],
			"scale":[
				0.9999998807907104,
				0.9999998807907104,
				0.9999998807907104
			],
			"translation":[
				-2.0489096641540527e-08,
				0.2697887420654297,
				-9.313225746154785e-09
			]
		},
		{
			"name":"Bone.003",
			"rotation":[
				-0.039876945316791534,
				0.05879431217908859,
				0.2679766118526459,
				0.9608025550842285
			],
			"scale":[
				0.9999999403953552,
				0.9999998211860657,
				0.9999999403953552
			],
			"translation":[
				0.03970356285572052,
				0.05852741003036499,
				-0.013373620808124542
			]
		},
		{
			"children":[
				0,
				1
			],
			"name":"Bone.001",
			"rotation":[
				0.14339564740657806,
				0.0011538463877514005,
				-0.596897304058075,
				0.7893984913825989
			],
			"scale":[
				0.9999998807907104,
				0.9999998807907104,
				1
			],
			"translation":[
				-3.498280420899391e-08,
				0.6169258952140808,
				-1.3969838619232178e-09
			]
		},
		{
			"children":[
				2
			],
			"name":"Bone",
			"rotation":[
				-0.014965809881687164,
				0.006749551743268967,
				-0.26368218660354614,
				0.9644699096679688
			],
			"translation":[
				-0.13258332014083862,
				-0.13244524598121643,
				-0.009526644833385944
			]
		},
		{
			"mesh":0,
			"name":"Flail",
			"skin":0
		},
		{
			"children":[
				4,
				3
			],
			"name":"Flail_Armature"
		}
	],
	"animations":[
		{
			"channels":[
				{
					"sampler":0,
					"target":{
						"node":3,
						"path":"translation"
					}
				},
				{
					"sampler":1,
					"target":{
						"node":3,
						"path":"rotation"
					}
				},
				{
					"sampler":2,
					"target":{
						"node":3,
						"path":"scale"
					}
				},
				{
					"sampler":3,
					"target":{
						"node":2,
						"path":"translation"
					}
				},
				{
					"sampler":4,
					"target":{
						"node":2,
						"path":"rotation"
					}
				},
				{
					"sampler":5,
					"target":{
						"node":2,
						"path":"scale"
					}
				},
				{
					"sampler":6,
					"target":{
						"node":0,
						"path":"translation"
					}
				},
				{
					"sampler":7,
					"target":{
						"node":0,
						"path":"rotation"
					}
				},
				{
					"sampler":8,
					"target":{
						"node":0,
						"path":"scale"
					}
				},
				{
					"sampler":9,
					"target":{
						"node":1,
						"path":"translation"
					}
				},
				{
					"sampler":10,
					"target":{
						"node":1,
						"path":"rotation"
					}
				},
				{
					"sampler":11,
					"target":{
						"node":1,
						"path":"scale"
					}
				}
			],
			"name":"ArmatureAction",
			"samplers":[
				{
					"input":11,
					"interpolation":"LINEAR",
					"output":12
				},
				{
					"input":11,
					"interpolation":"LINEAR",
					"output":13
				},
				{
					"input":14,
					"interpolation":"LINEAR",
					"output":15
				},
				{
					"input":14,
					"interpolation":"LINEAR",
					"output":16
				},
				{
					"input":11,
					"interpolation":"LINEAR",
					"output":17
				},
				{
					"input":14,
					"interpolation":"STEP",
					"output":18
				},
				{
					"input":14,
					"interpolation":"LINEAR",
					"output":19
				},
				{
					"input":11,
					"interpolation":"LINEAR",
					"output":20
				},
				{
					"input":14,
					"interpolation":"LINEAR",
					"output":21
				},
				{
					"input":11,
					"interpolation":"LINEAR",
					"output":22
				},
				{
					"input":11,
					"interpolation":"LINEAR",
					"output":23
				},
				{
					"input":14,
					"interpolation":"LINEAR",
					"output":24
				}
			]
		}
	],
	"materials":[
		{
			"doubleSided":true,
			"emissiveFactor":[
				1,
				1,
				1
			],
			"emissiveTexture":{
				"index":0
			},
			"name":"Flail",
			"pbrMetallicRoughness":{
				"baseColorFactor":[
					0,
					0,
					0,
					1
				]
			}
		}
	],
	"meshes":[
		{
			"name":"smooth shore crab.005",
			"primitives":[
				{
					"attributes":{
						"POSITION":0,
						"NORMAL":1,
						"TEXCOORD_0":2,
						"TEXCOORD_1":3,
						"TEXCOORD_2":4,
						"COLOR_0":5,
						"COLOR_1":6,
						"JOINTS_0":7,
						"WEIGHTS_0":8
					},
					"indices":9,
					"material":0
				}
			]
		}
	],
	"textures":[
		{
			"sampler":0,
			"source":0
		}
	],
	"images":[
		{
			"mimeType":"image/jpeg",
			"name":"Flail Diffuse Bake.jpg",
			"uri":"../tex/flail/Flail%20Diffuse%20Bake.jpg"
		}
	],
	"skins":[
		{
			"inverseBindMatrices":10,
			"joints":[
				3,
				2,
				0,
				1
			],
			"name":"Flail_Armature"
		}
	],
	"accessors":[
		{
			"bufferView":0,
			"componentType":5126,
			"count":78641,
			"max":[
				0.8629965782165527,
				0.45479822158813477,
				0.07652629911899567
			],
			"min":[
				-0.1537080556154251,
				-0.14535042643547058,
				-0.09420942515134811
			],
			"type":"VEC3"
		},
		{
			"bufferView":1,
			"componentType":5126,
			"count":78641,
			"type":"VEC3"
		},
		{
			"bufferView":2,
			"componentType":5126,
			"count":78641,
			"type":"VEC2"
		},
		{
			"bufferView":3,
			"componentType":5126,
			"count":78641,
			"type":"VEC2"
		},
		{
			"bufferView":4,
			"componentType":5126,
			"count":78641,
			"type":"VEC2"
		},
		{
			"bufferView":5,
			"componentType":5121,
			"count":78641,
			"normalized":true,
			"type":"VEC4"
		},
		{
			"bufferView":6,
			"componentType":5123,
			"count":78641,
			"normalized":true,
			"type":"VEC4"
		},
		{
			"bufferView":7,
			"componentType":5121,
			"count":78641,
			"type":"VEC4"
		},
		{
			"bufferView":8,
			"componentType":5126,
			"count":78641,
			"type":"VEC4"
		},
		{
			"bufferView":9,
			"componentType":5125,
			"count":175434,
			"type":"SCALAR"
		},
		{
			"bufferView":10,
			"componentType":5126,
			"count":4,
			"type":"MAT4"
		},
		{
			"bufferView":11,
			"componentType":5126,
			"count":70,
			"max":[
				2.3
			],
			"min":[
				0
			],
			"type":"SCALAR"
		},
		{
			"bufferView":12,
			"componentType":5126,
			"count":70,
			"type":"VEC3"
		},
		{
			"bufferView":13,
			"componentType":5126,
			"count":70,
			"type":"VEC4"
		},
		{
			"bufferView":14,
			"componentType":5126,
			"count":2,
			"max":[
				2.3
			],
			"min":[
				0
			],
			"type":"SCALAR"
		},
		{
			"bufferView":15,
			"componentType":5126,
			"count":2,
			"type":"VEC3"
		},
		{
			"bufferView":16,
			"componentType":5126,
			"count":2,
			"type":"VEC3"
		},
		{
			"bufferView":17,
			"componentType":5126,
			"count":70,
			"type":"VEC4"
		},
		{
			"bufferView":18,
			"componentType":5126,
			"count":2,
			"type":"VEC3"
		},
		{
			"bufferView":19,
			"componentType":5126,
			"count":2,
			"type":"VEC3"
		},
		{
			"bufferView":20,
			"componentType":5126,
			"count":70,
			"type":"VEC4"
		},
		{
			"bufferView":21,
			"componentType":5126,
			"count":2,
			"type":"VEC3"
		},
		{
			"bufferView":22,
			"componentType":5126,
			"count":70,
			"type":"VEC3"
		},
		{
			"bufferView":23,
			"componentType":5126,
			"count":70,
			"type":"VEC4"
		},
		{
			"bufferView":24,
			"componentType":5126,
			"count":2,
			"type":"VEC3"
		}
	],
	"bufferViews":[
		{
			"buffer":0,
			"byteLength":943692,
			"byteOffset":0,
			"target":34962
		},
		{
			"buffer":0,
			"byteLength":943692,
			"byteOffset":943692,
			"target":34962
		},
		{
			"buffer":0,
			"byteLength":629128,
			"byteOffset":1887384,
			"target":34962
		},
		{
			"buffer":0,
			"byteLength":629128,
			"byteOffset":2516512,
			"target":34962
		},
		{
			"buffer":0,
			"byteLength":629128,
			"byteOffset":3145640,
			"target":34962
		},
		{
			"buffer":0,
			"byteLength":314564,
			"byteOffset":3774768,
			"target":34962
		},
		{
			"buffer":0,
			"byteLength":629128,
			"byteOffset":4089332,
			"target":34962
		},
		{
			"buffer":0,
			"byteLength":314564,
			"byteOffset":4718460,
			"target":34962
		},
		{
			"buffer":0,
			"byteLength":1258256,
			"byteOffset":5033024,
			"target":34962
		},
		{
			"buffer":0,
			"byteLength":701736,
			"byteOffset":6291280,
			"target":34963
		},
		{
			"buffer":0,
			"byteLength":256,
			"byteOffset":6993016
		},
		{
			"buffer":0,
			"byteLength":280,
			"byteOffset":6993272
		},
		{
			"buffer":0,
			"byteLength":840,
			"byteOffset":6993552
		},
		{
			"buffer":0,
			"byteLength":1120,
			"byteOffset":6994392
		},
		{
			"buffer":0,
			"byteLength":8,
			"byteOffset":6995512
		},
		{
			"buffer":0,
			"byteLength":24,
			"byteOffset":6995520
		},
		{
			"buffer":0,
			"byteLength":24,
			"byteOffset":6995544
		},
		{
			"buffer":0,
			"byteLength":1120,
			"byteOffset":6995568
		},
		{
			"buffer":0,
			"byteLength":24,
			"byteOffset":6996688
		},
		{
			"buffer":0,
			"byteLength":24,
			"byteOffset":6996712
		},
		{
			"buffer":0,
			"byteLength":1120,
			"byteOffset":6996736
		},
		{
			"buffer":0,
			"byteLength":24,
			"byteOffset":6997856
		},
		{
			"buffer":0,
			"byteLength":840,
			"byteOffset":6997880
		},
		{
			"buffer":0,
			"byteLength":1120,
			"byteOffset":6998720
		},
		{
			"buffer":0,
			"byteLength":24,
			"byteOffset":6999840
		}
	],
	"samplers":[
		{
			"magFilter":9729,
			"minFilter":9987
		}
	],
	"buffers":[
		{
			"byteLength":6999864,
			"uri":"Flail.bin"
		}
	]
}
