{
	"asset":{
		"generator":"Khronos glTF Blender I/O v4.4.55",
		"version":"2.0"
	},
	"extensionsUsed":[
		"KHR_materials_specular"
	],
	"scene":0,
	"scenes":[
		{
			"name":"Scene",
			"nodes":[
				0
			]
		}
	],
	"nodes":[
		{
			"mesh":0,
			"name":"GroundLP"
		}
	],
	"materials":[
		{
			"doubleSided":true,
			"emissiveFactor":[
				1,
				1,
				1
			],
			"emissiveTexture":{
				"index":0
			},
			"extensions":{
				"KHR_materials_specular":{
					"specularTexture":{
						"index":1
					}
				}
			},
			"name":"Ground",
			"normalTexture":{
				"index":2,
				"scale":2
			},
			"pbrMetallicRoughness":{
				"baseColorTexture":{
					"index":3
				},
				"metallicFactor":0,
				"roughnessFactor":0.5
			}
		}
	],
	"meshes":[
		{
			"name":"Plane.017",
			"primitives":[
				{
					"attributes":{
						"POSITION":0,
						"NORMAL":1,
						"TEXCOORD_0":2
					},
					"indices":3,
					"material":0
				}
			]
		}
	],
	"textures":[
		{
			"sampler":0,
			"source":0
		},
		{
			"sampler":0,
			"source":1
		},
		{
			"sampler":0,
			"source":2
		},
		{
			"sampler":0,
			"source":3
		}
	],
	"images":[
		{
			"mimeType":"image/jpeg",
			"name":"ground_diffuse_bake",
			"uri":"../tex/ground/ground_diffuse_bake.jpg"
		},
		{
			"mimeType":"image/jpeg",
			"name":"ground_specularity",
			"uri":"../tex/ground/ground_specularity.jpg"
		},
		{
			"mimeType":"image/jpeg",
			"name":"ground_normal",
			"uri":"../tex/ground/ground_normal.jpg"
		},
		{
			"mimeType":"image/jpeg",
			"name":"ground_diffuse",
			"uri":"../tex/ground/ground_diffuse.jpg"
		}
	],
	"accessors":[
		{
			"bufferView":0,
			"componentType":5126,
			"count":5346,
			"max":[
				4.499996662139893,
				-1.2684309482574463,
				4.500001430511475
			],
			"min":[
				-4.500002384185791,
				-1.7386895418167114,
				-4.499998569488525
			],
			"type":"VEC3"
		},
		{
			"bufferView":1,
			"componentType":5126,
			"count":5346,
			"type":"VEC3"
		},
		{
			"bufferView":2,
			"componentType":5126,
			"count":5346,
			"type":"VEC2"
		},
		{
			"bufferView":3,
			"componentType":5123,
			"count":31443,
			"type":"SCALAR"
		}
	],
	"bufferViews":[
		{
			"buffer":0,
			"byteLength":64152,
			"byteOffset":0,
			"target":34962
		},
		{
			"buffer":0,
			"byteLength":64152,
			"byteOffset":64152,
			"target":34962
		},
		{
			"buffer":0,
			"byteLength":42768,
			"byteOffset":128304,
			"target":34962
		},
		{
			"buffer":0,
			"byteLength":62886,
			"byteOffset":171072,
			"target":34963
		}
	],
	"samplers":[
		{
			"magFilter":9729,
			"minFilter":9987
		}
	],
	"buffers":[
		{
			"byteLength":233960,
			"uri":"ground.bin"
		}
	]
}
