{
	"asset":{
		"generator":"Khronos glTF Blender I/O v4.4.55",
		"version":"2.0"
	},
	"scene":0,
	"scenes":[
		{
			"name":"Scene",
			"nodes":[
				0
			]
		}
	],
	"nodes":[
		{
			"mesh":0,
			"name":"Harrow"
		}
	],
	"materials":[
		{
			"doubleSided":true,
			"emissiveFactor":[
				1,
				1,
				1
			],
			"emissiveTexture":{
				"index":0
			},
			"name":"Harrow",
			"pbrMetallicRoughness":{
				"baseColorFactor":[
					0,
					0,
					0,
					1
				]
			}
		}
	],
	"meshes":[
		{
			"name":"Plane.043",
			"primitives":[
				{
					"attributes":{
						"POSITION":0,
						"NORMAL":1,
						"TEXCOORD_0":2,
						"TEXCOORD_1":3
					},
					"indices":4,
					"material":0
				}
			]
		}
	],
	"textures":[
		{
			"sampler":0,
			"source":0
		}
	],
	"images":[
		{
			"mimeType":"image/jpeg",
			"name":"BranaLP Diffuse Baked.jpg",
			"uri":"../tex/brana/BranaLP%20Diffuse%20Baked.jpg"
		}
	],
	"accessors":[
		{
			"bufferView":0,
			"componentType":5126,
			"count":13544,
			"max":[
				0.4682437479496002,
				0.5339427590370178,
				0.048875592648983
			],
			"min":[
				-0.44901043176651,
				-0.597495973110199,
				-0.19459491968154907
			],
			"type":"VEC3"
		},
		{
			"bufferView":1,
			"componentType":5126,
			"count":13544,
			"type":"VEC3"
		},
		{
			"bufferView":2,
			"componentType":5126,
			"count":13544,
			"type":"VEC2"
		},
		{
			"bufferView":3,
			"componentType":5126,
			"count":13544,
			"type":"VEC2"
		},
		{
			"bufferView":4,
			"componentType":5123,
			"count":65457,
			"type":"SCALAR"
		}
	],
	"bufferViews":[
		{
			"buffer":0,
			"byteLength":162528,
			"byteOffset":0,
			"target":34962
		},
		{
			"buffer":0,
			"byteLength":162528,
			"byteOffset":162528,
			"target":34962
		},
		{
			"buffer":0,
			"byteLength":108352,
			"byteOffset":325056,
			"target":34962
		},
		{
			"buffer":0,
			"byteLength":108352,
			"byteOffset":433408,
			"target":34962
		},
		{
			"buffer":0,
			"byteLength":130914,
			"byteOffset":541760,
			"target":34963
		}
	],
	"samplers":[
		{
			"magFilter":9729,
			"minFilter":9987
		}
	],
	"buffers":[
		{
			"byteLength":672676,
			"uri":"Harrow.bin"
		}
	]
}
