{
	"asset":{
		"generator":"Khronos glTF Blender I/O v4.4.55",
		"version":"2.0"
	},
	"scene":0,
	"scenes":[
		{
			"name":"Scene",
			"nodes":[
				0
			]
		}
	],
	"nodes":[
		{
			"mesh":0,
			"name":"Sickle",
			"rotation":[
				0.6208003759384155,
				-0.5579037666320801,
				-0.13575653731822968,
				0.5337794423103333
			],
			"translation":[
				0.016435444355010986,
				-0.02756035327911377,
				-0.16906791925430298
			]
		}
	],
	"animations":[
		{
			"channels":[
				{
					"sampler":0,
					"target":{
						"node":0,
						"path":"translation"
					}
				},
				{
					"sampler":1,
					"target":{
						"node":0,
						"path":"rotation"
					}
				},
				{
					"sampler":2,
					"target":{
						"node":0,
						"path":"scale"
					}
				}
			],
			"name":"SickleAction",
			"samplers":[
				{
					"input":6,
					"interpolation":"LINEAR",
					"output":7
				},
				{
					"input":6,
					"interpolation":"LINEAR",
					"output":8
				},
				{
					"input":9,
					"interpolation":"STEP",
					"output":10
				}
			]
		}
	],
	"materials":[
		{
			"doubleSided":true,
			"emissiveFactor":[
				1,
				1,
				1
			],
			"emissiveTexture":{
				"index":0
			},
			"name":"Sickle",
			"pbrMetallicRoughness":{
				"baseColorFactor":[
					0,
					0,
					0,
					1
				]
			}
		}
	],
	"meshes":[
		{
			"name":"Model.004",
			"primitives":[
				{
					"attributes":{
						"POSITION":0,
						"NORMAL":1,
						"TEXCOORD_0":2,
						"TEXCOORD_1":3,
						"TEXCOORD_2":4
					},
					"indices":5,
					"material":0
				}
			]
		}
	],
	"textures":[
		{
			"sampler":0,
			"source":0
		}
	],
	"images":[
		{
			"mimeType":"image/jpeg",
			"name":"Sickle Diffuse Bake.jpg",
			"uri":"../tex/sickle/Sickle%20Diffuse%20Bake.jpg"
		}
	],
	"accessors":[
		{
			"bufferView":0,
			"componentType":5126,
			"count":4288,
			"max":[
				0.04613291472196579,
				0.545609712600708,
				0.16785240173339844
			],
			"min":[
				-0.0513792522251606,
				-0.3945704698562622,
				-0.304261177778244
			],
			"type":"VEC3"
		},
		{
			"bufferView":1,
			"componentType":5126,
			"count":4288,
			"type":"VEC3"
		},
		{
			"bufferView":2,
			"componentType":5126,
			"count":4288,
			"type":"VEC2"
		},
		{
			"bufferView":3,
			"componentType":5126,
			"count":4288,
			"type":"VEC2"
		},
		{
			"bufferView":4,
			"componentType":5126,
			"count":4288,
			"type":"VEC2"
		},
		{
			"bufferView":5,
			"componentType":5123,
			"count":10698,
			"type":"SCALAR"
		},
		{
			"bufferView":6,
			"componentType":5126,
			"count":270,
			"max":[
				8.966666666666667
			],
			"min":[
				0
			],
			"type":"SCALAR"
		},
		{
			"bufferView":7,
			"componentType":5126,
			"count":270,
			"type":"VEC3"
		},
		{
			"bufferView":8,
			"componentType":5126,
			"count":270,
			"type":"VEC4"
		},
		{
			"bufferView":9,
			"componentType":5126,
			"count":2,
			"max":[
				8.966666666666667
			],
			"min":[
				0
			],
			"type":"SCALAR"
		},
		{
			"bufferView":10,
			"componentType":5126,
			"count":2,
			"type":"VEC3"
		}
	],
	"bufferViews":[
		{
			"buffer":0,
			"byteLength":51456,
			"byteOffset":0,
			"target":34962
		},
		{
			"buffer":0,
			"byteLength":51456,
			"byteOffset":51456,
			"target":34962
		},
		{
			"buffer":0,
			"byteLength":34304,
			"byteOffset":102912,
			"target":34962
		},
		{
			"buffer":0,
			"byteLength":34304,
			"byteOffset":137216,
			"target":34962
		},
		{
			"buffer":0,
			"byteLength":34304,
			"byteOffset":171520,
			"target":34962
		},
		{
			"buffer":0,
			"byteLength":21396,
			"byteOffset":205824,
			"target":34963
		},
		{
			"buffer":0,
			"byteLength":1080,
			"byteOffset":227220
		},
		{
			"buffer":0,
			"byteLength":3240,
			"byteOffset":228300
		},
		{
			"buffer":0,
			"byteLength":4320,
			"byteOffset":231540
		},
		{
			"buffer":0,
			"byteLength":8,
			"byteOffset":235860
		},
		{
			"buffer":0,
			"byteLength":24,
			"byteOffset":235868
		}
	],
	"samplers":[
		{
			"magFilter":9729,
			"minFilter":9987
		}
	],
	"buffers":[
		{
			"byteLength":235892,
			"uri":"Sickle.bin"
		}
	]
}
