{
	"asset":{
		"generator":"Khronos glTF Blender I/O v4.4.55",
		"version":"2.0"
	},
	"extensionsUsed":[
		"KHR_materials_specular"
	],
	"scene":0,
	"scenes":[
		{
			"name":"Scene",
			"nodes":[
				0
			]
		}
	],
	"nodes":[
		{
			"mesh":0,
			"name":"WallsLP"
		}
	],
	"materials":[
		{
			"doubleSided":true,
			"emissiveFactor":[
				1,
				1,
				1
			],
			"emissiveTexture":{
				"index":0
			},
			"extensions":{
				"KHR_materials_specular":{
					"specularTexture":{
						"index":1
					}
				}
			},
			"name":"Walls",
			"normalTexture":{
				"index":2
			},
			"pbrMetallicRoughness":{
				"baseColorTexture":{
					"index":3
				},
				"metallicFactor":0,
				"metallicRoughnessTexture":{
					"index":4
				}
			}
		}
	],
	"meshes":[
		{
			"name":"Circle.002",
			"primitives":[
				{
					"attributes":{
						"POSITION":0,
						"NORMAL":1,
						"TEXCOORD_0":2
					},
					"indices":3,
					"material":0
				}
			]
		}
	],
	"textures":[
		{
			"sampler":0,
			"source":0
		},
		{
			"sampler":0,
			"source":1
		},
		{
			"sampler":0,
			"source":2
		},
		{
			"sampler":0,
			"source":3
		},
		{
			"sampler":0,
			"source":4
		}
	],
	"images":[
		{
			"mimeType":"image/jpeg",
			"name":"walls_diffuse_bake",
			"uri":"../tex/walls/walls_diffuse_bake.jpg"
		},
		{
			"mimeType":"image/jpeg",
			"name":"walls_specularity",
			"uri":"../tex/walls/walls_specularity.jpg"
		},
		{
			"mimeType":"image/jpeg",
			"name":"walls_normal",
			"uri":"../tex/walls/walls_normal.jpg"
		},
		{
			"mimeType":"image/jpeg",
			"name":"walls_diffuse",
			"uri":"../tex/walls/walls_diffuse.jpg"
		},
		{
			"mimeType":"image/png",
			"name":"walls_roughness",
			"uri":"../tex/walls/walls_roughness.png"
		}
	],
	"accessors":[
		{
			"bufferView":0,
			"componentType":5126,
			"count":17408,
			"max":[
				1.5303891897201538,
				2.1280832290649414,
				1.7376513481140137
			],
			"min":[
				-1.7446730136871338,
				-1.5168275833129883,
				-1.531720519065857
			],
			"type":"VEC3"
		},
		{
			"bufferView":1,
			"componentType":5126,
			"count":17408,
			"type":"VEC3"
		},
		{
			"bufferView":2,
			"componentType":5126,
			"count":17408,
			"type":"VEC2"
		},
		{
			"bufferView":3,
			"componentType":5123,
			"count":28554,
			"type":"SCALAR"
		}
	],
	"bufferViews":[
		{
			"buffer":0,
			"byteLength":208896,
			"byteOffset":0,
			"target":34962
		},
		{
			"buffer":0,
			"byteLength":208896,
			"byteOffset":208896,
			"target":34962
		},
		{
			"buffer":0,
			"byteLength":139264,
			"byteOffset":417792,
			"target":34962
		},
		{
			"buffer":0,
			"byteLength":57108,
			"byteOffset":557056,
			"target":34963
		}
	],
	"samplers":[
		{
			"magFilter":9729,
			"minFilter":9987
		}
	],
	"buffers":[
		{
			"byteLength":614164,
			"uri":"walls.bin"
		}
	]
}
